<?xml version="1.0" encoding="UTF-8" standalone="no"?><svg xmlns="http://www.w3.org/2000/svg" xmlns:xlink="http://www.w3.org/1999/xlink" clip-rule="evenodd" stroke-miterlimit="4.00" viewBox="0 0 1920 1080"><desc>SVG generated by Keynote</desc><defs></defs><g transform="matrix(1.00, 0.00, -0.00, -1.00, 0.0, 1080.0)"><path d="M 0.0 1080.0 L 1920.0 1080.0 L 1920.0 0.0 L 0.0 0.0 Z M 0.0 1080.0 " fill="#FEFFFF"></path><path d="M 0.0 1080.0 L 1920.0 1080.0 L 1920.0 -0.0 L 0.0 -0.0 Z M 0.0 1080.0 " fill="#011202"></path><path d="M -0.0 542.5 L 1920.0 542.5 L 1920.0 537.5 L -0.0 537.5 Z M -0.0 542.5 " fill="#6FBF40"></path><g><clipPath id="clip-310"><path d="M 0.0 1080.0 L 1920.0 1080.0 L 1920.0 0.0 L 0.0 0.0 Z M 0.0 1080.0 "></path></clipPath><g clip-path="url(#clip-310)"><image xlink:href="../../43FA827E-A59F-4653-840A-9F81646B96F0/assets/4058DD2027C66F8FB4DCD9D63D2B9120.jpeg" width="1000.00" height="664.00" transform="matrix(1.92, 0.00, -0.00, -1.92, 0.0, 1177.0)"></image></g></g><g opacity="0.75"><g><clipPath id="clip-311"><path d="M 0.0 156.0 L 1920.0 156.0 L 1920.0 787.0 L 0.0 787.0 Z M 0.0 156.0 "></path></clipPath><g clip-path="url(#clip-311)"><path d="M 0.0 786.0 L 1929.8 786.0 L 1929.8 157.6 L 0.0 157.6 Z M 0.0 786.0 " fill="#000000"></path></g></g></g><path d="M 1775.0 1030.0 L 1875.0 1030.0 L 1875.0 961.0 L 1775.0 961.0 Z M 1775.0 1030.0 " fill="#52575F"></path><g><clipPath id="clip-312"><path d="M 1766.5 952.5 L 1883.5 952.5 L 1883.5 1038.5 L 1766.5 1038.5 Z M 1766.5 952.5 "></path></clipPath><g clip-path="url(#clip-312)"><text xml:space="preserve" font-family="BebasNeueBold" font-weight="bold" font-size="50.0" fill="#FEFFFF" transform="matrix(1.00, 0.00, -0.00, -1.00, 1805.0, 978.0)"> </text><text xml:space="preserve" font-family="BebasNeueBold" font-weight="bold" font-size="50.0" fill="#FEFFFF" transform="matrix(1.00, 0.00, -0.00, -1.00, 1805.0, 978.0)">3</text><text xml:space="preserve" font-family="BebasNeueBold" font-weight="bold" font-size="50.0" fill="#FEFFFF" transform="matrix(1.00, 0.00, -0.00, -1.00, 1824.8, 978.0)">7</text></g></g></g></svg>