<?xml version="1.0" encoding="UTF-8" standalone="no"?><svg xmlns="http://www.w3.org/2000/svg" xmlns:xlink="http://www.w3.org/1999/xlink" clip-rule="evenodd" stroke-miterlimit="4.00" viewBox="0 0 580 87"><desc>SVG generated by Keynote</desc><defs></defs><g transform="matrix(1.00, 0.00, -0.00, -1.00, 0.0, 87.0)"><text xml:space="preserve" font-family="BebasNeueBold" font-weight="bold" font-size="115.0" fill="#6FBF40" transform="matrix(1.00, 0.00, -0.00, -1.00, 0.0, 3.0)">v</text><text xml:space="preserve" font-family="BebasNeueBold" font-weight="bold" font-size="115.0" fill="#6FBF40" transform="matrix(1.00, 0.00, -0.00, -1.00, 46.2, 3.0)">e</text><text xml:space="preserve" font-family="BebasNeueBold" font-weight="bold" font-size="115.0" fill="#6FBF40" transform="matrix(1.00, 0.00, -0.00, -1.00, 88.6, 3.0)">r</text><text xml:space="preserve" font-family="BebasNeueBold" font-weight="bold" font-size="115.0" fill="#6FBF40" transform="matrix(1.00, 0.00, -0.00, -1.00, 134.8, 3.0)">s</text><text xml:space="preserve" font-family="BebasNeueBold" font-weight="bold" font-size="115.0" fill="#6FBF40" transform="matrix(1.00, 0.00, -0.00, -1.00, 177.8, 3.0)">i</text><text xml:space="preserve" font-family="BebasNeueBold" font-weight="bold" font-size="115.0" fill="#6FBF40" transform="matrix(1.00, 0.00, -0.00, -1.00, 199.6, 3.0)">o</text><text xml:space="preserve" font-family="BebasNeueBold" font-weight="bold" font-size="115.0" fill="#6FBF40" transform="matrix(1.00, 0.00, -0.00, -1.00, 245.2, 3.0)">n</text><text xml:space="preserve" font-family="BebasNeueBold" font-weight="bold" font-size="115.0" fill="#6FBF40" transform="matrix(1.00, 0.00, -0.00, -1.00, 294.3, 3.0)">a</text><text xml:space="preserve" font-family="BebasNeueBold" font-weight="bold" font-size="115.0" fill="#6FBF40" transform="matrix(1.00, 0.00, -0.00, -1.00, 341.1, 3.0)">m</text><text xml:space="preserve" font-family="BebasNeueBold" font-weight="bold" font-size="115.0" fill="#6FBF40" transform="matrix(1.00, 0.00, -0.00, -1.00, 403.3, 3.0)">e</text><text xml:space="preserve" font-family="BebasNeueBold" font-weight="bold" font-size="115.0" fill="#6FBF40" transform="matrix(1.00, 0.00, -0.00, -1.00, 445.6, 3.0)">n</text><text xml:space="preserve" font-family="BebasNeueBold" font-weight="bold" font-size="115.0" fill="#6FBF40" transform="matrix(1.00, 0.00, -0.00, -1.00, 494.7, 3.0)">t</text><text xml:space="preserve" font-family="BebasNeueBold" font-weight="bold" font-size="115.0" fill="#6FBF40" transform="matrix(1.00, 0.00, -0.00, -1.00, 535.7, 3.0)">o</text></g></svg>