<?xml version="1.0" encoding="UTF-8" standalone="no"?><svg xmlns="http://www.w3.org/2000/svg" xmlns:xlink="http://www.w3.org/1999/xlink" clip-rule="evenodd" stroke-miterlimit="4.00" viewBox="0 0 1920 1080"><desc>SVG generated by Keynote</desc><defs></defs><g transform="matrix(1.00, 0.00, -0.00, -1.00, 0.0, 1080.0)"><path d="M 0.0 1080.0 L 1920.0 1080.0 L 1920.0 0.0 L 0.0 0.0 Z M 0.0 1080.0 " fill="#FEFFFF"></path><path d="M 0.0 1080.0 L 1920.0 1080.0 L 1920.0 -0.0 L 0.0 -0.0 Z M 0.0 1080.0 " fill="#011202"></path><g opacity="0.20"><g><clipPath id="clip-295"><path d="M 0.0 1080.0 L 1920.0 1080.0 L 1920.0 0.0 L 0.0 0.0 Z M 0.0 1080.0 "></path></clipPath><g clip-path="url(#clip-295)"><g><clipPath id="clip-296"><path d="M 0.0 0.0 L 1920.0 0.0 L 1920.0 1080.0 L 0.0 1080.0 Z M 0.0 0.0 "></path></clipPath><g clip-path="url(#clip-296)"><image xlink:href="8F0CC47AB30B1A7E531046DB3262BAEE.png" width="720.00" height="540.00" transform="matrix(2.67, 0.00, -0.00, -2.67, 0.0, 1260.0)"></image></g></g></g></g></g><text xml:space="preserve" font-family="BebasNeueBold" font-weight="bold" font-size="115.0" fill="#6FBF40" transform="matrix(1.00, 0.00, -0.00, -1.00, 669.0, 428.0)">v</text><text xml:space="preserve" font-family="BebasNeueBold" font-weight="bold" font-size="115.0" fill="#6FBF40" transform="matrix(1.00, 0.00, -0.00, -1.00, 715.2, 428.0)">e</text><text xml:space="preserve" font-family="BebasNeueBold" font-weight="bold" font-size="115.0" fill="#6FBF40" transform="matrix(1.00, 0.00, -0.00, -1.00, 757.5, 428.0)">r</text><text xml:space="preserve" font-family="BebasNeueBold" font-weight="bold" font-size="115.0" fill="#6FBF40" transform="matrix(1.00, 0.00, -0.00, -1.00, 803.8, 428.0)">s</text><text xml:space="preserve" font-family="BebasNeueBold" font-weight="bold" font-size="115.0" fill="#6FBF40" transform="matrix(1.00, 0.00, -0.00, -1.00, 846.8, 428.0)">i</text><text xml:space="preserve" font-family="BebasNeueBold" font-weight="bold" font-size="115.0" fill="#6FBF40" transform="matrix(1.00, 0.00, -0.00, -1.00, 868.6, 428.0)">o</text><text xml:space="preserve" font-family="BebasNeueBold" font-weight="bold" font-size="115.0" fill="#6FBF40" transform="matrix(1.00, 0.00, -0.00, -1.00, 914.2, 428.0)">n</text><text xml:space="preserve" font-family="BebasNeueBold" font-weight="bold" font-size="115.0" fill="#6FBF40" transform="matrix(1.00, 0.00, -0.00, -1.00, 963.3, 428.0)">a</text><text xml:space="preserve" font-family="BebasNeueBold" font-weight="bold" font-size="115.0" fill="#6FBF40" transform="matrix(1.00, 0.00, -0.00, -1.00, 1010.1, 428.0)">m</text><text xml:space="preserve" font-family="BebasNeueBold" font-weight="bold" font-size="115.0" fill="#6FBF40" transform="matrix(1.00, 0.00, -0.00, -1.00, 1072.3, 428.0)">e</text><text xml:space="preserve" font-family="BebasNeueBold" font-weight="bold" font-size="115.0" fill="#6FBF40" transform="matrix(1.00, 0.00, -0.00, -1.00, 1114.6, 428.0)">n</text><text xml:space="preserve" font-family="BebasNeueBold" font-weight="bold" font-size="115.0" fill="#6FBF40" transform="matrix(1.00, 0.00, -0.00, -1.00, 1163.7, 428.0)">t</text><text xml:space="preserve" font-family="BebasNeueBold" font-weight="bold" font-size="115.0" fill="#6FBF40" transform="matrix(1.00, 0.00, -0.00, -1.00, 1204.7, 428.0)">o</text><text xml:space="preserve" font-family="SourceSansPro-Regular" font-size="49.0" fill="#FEFFFF" transform="matrix(1.00, 0.00, -0.00, -1.00, 517.0, 347.0)">P</text><text xml:space="preserve" font-family="SourceSansPro-Regular" font-size="49.0" fill="#FEFFFF" transform="matrix(1.00, 0.00, -0.00, -1.00, 544.7, 347.0)">r</text><text xml:space="preserve" font-family="SourceSansPro-Regular" font-size="49.0" fill="#FEFFFF" transform="matrix(1.00, 0.00, -0.00, -1.00, 560.6, 347.0)">a</text><text xml:space="preserve" font-family="SourceSansPro-Regular" font-size="49.0" fill="#FEFFFF" transform="matrix(1.00, 0.00, -0.00, -1.00, 584.6, 347.0)">t</text><text xml:space="preserve" font-family="SourceSansPro-Regular" font-size="49.0" fill="#FEFFFF" transform="matrix(1.00, 0.00, -0.00, -1.00, 601.1, 347.0)">i</text><text xml:space="preserve" font-family="SourceSansPro-Regular" font-size="49.0" fill="#FEFFFF" transform="matrix(1.00, 0.00, -0.00, -1.00, 613.2, 347.0)">c</text><text xml:space="preserve" font-family="SourceSansPro-Regular" font-size="49.0" fill="#FEFFFF" transform="matrix(1.00, 0.00, -0.00, -1.00, 635.0, 347.0)">a</text><text xml:space="preserve" font-family="SourceSansPro-Regular" font-size="49.0" fill="#FEFFFF" transform="matrix(1.00, 0.00, -0.00, -1.00, 659.7, 347.0)">m</text><text xml:space="preserve" font-family="SourceSansPro-Regular" font-size="49.0" fill="#FEFFFF" transform="matrix(1.00, 0.00, -0.00, -1.00, 700.4, 347.0)">e</text><text xml:space="preserve" font-family="SourceSansPro-Regular" font-size="49.0" fill="#FEFFFF" transform="matrix(1.00, 0.00, -0.00, -1.00, 724.7, 347.0)">n</text><text xml:space="preserve" font-family="SourceSansPro-Regular" font-size="49.0" fill="#FEFFFF" transform="matrix(1.00, 0.00, -0.00, -1.00, 751.5, 347.0)">t</text><text xml:space="preserve" font-family="SourceSansPro-Regular" font-size="49.0" fill="#FEFFFF" transform="matrix(1.00, 0.00, -0.00, -1.00, 767.3, 347.0)">e</text><text xml:space="preserve" font-family="SourceSansPro-Regular" font-size="49.0" fill="#FEFFFF" transform="matrix(1.00, 0.00, -0.00, -1.00, 791.6, 347.0)"> </text><text xml:space="preserve" font-family="SourceSansPro-Regular" font-size="49.0" fill="#FEFFFF" transform="matrix(1.00, 0.00, -0.00, -1.00, 801.4, 347.0)">u</text><text xml:space="preserve" font-family="SourceSansPro-Regular" font-size="49.0" fill="#FEFFFF" transform="matrix(1.00, 0.00, -0.00, -1.00, 828.1, 347.0)">m</text><text xml:space="preserve" font-family="SourceSansPro-Regular" font-size="49.0" fill="#FEFFFF" transform="matrix(1.00, 0.00, -0.00, -1.00, 868.7, 347.0)">a</text><text xml:space="preserve" font-family="SourceSansPro-Regular" font-size="49.0" fill="#FEFFFF" transform="matrix(1.00, 0.00, -0.00, -1.00, 893.4, 347.0)"> </text><text xml:space="preserve" font-family="SourceSansPro-Regular" font-size="49.0" fill="#FEFFFF" transform="matrix(1.00, 0.00, -0.00, -1.00, 903.2, 347.0)">o</text><text xml:space="preserve" font-family="SourceSansPro-Regular" font-size="49.0" fill="#FEFFFF" transform="matrix(1.00, 0.00, -0.00, -1.00, 929.8, 347.0)">b</text><text xml:space="preserve" font-family="SourceSansPro-Regular" font-size="49.0" fill="#FEFFFF" transform="matrix(1.00, 0.00, -0.00, -1.00, 956.9, 347.0)">r</text><text xml:space="preserve" font-family="SourceSansPro-Regular" font-size="49.0" fill="#FEFFFF" transform="matrix(1.00, 0.00, -0.00, -1.00, 973.9, 347.0)">i</text><text xml:space="preserve" font-family="SourceSansPro-Regular" font-size="49.0" fill="#FEFFFF" transform="matrix(1.00, 0.00, -0.00, -1.00, 985.9, 347.0)">g</text><text xml:space="preserve" font-family="SourceSansPro-Regular" font-size="49.0" fill="#FEFFFF" transform="matrix(1.00, 0.00, -0.00, -1.00, 1009.8, 347.0)">a</text><text xml:space="preserve" font-family="SourceSansPro-Regular" font-size="49.0" fill="#FEFFFF" transform="matrix(1.00, 0.00, -0.00, -1.00, 1034.5, 347.0)">รง</text><text xml:space="preserve" font-family="SourceSansPro-Regular" font-size="49.0" fill="#FEFFFF" transform="matrix(1.00, 0.00, -0.00, -1.00, 1056.4, 347.0)">รฃ</text><text xml:space="preserve" font-family="SourceSansPro-Regular" font-size="49.0" fill="#FEFFFF" transform="matrix(1.00, 0.00, -0.00, -1.00, 1081.1, 347.0)">o</text><text xml:space="preserve" font-family="SourceSansPro-Regular" font-size="49.0" fill="#FEFFFF" transform="matrix(1.00, 0.00, -0.00, -1.00, 1107.6, 347.0)"> </text><text xml:space="preserve" font-family="SourceSansPro-Regular" font-size="49.0" fill="#FEFFFF" transform="matrix(1.00, 0.00, -0.00, -1.00, 1117.4, 347.0)">p</text><text xml:space="preserve" font-family="SourceSansPro-Regular" font-size="49.0" fill="#FEFFFF" transform="matrix(1.00, 0.00, -0.00, -1.00, 1144.0, 347.0)">a</text><text xml:space="preserve" font-family="SourceSansPro-Regular" font-size="49.0" fill="#FEFFFF" transform="matrix(1.00, 0.00, -0.00, -1.00, 1168.7, 347.0)">r</text><text xml:space="preserve" font-family="SourceSansPro-Regular" font-size="49.0" fill="#FEFFFF" transform="matrix(1.00, 0.00, -0.00, -1.00, 1184.5, 347.0)">a</text><text xml:space="preserve" font-family="SourceSansPro-Regular" font-size="49.0" fill="#FEFFFF" transform="matrix(1.00, 0.00, -0.00, -1.00, 1209.2, 347.0)"> </text><text xml:space="preserve" font-family="SourceSansPro-Regular" font-size="49.0" fill="#FEFFFF" transform="matrix(1.00, 0.00, -0.00, -1.00, 1219.0, 347.0)">t</text><text xml:space="preserve" font-family="SourceSansPro-Regular" font-size="49.0" fill="#FEFFFF" transform="matrix(1.00, 0.00, -0.00, -1.00, 1234.8, 347.0)">o</text><text xml:space="preserve" font-family="SourceSansPro-Regular" font-size="49.0" fill="#FEFFFF" transform="matrix(1.00, 0.00, -0.00, -1.00, 1261.4, 347.0)">d</text><text xml:space="preserve" font-family="SourceSansPro-Regular" font-size="49.0" fill="#FEFFFF" transform="matrix(1.00, 0.00, -0.00, -1.00, 1288.6, 347.0)">a</text><text xml:space="preserve" font-family="SourceSansPro-Regular" font-size="49.0" fill="#FEFFFF" transform="matrix(1.00, 0.00, -0.00, -1.00, 1313.3, 347.0)"> </text><text xml:space="preserve" font-family="SourceSansPro-Regular" font-size="49.0" fill="#FEFFFF" transform="matrix(1.00, 0.00, -0.00, -1.00, 1323.1, 347.0)">A</text><text xml:space="preserve" font-family="SourceSansPro-Regular" font-size="49.0" fill="#FEFFFF" transform="matrix(1.00, 0.00, -0.00, -1.00, 1349.8, 347.0)">P</text><text xml:space="preserve" font-family="SourceSansPro-Regular" font-size="49.0" fill="#FEFFFF" transform="matrix(1.00, 0.00, -0.00, -1.00, 1377.5, 347.0)">I</text><text xml:space="preserve" font-family="SourceSansPro-Regular" font-size="49.0" fill="#FEFFFF" transform="matrix(1.00, 0.00, -0.00, -1.00, 1390.4, 347.0)">.</text><path d="M 1775.0 1030.0 L 1875.0 1030.0 L 1875.0 961.0 L 1775.0 961.0 Z M 1775.0 1030.0 " fill="#52575F"></path><g><clipPath id="clip-297"><path d="M 1766.5 952.5 L 1883.5 952.5 L 1883.5 1038.5 L 1766.5 1038.5 Z M 1766.5 952.5 "></path></clipPath><g clip-path="url(#clip-297)"><text xml:space="preserve" font-family="BebasNeueBold" font-weight="bold" font-size="50.0" fill="#FEFFFF" transform="matrix(1.00, 0.00, -0.00, -1.00, 1805.0, 978.0)"> </text><text xml:space="preserve" font-family="BebasNeueBold" font-weight="bold" font-size="50.0" fill="#FEFFFF" transform="matrix(1.00, 0.00, -0.00, -1.00, 1805.0, 978.0)">3</text><text xml:space="preserve" font-family="BebasNeueBold" font-weight="bold" font-size="50.0" fill="#FEFFFF" transform="matrix(1.00, 0.00, -0.00, -1.00, 1824.8, 978.0)">6</text></g></g></g></svg>