<?xml version="1.0" encoding="UTF-8" standalone="no"?><svg xmlns="http://www.w3.org/2000/svg" xmlns:xlink="http://www.w3.org/1999/xlink" clip-rule="evenodd" stroke-miterlimit="4.00" viewBox="0 0 265 143"><desc>SVG generated by Keynote</desc><defs></defs><g transform="matrix(1.00, 0.00, -0.00, -1.00, 0.0, 143.0)"><text xml:space="preserve" font-family="BebasNeueBold" font-weight="bold" font-size="90.0" fill="#6FBF40" transform="matrix(1.00, 0.00, -0.00, -1.00, 129.3, 78.5)">t</text><text xml:space="preserve" font-family="BebasNeueBold" font-weight="bold" font-size="90.0" fill="#6FBF40" transform="matrix(1.00, 0.00, -0.00, -1.00, 161.3, 78.5)">y</text><text xml:space="preserve" font-family="BebasNeueBold" font-weight="bold" font-size="90.0" fill="#6FBF40" transform="matrix(1.00, 0.00, -0.00, -1.00, 197.0, 78.5)">p</text><text xml:space="preserve" font-family="BebasNeueBold" font-weight="bold" font-size="90.0" fill="#6FBF40" transform="matrix(1.00, 0.00, -0.00, -1.00, 230.9, 78.5)">e</text><text xml:space="preserve" font-family="BebasNeueBold" font-weight="bold" font-size="90.0" fill="#6FBF40" transform="matrix(1.00, 0.00, -0.00, -1.00, 264.0, 78.5)"> </text><text xml:space="preserve" font-family="BebasNeueBold" font-weight="bold" font-size="90.0" fill="#6FBF40" transform="matrix(1.00, 0.00, -0.00, -1.00, -1.6, 2.2)">c</text><text xml:space="preserve" font-family="BebasNeueBold" font-weight="bold" font-size="90.0" fill="#6FBF40" transform="matrix(1.00, 0.00, -0.00, -1.00, 33.1, 2.2)">o</text><text xml:space="preserve" font-family="BebasNeueBold" font-weight="bold" font-size="90.0" fill="#6FBF40" transform="matrix(1.00, 0.00, -0.00, -1.00, 68.8, 2.2)">e</text><text xml:space="preserve" font-family="BebasNeueBold" font-weight="bold" font-size="90.0" fill="#6FBF40" transform="matrix(1.00, 0.00, -0.00, -1.00, 101.9, 2.2)">r</text><text xml:space="preserve" font-family="BebasNeueBold" font-weight="bold" font-size="90.0" fill="#6FBF40" transform="matrix(1.00, 0.00, -0.00, -1.00, 138.1, 2.2)">c</text><text xml:space="preserve" font-family="BebasNeueBold" font-weight="bold" font-size="90.0" fill="#6FBF40" transform="matrix(1.00, 0.00, -0.00, -1.00, 172.8, 2.2)">i</text><text xml:space="preserve" font-family="BebasNeueBold" font-weight="bold" font-size="90.0" fill="#6FBF40" transform="matrix(1.00, 0.00, -0.00, -1.00, 189.9, 2.2)">o</text><text xml:space="preserve" font-family="BebasNeueBold" font-weight="bold" font-size="90.0" fill="#6FBF40" transform="matrix(1.00, 0.00, -0.00, -1.00, 225.6, 2.2)">n</text></g></svg>