<?xml version="1.0" encoding="UTF-8" standalone="no"?><svg xmlns="http://www.w3.org/2000/svg" xmlns:xlink="http://www.w3.org/1999/xlink" clip-rule="evenodd" stroke-miterlimit="4.00" viewBox="0 0 1920 1080"><desc>SVG generated by Keynote</desc><defs></defs><g transform="matrix(1.00, 0.00, -0.00, -1.00, 0.0, 1080.0)"><path d="M 0.0 1080.0 L 1920.0 1080.0 L 1920.0 0.0 L 0.0 0.0 Z M 0.0 1080.0 " fill="#FEFFFF"></path><path d="M 0.0 1080.0 L 1920.0 1080.0 L 1920.0 -0.0 L 0.0 -0.0 Z M 0.0 1080.0 " fill="#011202"></path><g opacity="0.20"><g><clipPath id="clip-219"><path d="M 0.0 1080.0 L 1920.0 1080.0 L 1920.0 0.0 L 0.0 0.0 Z M 0.0 1080.0 "></path></clipPath><g clip-path="url(#clip-219)"><g><clipPath id="clip-220"><path d="M 0.0 0.0 L 1920.0 0.0 L 1920.0 1080.0 L 0.0 1080.0 Z M 0.0 0.0 "></path></clipPath><g clip-path="url(#clip-220)"><image xlink:href="../../49B0041F-D2B6-45AE-B257-4A439451C92F/assets/23497D77A7F06362AFD4423070F345EA.jpeg" width="1366.00" height="768.00" transform="matrix(1.41, 0.00, -0.00, -1.41, 0.0, 1080.0)"></image></g></g></g></g></g><text xml:space="preserve" font-family="BebasNeueBold" font-weight="bold" font-size="115.0" fill="#6FBF40" transform="matrix(1.00, 0.00, -0.00, -1.00, 736.0, 428.0)">r</text><text xml:space="preserve" font-family="BebasNeueBold" font-weight="bold" font-size="115.0" fill="#6FBF40" transform="matrix(1.00, 0.00, -0.00, -1.00, 782.2, 428.0)">e</text><text xml:space="preserve" font-family="BebasNeueBold" font-weight="bold" font-size="115.0" fill="#6FBF40" transform="matrix(1.00, 0.00, -0.00, -1.00, 824.5, 428.0)">s</text><text xml:space="preserve" font-family="BebasNeueBold" font-weight="bold" font-size="115.0" fill="#6FBF40" transform="matrix(1.00, 0.00, -0.00, -1.00, 867.6, 428.0)">p</text><text xml:space="preserve" font-family="BebasNeueBold" font-weight="bold" font-size="115.0" fill="#6FBF40" transform="matrix(1.00, 0.00, -0.00, -1.00, 910.9, 428.0)">o</text><text xml:space="preserve" font-family="BebasNeueBold" font-weight="bold" font-size="115.0" fill="#6FBF40" transform="matrix(1.00, 0.00, -0.00, -1.00, 956.5, 428.0)">n</text><text xml:space="preserve" font-family="BebasNeueBold" font-weight="bold" font-size="115.0" fill="#6FBF40" transform="matrix(1.00, 0.00, -0.00, -1.00, 1005.6, 428.0)">d</text><text xml:space="preserve" font-family="BebasNeueBold" font-weight="bold" font-size="115.0" fill="#6FBF40" transform="matrix(1.00, 0.00, -0.00, -1.00, 1052.5, 428.0)">e</text><text xml:space="preserve" font-family="BebasNeueBold" font-weight="bold" font-size="115.0" fill="#6FBF40" transform="matrix(1.00, 0.00, -0.00, -1.00, 1094.8, 428.0)">r</text><text xml:space="preserve" font-family="BebasNeueBold" font-weight="bold" font-size="115.0" fill="#6FBF40" transform="matrix(1.00, 0.00, -0.00, -1.00, 1141.0, 428.0)">s</text><text xml:space="preserve" font-family="SourceSansPro-Regular" font-size="44.1" fill="#FEFFFF" transform="matrix(1.00, 0.00, -0.00, -1.00, 304.0, 352.0)">R</text><text xml:space="preserve" font-family="SourceSansPro-Regular" font-size="44.1" fill="#FEFFFF" transform="matrix(1.00, 0.00, -0.00, -1.00, 328.7, 352.0)">e</text><text xml:space="preserve" font-family="SourceSansPro-Regular" font-size="44.1" fill="#FEFFFF" transform="matrix(1.00, 0.00, -0.00, -1.00, 350.5, 352.0)">s</text><text xml:space="preserve" font-family="SourceSansPro-Regular" font-size="44.1" fill="#FEFFFF" transform="matrix(1.00, 0.00, -0.00, -1.00, 369.0, 352.0)">p</text><text xml:space="preserve" font-family="SourceSansPro-Regular" font-size="44.1" fill="#FEFFFF" transform="matrix(1.00, 0.00, -0.00, -1.00, 393.5, 352.0)">o</text><text xml:space="preserve" font-family="SourceSansPro-Regular" font-size="44.1" fill="#FEFFFF" transform="matrix(1.00, 0.00, -0.00, -1.00, 417.4, 352.0)">n</text><text xml:space="preserve" font-family="SourceSansPro-Regular" font-size="44.1" fill="#FEFFFF" transform="matrix(1.00, 0.00, -0.00, -1.00, 441.5, 352.0)">s</text><text xml:space="preserve" font-family="SourceSansPro-Regular" font-size="44.1" fill="#FEFFFF" transform="matrix(1.00, 0.00, -0.00, -1.00, 460.0, 352.0)">á</text><text xml:space="preserve" font-family="SourceSansPro-Regular" font-size="44.1" fill="#FEFFFF" transform="matrix(1.00, 0.00, -0.00, -1.00, 482.2, 352.0)">v</text><text xml:space="preserve" font-family="SourceSansPro-Regular" font-size="44.1" fill="#FEFFFF" transform="matrix(1.00, 0.00, -0.00, -1.00, 502.6, 352.0)">e</text><text xml:space="preserve" font-family="SourceSansPro-Regular" font-size="44.1" fill="#FEFFFF" transform="matrix(1.00, 0.00, -0.00, -1.00, 524.5, 352.0)">i</text><text xml:space="preserve" font-family="SourceSansPro-Regular" font-size="44.1" fill="#FEFFFF" transform="matrix(1.00, 0.00, -0.00, -1.00, 535.3, 352.0)">s</text><text xml:space="preserve" font-family="SourceSansPro-Regular" font-size="44.1" fill="#FEFFFF" transform="matrix(1.00, 0.00, -0.00, -1.00, 553.8, 352.0)"> </text><text xml:space="preserve" font-family="SourceSansPro-Regular" font-size="44.1" fill="#FEFFFF" transform="matrix(1.00, 0.00, -0.00, -1.00, 562.6, 352.0)">p</text><text xml:space="preserve" font-family="SourceSansPro-Regular" font-size="44.1" fill="#FEFFFF" transform="matrix(1.00, 0.00, -0.00, -1.00, 587.1, 352.0)">o</text><text xml:space="preserve" font-family="SourceSansPro-Regular" font-size="44.1" fill="#FEFFFF" transform="matrix(1.00, 0.00, -0.00, -1.00, 611.0, 352.0)">r</text><text xml:space="preserve" font-family="SourceSansPro-Regular" font-size="44.1" fill="#FEFFFF" transform="matrix(1.00, 0.00, -0.00, -1.00, 626.3, 352.0)"> </text><text xml:space="preserve" font-family="SourceSansPro-Regular" font-size="44.1" fill="#FEFFFF" transform="matrix(1.00, 0.00, -0.00, -1.00, 635.1, 352.0)">d</text><text xml:space="preserve" font-family="SourceSansPro-Regular" font-size="44.1" fill="#FEFFFF" transform="matrix(1.00, 0.00, -0.00, -1.00, 659.6, 352.0)">e</text><text xml:space="preserve" font-family="SourceSansPro-Regular" font-size="44.1" fill="#FEFFFF" transform="matrix(1.00, 0.00, -0.00, -1.00, 681.5, 352.0)">f</text><text xml:space="preserve" font-family="SourceSansPro-Regular" font-size="44.1" fill="#FEFFFF" transform="matrix(1.00, 0.00, -0.00, -1.00, 694.4, 352.0)">i</text><text xml:space="preserve" font-family="SourceSansPro-Regular" font-size="44.1" fill="#FEFFFF" transform="matrix(1.00, 0.00, -0.00, -1.00, 705.2, 352.0)">n</text><text xml:space="preserve" font-family="SourceSansPro-Regular" font-size="44.1" fill="#FEFFFF" transform="matrix(1.00, 0.00, -0.00, -1.00, 729.3, 352.0)">i</text><text xml:space="preserve" font-family="SourceSansPro-Regular" font-size="44.1" fill="#FEFFFF" transform="matrix(1.00, 0.00, -0.00, -1.00, 740.2, 352.0)">r</text><text xml:space="preserve" font-family="SourceSansPro-Regular" font-size="44.1" fill="#FEFFFF" transform="matrix(1.00, 0.00, -0.00, -1.00, 755.5, 352.0)"> </text><text xml:space="preserve" font-family="SourceSansPro-Regular" font-size="44.1" fill="#FEFFFF" transform="matrix(1.00, 0.00, -0.00, -1.00, 764.3, 352.0)">o</text><text xml:space="preserve" font-family="SourceSansPro-Regular" font-size="44.1" fill="#FEFFFF" transform="matrix(1.00, 0.00, -0.00, -1.00, 788.2, 352.0)"> </text><text xml:space="preserve" font-family="SourceSansPro-Regular" font-size="44.1" fill="#FEFFFF" transform="matrix(1.00, 0.00, -0.00, -1.00, 797.0, 352.0)">r</text><text xml:space="preserve" font-family="SourceSansPro-Regular" font-size="44.1" fill="#FEFFFF" transform="matrix(1.00, 0.00, -0.00, -1.00, 811.9, 352.0)">e</text><text xml:space="preserve" font-family="SourceSansPro-Regular" font-size="44.1" fill="#FEFFFF" transform="matrix(1.00, 0.00, -0.00, -1.00, 833.8, 352.0)">s</text><text xml:space="preserve" font-family="SourceSansPro-Regular" font-size="44.1" fill="#FEFFFF" transform="matrix(1.00, 0.00, -0.00, -1.00, 852.3, 352.0)">u</text><text xml:space="preserve" font-family="SourceSansPro-Regular" font-size="44.1" fill="#FEFFFF" transform="matrix(1.00, 0.00, -0.00, -1.00, 876.2, 352.0)">l</text><text xml:space="preserve" font-family="SourceSansPro-Regular" font-size="44.1" fill="#FEFFFF" transform="matrix(1.00, 0.00, -0.00, -1.00, 887.5, 352.0)">t</text><text xml:space="preserve" font-family="SourceSansPro-Regular" font-size="44.1" fill="#FEFFFF" transform="matrix(1.00, 0.00, -0.00, -1.00, 901.5, 352.0)">a</text><text xml:space="preserve" font-family="SourceSansPro-Regular" font-size="44.1" fill="#FEFFFF" transform="matrix(1.00, 0.00, -0.00, -1.00, 923.7, 352.0)">d</text><text xml:space="preserve" font-family="SourceSansPro-Regular" font-size="44.1" fill="#FEFFFF" transform="matrix(1.00, 0.00, -0.00, -1.00, 948.2, 352.0)">o</text><text xml:space="preserve" font-family="SourceSansPro-Regular" font-size="44.1" fill="#FEFFFF" transform="matrix(1.00, 0.00, -0.00, -1.00, 972.1, 352.0)"> </text><text xml:space="preserve" font-family="SourceSansPro-Regular" font-size="44.1" fill="#FEFFFF" transform="matrix(1.00, 0.00, -0.00, -1.00, 980.9, 352.0)">d</text><text xml:space="preserve" font-family="SourceSansPro-Regular" font-size="44.1" fill="#FEFFFF" transform="matrix(1.00, 0.00, -0.00, -1.00, 1005.4, 352.0)">a</text><text xml:space="preserve" font-family="SourceSansPro-Regular" font-size="44.1" fill="#FEFFFF" transform="matrix(1.00, 0.00, -0.00, -1.00, 1027.6, 352.0)"> </text><text xml:space="preserve" font-family="SourceSansPro-Regular" font-size="44.1" fill="#FEFFFF" transform="matrix(1.00, 0.00, -0.00, -1.00, 1036.4, 352.0)">r</text><text xml:space="preserve" font-family="SourceSansPro-Regular" font-size="44.1" fill="#FEFFFF" transform="matrix(1.00, 0.00, -0.00, -1.00, 1051.3, 352.0)">e</text><text xml:space="preserve" font-family="SourceSansPro-Regular" font-size="44.1" fill="#FEFFFF" transform="matrix(1.00, 0.00, -0.00, -1.00, 1073.1, 352.0)">s</text><text xml:space="preserve" font-family="SourceSansPro-Regular" font-size="44.1" fill="#FEFFFF" transform="matrix(1.00, 0.00, -0.00, -1.00, 1091.6, 352.0)">p</text><text xml:space="preserve" font-family="SourceSansPro-Regular" font-size="44.1" fill="#FEFFFF" transform="matrix(1.00, 0.00, -0.00, -1.00, 1116.1, 352.0)">o</text><text xml:space="preserve" font-family="SourceSansPro-Regular" font-size="44.1" fill="#FEFFFF" transform="matrix(1.00, 0.00, -0.00, -1.00, 1140.0, 352.0)">s</text><text xml:space="preserve" font-family="SourceSansPro-Regular" font-size="44.1" fill="#FEFFFF" transform="matrix(1.00, 0.00, -0.00, -1.00, 1157.6, 352.0)">t</text><text xml:space="preserve" font-family="SourceSansPro-Regular" font-size="44.1" fill="#FEFFFF" transform="matrix(1.00, 0.00, -0.00, -1.00, 1171.6, 352.0)">a</text><text xml:space="preserve" font-family="SourceSansPro-Regular" font-size="44.1" fill="#FEFFFF" transform="matrix(1.00, 0.00, -0.00, -1.00, 1193.8, 352.0)"> </text><text xml:space="preserve" font-family="SourceSansPro-Regular" font-size="44.1" fill="#FEFFFF" transform="matrix(1.00, 0.00, -0.00, -1.00, 1202.6, 352.0)">d</text><text xml:space="preserve" font-family="SourceSansPro-Regular" font-size="44.1" fill="#FEFFFF" transform="matrix(1.00, 0.00, -0.00, -1.00, 1227.1, 352.0)">a</text><text xml:space="preserve" font-family="SourceSansPro-Regular" font-size="44.1" fill="#FEFFFF" transform="matrix(1.00, 0.00, -0.00, -1.00, 1249.3, 352.0)"> </text><text xml:space="preserve" font-family="SourceSansPro-Regular" font-size="44.1" fill="#FEFFFF" transform="matrix(1.00, 0.00, -0.00, -1.00, 1258.1, 352.0)">r</text><text xml:space="preserve" font-family="SourceSansPro-Regular" font-size="44.1" fill="#FEFFFF" transform="matrix(1.00, 0.00, -0.00, -1.00, 1273.0, 352.0)">e</text><text xml:space="preserve" font-family="SourceSansPro-Regular" font-size="44.1" fill="#FEFFFF" transform="matrix(1.00, 0.00, -0.00, -1.00, 1294.9, 352.0)">q</text><text xml:space="preserve" font-family="SourceSansPro-Regular" font-size="44.1" fill="#FEFFFF" transform="matrix(1.00, 0.00, -0.00, -1.00, 1319.4, 352.0)">u</text><text xml:space="preserve" font-family="SourceSansPro-Regular" font-size="44.1" fill="#FEFFFF" transform="matrix(1.00, 0.00, -0.00, -1.00, 1343.3, 352.0)">i</text><text xml:space="preserve" font-family="SourceSansPro-Regular" font-size="44.1" fill="#FEFFFF" transform="matrix(1.00, 0.00, -0.00, -1.00, 1354.2, 352.0)">s</text><text xml:space="preserve" font-family="SourceSansPro-Regular" font-size="44.1" fill="#FEFFFF" transform="matrix(1.00, 0.00, -0.00, -1.00, 1372.7, 352.0)">i</text><text xml:space="preserve" font-family="SourceSansPro-Regular" font-size="44.1" fill="#FEFFFF" transform="matrix(1.00, 0.00, -0.00, -1.00, 1383.5, 352.0)">ç</text><text xml:space="preserve" font-family="SourceSansPro-Regular" font-size="44.1" fill="#FEFFFF" transform="matrix(1.00, 0.00, -0.00, -1.00, 1403.2, 352.0)">ã</text><text xml:space="preserve" font-family="SourceSansPro-Regular" font-size="44.1" fill="#FEFFFF" transform="matrix(1.00, 0.00, -0.00, -1.00, 1425.4, 352.0)">o</text><text xml:space="preserve" font-family="SourceSansPro-Regular" font-size="44.1" fill="#FEFFFF" transform="matrix(1.00, 0.00, -0.00, -1.00, 1448.9, 352.0)">,</text><text xml:space="preserve" font-family="SourceSansPro-Regular" font-size="44.1" fill="#FEFFFF" transform="matrix(1.00, 0.00, -0.00, -1.00, 1459.9, 352.0)"> </text><text xml:space="preserve" font-family="SourceSansPro-Regular" font-size="44.1" fill="#FEFFFF" transform="matrix(1.00, 0.00, -0.00, -1.00, 1468.7, 352.0)">l</text><text xml:space="preserve" font-family="SourceSansPro-Regular" font-size="44.1" fill="#FEFFFF" transform="matrix(1.00, 0.00, -0.00, -1.00, 1479.9, 352.0)">e</text><text xml:space="preserve" font-family="SourceSansPro-Regular" font-size="44.1" fill="#FEFFFF" transform="matrix(1.00, 0.00, -0.00, -1.00, 1502.0, 352.0)">v</text><text xml:space="preserve" font-family="SourceSansPro-Regular" font-size="44.1" fill="#FEFFFF" transform="matrix(1.00, 0.00, -0.00, -1.00, 1521.7, 352.0)">a</text><text xml:space="preserve" font-family="SourceSansPro-Regular" font-size="44.1" fill="#FEFFFF" transform="matrix(1.00, 0.00, -0.00, -1.00, 1544.0, 352.0)">n</text><text xml:space="preserve" font-family="SourceSansPro-Regular" font-size="44.1" fill="#FEFFFF" transform="matrix(1.00, 0.00, -0.00, -1.00, 1568.1, 352.0)">d</text><text xml:space="preserve" font-family="SourceSansPro-Regular" font-size="44.1" fill="#FEFFFF" transform="matrix(1.00, 0.00, -0.00, -1.00, 1592.6, 352.0)">o</text><text xml:space="preserve" font-family="SourceSansPro-Regular" font-size="44.1" fill="#FEFFFF" transform="matrix(1.00, 0.00, -0.00, -1.00, 1616.5, 352.0)"> </text><text xml:space="preserve" font-family="SourceSansPro-Regular" font-size="44.1" fill="#FEFFFF" transform="matrix(1.00, 0.00, -0.00, -1.00, 301.0, 297.0)">e</text><text xml:space="preserve" font-family="SourceSansPro-Regular" font-size="44.1" fill="#FEFFFF" transform="matrix(1.00, 0.00, -0.00, -1.00, 322.9, 297.0)">m</text><text xml:space="preserve" font-family="SourceSansPro-Regular" font-size="44.1" fill="#FEFFFF" transform="matrix(1.00, 0.00, -0.00, -1.00, 359.4, 297.0)"> </text><text xml:space="preserve" font-family="SourceSansPro-Regular" font-size="44.1" fill="#FEFFFF" transform="matrix(1.00, 0.00, -0.00, -1.00, 368.3, 297.0)">c</text><text xml:space="preserve" font-family="SourceSansPro-Regular" font-size="44.1" fill="#FEFFFF" transform="matrix(1.00, 0.00, -0.00, -1.00, 387.4, 297.0)">o</text><text xml:space="preserve" font-family="SourceSansPro-Regular" font-size="44.1" fill="#FEFFFF" transform="matrix(1.00, 0.00, -0.00, -1.00, 411.3, 297.0)">n</text><text xml:space="preserve" font-family="SourceSansPro-Regular" font-size="44.1" fill="#FEFFFF" transform="matrix(1.00, 0.00, -0.00, -1.00, 435.5, 297.0)">t</text><text xml:space="preserve" font-family="SourceSansPro-Regular" font-size="44.1" fill="#FEFFFF" transform="matrix(1.00, 0.00, -0.00, -1.00, 449.4, 297.0)">a</text><text xml:space="preserve" font-family="SourceSansPro-Regular" font-size="44.1" fill="#FEFFFF" transform="matrix(1.00, 0.00, -0.00, -1.00, 471.7, 297.0)"> </text><text xml:space="preserve" font-family="SourceSansPro-Regular" font-size="44.1" fill="#FEFFFF" transform="matrix(1.00, 0.00, -0.00, -1.00, 480.5, 297.0)">o</text><text xml:space="preserve" font-family="SourceSansPro-Regular" font-size="44.1" fill="#FEFFFF" transform="matrix(1.00, 0.00, -0.00, -1.00, 504.4, 297.0)"> </text><text xml:space="preserve" font-family="SourceSansPro-Regular" font-size="44.1" fill="#FEFFFF" transform="matrix(1.00, 0.00, -0.00, -1.00, 513.2, 297.0)">c</text><text xml:space="preserve" font-family="SourceSansPro-Regular" font-size="44.1" fill="#FEFFFF" transform="matrix(1.00, 0.00, -0.00, -1.00, 532.4, 297.0)">o</text><text xml:space="preserve" font-family="SourceSansPro-Regular" font-size="44.1" fill="#FEFFFF" transform="matrix(1.00, 0.00, -0.00, -1.00, 556.3, 297.0)">n</text><text xml:space="preserve" font-family="SourceSansPro-Regular" font-size="44.1" fill="#FEFFFF" transform="matrix(1.00, 0.00, -0.00, -1.00, 580.4, 297.0)">t</text><text xml:space="preserve" font-family="SourceSansPro-Regular" font-size="44.1" fill="#FEFFFF" transform="matrix(1.00, 0.00, -0.00, -1.00, 594.7, 297.0)">e</text><text xml:space="preserve" font-family="SourceSansPro-Regular" font-size="44.1" fill="#FEFFFF" transform="matrix(1.00, 0.00, -0.00, -1.00, 616.3, 297.0)">x</text><text xml:space="preserve" font-family="SourceSansPro-Regular" font-size="44.1" fill="#FEFFFF" transform="matrix(1.00, 0.00, -0.00, -1.00, 634.9, 297.0)">t</text><text xml:space="preserve" font-family="SourceSansPro-Regular" font-size="44.1" fill="#FEFFFF" transform="matrix(1.00, 0.00, -0.00, -1.00, 649.2, 297.0)">o</text><text xml:space="preserve" font-family="SourceSansPro-Regular" font-size="44.1" fill="#FEFFFF" transform="matrix(1.00, 0.00, -0.00, -1.00, 673.1, 297.0)"> </text><text xml:space="preserve" font-family="SourceSansPro-Regular" font-size="44.1" fill="#FEFFFF" transform="matrix(1.00, 0.00, -0.00, -1.00, 681.9, 297.0)">a</text><text xml:space="preserve" font-family="SourceSansPro-Regular" font-size="44.1" fill="#FEFFFF" transform="matrix(1.00, 0.00, -0.00, -1.00, 703.5, 297.0)">t</text><text xml:space="preserve" font-family="SourceSansPro-Regular" font-size="44.1" fill="#FEFFFF" transform="matrix(1.00, 0.00, -0.00, -1.00, 718.4, 297.0)">u</text><text xml:space="preserve" font-family="SourceSansPro-Regular" font-size="44.1" fill="#FEFFFF" transform="matrix(1.00, 0.00, -0.00, -1.00, 742.4, 297.0)">a</text><text xml:space="preserve" font-family="SourceSansPro-Regular" font-size="44.1" fill="#FEFFFF" transform="matrix(1.00, 0.00, -0.00, -1.00, 764.6, 297.0)">l</text><text xml:space="preserve" font-family="SourceSansPro-Regular" font-size="44.1" fill="#FEFFFF" transform="matrix(1.00, 0.00, -0.00, -1.00, 775.9, 297.0)"> </text><text xml:space="preserve" font-family="SourceSansPro-Regular" font-size="44.1" fill="#FEFFFF" transform="matrix(1.00, 0.00, -0.00, -1.00, 784.7, 297.0)">d</text><text xml:space="preserve" font-family="SourceSansPro-Regular" font-size="44.1" fill="#FEFFFF" transform="matrix(1.00, 0.00, -0.00, -1.00, 809.2, 297.0)">o</text><text xml:space="preserve" font-family="SourceSansPro-Regular" font-size="44.1" fill="#FEFFFF" transform="matrix(1.00, 0.00, -0.00, -1.00, 833.1, 297.0)"> </text><text xml:space="preserve" font-family="SourceSansPro-Regular" font-size="44.1" fill="#FEFFFF" transform="matrix(1.00, 0.00, -0.00, -1.00, 841.9, 297.0)">u</text><text xml:space="preserve" font-family="SourceSansPro-Regular" font-size="44.1" fill="#FEFFFF" transform="matrix(1.00, 0.00, -0.00, -1.00, 865.9, 297.0)">s</text><text xml:space="preserve" font-family="SourceSansPro-Regular" font-size="44.1" fill="#FEFFFF" transform="matrix(1.00, 0.00, -0.00, -1.00, 884.4, 297.0)">u</text><text xml:space="preserve" font-family="SourceSansPro-Regular" font-size="44.1" fill="#FEFFFF" transform="matrix(1.00, 0.00, -0.00, -1.00, 908.3, 297.0)">á</text><text xml:space="preserve" font-family="SourceSansPro-Regular" font-size="44.1" fill="#FEFFFF" transform="matrix(1.00, 0.00, -0.00, -1.00, 930.6, 297.0)">r</text><text xml:space="preserve" font-family="SourceSansPro-Regular" font-size="44.1" fill="#FEFFFF" transform="matrix(1.00, 0.00, -0.00, -1.00, 945.9, 297.0)">i</text><text xml:space="preserve" font-family="SourceSansPro-Regular" font-size="44.1" fill="#FEFFFF" transform="matrix(1.00, 0.00, -0.00, -1.00, 956.7, 297.0)">o</text><text xml:space="preserve" font-family="SourceSansPro-Regular" font-size="44.1" fill="#FEFFFF" transform="matrix(1.00, 0.00, -0.00, -1.00, 980.6, 297.0)"> </text><text xml:space="preserve" font-family="SourceSansPro-Regular" font-size="44.1" fill="#FEFFFF" transform="matrix(1.00, 0.00, -0.00, -1.00, 989.4, 297.0)">e</text><text xml:space="preserve" font-family="SourceSansPro-Regular" font-size="44.1" fill="#FEFFFF" transform="matrix(1.00, 0.00, -0.00, -1.00, 1011.3, 297.0)">m</text><text xml:space="preserve" font-family="SourceSansPro-Regular" font-size="44.1" fill="#FEFFFF" transform="matrix(1.00, 0.00, -0.00, -1.00, 1047.9, 297.0)"> </text><text xml:space="preserve" font-family="SourceSansPro-Regular" font-size="44.1" fill="#FEFFFF" transform="matrix(1.00, 0.00, -0.00, -1.00, 1056.7, 297.0)">c</text><text xml:space="preserve" font-family="SourceSansPro-Regular" font-size="44.1" fill="#FEFFFF" transform="matrix(1.00, 0.00, -0.00, -1.00, 1076.4, 297.0)">a</text><text xml:space="preserve" font-family="SourceSansPro-Regular" font-size="44.1" fill="#FEFFFF" transform="matrix(1.00, 0.00, -0.00, -1.00, 1098.6, 297.0)">s</text><text xml:space="preserve" font-family="SourceSansPro-Regular" font-size="44.1" fill="#FEFFFF" transform="matrix(1.00, 0.00, -0.00, -1.00, 1117.1, 297.0)">o</text><text xml:space="preserve" font-family="SourceSansPro-Regular" font-size="44.1" fill="#FEFFFF" transform="matrix(1.00, 0.00, -0.00, -1.00, 1141.0, 297.0)"> </text><text xml:space="preserve" font-family="SourceSansPro-Regular" font-size="44.1" fill="#FEFFFF" transform="matrix(1.00, 0.00, -0.00, -1.00, 1149.8, 297.0)">d</text><text xml:space="preserve" font-family="SourceSansPro-Regular" font-size="44.1" fill="#FEFFFF" transform="matrix(1.00, 0.00, -0.00, -1.00, 1174.3, 297.0)">e</text><text xml:space="preserve" font-family="SourceSansPro-Regular" font-size="44.1" fill="#FEFFFF" transform="matrix(1.00, 0.00, -0.00, -1.00, 1196.1, 297.0)"> </text><text xml:space="preserve" font-family="SourceSansPro-Regular" font-size="44.1" fill="#FEFFFF" transform="matrix(1.00, 0.00, -0.00, -1.00, 1205.0, 297.0)">v</text><text xml:space="preserve" font-family="SourceSansPro-Regular" font-size="44.1" fill="#FEFFFF" transform="matrix(1.00, 0.00, -0.00, -1.00, 1224.7, 297.0)">á</text><text xml:space="preserve" font-family="SourceSansPro-Regular" font-size="44.1" fill="#FEFFFF" transform="matrix(1.00, 0.00, -0.00, -1.00, 1246.9, 297.0)">r</text><text xml:space="preserve" font-family="SourceSansPro-Regular" font-size="44.1" fill="#FEFFFF" transform="matrix(1.00, 0.00, -0.00, -1.00, 1262.2, 297.0)">i</text><text xml:space="preserve" font-family="SourceSansPro-Regular" font-size="44.1" fill="#FEFFFF" transform="matrix(1.00, 0.00, -0.00, -1.00, 1273.1, 297.0)">o</text><text xml:space="preserve" font-family="SourceSansPro-Regular" font-size="44.1" fill="#FEFFFF" transform="matrix(1.00, 0.00, -0.00, -1.00, 1297.0, 297.0)">s</text><text xml:space="preserve" font-family="SourceSansPro-Regular" font-size="44.1" fill="#FEFFFF" transform="matrix(1.00, 0.00, -0.00, -1.00, 1315.4, 297.0)"> </text><text xml:space="preserve" font-family="SourceSansPro-Regular" font-size="44.1" fill="#FEFFFF" transform="matrix(1.00, 0.00, -0.00, -1.00, 1324.3, 297.0)">n</text><text xml:space="preserve" font-family="SourceSansPro-Regular" font-size="44.1" fill="#FEFFFF" transform="matrix(1.00, 0.00, -0.00, -1.00, 1348.4, 297.0)">í</text><text xml:space="preserve" font-family="SourceSansPro-Regular" font-size="44.1" fill="#FEFFFF" transform="matrix(1.00, 0.00, -0.00, -1.00, 1359.2, 297.0)">v</text><text xml:space="preserve" font-family="SourceSansPro-Regular" font-size="44.1" fill="#FEFFFF" transform="matrix(1.00, 0.00, -0.00, -1.00, 1379.6, 297.0)">e</text><text xml:space="preserve" font-family="SourceSansPro-Regular" font-size="44.1" fill="#FEFFFF" transform="matrix(1.00, 0.00, -0.00, -1.00, 1401.5, 297.0)">i</text><text xml:space="preserve" font-family="SourceSansPro-Regular" font-size="44.1" fill="#FEFFFF" transform="matrix(1.00, 0.00, -0.00, -1.00, 1412.4, 297.0)">s</text><text xml:space="preserve" font-family="SourceSansPro-Regular" font-size="44.1" fill="#FEFFFF" transform="matrix(1.00, 0.00, -0.00, -1.00, 1430.8, 297.0)"> </text><text xml:space="preserve" font-family="SourceSansPro-Regular" font-size="44.1" fill="#FEFFFF" transform="matrix(1.00, 0.00, -0.00, -1.00, 1439.7, 297.0)">d</text><text xml:space="preserve" font-family="SourceSansPro-Regular" font-size="44.1" fill="#FEFFFF" transform="matrix(1.00, 0.00, -0.00, -1.00, 1464.1, 297.0)">e</text><text xml:space="preserve" font-family="SourceSansPro-Regular" font-size="44.1" fill="#FEFFFF" transform="matrix(1.00, 0.00, -0.00, -1.00, 1486.0, 297.0)"> </text><text xml:space="preserve" font-family="SourceSansPro-Regular" font-size="44.1" fill="#FEFFFF" transform="matrix(1.00, 0.00, -0.00, -1.00, 1494.8, 297.0)">a</text><text xml:space="preserve" font-family="SourceSansPro-Regular" font-size="44.1" fill="#FEFFFF" transform="matrix(1.00, 0.00, -0.00, -1.00, 1517.1, 297.0)">c</text><text xml:space="preserve" font-family="SourceSansPro-Regular" font-size="44.1" fill="#FEFFFF" transform="matrix(1.00, 0.00, -0.00, -1.00, 1536.2, 297.0)">e</text><text xml:space="preserve" font-family="SourceSansPro-Regular" font-size="44.1" fill="#FEFFFF" transform="matrix(1.00, 0.00, -0.00, -1.00, 1558.1, 297.0)">s</text><text xml:space="preserve" font-family="SourceSansPro-Regular" font-size="44.1" fill="#FEFFFF" transform="matrix(1.00, 0.00, -0.00, -1.00, 1576.6, 297.0)">s</text><text xml:space="preserve" font-family="SourceSansPro-Regular" font-size="44.1" fill="#FEFFFF" transform="matrix(1.00, 0.00, -0.00, -1.00, 1595.1, 297.0)">o</text><text xml:space="preserve" font-family="SourceSansPro-Regular" font-size="44.1" fill="#FEFFFF" transform="matrix(1.00, 0.00, -0.00, -1.00, 1619.0, 297.0)"> </text><text xml:space="preserve" font-family="SourceSansPro-Regular" font-size="44.1" fill="#FEFFFF" transform="matrix(1.00, 0.00, -0.00, -1.00, 336.0, 242.0)">e</text><text xml:space="preserve" font-family="SourceSansPro-Regular" font-size="44.1" fill="#FEFFFF" transform="matrix(1.00, 0.00, -0.00, -1.00, 357.9, 242.0)"> </text><text xml:space="preserve" font-family="SourceSansPro-Regular" font-size="44.1" fill="#FEFFFF" transform="matrix(1.00, 0.00, -0.00, -1.00, 366.7, 242.0)">p</text><text xml:space="preserve" font-family="SourceSansPro-Regular" font-size="44.1" fill="#FEFFFF" transform="matrix(1.00, 0.00, -0.00, -1.00, 391.2, 242.0)">r</text><text xml:space="preserve" font-family="SourceSansPro-Regular" font-size="44.1" fill="#FEFFFF" transform="matrix(1.00, 0.00, -0.00, -1.00, 406.0, 242.0)">o</text><text xml:space="preserve" font-family="SourceSansPro-Regular" font-size="44.1" fill="#FEFFFF" transform="matrix(1.00, 0.00, -0.00, -1.00, 429.9, 242.0)">p</text><text xml:space="preserve" font-family="SourceSansPro-Regular" font-size="44.1" fill="#FEFFFF" transform="matrix(1.00, 0.00, -0.00, -1.00, 454.4, 242.0)">r</text><text xml:space="preserve" font-family="SourceSansPro-Regular" font-size="44.1" fill="#FEFFFF" transform="matrix(1.00, 0.00, -0.00, -1.00, 469.7, 242.0)">i</text><text xml:space="preserve" font-family="SourceSansPro-Regular" font-size="44.1" fill="#FEFFFF" transform="matrix(1.00, 0.00, -0.00, -1.00, 480.6, 242.0)">e</text><text xml:space="preserve" font-family="SourceSansPro-Regular" font-size="44.1" fill="#FEFFFF" transform="matrix(1.00, 0.00, -0.00, -1.00, 502.4, 242.0)">d</text><text xml:space="preserve" font-family="SourceSansPro-Regular" font-size="44.1" fill="#FEFFFF" transform="matrix(1.00, 0.00, -0.00, -1.00, 526.9, 242.0)">a</text><text xml:space="preserve" font-family="SourceSansPro-Regular" font-size="44.1" fill="#FEFFFF" transform="matrix(1.00, 0.00, -0.00, -1.00, 549.1, 242.0)">d</text><text xml:space="preserve" font-family="SourceSansPro-Regular" font-size="44.1" fill="#FEFFFF" transform="matrix(1.00, 0.00, -0.00, -1.00, 573.6, 242.0)">e</text><text xml:space="preserve" font-family="SourceSansPro-Regular" font-size="44.1" fill="#FEFFFF" transform="matrix(1.00, 0.00, -0.00, -1.00, 595.5, 242.0)">s</text><text xml:space="preserve" font-family="SourceSansPro-Regular" font-size="44.1" fill="#FEFFFF" transform="matrix(1.00, 0.00, -0.00, -1.00, 614.0, 242.0)"> </text><text xml:space="preserve" font-family="SourceSansPro-Regular" font-size="44.1" fill="#FEFFFF" transform="matrix(1.00, 0.00, -0.00, -1.00, 622.8, 242.0)">p</text><text xml:space="preserve" font-family="SourceSansPro-Regular" font-size="44.1" fill="#FEFFFF" transform="matrix(1.00, 0.00, -0.00, -1.00, 647.3, 242.0)">r</text><text xml:space="preserve" font-family="SourceSansPro-Regular" font-size="44.1" fill="#FEFFFF" transform="matrix(1.00, 0.00, -0.00, -1.00, 662.6, 242.0)">i</text><text xml:space="preserve" font-family="SourceSansPro-Regular" font-size="44.1" fill="#FEFFFF" transform="matrix(1.00, 0.00, -0.00, -1.00, 673.4, 242.0)">v</text><text xml:space="preserve" font-family="SourceSansPro-Regular" font-size="44.1" fill="#FEFFFF" transform="matrix(1.00, 0.00, -0.00, -1.00, 693.1, 242.0)">a</text><text xml:space="preserve" font-family="SourceSansPro-Regular" font-size="44.1" fill="#FEFFFF" transform="matrix(1.00, 0.00, -0.00, -1.00, 715.3, 242.0)">d</text><text xml:space="preserve" font-family="SourceSansPro-Regular" font-size="44.1" fill="#FEFFFF" transform="matrix(1.00, 0.00, -0.00, -1.00, 739.8, 242.0)">a</text><text xml:space="preserve" font-family="SourceSansPro-Regular" font-size="44.1" fill="#FEFFFF" transform="matrix(1.00, 0.00, -0.00, -1.00, 762.1, 242.0)">s</text><text xml:space="preserve" font-family="SourceSansPro-Regular" font-size="44.1" fill="#FEFFFF" transform="matrix(1.00, 0.00, -0.00, -1.00, 780.5, 242.0)"> </text><text xml:space="preserve" font-family="SourceSansPro-Regular" font-size="44.1" fill="#FEFFFF" transform="matrix(1.00, 0.00, -0.00, -1.00, 789.3, 242.0)">q</text><text xml:space="preserve" font-family="SourceSansPro-Regular" font-size="44.1" fill="#FEFFFF" transform="matrix(1.00, 0.00, -0.00, -1.00, 813.8, 242.0)">u</text><text xml:space="preserve" font-family="SourceSansPro-Regular" font-size="44.1" fill="#FEFFFF" transform="matrix(1.00, 0.00, -0.00, -1.00, 837.8, 242.0)">e</text><text xml:space="preserve" font-family="SourceSansPro-Regular" font-size="44.1" fill="#FEFFFF" transform="matrix(1.00, 0.00, -0.00, -1.00, 859.7, 242.0)"> </text><text xml:space="preserve" font-family="SourceSansPro-Regular" font-size="44.1" fill="#FEFFFF" transform="matrix(1.00, 0.00, -0.00, -1.00, 868.5, 242.0)">a</text><text xml:space="preserve" font-family="SourceSansPro-Regular" font-size="44.1" fill="#FEFFFF" transform="matrix(1.00, 0.00, -0.00, -1.00, 890.7, 242.0)">p</text><text xml:space="preserve" font-family="SourceSansPro-Regular" font-size="44.1" fill="#FEFFFF" transform="matrix(1.00, 0.00, -0.00, -1.00, 915.2, 242.0)">e</text><text xml:space="preserve" font-family="SourceSansPro-Regular" font-size="44.1" fill="#FEFFFF" transform="matrix(1.00, 0.00, -0.00, -1.00, 937.1, 242.0)">n</text><text xml:space="preserve" font-family="SourceSansPro-Regular" font-size="44.1" fill="#FEFFFF" transform="matrix(1.00, 0.00, -0.00, -1.00, 961.2, 242.0)">a</text><text xml:space="preserve" font-family="SourceSansPro-Regular" font-size="44.1" fill="#FEFFFF" transform="matrix(1.00, 0.00, -0.00, -1.00, 983.4, 242.0)">s</text><text xml:space="preserve" font-family="SourceSansPro-Regular" font-size="44.1" fill="#FEFFFF" transform="matrix(1.00, 0.00, -0.00, -1.00, 1001.9, 242.0)"> </text><text xml:space="preserve" font-family="SourceSansPro-Regular" font-size="44.1" fill="#FEFFFF" transform="matrix(1.00, 0.00, -0.00, -1.00, 1010.7, 242.0)">c</text><text xml:space="preserve" font-family="SourceSansPro-Regular" font-size="44.1" fill="#FEFFFF" transform="matrix(1.00, 0.00, -0.00, -1.00, 1029.9, 242.0)">e</text><text xml:space="preserve" font-family="SourceSansPro-Regular" font-size="44.1" fill="#FEFFFF" transform="matrix(1.00, 0.00, -0.00, -1.00, 1051.8, 242.0)">r</text><text xml:space="preserve" font-family="SourceSansPro-Regular" font-size="44.1" fill="#FEFFFF" transform="matrix(1.00, 0.00, -0.00, -1.00, 1067.1, 242.0)">t</text><text xml:space="preserve" font-family="SourceSansPro-Regular" font-size="44.1" fill="#FEFFFF" transform="matrix(1.00, 0.00, -0.00, -1.00, 1081.4, 242.0)">o</text><text xml:space="preserve" font-family="SourceSansPro-Regular" font-size="44.1" fill="#FEFFFF" transform="matrix(1.00, 0.00, -0.00, -1.00, 1105.3, 242.0)">s</text><text xml:space="preserve" font-family="SourceSansPro-Regular" font-size="44.1" fill="#FEFFFF" transform="matrix(1.00, 0.00, -0.00, -1.00, 1123.8, 242.0)"> </text><text xml:space="preserve" font-family="SourceSansPro-Regular" font-size="44.1" fill="#FEFFFF" transform="matrix(1.00, 0.00, -0.00, -1.00, 1132.6, 242.0)">u</text><text xml:space="preserve" font-family="SourceSansPro-Regular" font-size="44.1" fill="#FEFFFF" transform="matrix(1.00, 0.00, -0.00, -1.00, 1156.6, 242.0)">s</text><text xml:space="preserve" font-family="SourceSansPro-Regular" font-size="44.1" fill="#FEFFFF" transform="matrix(1.00, 0.00, -0.00, -1.00, 1175.0, 242.0)">u</text><text xml:space="preserve" font-family="SourceSansPro-Regular" font-size="44.1" fill="#FEFFFF" transform="matrix(1.00, 0.00, -0.00, -1.00, 1199.0, 242.0)">á</text><text xml:space="preserve" font-family="SourceSansPro-Regular" font-size="44.1" fill="#FEFFFF" transform="matrix(1.00, 0.00, -0.00, -1.00, 1221.3, 242.0)">r</text><text xml:space="preserve" font-family="SourceSansPro-Regular" font-size="44.1" fill="#FEFFFF" transform="matrix(1.00, 0.00, -0.00, -1.00, 1236.6, 242.0)">i</text><text xml:space="preserve" font-family="SourceSansPro-Regular" font-size="44.1" fill="#FEFFFF" transform="matrix(1.00, 0.00, -0.00, -1.00, 1247.4, 242.0)">o</text><text xml:space="preserve" font-family="SourceSansPro-Regular" font-size="44.1" fill="#FEFFFF" transform="matrix(1.00, 0.00, -0.00, -1.00, 1271.3, 242.0)">s</text><text xml:space="preserve" font-family="SourceSansPro-Regular" font-size="44.1" fill="#FEFFFF" transform="matrix(1.00, 0.00, -0.00, -1.00, 1289.8, 242.0)"> </text><text xml:space="preserve" font-family="SourceSansPro-Regular" font-size="44.1" fill="#FEFFFF" transform="matrix(1.00, 0.00, -0.00, -1.00, 1298.6, 242.0)">p</text><text xml:space="preserve" font-family="SourceSansPro-Regular" font-size="44.1" fill="#FEFFFF" transform="matrix(1.00, 0.00, -0.00, -1.00, 1323.1, 242.0)">o</text><text xml:space="preserve" font-family="SourceSansPro-Regular" font-size="44.1" fill="#FEFFFF" transform="matrix(1.00, 0.00, -0.00, -1.00, 1347.0, 242.0)">d</text><text xml:space="preserve" font-family="SourceSansPro-Regular" font-size="44.1" fill="#FEFFFF" transform="matrix(1.00, 0.00, -0.00, -1.00, 1371.5, 242.0)">e</text><text xml:space="preserve" font-family="SourceSansPro-Regular" font-size="44.1" fill="#FEFFFF" transform="matrix(1.00, 0.00, -0.00, -1.00, 1393.3, 242.0)">m</text><text xml:space="preserve" font-family="SourceSansPro-Regular" font-size="44.1" fill="#FEFFFF" transform="matrix(1.00, 0.00, -0.00, -1.00, 1429.9, 242.0)"> </text><text xml:space="preserve" font-family="SourceSansPro-Regular" font-size="44.1" fill="#FEFFFF" transform="matrix(1.00, 0.00, -0.00, -1.00, 1438.7, 242.0)">a</text><text xml:space="preserve" font-family="SourceSansPro-Regular" font-size="44.1" fill="#FEFFFF" transform="matrix(1.00, 0.00, -0.00, -1.00, 1460.9, 242.0)">c</text><text xml:space="preserve" font-family="SourceSansPro-Regular" font-size="44.1" fill="#FEFFFF" transform="matrix(1.00, 0.00, -0.00, -1.00, 1480.1, 242.0)">e</text><text xml:space="preserve" font-family="SourceSansPro-Regular" font-size="44.1" fill="#FEFFFF" transform="matrix(1.00, 0.00, -0.00, -1.00, 1502.0, 242.0)">s</text><text xml:space="preserve" font-family="SourceSansPro-Regular" font-size="44.1" fill="#FEFFFF" transform="matrix(1.00, 0.00, -0.00, -1.00, 1520.5, 242.0)">s</text><text xml:space="preserve" font-family="SourceSansPro-Regular" font-size="44.1" fill="#FEFFFF" transform="matrix(1.00, 0.00, -0.00, -1.00, 1539.0, 242.0)">a</text><text xml:space="preserve" font-family="SourceSansPro-Regular" font-size="44.1" fill="#FEFFFF" transform="matrix(1.00, 0.00, -0.00, -1.00, 1561.2, 242.0)">r</text><text xml:space="preserve" font-family="SourceSansPro-Regular" font-size="44.1" fill="#FEFFFF" transform="matrix(1.00, 0.00, -0.00, -1.00, 1574.0, 242.0)">.</text><path d="M 1775.0 1030.0 L 1875.0 1030.0 L 1875.0 961.0 L 1775.0 961.0 Z M 1775.0 1030.0 " fill="#52575F"></path><g><clipPath id="clip-221"><path d="M 1766.5 952.5 L 1883.5 952.5 L 1883.5 1038.5 L 1766.5 1038.5 Z M 1766.5 952.5 "></path></clipPath><g clip-path="url(#clip-221)"><text xml:space="preserve" font-family="BebasNeueBold" font-weight="bold" font-size="50.0" fill="#FEFFFF" transform="matrix(1.00, 0.00, -0.00, -1.00, 1805.0, 978.0)"> </text><text xml:space="preserve" font-family="BebasNeueBold" font-weight="bold" font-size="50.0" fill="#FEFFFF" transform="matrix(1.00, 0.00, -0.00, -1.00, 1805.0, 978.0)">2</text><text xml:space="preserve" font-family="BebasNeueBold" font-weight="bold" font-size="50.0" fill="#FEFFFF" transform="matrix(1.00, 0.00, -0.00, -1.00, 1824.8, 978.0)">5</text></g></g></g></svg>