<?xml version="1.0" encoding="UTF-8" standalone="no"?><svg xmlns="http://www.w3.org/2000/svg" xmlns:xlink="http://www.w3.org/1999/xlink" clip-rule="evenodd" stroke-miterlimit="4.00" viewBox="0 0 1145 40"><desc>SVG generated by Keynote</desc><defs></defs><g transform="matrix(1.00, 0.00, -0.00, -1.00, 0.0, 40.0)"><text xml:space="preserve" font-family="SourceSansPro-Semibold" font-weight="bold" font-size="35.0" fill="#000000" transform="matrix(1.00, 0.00, -0.00, -1.00, 1.0, 10.0)">T</text><text xml:space="preserve" font-family="SourceSansPro-Semibold" font-weight="bold" font-size="35.0" fill="#000000" transform="matrix(1.00, 0.00, -0.00, -1.00, 18.6, 10.0)">u</text><text xml:space="preserve" font-family="SourceSansPro-Semibold" font-weight="bold" font-size="35.0" fill="#000000" transform="matrix(1.00, 0.00, -0.00, -1.00, 38.0, 10.0)">d</text><text xml:space="preserve" font-family="SourceSansPro-Semibold" font-weight="bold" font-size="35.0" fill="#000000" transform="matrix(1.00, 0.00, -0.00, -1.00, 57.8, 10.0)">o</text><text xml:space="preserve" font-family="SourceSansPro-Semibold" font-weight="bold" font-size="35.0" fill="#000000" transform="matrix(1.00, 0.00, -0.00, -1.00, 77.0, 10.0)"> </text><text xml:space="preserve" font-family="SourceSansPro-Semibold" font-weight="bold" font-size="35.0" fill="#000000" transform="matrix(1.00, 0.00, -0.00, -1.00, 84.0, 10.0)">q</text><text xml:space="preserve" font-family="SourceSansPro-Semibold" font-weight="bold" font-size="35.0" fill="#000000" transform="matrix(1.00, 0.00, -0.00, -1.00, 103.7, 10.0)">u</text><text xml:space="preserve" font-family="SourceSansPro-Semibold" font-weight="bold" font-size="35.0" fill="#000000" transform="matrix(1.00, 0.00, -0.00, -1.00, 123.2, 10.0)">e</text><text xml:space="preserve" font-family="SourceSansPro-Semibold" font-weight="bold" font-size="35.0" fill="#000000" transform="matrix(1.00, 0.00, -0.00, -1.00, 140.9, 10.0)"> </text><text xml:space="preserve" font-family="SourceSansPro-Semibold" font-weight="bold" font-size="35.0" fill="#000000" transform="matrix(1.00, 0.00, -0.00, -1.00, 147.9, 10.0)">v</text><text xml:space="preserve" font-family="SourceSansPro-Semibold" font-weight="bold" font-size="35.0" fill="#000000" transform="matrix(1.00, 0.00, -0.00, -1.00, 165.0, 10.0)">o</text><text xml:space="preserve" font-family="SourceSansPro-Semibold" font-weight="bold" font-size="35.0" fill="#000000" transform="matrix(1.00, 0.00, -0.00, -1.00, 184.3, 10.0)">c</text><text xml:space="preserve" font-family="SourceSansPro-Semibold" font-weight="bold" font-size="35.0" fill="#000000" transform="matrix(1.00, 0.00, -0.00, -1.00, 199.6, 10.0)">ê</text><text xml:space="preserve" font-family="SourceSansPro-Semibold" font-weight="bold" font-size="35.0" fill="#000000" transform="matrix(1.00, 0.00, -0.00, -1.00, 217.3, 10.0)"> </text><text xml:space="preserve" font-family="SourceSansPro-Semibold" font-weight="bold" font-size="35.0" fill="#000000" transform="matrix(1.00, 0.00, -0.00, -1.00, 224.3, 10.0)">p</text><text xml:space="preserve" font-family="SourceSansPro-Semibold" font-weight="bold" font-size="35.0" fill="#000000" transform="matrix(1.00, 0.00, -0.00, -1.00, 244.1, 10.0)">r</text><text xml:space="preserve" font-family="SourceSansPro-Semibold" font-weight="bold" font-size="35.0" fill="#000000" transform="matrix(1.00, 0.00, -0.00, -1.00, 256.8, 10.0)">e</text><text xml:space="preserve" font-family="SourceSansPro-Semibold" font-weight="bold" font-size="35.0" fill="#000000" transform="matrix(1.00, 0.00, -0.00, -1.00, 274.5, 10.0)">c</text><text xml:space="preserve" font-family="SourceSansPro-Semibold" font-weight="bold" font-size="35.0" fill="#000000" transform="matrix(1.00, 0.00, -0.00, -1.00, 290.7, 10.0)">i</text><text xml:space="preserve" font-family="SourceSansPro-Semibold" font-weight="bold" font-size="35.0" fill="#000000" transform="matrix(1.00, 0.00, -0.00, -1.00, 299.9, 10.0)">s</text><text xml:space="preserve" font-family="SourceSansPro-Semibold" font-weight="bold" font-size="35.0" fill="#000000" transform="matrix(1.00, 0.00, -0.00, -1.00, 315.0, 10.0)">a</text><text xml:space="preserve" font-family="SourceSansPro-Semibold" font-weight="bold" font-size="35.0" fill="#000000" transform="matrix(1.00, 0.00, -0.00, -1.00, 333.0, 10.0)"> </text><text xml:space="preserve" font-family="SourceSansPro-Semibold" font-weight="bold" font-size="35.0" fill="#000000" transform="matrix(1.00, 0.00, -0.00, -1.00, 340.0, 10.0)">s</text><text xml:space="preserve" font-family="SourceSansPro-Semibold" font-weight="bold" font-size="35.0" fill="#000000" transform="matrix(1.00, 0.00, -0.00, -1.00, 355.1, 10.0)">a</text><text xml:space="preserve" font-family="SourceSansPro-Semibold" font-weight="bold" font-size="35.0" fill="#000000" transform="matrix(1.00, 0.00, -0.00, -1.00, 373.2, 10.0)">b</text><text xml:space="preserve" font-family="SourceSansPro-Semibold" font-weight="bold" font-size="35.0" fill="#000000" transform="matrix(1.00, 0.00, -0.00, -1.00, 392.9, 10.0)">e</text><text xml:space="preserve" font-family="SourceSansPro-Semibold" font-weight="bold" font-size="35.0" fill="#000000" transform="matrix(1.00, 0.00, -0.00, -1.00, 410.6, 10.0)">r</text><text xml:space="preserve" font-family="SourceSansPro-Semibold" font-weight="bold" font-size="35.0" fill="#000000" transform="matrix(1.00, 0.00, -0.00, -1.00, 423.7, 10.0)"> </text><text xml:space="preserve" font-family="SourceSansPro-Semibold" font-weight="bold" font-size="35.0" fill="#000000" transform="matrix(1.00, 0.00, -0.00, -1.00, 430.7, 10.0)">p</text><text xml:space="preserve" font-family="SourceSansPro-Semibold" font-weight="bold" font-size="35.0" fill="#000000" transform="matrix(1.00, 0.00, -0.00, -1.00, 450.0, 10.0)">a</text><text xml:space="preserve" font-family="SourceSansPro-Semibold" font-weight="bold" font-size="35.0" fill="#000000" transform="matrix(1.00, 0.00, -0.00, -1.00, 468.0, 10.0)">r</text><text xml:space="preserve" font-family="SourceSansPro-Semibold" font-weight="bold" font-size="35.0" fill="#000000" transform="matrix(1.00, 0.00, -0.00, -1.00, 480.2, 10.0)">a</text><text xml:space="preserve" font-family="SourceSansPro-Semibold" font-weight="bold" font-size="35.0" fill="#000000" transform="matrix(1.00, 0.00, -0.00, -1.00, 498.2, 10.0)"> </text><text xml:space="preserve" font-family="SourceSansPro-Semibold" font-weight="bold" font-size="35.0" fill="#000000" transform="matrix(1.00, 0.00, -0.00, -1.00, 505.2, 10.0)">c</text><text xml:space="preserve" font-family="SourceSansPro-Semibold" font-weight="bold" font-size="35.0" fill="#000000" transform="matrix(1.00, 0.00, -0.00, -1.00, 521.4, 10.0)">r</text><text xml:space="preserve" font-family="SourceSansPro-Semibold" font-weight="bold" font-size="35.0" fill="#000000" transform="matrix(1.00, 0.00, -0.00, -1.00, 534.5, 10.0)">i</text><text xml:space="preserve" font-family="SourceSansPro-Semibold" font-weight="bold" font-size="35.0" fill="#000000" transform="matrix(1.00, 0.00, -0.00, -1.00, 543.6, 10.0)">a</text><text xml:space="preserve" font-family="SourceSansPro-Semibold" font-weight="bold" font-size="35.0" fill="#000000" transform="matrix(1.00, 0.00, -0.00, -1.00, 561.7, 10.0)">r</text><text xml:space="preserve" font-family="SourceSansPro-Semibold" font-weight="bold" font-size="35.0" fill="#000000" transform="matrix(1.00, 0.00, -0.00, -1.00, 574.8, 10.0)"> </text><text xml:space="preserve" font-family="SourceSansPro-Semibold" font-weight="bold" font-size="35.0" fill="#000000" transform="matrix(1.00, 0.00, -0.00, -1.00, 581.8, 10.0)">a</text><text xml:space="preserve" font-family="SourceSansPro-Semibold" font-weight="bold" font-size="35.0" fill="#000000" transform="matrix(1.00, 0.00, -0.00, -1.00, 599.8, 10.0)">p</text><text xml:space="preserve" font-family="SourceSansPro-Semibold" font-weight="bold" font-size="35.0" fill="#000000" transform="matrix(1.00, 0.00, -0.00, -1.00, 619.6, 10.0)">l</text><text xml:space="preserve" font-family="SourceSansPro-Semibold" font-weight="bold" font-size="35.0" fill="#000000" transform="matrix(1.00, 0.00, -0.00, -1.00, 629.0, 10.0)">i</text><text xml:space="preserve" font-family="SourceSansPro-Semibold" font-weight="bold" font-size="35.0" fill="#000000" transform="matrix(1.00, 0.00, -0.00, -1.00, 638.2, 10.0)">c</text><text xml:space="preserve" font-family="SourceSansPro-Semibold" font-weight="bold" font-size="35.0" fill="#000000" transform="matrix(1.00, 0.00, -0.00, -1.00, 654.0, 10.0)">a</text><text xml:space="preserve" font-family="SourceSansPro-Semibold" font-weight="bold" font-size="35.0" fill="#000000" transform="matrix(1.00, 0.00, -0.00, -1.00, 672.1, 10.0)">ç</text><text xml:space="preserve" font-family="SourceSansPro-Semibold" font-weight="bold" font-size="35.0" fill="#000000" transform="matrix(1.00, 0.00, -0.00, -1.00, 687.4, 10.0)">õ</text><text xml:space="preserve" font-family="SourceSansPro-Semibold" font-weight="bold" font-size="35.0" fill="#000000" transform="matrix(1.00, 0.00, -0.00, -1.00, 706.6, 10.0)">e</text><text xml:space="preserve" font-family="SourceSansPro-Semibold" font-weight="bold" font-size="35.0" fill="#000000" transform="matrix(1.00, 0.00, -0.00, -1.00, 724.4, 10.0)">s</text><text xml:space="preserve" font-family="SourceSansPro-Semibold" font-weight="bold" font-size="35.0" fill="#000000" transform="matrix(1.00, 0.00, -0.00, -1.00, 739.5, 10.0)"> </text><text xml:space="preserve" font-family="SourceSansPro-Semibold" font-weight="bold" font-size="35.0" fill="#000000" transform="matrix(1.00, 0.00, -0.00, -1.00, 746.5, 10.0)">e</text><text xml:space="preserve" font-family="SourceSansPro-Semibold" font-weight="bold" font-size="35.0" fill="#000000" transform="matrix(1.00, 0.00, -0.00, -1.00, 764.2, 10.0)">s</text><text xml:space="preserve" font-family="SourceSansPro-Semibold" font-weight="bold" font-size="35.0" fill="#000000" transform="matrix(1.00, 0.00, -0.00, -1.00, 779.3, 10.0)">c</text><text xml:space="preserve" font-family="SourceSansPro-Semibold" font-weight="bold" font-size="35.0" fill="#000000" transform="matrix(1.00, 0.00, -0.00, -1.00, 795.1, 10.0)">a</text><text xml:space="preserve" font-family="SourceSansPro-Semibold" font-weight="bold" font-size="35.0" fill="#000000" transform="matrix(1.00, 0.00, -0.00, -1.00, 813.2, 10.0)">l</text><text xml:space="preserve" font-family="SourceSansPro-Semibold" font-weight="bold" font-size="35.0" fill="#000000" transform="matrix(1.00, 0.00, -0.00, -1.00, 822.7, 10.0)">á</text><text xml:space="preserve" font-family="SourceSansPro-Semibold" font-weight="bold" font-size="35.0" fill="#000000" transform="matrix(1.00, 0.00, -0.00, -1.00, 840.7, 10.0)">v</text><text xml:space="preserve" font-family="SourceSansPro-Semibold" font-weight="bold" font-size="35.0" fill="#000000" transform="matrix(1.00, 0.00, -0.00, -1.00, 857.8, 10.0)">e</text><text xml:space="preserve" font-family="SourceSansPro-Semibold" font-weight="bold" font-size="35.0" fill="#000000" transform="matrix(1.00, 0.00, -0.00, -1.00, 875.6, 10.0)">i</text><text xml:space="preserve" font-family="SourceSansPro-Semibold" font-weight="bold" font-size="35.0" fill="#000000" transform="matrix(1.00, 0.00, -0.00, -1.00, 884.7, 10.0)">s</text><text xml:space="preserve" font-family="SourceSansPro-Semibold" font-weight="bold" font-size="35.0" fill="#000000" transform="matrix(1.00, 0.00, -0.00, -1.00, 899.8, 10.0)"> </text><text xml:space="preserve" font-family="SourceSansPro-Semibold" font-weight="bold" font-size="35.0" fill="#000000" transform="matrix(1.00, 0.00, -0.00, -1.00, 906.8, 10.0)">e</text><text xml:space="preserve" font-family="SourceSansPro-Semibold" font-weight="bold" font-size="35.0" fill="#000000" transform="matrix(1.00, 0.00, -0.00, -1.00, 924.6, 10.0)"> </text><text xml:space="preserve" font-family="SourceSansPro-Semibold" font-weight="bold" font-size="35.0" fill="#000000" transform="matrix(1.00, 0.00, -0.00, -1.00, 931.6, 10.0)">m</text><text xml:space="preserve" font-family="SourceSansPro-Semibold" font-weight="bold" font-size="35.0" fill="#000000" transform="matrix(1.00, 0.00, -0.00, -1.00, 961.1, 10.0)">a</text><text xml:space="preserve" font-family="SourceSansPro-Semibold" font-weight="bold" font-size="35.0" fill="#000000" transform="matrix(1.00, 0.00, -0.00, -1.00, 979.1, 10.0)">n</text><text xml:space="preserve" font-family="SourceSansPro-Semibold" font-weight="bold" font-size="35.0" fill="#000000" transform="matrix(1.00, 0.00, -0.00, -1.00, 998.7, 10.0)">u</text><text xml:space="preserve" font-family="SourceSansPro-Semibold" font-weight="bold" font-size="35.0" fill="#000000" transform="matrix(1.00, 0.00, -0.00, -1.00, 1018.2, 10.0)">t</text><text xml:space="preserve" font-family="SourceSansPro-Semibold" font-weight="bold" font-size="35.0" fill="#000000" transform="matrix(1.00, 0.00, -0.00, -1.00, 1030.3, 10.0)">e</text><text xml:space="preserve" font-family="SourceSansPro-Semibold" font-weight="bold" font-size="35.0" fill="#000000" transform="matrix(1.00, 0.00, -0.00, -1.00, 1048.0, 10.0)">n</text><text xml:space="preserve" font-family="SourceSansPro-Semibold" font-weight="bold" font-size="35.0" fill="#000000" transform="matrix(1.00, 0.00, -0.00, -1.00, 1067.6, 10.0)">í</text><text xml:space="preserve" font-family="SourceSansPro-Semibold" font-weight="bold" font-size="35.0" fill="#000000" transform="matrix(1.00, 0.00, -0.00, -1.00, 1076.8, 10.0)">v</text><text xml:space="preserve" font-family="SourceSansPro-Semibold" font-weight="bold" font-size="35.0" fill="#000000" transform="matrix(1.00, 0.00, -0.00, -1.00, 1093.9, 10.0)">e</text><text xml:space="preserve" font-family="SourceSansPro-Semibold" font-weight="bold" font-size="35.0" fill="#000000" transform="matrix(1.00, 0.00, -0.00, -1.00, 1111.7, 10.0)">i</text><text xml:space="preserve" font-family="SourceSansPro-Semibold" font-weight="bold" font-size="35.0" fill="#000000" transform="matrix(1.00, 0.00, -0.00, -1.00, 1120.8, 10.0)">s</text><text xml:space="preserve" font-family="SourceSansPro-Semibold" font-weight="bold" font-size="35.0" fill="#000000" transform="matrix(1.00, 0.00, -0.00, -1.00, 1135.9, 10.0)">.</text></g></svg>