<?xml version="1.0" encoding="UTF-8" standalone="no"?><svg xmlns="http://www.w3.org/2000/svg" xmlns:xlink="http://www.w3.org/1999/xlink" clip-rule="evenodd" stroke-miterlimit="4.00" viewBox="0 0 891 119"><desc>SVG generated by Keynote</desc><defs></defs><g transform="matrix(1.00, 0.00, -0.00, -1.00, 0.0, 119.0)"><text xml:space="preserve" font-family="BebasNeueBold" font-weight="bold" font-size="160.0" fill="#6FBF40" transform="matrix(1.00, 0.00, -0.00, -1.00, 1.0, 4.0)">A</text><text xml:space="preserve" font-family="BebasNeueBold" font-weight="bold" font-size="160.0" fill="#6FBF40" transform="matrix(1.00, 0.00, -0.00, -1.00, 66.1, 4.0)">P</text><text xml:space="preserve" font-family="BebasNeueBold" font-weight="bold" font-size="160.0" fill="#6FBF40" transform="matrix(1.00, 0.00, -0.00, -1.00, 127.2, 4.0)">I</text><text xml:space="preserve" font-family="BebasNeueBold" font-weight="bold" font-size="160.0" fill="#000000" transform="matrix(1.00, 0.00, -0.00, -1.00, 157.6, 4.0)"> </text><text xml:space="preserve" font-family="BebasNeueBold" font-weight="bold" font-size="160.0" fill="#000000" transform="matrix(1.00, 0.00, -0.00, -1.00, 182.4, 4.0)">A</text><text xml:space="preserve" font-family="BebasNeueBold" font-weight="bold" font-size="160.0" fill="#000000" transform="matrix(1.00, 0.00, -0.00, -1.00, 247.6, 4.0)">r</text><text xml:space="preserve" font-family="BebasNeueBold" font-weight="bold" font-size="160.0" fill="#000000" transform="matrix(1.00, 0.00, -0.00, -1.00, 311.9, 4.0)">c</text><text xml:space="preserve" font-family="BebasNeueBold" font-weight="bold" font-size="160.0" fill="#000000" transform="matrix(1.00, 0.00, -0.00, -1.00, 373.6, 4.0)">h</text><text xml:space="preserve" font-family="BebasNeueBold" font-weight="bold" font-size="160.0" fill="#000000" transform="matrix(1.00, 0.00, -0.00, -1.00, 442.0, 4.0)">i</text><text xml:space="preserve" font-family="BebasNeueBold" font-weight="bold" font-size="160.0" fill="#000000" transform="matrix(1.00, 0.00, -0.00, -1.00, 472.4, 4.0)">t</text><text xml:space="preserve" font-family="BebasNeueBold" font-weight="bold" font-size="160.0" fill="#000000" transform="matrix(1.00, 0.00, -0.00, -1.00, 529.3, 4.0)">e</text><text xml:space="preserve" font-family="BebasNeueBold" font-weight="bold" font-size="160.0" fill="#000000" transform="matrix(1.00, 0.00, -0.00, -1.00, 588.2, 4.0)">c</text><text xml:space="preserve" font-family="BebasNeueBold" font-weight="bold" font-size="160.0" fill="#000000" transform="matrix(1.00, 0.00, -0.00, -1.00, 650.0, 4.0)">t</text><text xml:space="preserve" font-family="BebasNeueBold" font-weight="bold" font-size="160.0" fill="#000000" transform="matrix(1.00, 0.00, -0.00, -1.00, 706.9, 4.0)">u</text><text xml:space="preserve" font-family="BebasNeueBold" font-weight="bold" font-size="160.0" fill="#000000" transform="matrix(1.00, 0.00, -0.00, -1.00, 770.6, 4.0)">r</text><text xml:space="preserve" font-family="BebasNeueBold" font-weight="bold" font-size="160.0" fill="#000000" transform="matrix(1.00, 0.00, -0.00, -1.00, 834.9, 4.0)">e</text></g></svg>