<?xml version="1.0" encoding="UTF-8" standalone="no"?><svg xmlns="http://www.w3.org/2000/svg" xmlns:xlink="http://www.w3.org/1999/xlink" clip-rule="evenodd" stroke-miterlimit="4.00" viewBox="0 0 1920 1080"><desc>SVG generated by Keynote</desc><defs></defs><g transform="matrix(1.00, 0.00, -0.00, -1.00, 0.0, 1080.0)"><path d="M 0.0 1080.0 L 1920.0 1080.0 L 1920.0 0.0 L 0.0 0.0 Z M 0.0 1080.0 " fill="#FEFFFF"></path><path d="M 0.0 1080.0 L 1920.0 1080.0 L 1920.0 -0.0 L 0.0 -0.0 Z M 0.0 1080.0 " fill="#011202"></path><g opacity="0.20"><g><clipPath id="clip-202"><path d="M 0.0 1080.0 L 1920.0 1080.0 L 1920.0 0.0 L 0.0 0.0 Z M 0.0 1080.0 "></path></clipPath><g clip-path="url(#clip-202)"><g><clipPath id="clip-203"><path d="M 0.0 0.0 L 1920.0 0.0 L 1920.0 1080.0 L 0.0 1080.0 Z M 0.0 0.0 "></path></clipPath><g clip-path="url(#clip-203)"><image xlink:href="../../49B0041F-D2B6-45AE-B257-4A439451C92F/assets/23497D77A7F06362AFD4423070F345EA.jpeg" width="1366.00" height="768.00" transform="matrix(1.41, 0.00, -0.00, -1.41, 0.0, 1080.0)"></image></g></g></g></g></g><text xml:space="preserve" font-family="BebasNeueBold" font-weight="bold" font-size="115.0" fill="#6FBF40" transform="matrix(1.00, 0.00, -0.00, -1.00, 821.0, 428.0)">m</text><text xml:space="preserve" font-family="BebasNeueBold" font-weight="bold" font-size="115.0" fill="#6FBF40" transform="matrix(1.00, 0.00, -0.00, -1.00, 883.2, 428.0)">o</text><text xml:space="preserve" font-family="BebasNeueBold" font-weight="bold" font-size="115.0" fill="#6FBF40" transform="matrix(1.00, 0.00, -0.00, -1.00, 928.8, 428.0)">d</text><text xml:space="preserve" font-family="BebasNeueBold" font-weight="bold" font-size="115.0" fill="#6FBF40" transform="matrix(1.00, 0.00, -0.00, -1.00, 975.7, 428.0)">e</text><text xml:space="preserve" font-family="BebasNeueBold" font-weight="bold" font-size="115.0" fill="#6FBF40" transform="matrix(1.00, 0.00, -0.00, -1.00, 1018.0, 428.0)">l</text><text xml:space="preserve" font-family="BebasNeueBold" font-weight="bold" font-size="115.0" fill="#6FBF40" transform="matrix(1.00, 0.00, -0.00, -1.00, 1057.0, 428.0)">s</text><text xml:space="preserve" font-family="SourceSansPro-Regular" font-size="49.0" fill="#FEFFFF" transform="matrix(1.00, 0.00, -0.00, -1.00, 362.0, 347.0)">R</text><text xml:space="preserve" font-family="SourceSansPro-Regular" font-size="49.0" fill="#FEFFFF" transform="matrix(1.00, 0.00, -0.00, -1.00, 389.4, 347.0)">e</text><text xml:space="preserve" font-family="SourceSansPro-Regular" font-size="49.0" fill="#FEFFFF" transform="matrix(1.00, 0.00, -0.00, -1.00, 413.7, 347.0)">s</text><text xml:space="preserve" font-family="SourceSansPro-Regular" font-size="49.0" fill="#FEFFFF" transform="matrix(1.00, 0.00, -0.00, -1.00, 434.2, 347.0)">p</text><text xml:space="preserve" font-family="SourceSansPro-Regular" font-size="49.0" fill="#FEFFFF" transform="matrix(1.00, 0.00, -0.00, -1.00, 461.4, 347.0)">o</text><text xml:space="preserve" font-family="SourceSansPro-Regular" font-size="49.0" fill="#FEFFFF" transform="matrix(1.00, 0.00, -0.00, -1.00, 488.0, 347.0)">n</text><text xml:space="preserve" font-family="SourceSansPro-Regular" font-size="49.0" fill="#FEFFFF" transform="matrix(1.00, 0.00, -0.00, -1.00, 514.8, 347.0)">s</text><text xml:space="preserve" font-family="SourceSansPro-Regular" font-size="49.0" fill="#FEFFFF" transform="matrix(1.00, 0.00, -0.00, -1.00, 535.3, 347.0)">รก</text><text xml:space="preserve" font-family="SourceSansPro-Regular" font-size="49.0" fill="#FEFFFF" transform="matrix(1.00, 0.00, -0.00, -1.00, 560.0, 347.0)">v</text><text xml:space="preserve" font-family="SourceSansPro-Regular" font-size="49.0" fill="#FEFFFF" transform="matrix(1.00, 0.00, -0.00, -1.00, 582.7, 347.0)">e</text><text xml:space="preserve" font-family="SourceSansPro-Regular" font-size="49.0" fill="#FEFFFF" transform="matrix(1.00, 0.00, -0.00, -1.00, 607.0, 347.0)">i</text><text xml:space="preserve" font-family="SourceSansPro-Regular" font-size="49.0" fill="#FEFFFF" transform="matrix(1.00, 0.00, -0.00, -1.00, 619.1, 347.0)">s</text><text xml:space="preserve" font-family="SourceSansPro-Regular" font-size="49.0" fill="#FEFFFF" transform="matrix(1.00, 0.00, -0.00, -1.00, 639.6, 347.0)"> </text><text xml:space="preserve" font-family="SourceSansPro-Regular" font-size="49.0" fill="#FEFFFF" transform="matrix(1.00, 0.00, -0.00, -1.00, 649.4, 347.0)">p</text><text xml:space="preserve" font-family="SourceSansPro-Regular" font-size="49.0" fill="#FEFFFF" transform="matrix(1.00, 0.00, -0.00, -1.00, 676.6, 347.0)">o</text><text xml:space="preserve" font-family="SourceSansPro-Regular" font-size="49.0" fill="#FEFFFF" transform="matrix(1.00, 0.00, -0.00, -1.00, 703.1, 347.0)">r</text><text xml:space="preserve" font-family="SourceSansPro-Regular" font-size="49.0" fill="#FEFFFF" transform="matrix(1.00, 0.00, -0.00, -1.00, 720.1, 347.0)"> </text><text xml:space="preserve" font-family="SourceSansPro-Regular" font-size="49.0" fill="#FEFFFF" transform="matrix(1.00, 0.00, -0.00, -1.00, 729.9, 347.0)">d</text><text xml:space="preserve" font-family="SourceSansPro-Regular" font-size="49.0" fill="#FEFFFF" transform="matrix(1.00, 0.00, -0.00, -1.00, 757.1, 347.0)">e</text><text xml:space="preserve" font-family="SourceSansPro-Regular" font-size="49.0" fill="#FEFFFF" transform="matrix(1.00, 0.00, -0.00, -1.00, 781.4, 347.0)">f</text><text xml:space="preserve" font-family="SourceSansPro-Regular" font-size="49.0" fill="#FEFFFF" transform="matrix(1.00, 0.00, -0.00, -1.00, 795.7, 347.0)">i</text><text xml:space="preserve" font-family="SourceSansPro-Regular" font-size="49.0" fill="#FEFFFF" transform="matrix(1.00, 0.00, -0.00, -1.00, 807.8, 347.0)">n</text><text xml:space="preserve" font-family="SourceSansPro-Regular" font-size="49.0" fill="#FEFFFF" transform="matrix(1.00, 0.00, -0.00, -1.00, 834.6, 347.0)">i</text><text xml:space="preserve" font-family="SourceSansPro-Regular" font-size="49.0" fill="#FEFFFF" transform="matrix(1.00, 0.00, -0.00, -1.00, 846.7, 347.0)">r</text><text xml:space="preserve" font-family="SourceSansPro-Regular" font-size="49.0" fill="#FEFFFF" transform="matrix(1.00, 0.00, -0.00, -1.00, 863.7, 347.0)"> </text><text xml:space="preserve" font-family="SourceSansPro-Regular" font-size="49.0" fill="#FEFFFF" transform="matrix(1.00, 0.00, -0.00, -1.00, 873.5, 347.0)">s</text><text xml:space="preserve" font-family="SourceSansPro-Regular" font-size="49.0" fill="#FEFFFF" transform="matrix(1.00, 0.00, -0.00, -1.00, 894.0, 347.0)">c</text><text xml:space="preserve" font-family="SourceSansPro-Regular" font-size="49.0" fill="#FEFFFF" transform="matrix(1.00, 0.00, -0.00, -1.00, 916.3, 347.0)">h</text><text xml:space="preserve" font-family="SourceSansPro-Regular" font-size="49.0" fill="#FEFFFF" transform="matrix(1.00, 0.00, -0.00, -1.00, 943.0, 347.0)">e</text><text xml:space="preserve" font-family="SourceSansPro-Regular" font-size="49.0" fill="#FEFFFF" transform="matrix(1.00, 0.00, -0.00, -1.00, 967.3, 347.0)">m</text><text xml:space="preserve" font-family="SourceSansPro-Regular" font-size="49.0" fill="#FEFFFF" transform="matrix(1.00, 0.00, -0.00, -1.00, 1007.9, 347.0)">a</text><text xml:space="preserve" font-family="SourceSansPro-Regular" font-size="49.0" fill="#FEFFFF" transform="matrix(1.00, 0.00, -0.00, -1.00, 1032.6, 347.0)">s</text><text xml:space="preserve" font-family="SourceSansPro-Regular" font-size="49.0" fill="#FEFFFF" transform="matrix(1.00, 0.00, -0.00, -1.00, 1053.1, 347.0)"> </text><text xml:space="preserve" font-family="SourceSansPro-Regular" font-size="49.0" fill="#FEFFFF" transform="matrix(1.00, 0.00, -0.00, -1.00, 1062.9, 347.0)">e</text><text xml:space="preserve" font-family="SourceSansPro-Regular" font-size="49.0" fill="#FEFFFF" transform="matrix(1.00, 0.00, -0.00, -1.00, 1087.2, 347.0)"> </text><text xml:space="preserve" font-family="SourceSansPro-Regular" font-size="49.0" fill="#FEFFFF" transform="matrix(1.00, 0.00, -0.00, -1.00, 1097.0, 347.0)">r</text><text xml:space="preserve" font-family="SourceSansPro-Regular" font-size="49.0" fill="#FEFFFF" transform="matrix(1.00, 0.00, -0.00, -1.00, 1113.6, 347.0)">e</text><text xml:space="preserve" font-family="SourceSansPro-Regular" font-size="49.0" fill="#FEFFFF" transform="matrix(1.00, 0.00, -0.00, -1.00, 1137.4, 347.0)">g</text><text xml:space="preserve" font-family="SourceSansPro-Regular" font-size="49.0" fill="#FEFFFF" transform="matrix(1.00, 0.00, -0.00, -1.00, 1162.1, 347.0)">r</text><text xml:space="preserve" font-family="SourceSansPro-Regular" font-size="49.0" fill="#FEFFFF" transform="matrix(1.00, 0.00, -0.00, -1.00, 1177.9, 347.0)">a</text><text xml:space="preserve" font-family="SourceSansPro-Regular" font-size="49.0" fill="#FEFFFF" transform="matrix(1.00, 0.00, -0.00, -1.00, 1202.6, 347.0)">s</text><text xml:space="preserve" font-family="SourceSansPro-Regular" font-size="49.0" fill="#FEFFFF" transform="matrix(1.00, 0.00, -0.00, -1.00, 1223.1, 347.0)"> </text><text xml:space="preserve" font-family="SourceSansPro-Regular" font-size="49.0" fill="#FEFFFF" transform="matrix(1.00, 0.00, -0.00, -1.00, 1232.9, 347.0)">r</text><text xml:space="preserve" font-family="SourceSansPro-Regular" font-size="49.0" fill="#FEFFFF" transform="matrix(1.00, 0.00, -0.00, -1.00, 1249.4, 347.0)">e</text><text xml:space="preserve" font-family="SourceSansPro-Regular" font-size="49.0" fill="#FEFFFF" transform="matrix(1.00, 0.00, -0.00, -1.00, 1273.7, 347.0)">l</text><text xml:space="preserve" font-family="SourceSansPro-Regular" font-size="49.0" fill="#FEFFFF" transform="matrix(1.00, 0.00, -0.00, -1.00, 1286.2, 347.0)">a</text><text xml:space="preserve" font-family="SourceSansPro-Regular" font-size="49.0" fill="#FEFFFF" transform="matrix(1.00, 0.00, -0.00, -1.00, 1310.9, 347.0)">c</text><text xml:space="preserve" font-family="SourceSansPro-Regular" font-size="49.0" fill="#FEFFFF" transform="matrix(1.00, 0.00, -0.00, -1.00, 1333.3, 347.0)">i</text><text xml:space="preserve" font-family="SourceSansPro-Regular" font-size="49.0" fill="#FEFFFF" transform="matrix(1.00, 0.00, -0.00, -1.00, 1345.3, 347.0)">o</text><text xml:space="preserve" font-family="SourceSansPro-Regular" font-size="49.0" fill="#FEFFFF" transform="matrix(1.00, 0.00, -0.00, -1.00, 1371.9, 347.0)">n</text><text xml:space="preserve" font-family="SourceSansPro-Regular" font-size="49.0" fill="#FEFFFF" transform="matrix(1.00, 0.00, -0.00, -1.00, 1398.7, 347.0)">a</text><text xml:space="preserve" font-family="SourceSansPro-Regular" font-size="49.0" fill="#FEFFFF" transform="matrix(1.00, 0.00, -0.00, -1.00, 1423.4, 347.0)">d</text><text xml:space="preserve" font-family="SourceSansPro-Regular" font-size="49.0" fill="#FEFFFF" transform="matrix(1.00, 0.00, -0.00, -1.00, 1450.6, 347.0)">o</text><text xml:space="preserve" font-family="SourceSansPro-Regular" font-size="49.0" fill="#FEFFFF" transform="matrix(1.00, 0.00, -0.00, -1.00, 1477.1, 347.0)">s</text><text xml:space="preserve" font-family="SourceSansPro-Regular" font-size="49.0" fill="#FEFFFF" transform="matrix(1.00, 0.00, -0.00, -1.00, 1497.7, 347.0)"> </text><text xml:space="preserve" font-family="SourceSansPro-Regular" font-size="49.0" fill="#FEFFFF" transform="matrix(1.00, 0.00, -0.00, -1.00, 1507.5, 347.0)">a</text><text xml:space="preserve" font-family="SourceSansPro-Regular" font-size="49.0" fill="#FEFFFF" transform="matrix(1.00, 0.00, -0.00, -1.00, 1532.2, 347.0)">o</text><text xml:space="preserve" font-family="SourceSansPro-Regular" font-size="49.0" fill="#FEFFFF" transform="matrix(1.00, 0.00, -0.00, -1.00, 1558.7, 347.0)"> </text><text xml:space="preserve" font-family="SourceSansPro-Regular" font-size="49.0" fill="#FEFFFF" transform="matrix(1.00, 0.00, -0.00, -1.00, 792.0, 286.0)">b</text><text xml:space="preserve" font-family="SourceSansPro-Regular" font-size="49.0" fill="#FEFFFF" transform="matrix(1.00, 0.00, -0.00, -1.00, 818.4, 286.0)">a</text><text xml:space="preserve" font-family="SourceSansPro-Regular" font-size="49.0" fill="#FEFFFF" transform="matrix(1.00, 0.00, -0.00, -1.00, 843.1, 286.0)">n</text><text xml:space="preserve" font-family="SourceSansPro-Regular" font-size="49.0" fill="#FEFFFF" transform="matrix(1.00, 0.00, -0.00, -1.00, 869.9, 286.0)">c</text><text xml:space="preserve" font-family="SourceSansPro-Regular" font-size="49.0" fill="#FEFFFF" transform="matrix(1.00, 0.00, -0.00, -1.00, 891.2, 286.0)">o</text><text xml:space="preserve" font-family="SourceSansPro-Regular" font-size="49.0" fill="#FEFFFF" transform="matrix(1.00, 0.00, -0.00, -1.00, 917.8, 286.0)"> </text><text xml:space="preserve" font-family="SourceSansPro-Regular" font-size="49.0" fill="#FEFFFF" transform="matrix(1.00, 0.00, -0.00, -1.00, 927.6, 286.0)">d</text><text xml:space="preserve" font-family="SourceSansPro-Regular" font-size="49.0" fill="#FEFFFF" transform="matrix(1.00, 0.00, -0.00, -1.00, 954.8, 286.0)">e</text><text xml:space="preserve" font-family="SourceSansPro-Regular" font-size="49.0" fill="#FEFFFF" transform="matrix(1.00, 0.00, -0.00, -1.00, 979.1, 286.0)"> </text><text xml:space="preserve" font-family="SourceSansPro-Regular" font-size="49.0" fill="#FEFFFF" transform="matrix(1.00, 0.00, -0.00, -1.00, 988.9, 286.0)">d</text><text xml:space="preserve" font-family="SourceSansPro-Regular" font-size="49.0" fill="#FEFFFF" transform="matrix(1.00, 0.00, -0.00, -1.00, 1016.1, 286.0)">a</text><text xml:space="preserve" font-family="SourceSansPro-Regular" font-size="49.0" fill="#FEFFFF" transform="matrix(1.00, 0.00, -0.00, -1.00, 1040.8, 286.0)">d</text><text xml:space="preserve" font-family="SourceSansPro-Regular" font-size="49.0" fill="#FEFFFF" transform="matrix(1.00, 0.00, -0.00, -1.00, 1068.0, 286.0)">o</text><text xml:space="preserve" font-family="SourceSansPro-Regular" font-size="49.0" fill="#FEFFFF" transform="matrix(1.00, 0.00, -0.00, -1.00, 1094.5, 286.0)">s</text><text xml:space="preserve" font-family="SourceSansPro-Regular" font-size="49.0" fill="#FEFFFF" transform="matrix(1.00, 0.00, -0.00, -1.00, 1115.1, 286.0)">.</text><path d="M 1775.0 1030.0 L 1875.0 1030.0 L 1875.0 961.0 L 1775.0 961.0 Z M 1775.0 1030.0 " fill="#52575F"></path><g><clipPath id="clip-204"><path d="M 1766.5 952.5 L 1883.5 952.5 L 1883.5 1038.5 L 1766.5 1038.5 Z M 1766.5 952.5 "></path></clipPath><g clip-path="url(#clip-204)"><text xml:space="preserve" font-family="BebasNeueBold" font-weight="bold" font-size="50.0" fill="#FEFFFF" transform="matrix(1.00, 0.00, -0.00, -1.00, 1805.0, 978.0)"> </text><text xml:space="preserve" font-family="BebasNeueBold" font-weight="bold" font-size="50.0" fill="#FEFFFF" transform="matrix(1.00, 0.00, -0.00, -1.00, 1805.0, 978.0)">2</text><text xml:space="preserve" font-family="BebasNeueBold" font-weight="bold" font-size="50.0" fill="#FEFFFF" transform="matrix(1.00, 0.00, -0.00, -1.00, 1824.8, 978.0)">2</text></g></g></g></svg>