<?xml version="1.0" encoding="UTF-8" standalone="no"?><svg xmlns="http://www.w3.org/2000/svg" xmlns:xlink="http://www.w3.org/1999/xlink" clip-rule="evenodd" stroke-miterlimit="4.00" viewBox="0 0 702 52"><desc>SVG generated by Keynote</desc><defs></defs><g transform="matrix(1.00, 0.00, -0.00, -1.00, 0.0, 52.0)"><text xml:space="preserve" font-family="SourceSansPro-Regular" font-size="49.0" fill="#FEFFFF" transform="matrix(1.00, 0.00, -0.00, -1.00, 0.0, 12.0)">O</text><text xml:space="preserve" font-family="SourceSansPro-Regular" font-size="49.0" fill="#FEFFFF" transform="matrix(1.00, 0.00, -0.00, -1.00, 32.5, 12.0)">s</text><text xml:space="preserve" font-family="SourceSansPro-Regular" font-size="49.0" fill="#FEFFFF" transform="matrix(1.00, 0.00, -0.00, -1.00, 53.1, 12.0)"> </text><text xml:space="preserve" font-family="SourceSansPro-Regular" font-size="49.0" fill="#FEFFFF" transform="matrix(1.00, 0.00, -0.00, -1.00, 62.9, 12.0)">m</text><text xml:space="preserve" font-family="SourceSansPro-Regular" font-size="49.0" fill="#FEFFFF" transform="matrix(1.00, 0.00, -0.00, -1.00, 103.5, 12.0)">e</text><text xml:space="preserve" font-family="SourceSansPro-Regular" font-size="49.0" fill="#FEFFFF" transform="matrix(1.00, 0.00, -0.00, -1.00, 127.8, 12.0)">l</text><text xml:space="preserve" font-family="SourceSansPro-Regular" font-size="49.0" fill="#FEFFFF" transform="matrix(1.00, 0.00, -0.00, -1.00, 140.3, 12.0)">h</text><text xml:space="preserve" font-family="SourceSansPro-Regular" font-size="49.0" fill="#FEFFFF" transform="matrix(1.00, 0.00, -0.00, -1.00, 166.9, 12.0)">o</text><text xml:space="preserve" font-family="SourceSansPro-Regular" font-size="49.0" fill="#FEFFFF" transform="matrix(1.00, 0.00, -0.00, -1.00, 193.5, 12.0)">r</text><text xml:space="preserve" font-family="SourceSansPro-Regular" font-size="49.0" fill="#FEFFFF" transform="matrix(1.00, 0.00, -0.00, -1.00, 210.0, 12.0)">e</text><text xml:space="preserve" font-family="SourceSansPro-Regular" font-size="49.0" fill="#FEFFFF" transform="matrix(1.00, 0.00, -0.00, -1.00, 234.3, 12.0)">s</text><text xml:space="preserve" font-family="SourceSansPro-Regular" font-size="49.0" fill="#FEFFFF" transform="matrix(1.00, 0.00, -0.00, -1.00, 254.8, 12.0)"> </text><text xml:space="preserve" font-family="SourceSansPro-Regular" font-size="49.0" fill="#FEFFFF" transform="matrix(1.00, 0.00, -0.00, -1.00, 264.6, 12.0)">m</text><text xml:space="preserve" font-family="SourceSansPro-Regular" font-size="49.0" fill="#FEFFFF" transform="matrix(1.00, 0.00, -0.00, -1.00, 305.3, 12.0)">é</text><text xml:space="preserve" font-family="SourceSansPro-Regular" font-size="49.0" fill="#FEFFFF" transform="matrix(1.00, 0.00, -0.00, -1.00, 329.1, 12.0)">t</text><text xml:space="preserve" font-family="SourceSansPro-Regular" font-size="49.0" fill="#FEFFFF" transform="matrix(1.00, 0.00, -0.00, -1.00, 345.0, 12.0)">o</text><text xml:space="preserve" font-family="SourceSansPro-Regular" font-size="49.0" fill="#FEFFFF" transform="matrix(1.00, 0.00, -0.00, -1.00, 371.5, 12.0)">d</text><text xml:space="preserve" font-family="SourceSansPro-Regular" font-size="49.0" fill="#FEFFFF" transform="matrix(1.00, 0.00, -0.00, -1.00, 398.7, 12.0)">o</text><text xml:space="preserve" font-family="SourceSansPro-Regular" font-size="49.0" fill="#FEFFFF" transform="matrix(1.00, 0.00, -0.00, -1.00, 425.3, 12.0)">s</text><text xml:space="preserve" font-family="SourceSansPro-Regular" font-size="49.0" fill="#FEFFFF" transform="matrix(1.00, 0.00, -0.00, -1.00, 445.8, 12.0)"> </text><text xml:space="preserve" font-family="SourceSansPro-Regular" font-size="49.0" fill="#FEFFFF" transform="matrix(1.00, 0.00, -0.00, -1.00, 455.6, 12.0)">p</text><text xml:space="preserve" font-family="SourceSansPro-Regular" font-size="49.0" fill="#FEFFFF" transform="matrix(1.00, 0.00, -0.00, -1.00, 482.1, 12.0)">a</text><text xml:space="preserve" font-family="SourceSansPro-Regular" font-size="49.0" fill="#FEFFFF" transform="matrix(1.00, 0.00, -0.00, -1.00, 506.8, 12.0)">r</text><text xml:space="preserve" font-family="SourceSansPro-Regular" font-size="49.0" fill="#FEFFFF" transform="matrix(1.00, 0.00, -0.00, -1.00, 522.6, 12.0)">a</text><text xml:space="preserve" font-family="SourceSansPro-Regular" font-size="49.0" fill="#FEFFFF" transform="matrix(1.00, 0.00, -0.00, -1.00, 547.3, 12.0)"> </text><text xml:space="preserve" font-family="SourceSansPro-Regular" font-size="49.0" fill="#FEFFFF" transform="matrix(1.00, 0.00, -0.00, -1.00, 557.1, 12.0)">s</text><text xml:space="preserve" font-family="SourceSansPro-Regular" font-size="49.0" fill="#FEFFFF" transform="matrix(1.00, 0.00, -0.00, -1.00, 577.7, 12.0)">e</text><text xml:space="preserve" font-family="SourceSansPro-Regular" font-size="49.0" fill="#FEFFFF" transform="matrix(1.00, 0.00, -0.00, -1.00, 602.0, 12.0)"> </text><text xml:space="preserve" font-family="SourceSansPro-Regular" font-size="49.0" fill="#FEFFFF" transform="matrix(1.00, 0.00, -0.00, -1.00, 611.8, 12.0)">u</text><text xml:space="preserve" font-family="SourceSansPro-Regular" font-size="49.0" fill="#FEFFFF" transform="matrix(1.00, 0.00, -0.00, -1.00, 638.4, 12.0)">s</text><text xml:space="preserve" font-family="SourceSansPro-Regular" font-size="49.0" fill="#FEFFFF" transform="matrix(1.00, 0.00, -0.00, -1.00, 659.0, 12.0)">a</text><text xml:space="preserve" font-family="SourceSansPro-Regular" font-size="49.0" fill="#FEFFFF" transform="matrix(1.00, 0.00, -0.00, -1.00, 683.6, 12.0)">r</text></g></svg>