<?xml version="1.0" encoding="UTF-8" standalone="no"?><svg xmlns="http://www.w3.org/2000/svg" xmlns:xlink="http://www.w3.org/1999/xlink" clip-rule="evenodd" stroke-miterlimit="4.00" viewBox="0 0 285 145"><desc>SVG generated by Keynote</desc><defs></defs><g transform="matrix(1.00, 0.00, -0.00, -1.00, 0.0, 145.0)"><text xml:space="preserve" font-family="SourceSansPro-Semibold" font-weight="bold" font-size="35.0" fill="#FEFFFF" transform="matrix(1.00, 0.00, -0.00, -1.00, 0.8, 117.8)">E</text><text xml:space="preserve" font-family="SourceSansPro-Semibold" font-weight="bold" font-size="35.0" fill="#FEFFFF" transform="matrix(1.00, 0.00, -0.00, -1.00, 19.6, 117.8)">s</text><text xml:space="preserve" font-family="SourceSansPro-Semibold" font-weight="bold" font-size="35.0" fill="#FEFFFF" transform="matrix(1.00, 0.00, -0.00, -1.00, 34.0, 117.8)">t</text><text xml:space="preserve" font-family="SourceSansPro-Semibold" font-weight="bold" font-size="35.0" fill="#FEFFFF" transform="matrix(1.00, 0.00, -0.00, -1.00, 46.6, 117.8)">r</text><text xml:space="preserve" font-family="SourceSansPro-Semibold" font-weight="bold" font-size="35.0" fill="#FEFFFF" transform="matrix(1.00, 0.00, -0.00, -1.00, 59.7, 117.8)">u</text><text xml:space="preserve" font-family="SourceSansPro-Semibold" font-weight="bold" font-size="35.0" fill="#FEFFFF" transform="matrix(1.00, 0.00, -0.00, -1.00, 79.1, 117.8)">t</text><text xml:space="preserve" font-family="SourceSansPro-Semibold" font-weight="bold" font-size="35.0" fill="#FEFFFF" transform="matrix(1.00, 0.00, -0.00, -1.00, 91.8, 117.8)">u</text><text xml:space="preserve" font-family="SourceSansPro-Semibold" font-weight="bold" font-size="35.0" fill="#FEFFFF" transform="matrix(1.00, 0.00, -0.00, -1.00, 111.2, 117.8)">r</text><text xml:space="preserve" font-family="SourceSansPro-Semibold" font-weight="bold" font-size="35.0" fill="#FEFFFF" transform="matrix(1.00, 0.00, -0.00, -1.00, 123.4, 117.8)">a</text><text xml:space="preserve" font-family="SourceSansPro-Semibold" font-weight="bold" font-size="35.0" fill="#FEFFFF" transform="matrix(1.00, 0.00, -0.00, -1.00, 141.4, 117.8)"> </text><text xml:space="preserve" font-family="SourceSansPro-Semibold" font-weight="bold" font-size="35.0" fill="#FEFFFF" transform="matrix(1.00, 0.00, -0.00, -1.00, 148.4, 117.8)">p</text><text xml:space="preserve" font-family="SourceSansPro-Semibold" font-weight="bold" font-size="35.0" fill="#FEFFFF" transform="matrix(1.00, 0.00, -0.00, -1.00, 168.2, 117.8)">r</text><text xml:space="preserve" font-family="SourceSansPro-Semibold" font-weight="bold" font-size="35.0" fill="#FEFFFF" transform="matrix(1.00, 0.00, -0.00, -1.00, 181.2, 117.8)">i</text><text xml:space="preserve" font-family="SourceSansPro-Semibold" font-weight="bold" font-size="35.0" fill="#FEFFFF" transform="matrix(1.00, 0.00, -0.00, -1.00, 190.4, 117.8)">n</text><text xml:space="preserve" font-family="SourceSansPro-Semibold" font-weight="bold" font-size="35.0" fill="#FEFFFF" transform="matrix(1.00, 0.00, -0.00, -1.00, 210.0, 117.8)">c</text><text xml:space="preserve" font-family="SourceSansPro-Semibold" font-weight="bold" font-size="35.0" fill="#FEFFFF" transform="matrix(1.00, 0.00, -0.00, -1.00, 226.2, 117.8)">i</text><text xml:space="preserve" font-family="SourceSansPro-Semibold" font-weight="bold" font-size="35.0" fill="#FEFFFF" transform="matrix(1.00, 0.00, -0.00, -1.00, 235.3, 117.8)">p</text><text xml:space="preserve" font-family="SourceSansPro-Semibold" font-weight="bold" font-size="35.0" fill="#FEFFFF" transform="matrix(1.00, 0.00, -0.00, -1.00, 254.7, 117.8)">a</text><text xml:space="preserve" font-family="SourceSansPro-Semibold" font-weight="bold" font-size="35.0" fill="#FEFFFF" transform="matrix(1.00, 0.00, -0.00, -1.00, 272.7, 117.8)">l</text><text xml:space="preserve" font-family="SourceSansPro-Semibold" font-weight="bold" font-size="35.0" fill="#FEFFFF" transform="matrix(1.00, 0.00, -0.00, -1.00, 282.2, 117.8)"> </text><text xml:space="preserve" font-family="SourceSansPro-Regular" font-size="28.0" fill="#FEFFFF" transform="matrix(1.00, 0.00, -0.00, -1.00, 17.8, 79.9)">D</text><text xml:space="preserve" font-family="SourceSansPro-Regular" font-size="28.0" fill="#FEFFFF" transform="matrix(1.00, 0.00, -0.00, -1.00, 35.0, 79.9)">e</text><text xml:space="preserve" font-family="SourceSansPro-Regular" font-size="28.0" fill="#FEFFFF" transform="matrix(1.00, 0.00, -0.00, -1.00, 48.9, 79.9)">f</text><text xml:space="preserve" font-family="SourceSansPro-Regular" font-size="28.0" fill="#FEFFFF" transform="matrix(1.00, 0.00, -0.00, -1.00, 57.1, 79.9)">i</text><text xml:space="preserve" font-family="SourceSansPro-Regular" font-size="28.0" fill="#FEFFFF" transform="matrix(1.00, 0.00, -0.00, -1.00, 64.0, 79.9)">n</text><text xml:space="preserve" font-family="SourceSansPro-Regular" font-size="28.0" fill="#FEFFFF" transform="matrix(1.00, 0.00, -0.00, -1.00, 79.3, 79.9)">e</text><text xml:space="preserve" font-family="SourceSansPro-Regular" font-size="28.0" fill="#FEFFFF" transform="matrix(1.00, 0.00, -0.00, -1.00, 93.2, 79.9)"> </text><text xml:space="preserve" font-family="SourceSansPro-Regular" font-size="28.0" fill="#FEFFFF" transform="matrix(1.00, 0.00, -0.00, -1.00, 98.8, 79.9)">u</text><text xml:space="preserve" font-family="SourceSansPro-Regular" font-size="28.0" fill="#FEFFFF" transform="matrix(1.00, 0.00, -0.00, -1.00, 114.0, 79.9)">m</text><text xml:space="preserve" font-family="SourceSansPro-Regular" font-size="28.0" fill="#FEFFFF" transform="matrix(1.00, 0.00, -0.00, -1.00, 137.2, 79.9)"> </text><text xml:space="preserve" font-family="SourceSansPro-Regular" font-size="28.0" fill="#FEFFFF" transform="matrix(1.00, 0.00, -0.00, -1.00, 142.8, 79.9)">c</text><text xml:space="preserve" font-family="SourceSansPro-Regular" font-size="28.0" fill="#FEFFFF" transform="matrix(1.00, 0.00, -0.00, -1.00, 155.0, 79.9)">o</text><text xml:space="preserve" font-family="SourceSansPro-Regular" font-size="28.0" fill="#FEFFFF" transform="matrix(1.00, 0.00, -0.00, -1.00, 170.2, 79.9)">n</text><text xml:space="preserve" font-family="SourceSansPro-Regular" font-size="28.0" fill="#FEFFFF" transform="matrix(1.00, 0.00, -0.00, -1.00, 185.5, 79.9)">j</text><text xml:space="preserve" font-family="SourceSansPro-Regular" font-size="28.0" fill="#FEFFFF" transform="matrix(1.00, 0.00, -0.00, -1.00, 192.4, 79.9)">u</text><text xml:space="preserve" font-family="SourceSansPro-Regular" font-size="28.0" fill="#FEFFFF" transform="matrix(1.00, 0.00, -0.00, -1.00, 207.6, 79.9)">n</text><text xml:space="preserve" font-family="SourceSansPro-Regular" font-size="28.0" fill="#FEFFFF" transform="matrix(1.00, 0.00, -0.00, -1.00, 222.9, 79.9)">t</text><text xml:space="preserve" font-family="SourceSansPro-Regular" font-size="28.0" fill="#FEFFFF" transform="matrix(1.00, 0.00, -0.00, -1.00, 232.0, 79.9)">o</text><text xml:space="preserve" font-family="SourceSansPro-Regular" font-size="28.0" fill="#FEFFFF" transform="matrix(1.00, 0.00, -0.00, -1.00, 247.2, 79.9)"> </text><text xml:space="preserve" font-family="SourceSansPro-Regular" font-size="28.0" fill="#FEFFFF" transform="matrix(1.00, 0.00, -0.00, -1.00, 252.8, 79.9)">d</text><text xml:space="preserve" font-family="SourceSansPro-Regular" font-size="28.0" fill="#FEFFFF" transform="matrix(1.00, 0.00, -0.00, -1.00, 268.3, 79.9)">e</text><text xml:space="preserve" font-family="SourceSansPro-Regular" font-size="28.0" fill="#FEFFFF" transform="matrix(1.00, 0.00, -0.00, -1.00, 282.2, 79.9)"> </text><text xml:space="preserve" font-family="SourceSansPro-Regular" font-size="28.0" fill="#FEFFFF" transform="matrix(1.00, 0.00, -0.00, -1.00, -0.6, 43.9)">m</text><text xml:space="preserve" font-family="SourceSansPro-Regular" font-size="28.0" fill="#FEFFFF" transform="matrix(1.00, 0.00, -0.00, -1.00, 22.6, 43.9)">รณ</text><text xml:space="preserve" font-family="SourceSansPro-Regular" font-size="28.0" fill="#FEFFFF" transform="matrix(1.00, 0.00, -0.00, -1.00, 37.7, 43.9)">d</text><text xml:space="preserve" font-family="SourceSansPro-Regular" font-size="28.0" fill="#FEFFFF" transform="matrix(1.00, 0.00, -0.00, -1.00, 53.3, 43.9)">u</text><text xml:space="preserve" font-family="SourceSansPro-Regular" font-size="28.0" fill="#FEFFFF" transform="matrix(1.00, 0.00, -0.00, -1.00, 68.5, 43.9)">l</text><text xml:space="preserve" font-family="SourceSansPro-Regular" font-size="28.0" fill="#FEFFFF" transform="matrix(1.00, 0.00, -0.00, -1.00, 75.7, 43.9)">o</text><text xml:space="preserve" font-family="SourceSansPro-Regular" font-size="28.0" fill="#FEFFFF" transform="matrix(1.00, 0.00, -0.00, -1.00, 90.8, 43.9)">s</text><text xml:space="preserve" font-family="SourceSansPro-Regular" font-size="28.0" fill="#FEFFFF" transform="matrix(1.00, 0.00, -0.00, -1.00, 102.6, 43.9)"> </text><text xml:space="preserve" font-family="SourceSansPro-Regular" font-size="28.0" fill="#FEFFFF" transform="matrix(1.00, 0.00, -0.00, -1.00, 108.2, 43.9)">p</text><text xml:space="preserve" font-family="SourceSansPro-Regular" font-size="28.0" fill="#FEFFFF" transform="matrix(1.00, 0.00, -0.00, -1.00, 123.7, 43.9)">r</text><text xml:space="preserve" font-family="SourceSansPro-Regular" font-size="28.0" fill="#FEFFFF" transform="matrix(1.00, 0.00, -0.00, -1.00, 133.4, 43.9)">i</text><text xml:space="preserve" font-family="SourceSansPro-Regular" font-size="28.0" fill="#FEFFFF" transform="matrix(1.00, 0.00, -0.00, -1.00, 140.3, 43.9)">n</text><text xml:space="preserve" font-family="SourceSansPro-Regular" font-size="28.0" fill="#FEFFFF" transform="matrix(1.00, 0.00, -0.00, -1.00, 155.6, 43.9)">c</text><text xml:space="preserve" font-family="SourceSansPro-Regular" font-size="28.0" fill="#FEFFFF" transform="matrix(1.00, 0.00, -0.00, -1.00, 168.4, 43.9)">i</text><text xml:space="preserve" font-family="SourceSansPro-Regular" font-size="28.0" fill="#FEFFFF" transform="matrix(1.00, 0.00, -0.00, -1.00, 175.3, 43.9)">p</text><text xml:space="preserve" font-family="SourceSansPro-Regular" font-size="28.0" fill="#FEFFFF" transform="matrix(1.00, 0.00, -0.00, -1.00, 190.4, 43.9)">a</text><text xml:space="preserve" font-family="SourceSansPro-Regular" font-size="28.0" fill="#FEFFFF" transform="matrix(1.00, 0.00, -0.00, -1.00, 204.5, 43.9)">i</text><text xml:space="preserve" font-family="SourceSansPro-Regular" font-size="28.0" fill="#FEFFFF" transform="matrix(1.00, 0.00, -0.00, -1.00, 211.4, 43.9)">s</text><text xml:space="preserve" font-family="SourceSansPro-Regular" font-size="28.0" fill="#FEFFFF" transform="matrix(1.00, 0.00, -0.00, -1.00, 223.2, 43.9)">:</text><text xml:space="preserve" font-family="SourceSansPro-Regular" font-size="28.0" fill="#FEFFFF" transform="matrix(1.00, 0.00, -0.00, -1.00, 230.1, 43.9)"> </text><text xml:space="preserve" font-family="SourceSansPro-Semibold" font-weight="bold" font-size="28.0" fill="#FEFFFF" transform="matrix(1.00, 0.00, -0.00, -1.00, 235.7, 43.9)">b</text><text xml:space="preserve" font-family="SourceSansPro-Semibold" font-weight="bold" font-size="28.0" fill="#FEFFFF" transform="matrix(1.00, 0.00, -0.00, -1.00, 251.5, 43.9)">i</text><text xml:space="preserve" font-family="SourceSansPro-Semibold" font-weight="bold" font-size="28.0" fill="#FEFFFF" transform="matrix(1.00, 0.00, -0.00, -1.00, 258.8, 43.9)">n</text><text xml:space="preserve" font-family="SourceSansPro-Semibold" font-weight="bold" font-size="28.0" fill="#FEFFFF" transform="matrix(1.00, 0.00, -0.00, -1.00, 274.5, 43.9)">,</text><text xml:space="preserve" font-family="SourceSansPro-Semibold" font-weight="bold" font-size="28.0" fill="#FEFFFF" transform="matrix(1.00, 0.00, -0.00, -1.00, 282.2, 43.9)"> </text><text xml:space="preserve" font-family="SourceSansPro-Semibold" font-weight="bold" font-size="28.0" fill="#FEFFFF" transform="matrix(1.00, 0.00, -0.00, -1.00, 156.7, 7.9)">c</text><text xml:space="preserve" font-family="SourceSansPro-Semibold" font-weight="bold" font-size="28.0" fill="#FEFFFF" transform="matrix(1.00, 0.00, -0.00, -1.00, 169.0, 7.9)">o</text><text xml:space="preserve" font-family="SourceSansPro-Semibold" font-weight="bold" font-size="28.0" fill="#FEFFFF" transform="matrix(1.00, 0.00, -0.00, -1.00, 184.4, 7.9)">n</text><text xml:space="preserve" font-family="SourceSansPro-Semibold" font-weight="bold" font-size="28.0" fill="#FEFFFF" transform="matrix(1.00, 0.00, -0.00, -1.00, 200.0, 7.9)">f</text><text xml:space="preserve" font-family="SourceSansPro-Semibold" font-weight="bold" font-size="28.0" fill="#FEFFFF" transform="matrix(1.00, 0.00, -0.00, -1.00, 208.9, 7.9)">i</text><text xml:space="preserve" font-family="SourceSansPro-Semibold" font-weight="bold" font-size="28.0" fill="#FEFFFF" transform="matrix(1.00, 0.00, -0.00, -1.00, 216.2, 7.9)">g</text><text xml:space="preserve" font-family="SourceSansPro-Semibold" font-weight="bold" font-size="28.0" fill="#FEFFFF" transform="matrix(1.00, 0.00, -0.00, -1.00, 230.8, 7.9)">,</text><text xml:space="preserve" font-family="SourceSansPro-Semibold" font-weight="bold" font-size="28.0" fill="#FEFFFF" transform="matrix(1.00, 0.00, -0.00, -1.00, 238.5, 7.9)"> </text><text xml:space="preserve" font-family="SourceSansPro-Semibold" font-weight="bold" font-size="28.0" fill="#FEFFFF" transform="matrix(1.00, 0.00, -0.00, -1.00, 244.1, 7.9)">l</text><text xml:space="preserve" font-family="SourceSansPro-Semibold" font-weight="bold" font-size="28.0" fill="#FEFFFF" transform="matrix(1.00, 0.00, -0.00, -1.00, 251.7, 7.9)">i</text><text xml:space="preserve" font-family="SourceSansPro-Semibold" font-weight="bold" font-size="28.0" fill="#FEFFFF" transform="matrix(1.00, 0.00, -0.00, -1.00, 259.0, 7.9)">b</text><text xml:space="preserve" font-family="SourceSansPro-Semibold" font-weight="bold" font-size="28.0" fill="#FEFFFF" transform="matrix(1.00, 0.00, -0.00, -1.00, 274.5, 7.9)">.</text><text xml:space="preserve" font-family="SourceSansPro-Semibold" font-weight="bold" font-size="28.0" fill="#FEFFFF" transform="matrix(1.00, 0.00, -0.00, -1.00, 282.2, 7.9)"> </text></g></svg>