<?xml version="1.0" encoding="UTF-8" standalone="no"?><svg xmlns="http://www.w3.org/2000/svg" xmlns:xlink="http://www.w3.org/1999/xlink" clip-rule="evenodd" stroke-miterlimit="4.00" viewBox="0 0 1920 1080"><desc>SVG generated by Keynote</desc><defs></defs><g transform="matrix(1.00, 0.00, -0.00, -1.00, 0.0, 1080.0)"><path d="M 0.0 1080.0 L 1920.0 1080.0 L 1920.0 0.0 L 0.0 0.0 Z M 0.0 1080.0 " fill="#000000"></path><g opacity="0.20"><g><clipPath id="clip-113"><path d="M 0.0 1080.0 L 1920.0 1080.0 L 1920.0 0.0 L 0.0 0.0 Z M 0.0 1080.0 "></path></clipPath><g clip-path="url(#clip-113)"><g><clipPath id="clip-114"><path d="M 0.0 0.0 L 1920.0 0.0 L 1920.0 1080.0 L 0.0 1080.0 Z M 0.0 0.0 "></path></clipPath><g clip-path="url(#clip-114)"><image xlink:href="../../49B0041F-D2B6-45AE-B257-4A439451C92F/assets/23497D77A7F06362AFD4423070F345EA.jpeg" width="1366.00" height="768.00" transform="matrix(1.41, 0.00, -0.00, -1.41, 0.0, 1080.0)"></image></g></g></g></g></g><path d="M 1775.0 1030.0 L 1875.0 1030.0 L 1875.0 961.0 L 1775.0 961.0 Z M 1775.0 1030.0 " fill="#52575F"></path><g><clipPath id="clip-115"><path d="M 1766.5 952.5 L 1883.5 952.5 L 1883.5 1038.5 L 1766.5 1038.5 Z M 1766.5 952.5 "></path></clipPath><g clip-path="url(#clip-115)"><text xml:space="preserve" font-family="BebasNeueBold" font-weight="bold" font-size="50.0" fill="#FEFFFF" transform="matrix(1.00, 0.00, -0.00, -1.00, 1805.0, 978.0)"> </text><text xml:space="preserve" font-family="BebasNeueBold" font-weight="bold" font-size="50.0" fill="#FEFFFF" transform="matrix(1.00, 0.00, -0.00, -1.00, 1805.0, 978.0)">1</text><text xml:space="preserve" font-family="BebasNeueBold" font-weight="bold" font-size="50.0" fill="#FEFFFF" transform="matrix(1.00, 0.00, -0.00, -1.00, 1824.8, 978.0)">1</text></g></g><image xlink:href="1EE83767AF270F63B733E905F76AF71B.png" width="941.00" height="540.00" transform="matrix(1.62, 0.00, -0.00, -1.61, 200.0, 976.0)"></image><g><clipPath id="clip-116"><path d="M 385.0 922.0 L 1535.0 922.0 L 1535.0 203.0 L 385.0 203.0 Z M 384.9 922.0 "></path></clipPath><g clip-path="url(#clip-116)"><image xlink:href="641B5093942E1BA5A4A950711291B00E.png" width="864.00" height="540.00" transform="matrix(1.33, 0.00, -0.00, -1.33, 385.0, 922.0)"></image></g></g></g></svg>