<?xml version="1.0" encoding="UTF-8" standalone="no"?><svg xmlns="http://www.w3.org/2000/svg" xmlns:xlink="http://www.w3.org/1999/xlink" clip-rule="evenodd" stroke-miterlimit="4.00" viewBox="0 0 1005 61"><desc>SVG generated by Keynote</desc><defs></defs><g transform="matrix(1.00, 0.00, -0.00, -1.00, 0.0, 61.0)"><text xml:space="preserve" font-family="BebasNeueBold" font-weight="bold" font-size="78.3" fill="#FEFFFF" transform="matrix(1.00, 0.00, -0.00, -1.00, -2.0, 3.0)">h</text><text xml:space="preserve" font-family="BebasNeueBold" font-weight="bold" font-size="78.3" fill="#FEFFFF" transform="matrix(1.00, 0.00, -0.00, -1.00, 31.4, 3.0)">t</text><text xml:space="preserve" font-family="BebasNeueBold" font-weight="bold" font-size="78.3" fill="#FEFFFF" transform="matrix(1.00, 0.00, -0.00, -1.00, 59.3, 3.0)">t</text><text xml:space="preserve" font-family="BebasNeueBold" font-weight="bold" font-size="78.3" fill="#FEFFFF" transform="matrix(1.00, 0.00, -0.00, -1.00, 87.2, 3.0)">p</text><text xml:space="preserve" font-family="BebasNeueBold" font-weight="bold" font-size="78.3" fill="#FEFFFF" transform="matrix(1.00, 0.00, -0.00, -1.00, 116.7, 3.0)">:</text><text xml:space="preserve" font-family="BebasNeueBold" font-weight="bold" font-size="78.3" fill="#FEFFFF" transform="matrix(1.00, 0.00, -0.00, -1.00, 131.3, 3.0)">/</text><text xml:space="preserve" font-family="BebasNeueBold" font-weight="bold" font-size="78.3" fill="#FEFFFF" transform="matrix(1.00, 0.00, -0.00, -1.00, 147.0, 3.0)">/</text><text xml:space="preserve" font-family="BebasNeueBold" font-weight="bold" font-size="78.3" fill="#FEFFFF" transform="matrix(1.00, 0.00, -0.00, -1.00, 176.8, 3.0)">g</text><text xml:space="preserve" font-family="BebasNeueBold" font-weight="bold" font-size="78.3" fill="#FEFFFF" transform="matrix(1.00, 0.00, -0.00, -1.00, 207.4, 3.0)">i</text><text xml:space="preserve" font-family="BebasNeueBold" font-weight="bold" font-size="78.3" fill="#FEFFFF" transform="matrix(1.00, 0.00, -0.00, -1.00, 222.3, 3.0)">t</text><text xml:space="preserve" font-family="BebasNeueBold" font-weight="bold" font-size="78.3" fill="#FEFFFF" transform="matrix(1.00, 0.00, -0.00, -1.00, 250.1, 3.0)">h</text><text xml:space="preserve" font-family="BebasNeueBold" font-weight="bold" font-size="78.3" fill="#FEFFFF" transform="matrix(1.00, 0.00, -0.00, -1.00, 283.6, 3.0)">u</text><text xml:space="preserve" font-family="BebasNeueBold" font-weight="bold" font-size="78.3" fill="#FEFFFF" transform="matrix(1.00, 0.00, -0.00, -1.00, 314.7, 3.0)">b</text><text xml:space="preserve" font-family="BebasNeueBold" font-weight="bold" font-size="78.3" fill="#FEFFFF" transform="matrix(1.00, 0.00, -0.00, -1.00, 346.1, 3.0)">.</text><text xml:space="preserve" font-family="BebasNeueBold" font-weight="bold" font-size="78.3" fill="#FEFFFF" transform="matrix(1.00, 0.00, -0.00, -1.00, 359.9, 3.0)">c</text><text xml:space="preserve" font-family="BebasNeueBold" font-weight="bold" font-size="78.3" fill="#FEFFFF" transform="matrix(1.00, 0.00, -0.00, -1.00, 390.1, 3.0)">o</text><text xml:space="preserve" font-family="BebasNeueBold" font-weight="bold" font-size="78.3" fill="#FEFFFF" transform="matrix(1.00, 0.00, -0.00, -1.00, 421.1, 3.0)">m</text><text xml:space="preserve" font-family="BebasNeueBold" font-weight="bold" font-size="78.3" fill="#FEFFFF" transform="matrix(1.00, 0.00, -0.00, -1.00, 463.5, 3.0)">/</text><text xml:space="preserve" font-family="BebasNeueBold" font-weight="bold" font-size="78.3" fill="#6FBF40" transform="matrix(1.00, 0.00, -0.00, -1.00, 493.3, 3.0)">c</text><text xml:space="preserve" font-family="BebasNeueBold" font-weight="bold" font-size="78.3" fill="#6FBF40" transform="matrix(1.00, 0.00, -0.00, -1.00, 523.5, 3.0)">h</text><text xml:space="preserve" font-family="BebasNeueBold" font-weight="bold" font-size="78.3" fill="#6FBF40" transform="matrix(1.00, 0.00, -0.00, -1.00, 557.0, 3.0)">r</text><text xml:space="preserve" font-family="BebasNeueBold" font-weight="bold" font-size="78.3" fill="#6FBF40" transform="matrix(1.00, 0.00, -0.00, -1.00, 588.5, 3.0)">i</text><text xml:space="preserve" font-family="BebasNeueBold" font-weight="bold" font-size="78.3" fill="#6FBF40" transform="matrix(1.00, 0.00, -0.00, -1.00, 603.3, 3.0)">s</text><text xml:space="preserve" font-family="BebasNeueBold" font-weight="bold" font-size="78.3" fill="#6FBF40" transform="matrix(1.00, 0.00, -0.00, -1.00, 632.6, 3.0)">e</text><text xml:space="preserve" font-family="BebasNeueBold" font-weight="bold" font-size="78.3" fill="#6FBF40" transform="matrix(1.00, 0.00, -0.00, -1.00, 661.4, 3.0)">n</text><text xml:space="preserve" font-family="BebasNeueBold" font-weight="bold" font-size="78.3" fill="#6FBF40" transform="matrix(1.00, 0.00, -0.00, -1.00, 694.9, 3.0)">y</text><text xml:space="preserve" font-family="BebasNeueBold" font-weight="bold" font-size="78.3" fill="#6FBF40" transform="matrix(1.00, 0.00, -0.00, -1.00, 725.9, 3.0)">t</text><text xml:space="preserve" font-family="BebasNeueBold" font-weight="bold" font-size="78.3" fill="#6FBF40" transform="matrix(1.00, 0.00, -0.00, -1.00, 753.8, 3.0)">c</text><text xml:space="preserve" font-family="BebasNeueBold" font-weight="bold" font-size="78.3" fill="#FEFFFF" transform="matrix(1.00, 0.00, -0.00, -1.00, 784.0, 3.0)">/</text><text xml:space="preserve" font-family="BebasNeueBold" font-weight="bold" font-size="78.3" fill="#FEFFFF" transform="matrix(1.00, 0.00, -0.00, -1.00, 813.8, 3.0)">c</text><text xml:space="preserve" font-family="BebasNeueBold" font-weight="bold" font-size="78.3" fill="#FEFFFF" transform="matrix(1.00, 0.00, -0.00, -1.00, 844.0, 3.0)">a</text><text xml:space="preserve" font-family="BebasNeueBold" font-weight="bold" font-size="78.3" fill="#FEFFFF" transform="matrix(1.00, 0.00, -0.00, -1.00, 875.9, 3.0)">s</text><text xml:space="preserve" font-family="BebasNeueBold" font-weight="bold" font-size="78.3" fill="#FEFFFF" transform="matrix(1.00, 0.00, -0.00, -1.00, 905.2, 3.0)">t</text><text xml:space="preserve" font-family="BebasNeueBold" font-weight="bold" font-size="78.3" fill="#FEFFFF" transform="matrix(1.00, 0.00, -0.00, -1.00, 933.1, 3.0)">i</text><text xml:space="preserve" font-family="BebasNeueBold" font-weight="bold" font-size="78.3" fill="#FEFFFF" transform="matrix(1.00, 0.00, -0.00, -1.00, 947.9, 3.0)">e</text><text xml:space="preserve" font-family="BebasNeueBold" font-weight="bold" font-size="78.3" fill="#FEFFFF" transform="matrix(1.00, 0.00, -0.00, -1.00, 976.8, 3.0)">l</text></g></svg>