<?xml version="1.0" encoding="UTF-8" standalone="no"?><svg xmlns="http://www.w3.org/2000/svg" xmlns:xlink="http://www.w3.org/1999/xlink" clip-rule="evenodd" stroke-miterlimit="4.00" viewBox="0 0 402 66"><desc>SVG generated by Keynote</desc><defs></defs><g transform="matrix(1.00, 0.00, -0.00, -1.00, 0.0, 66.0)"><text xml:space="preserve" font-family="SourceSansPro-Regular" font-size="28.0" fill="#FEFFFF" transform="matrix(1.00, 0.00, -0.00, -1.00, 16.7, 43.8)">S</text><text xml:space="preserve" font-family="SourceSansPro-Regular" font-size="28.0" fill="#FEFFFF" transform="matrix(1.00, 0.00, -0.00, -1.00, 31.6, 43.8)">e</text><text xml:space="preserve" font-family="SourceSansPro-Regular" font-size="28.0" fill="#FEFFFF" transform="matrix(1.00, 0.00, -0.00, -1.00, 45.5, 43.8)">m</text><text xml:space="preserve" font-family="SourceSansPro-Regular" font-size="28.0" fill="#FEFFFF" transform="matrix(1.00, 0.00, -0.00, -1.00, 68.7, 43.8)"> </text><text xml:space="preserve" font-family="SourceSansPro-Regular" font-size="28.0" fill="#FEFFFF" transform="matrix(1.00, 0.00, -0.00, -1.00, 74.3, 43.8)">s</text><text xml:space="preserve" font-family="SourceSansPro-Regular" font-size="28.0" fill="#FEFFFF" transform="matrix(1.00, 0.00, -0.00, -1.00, 86.1, 43.8)">a</text><text xml:space="preserve" font-family="SourceSansPro-Regular" font-size="28.0" fill="#FEFFFF" transform="matrix(1.00, 0.00, -0.00, -1.00, 100.2, 43.8)">b</text><text xml:space="preserve" font-family="SourceSansPro-Regular" font-size="28.0" fill="#FEFFFF" transform="matrix(1.00, 0.00, -0.00, -1.00, 115.7, 43.8)">e</text><text xml:space="preserve" font-family="SourceSansPro-Regular" font-size="28.0" fill="#FEFFFF" transform="matrix(1.00, 0.00, -0.00, -1.00, 129.5, 43.8)">r</text><text xml:space="preserve" font-family="SourceSansPro-Regular" font-size="28.0" fill="#FEFFFF" transform="matrix(1.00, 0.00, -0.00, -1.00, 139.3, 43.8)"> </text><text xml:space="preserve" font-family="SourceSansPro-Regular" font-size="28.0" fill="#FEFFFF" transform="matrix(1.00, 0.00, -0.00, -1.00, 144.9, 43.8)">o</text><text xml:space="preserve" font-family="SourceSansPro-Regular" font-size="28.0" fill="#FEFFFF" transform="matrix(1.00, 0.00, -0.00, -1.00, 160.0, 43.8)"> </text><text xml:space="preserve" font-family="SourceSansPro-Regular" font-size="28.0" fill="#FEFFFF" transform="matrix(1.00, 0.00, -0.00, -1.00, 165.6, 43.8)">q</text><text xml:space="preserve" font-family="SourceSansPro-Regular" font-size="28.0" fill="#FEFFFF" transform="matrix(1.00, 0.00, -0.00, -1.00, 181.2, 43.8)">u</text><text xml:space="preserve" font-family="SourceSansPro-Regular" font-size="28.0" fill="#FEFFFF" transform="matrix(1.00, 0.00, -0.00, -1.00, 196.4, 43.8)">e</text><text xml:space="preserve" font-family="SourceSansPro-Regular" font-size="28.0" fill="#FEFFFF" transform="matrix(1.00, 0.00, -0.00, -1.00, 210.3, 43.8)"> </text><text xml:space="preserve" font-family="SourceSansPro-Regular" font-size="28.0" fill="#FEFFFF" transform="matrix(1.00, 0.00, -0.00, -1.00, 215.9, 43.8)">m</text><text xml:space="preserve" font-family="SourceSansPro-Regular" font-size="28.0" fill="#FEFFFF" transform="matrix(1.00, 0.00, -0.00, -1.00, 239.1, 43.8)">e</text><text xml:space="preserve" font-family="SourceSansPro-Regular" font-size="28.0" fill="#FEFFFF" transform="matrix(1.00, 0.00, -0.00, -1.00, 253.0, 43.8)"> </text><text xml:space="preserve" font-family="SourceSansPro-Regular" font-size="28.0" fill="#FEFFFF" transform="matrix(1.00, 0.00, -0.00, -1.00, 258.6, 43.8)">e</text><text xml:space="preserve" font-family="SourceSansPro-Regular" font-size="28.0" fill="#FEFFFF" transform="matrix(1.00, 0.00, -0.00, -1.00, 272.5, 43.8)">s</text><text xml:space="preserve" font-family="SourceSansPro-Regular" font-size="28.0" fill="#FEFFFF" transform="matrix(1.00, 0.00, -0.00, -1.00, 284.2, 43.8)">p</text><text xml:space="preserve" font-family="SourceSansPro-Regular" font-size="28.0" fill="#FEFFFF" transform="matrix(1.00, 0.00, -0.00, -1.00, 299.8, 43.8)">e</text><text xml:space="preserve" font-family="SourceSansPro-Regular" font-size="28.0" fill="#FEFFFF" transform="matrix(1.00, 0.00, -0.00, -1.00, 313.6, 43.8)">r</text><text xml:space="preserve" font-family="SourceSansPro-Regular" font-size="28.0" fill="#FEFFFF" transform="matrix(1.00, 0.00, -0.00, -1.00, 322.7, 43.8)">a</text><text xml:space="preserve" font-family="SourceSansPro-Regular" font-size="28.0" fill="#FEFFFF" transform="matrix(1.00, 0.00, -0.00, -1.00, 336.8, 43.8)">v</text><text xml:space="preserve" font-family="SourceSansPro-Regular" font-size="28.0" fill="#FEFFFF" transform="matrix(1.00, 0.00, -0.00, -1.00, 349.3, 43.8)">a</text><text xml:space="preserve" font-family="SourceSansPro-Regular" font-size="28.0" fill="#FEFFFF" transform="matrix(1.00, 0.00, -0.00, -1.00, 363.4, 43.8)"> </text><text xml:space="preserve" font-family="SourceSansPro-Regular" font-size="28.0" fill="#FEFFFF" transform="matrix(1.00, 0.00, -0.00, -1.00, 369.0, 43.8)">n</text><text xml:space="preserve" font-family="SourceSansPro-Regular" font-size="28.0" fill="#FEFFFF" transform="matrix(1.00, 0.00, -0.00, -1.00, 384.3, 43.8)">o</text><text xml:space="preserve" font-family="SourceSansPro-Regular" font-size="28.0" fill="#FEFFFF" transform="matrix(1.00, 0.00, -0.00, -1.00, 399.5, 43.8)"> </text><text xml:space="preserve" font-family="SourceSansPro-Regular" font-size="28.0" fill="#FEFFFF" transform="matrix(1.00, 0.00, -0.00, -1.00, 1.0, 7.8)">f</text><text xml:space="preserve" font-family="SourceSansPro-Regular" font-size="28.0" fill="#FEFFFF" transform="matrix(1.00, 0.00, -0.00, -1.00, 9.2, 7.8)">u</text><text xml:space="preserve" font-family="SourceSansPro-Regular" font-size="28.0" fill="#FEFFFF" transform="matrix(1.00, 0.00, -0.00, -1.00, 24.4, 7.8)">t</text><text xml:space="preserve" font-family="SourceSansPro-Regular" font-size="28.0" fill="#FEFFFF" transform="matrix(1.00, 0.00, -0.00, -1.00, 33.9, 7.8)">u</text><text xml:space="preserve" font-family="SourceSansPro-Regular" font-size="28.0" fill="#FEFFFF" transform="matrix(1.00, 0.00, -0.00, -1.00, 49.1, 7.8)">r</text><text xml:space="preserve" font-family="SourceSansPro-Regular" font-size="28.0" fill="#FEFFFF" transform="matrix(1.00, 0.00, -0.00, -1.00, 58.6, 7.8)">o</text><text xml:space="preserve" font-family="SourceSansPro-Regular" font-size="28.0" fill="#FEFFFF" transform="matrix(1.00, 0.00, -0.00, -1.00, 73.5, 7.8)">,</text><text xml:space="preserve" font-family="SourceSansPro-Regular" font-size="28.0" fill="#FEFFFF" transform="matrix(1.00, 0.00, -0.00, -1.00, 80.4, 7.8)"> </text><text xml:space="preserve" font-family="SourceSansPro-Regular" font-size="28.0" fill="#FEFFFF" transform="matrix(1.00, 0.00, -0.00, -1.00, 86.0, 7.8)">c</text><text xml:space="preserve" font-family="SourceSansPro-Regular" font-size="28.0" fill="#FEFFFF" transform="matrix(1.00, 0.00, -0.00, -1.00, 98.2, 7.8)">o</text><text xml:space="preserve" font-family="SourceSansPro-Regular" font-size="28.0" fill="#FEFFFF" transform="matrix(1.00, 0.00, -0.00, -1.00, 113.4, 7.8)">m</text><text xml:space="preserve" font-family="SourceSansPro-Regular" font-size="28.0" fill="#FEFFFF" transform="matrix(1.00, 0.00, -0.00, -1.00, 136.6, 7.8)">e</text><text xml:space="preserve" font-family="SourceSansPro-Regular" font-size="28.0" fill="#FEFFFF" transform="matrix(1.00, 0.00, -0.00, -1.00, 150.5, 7.8)">c</text><text xml:space="preserve" font-family="SourceSansPro-Regular" font-size="28.0" fill="#FEFFFF" transform="matrix(1.00, 0.00, -0.00, -1.00, 162.7, 7.8)">e</text><text xml:space="preserve" font-family="SourceSansPro-Regular" font-size="28.0" fill="#FEFFFF" transform="matrix(1.00, 0.00, -0.00, -1.00, 176.6, 7.8)">i</text><text xml:space="preserve" font-family="SourceSansPro-Regular" font-size="28.0" fill="#FEFFFF" transform="matrix(1.00, 0.00, -0.00, -1.00, 183.4, 7.8)"> </text><text xml:space="preserve" font-family="SourceSansPro-Regular" font-size="28.0" fill="#FEFFFF" transform="matrix(1.00, 0.00, -0.00, -1.00, 189.0, 7.8)">a</text><text xml:space="preserve" font-family="SourceSansPro-Regular" font-size="28.0" fill="#FEFFFF" transform="matrix(1.00, 0.00, -0.00, -1.00, 203.2, 7.8)"> </text><text xml:space="preserve" font-family="SourceSansPro-Regular" font-size="28.0" fill="#FEFFFF" transform="matrix(1.00, 0.00, -0.00, -1.00, 208.8, 7.8)">e</text><text xml:space="preserve" font-family="SourceSansPro-Regular" font-size="28.0" fill="#FEFFFF" transform="matrix(1.00, 0.00, -0.00, -1.00, 222.6, 7.8)">s</text><text xml:space="preserve" font-family="SourceSansPro-Regular" font-size="28.0" fill="#FEFFFF" transform="matrix(1.00, 0.00, -0.00, -1.00, 233.8, 7.8)">t</text><text xml:space="preserve" font-family="SourceSansPro-Regular" font-size="28.0" fill="#FEFFFF" transform="matrix(1.00, 0.00, -0.00, -1.00, 243.3, 7.8)">u</text><text xml:space="preserve" font-family="SourceSansPro-Regular" font-size="28.0" fill="#FEFFFF" transform="matrix(1.00, 0.00, -0.00, -1.00, 258.5, 7.8)">d</text><text xml:space="preserve" font-family="SourceSansPro-Regular" font-size="28.0" fill="#FEFFFF" transform="matrix(1.00, 0.00, -0.00, -1.00, 274.1, 7.8)">a</text><text xml:space="preserve" font-family="SourceSansPro-Regular" font-size="28.0" fill="#FEFFFF" transform="matrix(1.00, 0.00, -0.00, -1.00, 288.2, 7.8)">r</text><text xml:space="preserve" font-family="SourceSansPro-Regular" font-size="28.0" fill="#FEFFFF" transform="matrix(1.00, 0.00, -0.00, -1.00, 297.9, 7.8)"> </text><text xml:space="preserve" font-family="SourceSansPro-Regular" font-size="28.0" fill="#FEFFFF" transform="matrix(1.00, 0.00, -0.00, -1.00, 303.5, 7.8)">N</text><text xml:space="preserve" font-family="SourceSansPro-Regular" font-size="28.0" fill="#FEFFFF" transform="matrix(1.00, 0.00, -0.00, -1.00, 321.6, 7.8)">o</text><text xml:space="preserve" font-family="SourceSansPro-Regular" font-size="28.0" fill="#FEFFFF" transform="matrix(1.00, 0.00, -0.00, -1.00, 336.8, 7.8)">d</text><text xml:space="preserve" font-family="SourceSansPro-Regular" font-size="28.0" fill="#FEFFFF" transform="matrix(1.00, 0.00, -0.00, -1.00, 352.3, 7.8)">e</text><text xml:space="preserve" font-family="SourceSansPro-Regular" font-size="28.0" fill="#FEFFFF" transform="matrix(1.00, 0.00, -0.00, -1.00, 366.2, 7.8)">.</text><text xml:space="preserve" font-family="SourceSansPro-Regular" font-size="28.0" fill="#FEFFFF" transform="matrix(1.00, 0.00, -0.00, -1.00, 373.9, 7.8)">j</text><text xml:space="preserve" font-family="SourceSansPro-Regular" font-size="28.0" fill="#FEFFFF" transform="matrix(1.00, 0.00, -0.00, -1.00, 380.8, 7.8)">s</text><text xml:space="preserve" font-family="SourceSansPro-Regular" font-size="28.0" fill="#FEFFFF" transform="matrix(1.00, 0.00, -0.00, -1.00, 392.5, 7.8)">.</text></g></svg>