<?xml version="1.0" encoding="UTF-8" standalone="no"?><svg xmlns="http://www.w3.org/2000/svg" xmlns:xlink="http://www.w3.org/1999/xlink" clip-rule="evenodd" stroke-miterlimit="4.00" viewBox="0 0 1920 1080"><desc>SVG generated by Keynote</desc><defs></defs><g transform="matrix(1.00, 0.00, -0.00, -1.00, 0.0, 1080.0)"><path d="M 0.0 1080.0 L 1920.0 1080.0 L 1920.0 0.0 L 0.0 0.0 Z M 0.0 1080.0 " fill="#FEFFFF"></path><path d="M 0.0 1080.0 L 1920.0 1080.0 L 1920.0 -0.0 L 0.0 -0.0 Z M 0.0 1080.0 " fill="#011202"></path><g opacity="0.20"><g><clipPath id="clip-328"><path d="M 0.0 1080.0 L 1920.0 1080.0 L 1920.0 0.0 L 0.0 0.0 Z M 0.0 1080.0 "></path></clipPath><g clip-path="url(#clip-328)"><g><clipPath id="clip-329"><path d="M 0.0 0.0 L 1920.0 0.0 L 1920.0 1080.0 L 0.0 1080.0 Z M 0.0 0.0 "></path></clipPath><g clip-path="url(#clip-329)"><image xlink:href="9A469EF6B8E884945A78109BE718B473.jpeg" width="1024.00" height="768.00" transform="matrix(1.88, 0.00, -0.00, -1.88, 0.0, 1260.0)"></image></g></g></g></g></g><text xml:space="preserve" font-family="BebasNeueBold" font-weight="bold" font-size="115.0" fill="#6FBF40" transform="matrix(1.00, 0.00, -0.00, -1.00, 702.0, 651.0)">a</text><text xml:space="preserve" font-family="BebasNeueBold" font-weight="bold" font-size="115.0" fill="#6FBF40" transform="matrix(1.00, 0.00, -0.00, -1.00, 748.8, 651.0)">u</text><text xml:space="preserve" font-family="BebasNeueBold" font-weight="bold" font-size="115.0" fill="#6FBF40" transform="matrix(1.00, 0.00, -0.00, -1.00, 794.6, 651.0)">t</text><text xml:space="preserve" font-family="BebasNeueBold" font-weight="bold" font-size="115.0" fill="#6FBF40" transform="matrix(1.00, 0.00, -0.00, -1.00, 835.5, 651.0)">e</text><text xml:space="preserve" font-family="BebasNeueBold" font-weight="bold" font-size="115.0" fill="#6FBF40" transform="matrix(1.00, 0.00, -0.00, -1.00, 877.8, 651.0)">n</text><text xml:space="preserve" font-family="BebasNeueBold" font-weight="bold" font-size="115.0" fill="#6FBF40" transform="matrix(1.00, 0.00, -0.00, -1.00, 926.9, 651.0)">t</text><text xml:space="preserve" font-family="BebasNeueBold" font-weight="bold" font-size="115.0" fill="#6FBF40" transform="matrix(1.00, 0.00, -0.00, -1.00, 967.9, 651.0)">i</text><text xml:space="preserve" font-family="BebasNeueBold" font-weight="bold" font-size="115.0" fill="#6FBF40" transform="matrix(1.00, 0.00, -0.00, -1.00, 989.7, 651.0)">c</text><text xml:space="preserve" font-family="BebasNeueBold" font-weight="bold" font-size="115.0" fill="#6FBF40" transform="matrix(1.00, 0.00, -0.00, -1.00, 1034.1, 651.0)">a</text><text xml:space="preserve" font-family="BebasNeueBold" font-weight="bold" font-size="115.0" fill="#6FBF40" transform="matrix(1.00, 0.00, -0.00, -1.00, 1080.8, 651.0)">ç</text><text xml:space="preserve" font-family="BebasNeueBold" font-weight="bold" font-size="115.0" fill="#6FBF40" transform="matrix(1.00, 0.00, -0.00, -1.00, 1125.2, 651.0)">ã</text><text xml:space="preserve" font-family="BebasNeueBold" font-weight="bold" font-size="115.0" fill="#6FBF40" transform="matrix(1.00, 0.00, -0.00, -1.00, 1171.9, 651.0)">o</text><text xml:space="preserve" font-family="SourceSansPro-Regular" font-size="49.0" fill="#FEFFFF" transform="matrix(1.00, 0.00, -0.00, -1.00, 610.0, 570.0)">O</text><text xml:space="preserve" font-family="SourceSansPro-Regular" font-size="49.0" fill="#FEFFFF" transform="matrix(1.00, 0.00, -0.00, -1.00, 642.5, 570.0)">s</text><text xml:space="preserve" font-family="SourceSansPro-Regular" font-size="49.0" fill="#FEFFFF" transform="matrix(1.00, 0.00, -0.00, -1.00, 663.1, 570.0)"> </text><text xml:space="preserve" font-family="SourceSansPro-Regular" font-size="49.0" fill="#FEFFFF" transform="matrix(1.00, 0.00, -0.00, -1.00, 672.9, 570.0)">m</text><text xml:space="preserve" font-family="SourceSansPro-Regular" font-size="49.0" fill="#FEFFFF" transform="matrix(1.00, 0.00, -0.00, -1.00, 713.5, 570.0)">e</text><text xml:space="preserve" font-family="SourceSansPro-Regular" font-size="49.0" fill="#FEFFFF" transform="matrix(1.00, 0.00, -0.00, -1.00, 737.8, 570.0)">l</text><text xml:space="preserve" font-family="SourceSansPro-Regular" font-size="49.0" fill="#FEFFFF" transform="matrix(1.00, 0.00, -0.00, -1.00, 750.3, 570.0)">h</text><text xml:space="preserve" font-family="SourceSansPro-Regular" font-size="49.0" fill="#FEFFFF" transform="matrix(1.00, 0.00, -0.00, -1.00, 776.9, 570.0)">o</text><text xml:space="preserve" font-family="SourceSansPro-Regular" font-size="49.0" fill="#FEFFFF" transform="matrix(1.00, 0.00, -0.00, -1.00, 803.5, 570.0)">r</text><text xml:space="preserve" font-family="SourceSansPro-Regular" font-size="49.0" fill="#FEFFFF" transform="matrix(1.00, 0.00, -0.00, -1.00, 820.0, 570.0)">e</text><text xml:space="preserve" font-family="SourceSansPro-Regular" font-size="49.0" fill="#FEFFFF" transform="matrix(1.00, 0.00, -0.00, -1.00, 844.3, 570.0)">s</text><text xml:space="preserve" font-family="SourceSansPro-Regular" font-size="49.0" fill="#FEFFFF" transform="matrix(1.00, 0.00, -0.00, -1.00, 864.8, 570.0)"> </text><text xml:space="preserve" font-family="SourceSansPro-Regular" font-size="49.0" fill="#FEFFFF" transform="matrix(1.00, 0.00, -0.00, -1.00, 874.6, 570.0)">m</text><text xml:space="preserve" font-family="SourceSansPro-Regular" font-size="49.0" fill="#FEFFFF" transform="matrix(1.00, 0.00, -0.00, -1.00, 915.3, 570.0)">é</text><text xml:space="preserve" font-family="SourceSansPro-Regular" font-size="49.0" fill="#FEFFFF" transform="matrix(1.00, 0.00, -0.00, -1.00, 939.1, 570.0)">t</text><text xml:space="preserve" font-family="SourceSansPro-Regular" font-size="49.0" fill="#FEFFFF" transform="matrix(1.00, 0.00, -0.00, -1.00, 955.0, 570.0)">o</text><text xml:space="preserve" font-family="SourceSansPro-Regular" font-size="49.0" fill="#FEFFFF" transform="matrix(1.00, 0.00, -0.00, -1.00, 981.5, 570.0)">d</text><text xml:space="preserve" font-family="SourceSansPro-Regular" font-size="49.0" fill="#FEFFFF" transform="matrix(1.00, 0.00, -0.00, -1.00, 1008.7, 570.0)">o</text><text xml:space="preserve" font-family="SourceSansPro-Regular" font-size="49.0" fill="#FEFFFF" transform="matrix(1.00, 0.00, -0.00, -1.00, 1035.3, 570.0)">s</text><text xml:space="preserve" font-family="SourceSansPro-Regular" font-size="49.0" fill="#FEFFFF" transform="matrix(1.00, 0.00, -0.00, -1.00, 1055.8, 570.0)"> </text><text xml:space="preserve" font-family="SourceSansPro-Regular" font-size="49.0" fill="#FEFFFF" transform="matrix(1.00, 0.00, -0.00, -1.00, 1065.6, 570.0)">p</text><text xml:space="preserve" font-family="SourceSansPro-Regular" font-size="49.0" fill="#FEFFFF" transform="matrix(1.00, 0.00, -0.00, -1.00, 1092.1, 570.0)">a</text><text xml:space="preserve" font-family="SourceSansPro-Regular" font-size="49.0" fill="#FEFFFF" transform="matrix(1.00, 0.00, -0.00, -1.00, 1116.8, 570.0)">r</text><text xml:space="preserve" font-family="SourceSansPro-Regular" font-size="49.0" fill="#FEFFFF" transform="matrix(1.00, 0.00, -0.00, -1.00, 1132.6, 570.0)">a</text><text xml:space="preserve" font-family="SourceSansPro-Regular" font-size="49.0" fill="#FEFFFF" transform="matrix(1.00, 0.00, -0.00, -1.00, 1157.3, 570.0)"> </text><text xml:space="preserve" font-family="SourceSansPro-Regular" font-size="49.0" fill="#FEFFFF" transform="matrix(1.00, 0.00, -0.00, -1.00, 1167.1, 570.0)">s</text><text xml:space="preserve" font-family="SourceSansPro-Regular" font-size="49.0" fill="#FEFFFF" transform="matrix(1.00, 0.00, -0.00, -1.00, 1187.7, 570.0)">e</text><text xml:space="preserve" font-family="SourceSansPro-Regular" font-size="49.0" fill="#FEFFFF" transform="matrix(1.00, 0.00, -0.00, -1.00, 1212.0, 570.0)"> </text><text xml:space="preserve" font-family="SourceSansPro-Regular" font-size="49.0" fill="#FEFFFF" transform="matrix(1.00, 0.00, -0.00, -1.00, 1221.8, 570.0)">u</text><text xml:space="preserve" font-family="SourceSansPro-Regular" font-size="49.0" fill="#FEFFFF" transform="matrix(1.00, 0.00, -0.00, -1.00, 1248.4, 570.0)">s</text><text xml:space="preserve" font-family="SourceSansPro-Regular" font-size="49.0" fill="#FEFFFF" transform="matrix(1.00, 0.00, -0.00, -1.00, 1269.0, 570.0)">a</text><text xml:space="preserve" font-family="SourceSansPro-Regular" font-size="49.0" fill="#FEFFFF" transform="matrix(1.00, 0.00, -0.00, -1.00, 1293.6, 570.0)">r</text><path d="M 1775.0 1030.0 L 1875.0 1030.0 L 1875.0 961.0 L 1775.0 961.0 Z M 1775.0 1030.0 " fill="#52575F"></path><g><clipPath id="clip-330"><path d="M 1766.5 952.5 L 1883.5 952.5 L 1883.5 1038.5 L 1766.5 1038.5 Z M 1766.5 952.5 "></path></clipPath><g clip-path="url(#clip-330)"><text xml:space="preserve" font-family="BebasNeueBold" font-weight="bold" font-size="50.0" fill="#FEFFFF" transform="matrix(1.00, 0.00, -0.00, -1.00, 1805.0, 978.0)"> </text><text xml:space="preserve" font-family="BebasNeueBold" font-weight="bold" font-size="50.0" fill="#FEFFFF" transform="matrix(1.00, 0.00, -0.00, -1.00, 1805.0, 978.0)">3</text><text xml:space="preserve" font-family="BebasNeueBold" font-weight="bold" font-size="50.0" fill="#FEFFFF" transform="matrix(1.00, 0.00, -0.00, -1.00, 1824.8, 978.0)">9</text></g></g></g></svg>