<?xml version="1.0" encoding="UTF-8" standalone="no"?><svg xmlns="http://www.w3.org/2000/svg" xmlns:xlink="http://www.w3.org/1999/xlink" clip-rule="evenodd" stroke-miterlimit="4.00" viewBox="0 0 1920 1080"><desc>SVG generated by Keynote</desc><defs></defs><g transform="matrix(1.00, 0.00, -0.00, -1.00, 0.0, 1080.0)"><path d="M 0.0 1080.0 L 1920.0 1080.0 L 1920.0 0.0 L 0.0 0.0 Z M 0.0 1080.0 " fill="#FEFFFF"></path><path d="M 0.0 1080.0 L 1920.0 1080.0 L 1920.0 -0.0 L 0.0 -0.0 Z M 0.0 1080.0 " fill="#011202"></path><g opacity="0.20"><g><clipPath id="clip-236"><path d="M 0.0 1080.0 L 1920.0 1080.0 L 1920.0 0.0 L 0.0 0.0 Z M 0.0 1080.0 "></path></clipPath><g clip-path="url(#clip-236)"><g><clipPath id="clip-237"><path d="M 0.0 0.0 L 1920.0 0.0 L 1920.0 1080.0 L 0.0 1080.0 Z M 0.0 0.0 "></path></clipPath><g clip-path="url(#clip-237)"><image xlink:href="../../49B0041F-D2B6-45AE-B257-4A439451C92F/assets/23497D77A7F06362AFD4423070F345EA.jpeg" width="1366.00" height="768.00" transform="matrix(1.41, 0.00, -0.00, -1.41, 0.0, 1080.0)"></image></g></g></g></g></g><text xml:space="preserve" font-family="BebasNeueBold" font-weight="bold" font-size="115.0" fill="#6FBF40" transform="matrix(1.00, 0.00, -0.00, -1.00, 785.0, 428.0)">u</text><text xml:space="preserve" font-family="BebasNeueBold" font-weight="bold" font-size="115.0" fill="#6FBF40" transform="matrix(1.00, 0.00, -0.00, -1.00, 830.8, 428.0)">p</text><text xml:space="preserve" font-family="BebasNeueBold" font-weight="bold" font-size="115.0" fill="#6FBF40" transform="matrix(1.00, 0.00, -0.00, -1.00, 874.1, 428.0)">d</text><text xml:space="preserve" font-family="BebasNeueBold" font-weight="bold" font-size="115.0" fill="#6FBF40" transform="matrix(1.00, 0.00, -0.00, -1.00, 920.9, 428.0)">a</text><text xml:space="preserve" font-family="BebasNeueBold" font-weight="bold" font-size="115.0" fill="#6FBF40" transform="matrix(1.00, 0.00, -0.00, -1.00, 963.4, 428.0)">t</text><text xml:space="preserve" font-family="BebasNeueBold" font-weight="bold" font-size="115.0" fill="#6FBF40" transform="matrix(1.00, 0.00, -0.00, -1.00, 1004.3, 428.0)">e</text><text xml:space="preserve" font-family="BebasNeueBold" font-weight="bold" font-size="115.0" fill="#6FBF40" transform="matrix(1.00, 0.00, -0.00, -1.00, 1046.6, 428.0)">r</text><text xml:space="preserve" font-family="BebasNeueBold" font-weight="bold" font-size="115.0" fill="#6FBF40" transform="matrix(1.00, 0.00, -0.00, -1.00, 1092.9, 428.0)">s</text><text xml:space="preserve" font-family="SourceSansPro-Regular" font-size="43.1" fill="#FEFFFF" transform="matrix(1.00, 0.00, -0.00, -1.00, 412.0, 353.0)">S</text><text xml:space="preserve" font-family="SourceSansPro-Regular" font-size="43.1" fill="#FEFFFF" transform="matrix(1.00, 0.00, -0.00, -1.00, 435.0, 353.0)">i</text><text xml:space="preserve" font-family="SourceSansPro-Regular" font-size="43.1" fill="#FEFFFF" transform="matrix(1.00, 0.00, -0.00, -1.00, 445.6, 353.0)">m</text><text xml:space="preserve" font-family="SourceSansPro-Regular" font-size="43.1" fill="#FEFFFF" transform="matrix(1.00, 0.00, -0.00, -1.00, 481.4, 353.0)">i</text><text xml:space="preserve" font-family="SourceSansPro-Regular" font-size="43.1" fill="#FEFFFF" transform="matrix(1.00, 0.00, -0.00, -1.00, 492.0, 353.0)">l</text><text xml:space="preserve" font-family="SourceSansPro-Regular" font-size="43.1" fill="#FEFFFF" transform="matrix(1.00, 0.00, -0.00, -1.00, 503.0, 353.0)">a</text><text xml:space="preserve" font-family="SourceSansPro-Regular" font-size="43.1" fill="#FEFFFF" transform="matrix(1.00, 0.00, -0.00, -1.00, 524.7, 353.0)">r</text><text xml:space="preserve" font-family="SourceSansPro-Regular" font-size="43.1" fill="#FEFFFF" transform="matrix(1.00, 0.00, -0.00, -1.00, 539.7, 353.0)"> </text><text xml:space="preserve" font-family="SourceSansPro-Regular" font-size="43.1" fill="#FEFFFF" transform="matrix(1.00, 0.00, -0.00, -1.00, 548.3, 353.0)">a</text><text xml:space="preserve" font-family="SourceSansPro-Regular" font-size="43.1" fill="#FEFFFF" transform="matrix(1.00, 0.00, -0.00, -1.00, 570.0, 353.0)">o</text><text xml:space="preserve" font-family="SourceSansPro-Regular" font-size="43.1" fill="#FEFFFF" transform="matrix(1.00, 0.00, -0.00, -1.00, 593.4, 353.0)">s</text><text xml:space="preserve" font-family="SourceSansPro-Regular" font-size="43.1" fill="#FEFFFF" transform="matrix(1.00, 0.00, -0.00, -1.00, 611.5, 353.0)"> </text><text xml:space="preserve" font-family="SourceSansPro-Regular" font-size="43.1" fill="#FEFFFF" transform="matrix(1.00, 0.00, -0.00, -1.00, 620.1, 353.0)">R</text><text xml:space="preserve" font-family="SourceSansPro-Regular" font-size="43.1" fill="#FEFFFF" transform="matrix(1.00, 0.00, -0.00, -1.00, 644.2, 353.0)">e</text><text xml:space="preserve" font-family="SourceSansPro-Regular" font-size="43.1" fill="#FEFFFF" transform="matrix(1.00, 0.00, -0.00, -1.00, 665.6, 353.0)">s</text><text xml:space="preserve" font-family="SourceSansPro-Regular" font-size="43.1" fill="#FEFFFF" transform="matrix(1.00, 0.00, -0.00, -1.00, 683.7, 353.0)">p</text><text xml:space="preserve" font-family="SourceSansPro-Regular" font-size="43.1" fill="#FEFFFF" transform="matrix(1.00, 0.00, -0.00, -1.00, 707.6, 353.0)">o</text><text xml:space="preserve" font-family="SourceSansPro-Regular" font-size="43.1" fill="#FEFFFF" transform="matrix(1.00, 0.00, -0.00, -1.00, 731.0, 353.0)">n</text><text xml:space="preserve" font-family="SourceSansPro-Regular" font-size="43.1" fill="#FEFFFF" transform="matrix(1.00, 0.00, -0.00, -1.00, 754.5, 353.0)">d</text><text xml:space="preserve" font-family="SourceSansPro-Regular" font-size="43.1" fill="#FEFFFF" transform="matrix(1.00, 0.00, -0.00, -1.00, 778.5, 353.0)">e</text><text xml:space="preserve" font-family="SourceSansPro-Regular" font-size="43.1" fill="#FEFFFF" transform="matrix(1.00, 0.00, -0.00, -1.00, 799.9, 353.0)">r</text><text xml:space="preserve" font-family="SourceSansPro-Regular" font-size="43.1" fill="#FEFFFF" transform="matrix(1.00, 0.00, -0.00, -1.00, 814.7, 353.0)">s</text><text xml:space="preserve" font-family="SourceSansPro-Regular" font-size="43.1" fill="#FEFFFF" transform="matrix(1.00, 0.00, -0.00, -1.00, 832.7, 353.0)">.</text><text xml:space="preserve" font-family="SourceSansPro-Regular" font-size="43.1" fill="#FEFFFF" transform="matrix(1.00, 0.00, -0.00, -1.00, 843.5, 353.0)"> </text><text xml:space="preserve" font-family="SourceSansPro-Regular" font-size="43.1" fill="#FEFFFF" transform="matrix(1.00, 0.00, -0.00, -1.00, 852.1, 353.0)">S</text><text xml:space="preserve" font-family="SourceSansPro-Regular" font-size="43.1" fill="#FEFFFF" transform="matrix(1.00, 0.00, -0.00, -1.00, 875.1, 353.0)">u</text><text xml:space="preserve" font-family="SourceSansPro-Regular" font-size="43.1" fill="#FEFFFF" transform="matrix(1.00, 0.00, -0.00, -1.00, 898.6, 353.0)">a</text><text xml:space="preserve" font-family="SourceSansPro-Regular" font-size="43.1" fill="#FEFFFF" transform="matrix(1.00, 0.00, -0.00, -1.00, 920.3, 353.0)"> </text><text xml:space="preserve" font-family="SourceSansPro-Regular" font-size="43.1" fill="#FEFFFF" transform="matrix(1.00, 0.00, -0.00, -1.00, 928.9, 353.0)">f</text><text xml:space="preserve" font-family="SourceSansPro-Regular" font-size="43.1" fill="#FEFFFF" transform="matrix(1.00, 0.00, -0.00, -1.00, 941.5, 353.0)">u</text><text xml:space="preserve" font-family="SourceSansPro-Regular" font-size="43.1" fill="#FEFFFF" transform="matrix(1.00, 0.00, -0.00, -1.00, 965.0, 353.0)">n</text><text xml:space="preserve" font-family="SourceSansPro-Regular" font-size="43.1" fill="#FEFFFF" transform="matrix(1.00, 0.00, -0.00, -1.00, 988.6, 353.0)">ç</text><text xml:space="preserve" font-family="SourceSansPro-Regular" font-size="43.1" fill="#FEFFFF" transform="matrix(1.00, 0.00, -0.00, -1.00, 1007.8, 353.0)">ã</text><text xml:space="preserve" font-family="SourceSansPro-Regular" font-size="43.1" fill="#FEFFFF" transform="matrix(1.00, 0.00, -0.00, -1.00, 1029.5, 353.0)">o</text><text xml:space="preserve" font-family="SourceSansPro-Regular" font-size="43.1" fill="#FEFFFF" transform="matrix(1.00, 0.00, -0.00, -1.00, 1052.9, 353.0)"> </text><text xml:space="preserve" font-family="SourceSansPro-Regular" font-size="43.1" fill="#FEFFFF" transform="matrix(1.00, 0.00, -0.00, -1.00, 1061.5, 353.0)">é</text><text xml:space="preserve" font-family="SourceSansPro-Regular" font-size="43.1" fill="#FEFFFF" transform="matrix(1.00, 0.00, -0.00, -1.00, 1082.9, 353.0)"> </text><text xml:space="preserve" font-family="SourceSansPro-Regular" font-size="43.1" fill="#FEFFFF" transform="matrix(1.00, 0.00, -0.00, -1.00, 1091.5, 353.0)">a</text><text xml:space="preserve" font-family="SourceSansPro-Regular" font-size="43.1" fill="#FEFFFF" transform="matrix(1.00, 0.00, -0.00, -1.00, 1112.7, 353.0)">t</text><text xml:space="preserve" font-family="SourceSansPro-Regular" font-size="43.1" fill="#FEFFFF" transform="matrix(1.00, 0.00, -0.00, -1.00, 1127.2, 353.0)">u</text><text xml:space="preserve" font-family="SourceSansPro-Regular" font-size="43.1" fill="#FEFFFF" transform="matrix(1.00, 0.00, -0.00, -1.00, 1150.7, 353.0)">a</text><text xml:space="preserve" font-family="SourceSansPro-Regular" font-size="43.1" fill="#FEFFFF" transform="matrix(1.00, 0.00, -0.00, -1.00, 1172.4, 353.0)">l</text><text xml:space="preserve" font-family="SourceSansPro-Regular" font-size="43.1" fill="#FEFFFF" transform="matrix(1.00, 0.00, -0.00, -1.00, 1183.4, 353.0)">i</text><text xml:space="preserve" font-family="SourceSansPro-Regular" font-size="43.1" fill="#FEFFFF" transform="matrix(1.00, 0.00, -0.00, -1.00, 1194.0, 353.0)">z</text><text xml:space="preserve" font-family="SourceSansPro-Regular" font-size="43.1" fill="#FEFFFF" transform="matrix(1.00, 0.00, -0.00, -1.00, 1211.4, 353.0)">a</text><text xml:space="preserve" font-family="SourceSansPro-Regular" font-size="43.1" fill="#FEFFFF" transform="matrix(1.00, 0.00, -0.00, -1.00, 1233.1, 353.0)">r</text><text xml:space="preserve" font-family="SourceSansPro-Regular" font-size="43.1" fill="#FEFFFF" transform="matrix(1.00, 0.00, -0.00, -1.00, 1248.1, 353.0)"> </text><text xml:space="preserve" font-family="SourceSansPro-Regular" font-size="43.1" fill="#FEFFFF" transform="matrix(1.00, 0.00, -0.00, -1.00, 1256.7, 353.0)">d</text><text xml:space="preserve" font-family="SourceSansPro-Regular" font-size="43.1" fill="#FEFFFF" transform="matrix(1.00, 0.00, -0.00, -1.00, 1280.6, 353.0)">e</text><text xml:space="preserve" font-family="SourceSansPro-Regular" font-size="43.1" fill="#FEFFFF" transform="matrix(1.00, 0.00, -0.00, -1.00, 1301.6, 353.0)">t</text><text xml:space="preserve" font-family="SourceSansPro-Regular" font-size="43.1" fill="#FEFFFF" transform="matrix(1.00, 0.00, -0.00, -1.00, 1315.5, 353.0)">e</text><text xml:space="preserve" font-family="SourceSansPro-Regular" font-size="43.1" fill="#FEFFFF" transform="matrix(1.00, 0.00, -0.00, -1.00, 1336.9, 353.0)">r</text><text xml:space="preserve" font-family="SourceSansPro-Regular" font-size="43.1" fill="#FEFFFF" transform="matrix(1.00, 0.00, -0.00, -1.00, 1351.9, 353.0)">m</text><text xml:space="preserve" font-family="SourceSansPro-Regular" font-size="43.1" fill="#FEFFFF" transform="matrix(1.00, 0.00, -0.00, -1.00, 1387.6, 353.0)">i</text><text xml:space="preserve" font-family="SourceSansPro-Regular" font-size="43.1" fill="#FEFFFF" transform="matrix(1.00, 0.00, -0.00, -1.00, 1398.2, 353.0)">n</text><text xml:space="preserve" font-family="SourceSansPro-Regular" font-size="43.1" fill="#FEFFFF" transform="matrix(1.00, 0.00, -0.00, -1.00, 1421.8, 353.0)">a</text><text xml:space="preserve" font-family="SourceSansPro-Regular" font-size="43.1" fill="#FEFFFF" transform="matrix(1.00, 0.00, -0.00, -1.00, 1443.6, 353.0)">d</text><text xml:space="preserve" font-family="SourceSansPro-Regular" font-size="43.1" fill="#FEFFFF" transform="matrix(1.00, 0.00, -0.00, -1.00, 1467.5, 353.0)">a</text><text xml:space="preserve" font-family="SourceSansPro-Regular" font-size="43.1" fill="#FEFFFF" transform="matrix(1.00, 0.00, -0.00, -1.00, 1489.2, 353.0)">s</text><text xml:space="preserve" font-family="SourceSansPro-Regular" font-size="43.1" fill="#FEFFFF" transform="matrix(1.00, 0.00, -0.00, -1.00, 1507.3, 353.0)"> </text><text xml:space="preserve" font-family="SourceSansPro-Regular" font-size="43.1" fill="#FEFFFF" transform="matrix(1.00, 0.00, -0.00, -1.00, 311.0, 299.0)">p</text><text xml:space="preserve" font-family="SourceSansPro-Regular" font-size="43.1" fill="#FEFFFF" transform="matrix(1.00, 0.00, -0.00, -1.00, 334.9, 299.0)">r</text><text xml:space="preserve" font-family="SourceSansPro-Regular" font-size="43.1" fill="#FEFFFF" transform="matrix(1.00, 0.00, -0.00, -1.00, 349.5, 299.0)">o</text><text xml:space="preserve" font-family="SourceSansPro-Regular" font-size="43.1" fill="#FEFFFF" transform="matrix(1.00, 0.00, -0.00, -1.00, 372.8, 299.0)">p</text><text xml:space="preserve" font-family="SourceSansPro-Regular" font-size="43.1" fill="#FEFFFF" transform="matrix(1.00, 0.00, -0.00, -1.00, 396.8, 299.0)">r</text><text xml:space="preserve" font-family="SourceSansPro-Regular" font-size="43.1" fill="#FEFFFF" transform="matrix(1.00, 0.00, -0.00, -1.00, 411.7, 299.0)">i</text><text xml:space="preserve" font-family="SourceSansPro-Regular" font-size="43.1" fill="#FEFFFF" transform="matrix(1.00, 0.00, -0.00, -1.00, 422.3, 299.0)">e</text><text xml:space="preserve" font-family="SourceSansPro-Regular" font-size="43.1" fill="#FEFFFF" transform="matrix(1.00, 0.00, -0.00, -1.00, 443.7, 299.0)">d</text><text xml:space="preserve" font-family="SourceSansPro-Regular" font-size="43.1" fill="#FEFFFF" transform="matrix(1.00, 0.00, -0.00, -1.00, 467.7, 299.0)">a</text><text xml:space="preserve" font-family="SourceSansPro-Regular" font-size="43.1" fill="#FEFFFF" transform="matrix(1.00, 0.00, -0.00, -1.00, 489.4, 299.0)">d</text><text xml:space="preserve" font-family="SourceSansPro-Regular" font-size="43.1" fill="#FEFFFF" transform="matrix(1.00, 0.00, -0.00, -1.00, 513.3, 299.0)">e</text><text xml:space="preserve" font-family="SourceSansPro-Regular" font-size="43.1" fill="#FEFFFF" transform="matrix(1.00, 0.00, -0.00, -1.00, 534.7, 299.0)">s</text><text xml:space="preserve" font-family="SourceSansPro-Regular" font-size="43.1" fill="#FEFFFF" transform="matrix(1.00, 0.00, -0.00, -1.00, 552.8, 299.0)"> </text><text xml:space="preserve" font-family="SourceSansPro-Regular" font-size="43.1" fill="#FEFFFF" transform="matrix(1.00, 0.00, -0.00, -1.00, 561.4, 299.0)">d</text><text xml:space="preserve" font-family="SourceSansPro-Regular" font-size="43.1" fill="#FEFFFF" transform="matrix(1.00, 0.00, -0.00, -1.00, 585.3, 299.0)">e</text><text xml:space="preserve" font-family="SourceSansPro-Regular" font-size="43.1" fill="#FEFFFF" transform="matrix(1.00, 0.00, -0.00, -1.00, 606.7, 299.0)"> </text><text xml:space="preserve" font-family="SourceSansPro-Regular" font-size="43.1" fill="#FEFFFF" transform="matrix(1.00, 0.00, -0.00, -1.00, 615.3, 299.0)">u</text><text xml:space="preserve" font-family="SourceSansPro-Regular" font-size="43.1" fill="#FEFFFF" transform="matrix(1.00, 0.00, -0.00, -1.00, 638.8, 299.0)">m</text><text xml:space="preserve" font-family="SourceSansPro-Regular" font-size="43.1" fill="#FEFFFF" transform="matrix(1.00, 0.00, -0.00, -1.00, 674.5, 299.0)"> </text><text xml:space="preserve" font-family="SourceSansPro-Regular" font-size="43.1" fill="#FEFFFF" transform="matrix(1.00, 0.00, -0.00, -1.00, 683.2, 299.0)">r</text><text xml:space="preserve" font-family="SourceSansPro-Regular" font-size="43.1" fill="#FEFFFF" transform="matrix(1.00, 0.00, -0.00, -1.00, 697.7, 299.0)">e</text><text xml:space="preserve" font-family="SourceSansPro-Regular" font-size="43.1" fill="#FEFFFF" transform="matrix(1.00, 0.00, -0.00, -1.00, 719.1, 299.0)">c</text><text xml:space="preserve" font-family="SourceSansPro-Regular" font-size="43.1" fill="#FEFFFF" transform="matrix(1.00, 0.00, -0.00, -1.00, 738.8, 299.0)">u</text><text xml:space="preserve" font-family="SourceSansPro-Regular" font-size="43.1" fill="#FEFFFF" transform="matrix(1.00, 0.00, -0.00, -1.00, 762.2, 299.0)">r</text><text xml:space="preserve" font-family="SourceSansPro-Regular" font-size="43.1" fill="#FEFFFF" transform="matrix(1.00, 0.00, -0.00, -1.00, 777.0, 299.0)">s</text><text xml:space="preserve" font-family="SourceSansPro-Regular" font-size="43.1" fill="#FEFFFF" transform="matrix(1.00, 0.00, -0.00, -1.00, 795.1, 299.0)">o</text><text xml:space="preserve" font-family="SourceSansPro-Regular" font-size="43.1" fill="#FEFFFF" transform="matrix(1.00, 0.00, -0.00, -1.00, 818.4, 299.0)"> </text><text xml:space="preserve" font-family="SourceSansPro-Regular" font-size="43.1" fill="#FEFFFF" transform="matrix(1.00, 0.00, -0.00, -1.00, 827.1, 299.0)">d</text><text xml:space="preserve" font-family="SourceSansPro-Regular" font-size="43.1" fill="#FEFFFF" transform="matrix(1.00, 0.00, -0.00, -1.00, 851.0, 299.0)">e</text><text xml:space="preserve" font-family="SourceSansPro-Regular" font-size="43.1" fill="#FEFFFF" transform="matrix(1.00, 0.00, -0.00, -1.00, 872.4, 299.0)">p</text><text xml:space="preserve" font-family="SourceSansPro-Regular" font-size="43.1" fill="#FEFFFF" transform="matrix(1.00, 0.00, -0.00, -1.00, 896.3, 299.0)">e</text><text xml:space="preserve" font-family="SourceSansPro-Regular" font-size="43.1" fill="#FEFFFF" transform="matrix(1.00, 0.00, -0.00, -1.00, 917.7, 299.0)">n</text><text xml:space="preserve" font-family="SourceSansPro-Regular" font-size="43.1" fill="#FEFFFF" transform="matrix(1.00, 0.00, -0.00, -1.00, 941.3, 299.0)">d</text><text xml:space="preserve" font-family="SourceSansPro-Regular" font-size="43.1" fill="#FEFFFF" transform="matrix(1.00, 0.00, -0.00, -1.00, 965.2, 299.0)">e</text><text xml:space="preserve" font-family="SourceSansPro-Regular" font-size="43.1" fill="#FEFFFF" transform="matrix(1.00, 0.00, -0.00, -1.00, 986.6, 299.0)">n</text><text xml:space="preserve" font-family="SourceSansPro-Regular" font-size="43.1" fill="#FEFFFF" transform="matrix(1.00, 0.00, -0.00, -1.00, 1010.2, 299.0)">d</text><text xml:space="preserve" font-family="SourceSansPro-Regular" font-size="43.1" fill="#FEFFFF" transform="matrix(1.00, 0.00, -0.00, -1.00, 1034.1, 299.0)">o</text><text xml:space="preserve" font-family="SourceSansPro-Regular" font-size="43.1" fill="#FEFFFF" transform="matrix(1.00, 0.00, -0.00, -1.00, 1057.5, 299.0)"> </text><text xml:space="preserve" font-family="SourceSansPro-Regular" font-size="43.1" fill="#FEFFFF" transform="matrix(1.00, 0.00, -0.00, -1.00, 1066.1, 299.0)">d</text><text xml:space="preserve" font-family="SourceSansPro-Regular" font-size="43.1" fill="#FEFFFF" transform="matrix(1.00, 0.00, -0.00, -1.00, 1090.0, 299.0)">o</text><text xml:space="preserve" font-family="SourceSansPro-Regular" font-size="43.1" fill="#FEFFFF" transform="matrix(1.00, 0.00, -0.00, -1.00, 1113.4, 299.0)"> </text><text xml:space="preserve" font-family="SourceSansPro-Regular" font-size="43.1" fill="#FEFFFF" transform="matrix(1.00, 0.00, -0.00, -1.00, 1122.0, 299.0)">c</text><text xml:space="preserve" font-family="SourceSansPro-Regular" font-size="43.1" fill="#FEFFFF" transform="matrix(1.00, 0.00, -0.00, -1.00, 1140.8, 299.0)">o</text><text xml:space="preserve" font-family="SourceSansPro-Regular" font-size="43.1" fill="#FEFFFF" transform="matrix(1.00, 0.00, -0.00, -1.00, 1164.2, 299.0)">n</text><text xml:space="preserve" font-family="SourceSansPro-Regular" font-size="43.1" fill="#FEFFFF" transform="matrix(1.00, 0.00, -0.00, -1.00, 1187.8, 299.0)">t</text><text xml:space="preserve" font-family="SourceSansPro-Regular" font-size="43.1" fill="#FEFFFF" transform="matrix(1.00, 0.00, -0.00, -1.00, 1201.7, 299.0)">e</text><text xml:space="preserve" font-family="SourceSansPro-Regular" font-size="43.1" fill="#FEFFFF" transform="matrix(1.00, 0.00, -0.00, -1.00, 1222.8, 299.0)">x</text><text xml:space="preserve" font-family="SourceSansPro-Regular" font-size="43.1" fill="#FEFFFF" transform="matrix(1.00, 0.00, -0.00, -1.00, 1241.0, 299.0)">t</text><text xml:space="preserve" font-family="SourceSansPro-Regular" font-size="43.1" fill="#FEFFFF" transform="matrix(1.00, 0.00, -0.00, -1.00, 1255.0, 299.0)">o</text><text xml:space="preserve" font-family="SourceSansPro-Regular" font-size="43.1" fill="#FEFFFF" transform="matrix(1.00, 0.00, -0.00, -1.00, 1278.4, 299.0)"> </text><text xml:space="preserve" font-family="SourceSansPro-Regular" font-size="43.1" fill="#FEFFFF" transform="matrix(1.00, 0.00, -0.00, -1.00, 1287.0, 299.0)">a</text><text xml:space="preserve" font-family="SourceSansPro-Regular" font-size="43.1" fill="#FEFFFF" transform="matrix(1.00, 0.00, -0.00, -1.00, 1308.1, 299.0)">t</text><text xml:space="preserve" font-family="SourceSansPro-Regular" font-size="43.1" fill="#FEFFFF" transform="matrix(1.00, 0.00, -0.00, -1.00, 1322.7, 299.0)">u</text><text xml:space="preserve" font-family="SourceSansPro-Regular" font-size="43.1" fill="#FEFFFF" transform="matrix(1.00, 0.00, -0.00, -1.00, 1346.1, 299.0)">a</text><text xml:space="preserve" font-family="SourceSansPro-Regular" font-size="43.1" fill="#FEFFFF" transform="matrix(1.00, 0.00, -0.00, -1.00, 1367.9, 299.0)">l</text><text xml:space="preserve" font-family="SourceSansPro-Regular" font-size="43.1" fill="#FEFFFF" transform="matrix(1.00, 0.00, -0.00, -1.00, 1378.9, 299.0)"> </text><text xml:space="preserve" font-family="SourceSansPro-Regular" font-size="43.1" fill="#FEFFFF" transform="matrix(1.00, 0.00, -0.00, -1.00, 1387.5, 299.0)">d</text><text xml:space="preserve" font-family="SourceSansPro-Regular" font-size="43.1" fill="#FEFFFF" transform="matrix(1.00, 0.00, -0.00, -1.00, 1411.4, 299.0)">o</text><text xml:space="preserve" font-family="SourceSansPro-Regular" font-size="43.1" fill="#FEFFFF" transform="matrix(1.00, 0.00, -0.00, -1.00, 1434.8, 299.0)"> </text><text xml:space="preserve" font-family="SourceSansPro-Regular" font-size="43.1" fill="#FEFFFF" transform="matrix(1.00, 0.00, -0.00, -1.00, 1443.4, 299.0)">u</text><text xml:space="preserve" font-family="SourceSansPro-Regular" font-size="43.1" fill="#FEFFFF" transform="matrix(1.00, 0.00, -0.00, -1.00, 1466.9, 299.0)">s</text><text xml:space="preserve" font-family="SourceSansPro-Regular" font-size="43.1" fill="#FEFFFF" transform="matrix(1.00, 0.00, -0.00, -1.00, 1484.9, 299.0)">u</text><text xml:space="preserve" font-family="SourceSansPro-Regular" font-size="43.1" fill="#FEFFFF" transform="matrix(1.00, 0.00, -0.00, -1.00, 1508.4, 299.0)">á</text><text xml:space="preserve" font-family="SourceSansPro-Regular" font-size="43.1" fill="#FEFFFF" transform="matrix(1.00, 0.00, -0.00, -1.00, 1530.1, 299.0)">r</text><text xml:space="preserve" font-family="SourceSansPro-Regular" font-size="43.1" fill="#FEFFFF" transform="matrix(1.00, 0.00, -0.00, -1.00, 1545.1, 299.0)">i</text><text xml:space="preserve" font-family="SourceSansPro-Regular" font-size="43.1" fill="#FEFFFF" transform="matrix(1.00, 0.00, -0.00, -1.00, 1555.7, 299.0)">o</text><text xml:space="preserve" font-family="SourceSansPro-Regular" font-size="43.1" fill="#FEFFFF" transform="matrix(1.00, 0.00, -0.00, -1.00, 1579.1, 299.0)"> </text><text xml:space="preserve" font-family="SourceSansPro-Regular" font-size="43.1" fill="#FEFFFF" transform="matrix(1.00, 0.00, -0.00, -1.00, 1587.7, 299.0)">e</text><text xml:space="preserve" font-family="SourceSansPro-Regular" font-size="43.1" fill="#FEFFFF" transform="matrix(1.00, 0.00, -0.00, -1.00, 1609.1, 299.0)"> </text><text xml:space="preserve" font-family="SourceSansPro-Regular" font-size="43.1" fill="#FEFFFF" transform="matrix(1.00, 0.00, -0.00, -1.00, 378.0, 245.0)">d</text><text xml:space="preserve" font-family="SourceSansPro-Regular" font-size="43.1" fill="#FEFFFF" transform="matrix(1.00, 0.00, -0.00, -1.00, 401.9, 245.0)">o</text><text xml:space="preserve" font-family="SourceSansPro-Regular" font-size="43.1" fill="#FEFFFF" transform="matrix(1.00, 0.00, -0.00, -1.00, 425.3, 245.0)">s</text><text xml:space="preserve" font-family="SourceSansPro-Regular" font-size="43.1" fill="#FEFFFF" transform="matrix(1.00, 0.00, -0.00, -1.00, 443.4, 245.0)"> </text><text xml:space="preserve" font-family="SourceSansPro-Regular" font-size="43.1" fill="#FEFFFF" transform="matrix(1.00, 0.00, -0.00, -1.00, 452.0, 245.0)">n</text><text xml:space="preserve" font-family="SourceSansPro-Regular" font-size="43.1" fill="#FEFFFF" transform="matrix(1.00, 0.00, -0.00, -1.00, 475.6, 245.0)">í</text><text xml:space="preserve" font-family="SourceSansPro-Regular" font-size="43.1" fill="#FEFFFF" transform="matrix(1.00, 0.00, -0.00, -1.00, 486.2, 245.0)">v</text><text xml:space="preserve" font-family="SourceSansPro-Regular" font-size="43.1" fill="#FEFFFF" transform="matrix(1.00, 0.00, -0.00, -1.00, 506.2, 245.0)">e</text><text xml:space="preserve" font-family="SourceSansPro-Regular" font-size="43.1" fill="#FEFFFF" transform="matrix(1.00, 0.00, -0.00, -1.00, 527.5, 245.0)">i</text><text xml:space="preserve" font-family="SourceSansPro-Regular" font-size="43.1" fill="#FEFFFF" transform="matrix(1.00, 0.00, -0.00, -1.00, 538.1, 245.0)">s</text><text xml:space="preserve" font-family="SourceSansPro-Regular" font-size="43.1" fill="#FEFFFF" transform="matrix(1.00, 0.00, -0.00, -1.00, 556.2, 245.0)"> </text><text xml:space="preserve" font-family="SourceSansPro-Regular" font-size="43.1" fill="#FEFFFF" transform="matrix(1.00, 0.00, -0.00, -1.00, 564.8, 245.0)">d</text><text xml:space="preserve" font-family="SourceSansPro-Regular" font-size="43.1" fill="#FEFFFF" transform="matrix(1.00, 0.00, -0.00, -1.00, 588.8, 245.0)">e</text><text xml:space="preserve" font-family="SourceSansPro-Regular" font-size="43.1" fill="#FEFFFF" transform="matrix(1.00, 0.00, -0.00, -1.00, 610.2, 245.0)"> </text><text xml:space="preserve" font-family="SourceSansPro-Regular" font-size="43.1" fill="#FEFFFF" transform="matrix(1.00, 0.00, -0.00, -1.00, 618.8, 245.0)">a</text><text xml:space="preserve" font-family="SourceSansPro-Regular" font-size="43.1" fill="#FEFFFF" transform="matrix(1.00, 0.00, -0.00, -1.00, 640.5, 245.0)">c</text><text xml:space="preserve" font-family="SourceSansPro-Regular" font-size="43.1" fill="#FEFFFF" transform="matrix(1.00, 0.00, -0.00, -1.00, 659.3, 245.0)">e</text><text xml:space="preserve" font-family="SourceSansPro-Regular" font-size="43.1" fill="#FEFFFF" transform="matrix(1.00, 0.00, -0.00, -1.00, 680.7, 245.0)">s</text><text xml:space="preserve" font-family="SourceSansPro-Regular" font-size="43.1" fill="#FEFFFF" transform="matrix(1.00, 0.00, -0.00, -1.00, 698.7, 245.0)">s</text><text xml:space="preserve" font-family="SourceSansPro-Regular" font-size="43.1" fill="#FEFFFF" transform="matrix(1.00, 0.00, -0.00, -1.00, 716.8, 245.0)">o</text><text xml:space="preserve" font-family="SourceSansPro-Regular" font-size="43.1" fill="#FEFFFF" transform="matrix(1.00, 0.00, -0.00, -1.00, 740.2, 245.0)"> </text><text xml:space="preserve" font-family="SourceSansPro-Regular" font-size="43.1" fill="#FEFFFF" transform="matrix(1.00, 0.00, -0.00, -1.00, 748.8, 245.0)">d</text><text xml:space="preserve" font-family="SourceSansPro-Regular" font-size="43.1" fill="#FEFFFF" transform="matrix(1.00, 0.00, -0.00, -1.00, 772.7, 245.0)">a</text><text xml:space="preserve" font-family="SourceSansPro-Regular" font-size="43.1" fill="#FEFFFF" transform="matrix(1.00, 0.00, -0.00, -1.00, 794.5, 245.0)">q</text><text xml:space="preserve" font-family="SourceSansPro-Regular" font-size="43.1" fill="#FEFFFF" transform="matrix(1.00, 0.00, -0.00, -1.00, 818.4, 245.0)">u</text><text xml:space="preserve" font-family="SourceSansPro-Regular" font-size="43.1" fill="#FEFFFF" transform="matrix(1.00, 0.00, -0.00, -1.00, 841.8, 245.0)">e</text><text xml:space="preserve" font-family="SourceSansPro-Regular" font-size="43.1" fill="#FEFFFF" transform="matrix(1.00, 0.00, -0.00, -1.00, 863.2, 245.0)">l</text><text xml:space="preserve" font-family="SourceSansPro-Regular" font-size="43.1" fill="#FEFFFF" transform="matrix(1.00, 0.00, -0.00, -1.00, 874.2, 245.0)">e</text><text xml:space="preserve" font-family="SourceSansPro-Regular" font-size="43.1" fill="#FEFFFF" transform="matrix(1.00, 0.00, -0.00, -1.00, 895.6, 245.0)"> </text><text xml:space="preserve" font-family="SourceSansPro-Regular" font-size="43.1" fill="#FEFFFF" transform="matrix(1.00, 0.00, -0.00, -1.00, 904.2, 245.0)">r</text><text xml:space="preserve" font-family="SourceSansPro-Regular" font-size="43.1" fill="#FEFFFF" transform="matrix(1.00, 0.00, -0.00, -1.00, 918.8, 245.0)">e</text><text xml:space="preserve" font-family="SourceSansPro-Regular" font-size="43.1" fill="#FEFFFF" transform="matrix(1.00, 0.00, -0.00, -1.00, 940.2, 245.0)">c</text><text xml:space="preserve" font-family="SourceSansPro-Regular" font-size="43.1" fill="#FEFFFF" transform="matrix(1.00, 0.00, -0.00, -1.00, 959.8, 245.0)">u</text><text xml:space="preserve" font-family="SourceSansPro-Regular" font-size="43.1" fill="#FEFFFF" transform="matrix(1.00, 0.00, -0.00, -1.00, 983.3, 245.0)">r</text><text xml:space="preserve" font-family="SourceSansPro-Regular" font-size="43.1" fill="#FEFFFF" transform="matrix(1.00, 0.00, -0.00, -1.00, 998.1, 245.0)">s</text><text xml:space="preserve" font-family="SourceSansPro-Regular" font-size="43.1" fill="#FEFFFF" transform="matrix(1.00, 0.00, -0.00, -1.00, 1016.1, 245.0)">o</text><text xml:space="preserve" font-family="SourceSansPro-Regular" font-size="43.1" fill="#FEFFFF" transform="matrix(1.00, 0.00, -0.00, -1.00, 1039.1, 245.0)">.</text><text xml:space="preserve" font-family="SourceSansPro-Regular" font-size="43.1" fill="#FEFFFF" transform="matrix(1.00, 0.00, -0.00, -1.00, 1049.8, 245.0)"> </text><text xml:space="preserve" font-family="SourceSansPro-Regular" font-size="43.1" fill="#FEFFFF" transform="matrix(1.00, 0.00, -0.00, -1.00, 1058.4, 245.0)">P</text><text xml:space="preserve" font-family="SourceSansPro-Regular" font-size="43.1" fill="#FEFFFF" transform="matrix(1.00, 0.00, -0.00, -1.00, 1081.8, 245.0)">e</text><text xml:space="preserve" font-family="SourceSansPro-Regular" font-size="43.1" fill="#FEFFFF" transform="matrix(1.00, 0.00, -0.00, -1.00, 1103.2, 245.0)">r</text><text xml:space="preserve" font-family="SourceSansPro-Regular" font-size="43.1" fill="#FEFFFF" transform="matrix(1.00, 0.00, -0.00, -1.00, 1118.2, 245.0)">m</text><text xml:space="preserve" font-family="SourceSansPro-Regular" font-size="43.1" fill="#FEFFFF" transform="matrix(1.00, 0.00, -0.00, -1.00, 1153.9, 245.0)">i</text><text xml:space="preserve" font-family="SourceSansPro-Regular" font-size="43.1" fill="#FEFFFF" transform="matrix(1.00, 0.00, -0.00, -1.00, 1164.5, 245.0)">t</text><text xml:space="preserve" font-family="SourceSansPro-Regular" font-size="43.1" fill="#FEFFFF" transform="matrix(1.00, 0.00, -0.00, -1.00, 1179.1, 245.0)">i</text><text xml:space="preserve" font-family="SourceSansPro-Regular" font-size="43.1" fill="#FEFFFF" transform="matrix(1.00, 0.00, -0.00, -1.00, 1189.7, 245.0)">n</text><text xml:space="preserve" font-family="SourceSansPro-Regular" font-size="43.1" fill="#FEFFFF" transform="matrix(1.00, 0.00, -0.00, -1.00, 1213.3, 245.0)">d</text><text xml:space="preserve" font-family="SourceSansPro-Regular" font-size="43.1" fill="#FEFFFF" transform="matrix(1.00, 0.00, -0.00, -1.00, 1237.2, 245.0)">o</text><text xml:space="preserve" font-family="SourceSansPro-Regular" font-size="43.1" fill="#FEFFFF" transform="matrix(1.00, 0.00, -0.00, -1.00, 1260.6, 245.0)"> </text><text xml:space="preserve" font-family="SourceSansPro-Regular" font-size="43.1" fill="#FEFFFF" transform="matrix(1.00, 0.00, -0.00, -1.00, 1269.2, 245.0)">a</text><text xml:space="preserve" font-family="SourceSansPro-Regular" font-size="43.1" fill="#FEFFFF" transform="matrix(1.00, 0.00, -0.00, -1.00, 1290.3, 245.0)">t</text><text xml:space="preserve" font-family="SourceSansPro-Regular" font-size="43.1" fill="#FEFFFF" transform="matrix(1.00, 0.00, -0.00, -1.00, 1304.9, 245.0)">u</text><text xml:space="preserve" font-family="SourceSansPro-Regular" font-size="43.1" fill="#FEFFFF" transform="matrix(1.00, 0.00, -0.00, -1.00, 1328.4, 245.0)">a</text><text xml:space="preserve" font-family="SourceSansPro-Regular" font-size="43.1" fill="#FEFFFF" transform="matrix(1.00, 0.00, -0.00, -1.00, 1350.1, 245.0)">l</text><text xml:space="preserve" font-family="SourceSansPro-Regular" font-size="43.1" fill="#FEFFFF" transform="matrix(1.00, 0.00, -0.00, -1.00, 1361.1, 245.0)">i</text><text xml:space="preserve" font-family="SourceSansPro-Regular" font-size="43.1" fill="#FEFFFF" transform="matrix(1.00, 0.00, -0.00, -1.00, 1371.7, 245.0)">z</text><text xml:space="preserve" font-family="SourceSansPro-Regular" font-size="43.1" fill="#FEFFFF" transform="matrix(1.00, 0.00, -0.00, -1.00, 1389.0, 245.0)">a</text><text xml:space="preserve" font-family="SourceSansPro-Regular" font-size="43.1" fill="#FEFFFF" transform="matrix(1.00, 0.00, -0.00, -1.00, 1410.8, 245.0)">r</text><text xml:space="preserve" font-family="SourceSansPro-Regular" font-size="43.1" fill="#FEFFFF" transform="matrix(1.00, 0.00, -0.00, -1.00, 1425.7, 245.0)"> </text><text xml:space="preserve" font-family="SourceSansPro-Regular" font-size="43.1" fill="#FEFFFF" transform="matrix(1.00, 0.00, -0.00, -1.00, 1434.4, 245.0)">c</text><text xml:space="preserve" font-family="SourceSansPro-Regular" font-size="43.1" fill="#FEFFFF" transform="matrix(1.00, 0.00, -0.00, -1.00, 1453.1, 245.0)">e</text><text xml:space="preserve" font-family="SourceSansPro-Regular" font-size="43.1" fill="#FEFFFF" transform="matrix(1.00, 0.00, -0.00, -1.00, 1474.5, 245.0)">r</text><text xml:space="preserve" font-family="SourceSansPro-Regular" font-size="43.1" fill="#FEFFFF" transform="matrix(1.00, 0.00, -0.00, -1.00, 1489.5, 245.0)">t</text><text xml:space="preserve" font-family="SourceSansPro-Regular" font-size="43.1" fill="#FEFFFF" transform="matrix(1.00, 0.00, -0.00, -1.00, 1503.1, 245.0)">a</text><text xml:space="preserve" font-family="SourceSansPro-Regular" font-size="43.1" fill="#FEFFFF" transform="matrix(1.00, 0.00, -0.00, -1.00, 1524.9, 245.0)">s</text><text xml:space="preserve" font-family="SourceSansPro-Regular" font-size="43.1" fill="#FEFFFF" transform="matrix(1.00, 0.00, -0.00, -1.00, 1542.9, 245.0)"> </text><text xml:space="preserve" font-family="SourceSansPro-Regular" font-size="43.1" fill="#FEFFFF" transform="matrix(1.00, 0.00, -0.00, -1.00, 613.0, 191.0)">p</text><text xml:space="preserve" font-family="SourceSansPro-Regular" font-size="43.1" fill="#FEFFFF" transform="matrix(1.00, 0.00, -0.00, -1.00, 636.9, 191.0)">r</text><text xml:space="preserve" font-family="SourceSansPro-Regular" font-size="43.1" fill="#FEFFFF" transform="matrix(1.00, 0.00, -0.00, -1.00, 651.5, 191.0)">o</text><text xml:space="preserve" font-family="SourceSansPro-Regular" font-size="43.1" fill="#FEFFFF" transform="matrix(1.00, 0.00, -0.00, -1.00, 674.8, 191.0)">p</text><text xml:space="preserve" font-family="SourceSansPro-Regular" font-size="43.1" fill="#FEFFFF" transform="matrix(1.00, 0.00, -0.00, -1.00, 698.8, 191.0)">r</text><text xml:space="preserve" font-family="SourceSansPro-Regular" font-size="43.1" fill="#FEFFFF" transform="matrix(1.00, 0.00, -0.00, -1.00, 713.7, 191.0)">i</text><text xml:space="preserve" font-family="SourceSansPro-Regular" font-size="43.1" fill="#FEFFFF" transform="matrix(1.00, 0.00, -0.00, -1.00, 724.3, 191.0)">e</text><text xml:space="preserve" font-family="SourceSansPro-Regular" font-size="43.1" fill="#FEFFFF" transform="matrix(1.00, 0.00, -0.00, -1.00, 745.7, 191.0)">d</text><text xml:space="preserve" font-family="SourceSansPro-Regular" font-size="43.1" fill="#FEFFFF" transform="matrix(1.00, 0.00, -0.00, -1.00, 769.7, 191.0)">a</text><text xml:space="preserve" font-family="SourceSansPro-Regular" font-size="43.1" fill="#FEFFFF" transform="matrix(1.00, 0.00, -0.00, -1.00, 791.4, 191.0)">d</text><text xml:space="preserve" font-family="SourceSansPro-Regular" font-size="43.1" fill="#FEFFFF" transform="matrix(1.00, 0.00, -0.00, -1.00, 815.3, 191.0)">e</text><text xml:space="preserve" font-family="SourceSansPro-Regular" font-size="43.1" fill="#FEFFFF" transform="matrix(1.00, 0.00, -0.00, -1.00, 836.7, 191.0)">s</text><text xml:space="preserve" font-family="SourceSansPro-Regular" font-size="43.1" fill="#FEFFFF" transform="matrix(1.00, 0.00, -0.00, -1.00, 854.8, 191.0)"> </text><text xml:space="preserve" font-family="SourceSansPro-Regular" font-size="43.1" fill="#FEFFFF" transform="matrix(1.00, 0.00, -0.00, -1.00, 863.4, 191.0)">p</text><text xml:space="preserve" font-family="SourceSansPro-Regular" font-size="43.1" fill="#FEFFFF" transform="matrix(1.00, 0.00, -0.00, -1.00, 887.3, 191.0)">r</text><text xml:space="preserve" font-family="SourceSansPro-Regular" font-size="43.1" fill="#FEFFFF" transform="matrix(1.00, 0.00, -0.00, -1.00, 902.3, 191.0)">i</text><text xml:space="preserve" font-family="SourceSansPro-Regular" font-size="43.1" fill="#FEFFFF" transform="matrix(1.00, 0.00, -0.00, -1.00, 912.9, 191.0)">v</text><text xml:space="preserve" font-family="SourceSansPro-Regular" font-size="43.1" fill="#FEFFFF" transform="matrix(1.00, 0.00, -0.00, -1.00, 932.2, 191.0)">a</text><text xml:space="preserve" font-family="SourceSansPro-Regular" font-size="43.1" fill="#FEFFFF" transform="matrix(1.00, 0.00, -0.00, -1.00, 953.9, 191.0)">d</text><text xml:space="preserve" font-family="SourceSansPro-Regular" font-size="43.1" fill="#FEFFFF" transform="matrix(1.00, 0.00, -0.00, -1.00, 977.8, 191.0)">a</text><text xml:space="preserve" font-family="SourceSansPro-Regular" font-size="43.1" fill="#FEFFFF" transform="matrix(1.00, 0.00, -0.00, -1.00, 999.6, 191.0)">s</text><text xml:space="preserve" font-family="SourceSansPro-Regular" font-size="43.1" fill="#FEFFFF" transform="matrix(1.00, 0.00, -0.00, -1.00, 1017.6, 191.0)"> </text><text xml:space="preserve" font-family="SourceSansPro-Regular" font-size="43.1" fill="#FEFFFF" transform="matrix(1.00, 0.00, -0.00, -1.00, 1026.3, 191.0)">c</text><text xml:space="preserve" font-family="SourceSansPro-Regular" font-size="43.1" fill="#FEFFFF" transform="matrix(1.00, 0.00, -0.00, -1.00, 1045.0, 191.0)">o</text><text xml:space="preserve" font-family="SourceSansPro-Regular" font-size="43.1" fill="#FEFFFF" transform="matrix(1.00, 0.00, -0.00, -1.00, 1068.4, 191.0)">m</text><text xml:space="preserve" font-family="SourceSansPro-Regular" font-size="43.1" fill="#FEFFFF" transform="matrix(1.00, 0.00, -0.00, -1.00, 1104.1, 191.0)"> </text><text xml:space="preserve" font-family="SourceSansPro-Regular" font-size="43.1" fill="#FEFFFF" transform="matrix(1.00, 0.00, -0.00, -1.00, 1112.8, 191.0)">s</text><text xml:space="preserve" font-family="SourceSansPro-Regular" font-size="43.1" fill="#FEFFFF" transform="matrix(1.00, 0.00, -0.00, -1.00, 1130.8, 191.0)">e</text><text xml:space="preserve" font-family="SourceSansPro-Regular" font-size="43.1" fill="#FEFFFF" transform="matrix(1.00, 0.00, -0.00, -1.00, 1151.8, 191.0)">g</text><text xml:space="preserve" font-family="SourceSansPro-Regular" font-size="43.1" fill="#FEFFFF" transform="matrix(1.00, 0.00, -0.00, -1.00, 1173.5, 191.0)">u</text><text xml:space="preserve" font-family="SourceSansPro-Regular" font-size="43.1" fill="#FEFFFF" transform="matrix(1.00, 0.00, -0.00, -1.00, 1197.0, 191.0)">r</text><text xml:space="preserve" font-family="SourceSansPro-Regular" font-size="43.1" fill="#FEFFFF" transform="matrix(1.00, 0.00, -0.00, -1.00, 1210.9, 191.0)">a</text><text xml:space="preserve" font-family="SourceSansPro-Regular" font-size="43.1" fill="#FEFFFF" transform="matrix(1.00, 0.00, -0.00, -1.00, 1232.6, 191.0)">n</text><text xml:space="preserve" font-family="SourceSansPro-Regular" font-size="43.1" fill="#FEFFFF" transform="matrix(1.00, 0.00, -0.00, -1.00, 1256.2, 191.0)">ç</text><text xml:space="preserve" font-family="SourceSansPro-Regular" font-size="43.1" fill="#FEFFFF" transform="matrix(1.00, 0.00, -0.00, -1.00, 1275.5, 191.0)">a</text><text xml:space="preserve" font-family="SourceSansPro-Regular" font-size="43.1" fill="#FEFFFF" transform="matrix(1.00, 0.00, -0.00, -1.00, 1297.2, 191.0)">.</text><path d="M 1775.0 1030.0 L 1875.0 1030.0 L 1875.0 961.0 L 1775.0 961.0 Z M 1775.0 1030.0 " fill="#52575F"></path><g><clipPath id="clip-238"><path d="M 1766.5 952.5 L 1883.5 952.5 L 1883.5 1038.5 L 1766.5 1038.5 Z M 1766.5 952.5 "></path></clipPath><g clip-path="url(#clip-238)"><text xml:space="preserve" font-family="BebasNeueBold" font-weight="bold" font-size="50.0" fill="#FEFFFF" transform="matrix(1.00, 0.00, -0.00, -1.00, 1805.0, 978.0)"> </text><text xml:space="preserve" font-family="BebasNeueBold" font-weight="bold" font-size="50.0" fill="#FEFFFF" transform="matrix(1.00, 0.00, -0.00, -1.00, 1805.0, 978.0)">2</text><text xml:space="preserve" font-family="BebasNeueBold" font-weight="bold" font-size="50.0" fill="#FEFFFF" transform="matrix(1.00, 0.00, -0.00, -1.00, 1824.8, 978.0)">7</text></g></g></g></svg>