<?xml version="1.0" encoding="UTF-8" standalone="no"?><svg xmlns="http://www.w3.org/2000/svg" xmlns:xlink="http://www.w3.org/1999/xlink" clip-rule="evenodd" stroke-miterlimit="4.00" viewBox="0 0 1920 1080"><desc>SVG generated by Keynote</desc><defs></defs><g transform="matrix(1.00, 0.00, -0.00, -1.00, 0.0, 1080.0)"><path d="M 0.0 1080.0 L 1920.0 1080.0 L 1920.0 0.0 L 0.0 0.0 Z M 0.0 1080.0 " fill="#FEFFFF"></path><g opacity="0.20"><g><clipPath id="clip-149"><path d="M 0.0 1080.0 L 1920.0 1080.0 L 1920.0 0.0 L 0.0 0.0 Z M 0.0 1080.0 "></path></clipPath><g clip-path="url(#clip-149)"><g><clipPath id="clip-150"><path d="M 0.0 0.0 L 1920.0 0.0 L 1920.0 1080.0 L 0.0 1080.0 Z M 0.0 0.0 "></path></clipPath><g clip-path="url(#clip-150)"><image xlink:href="../../49B0041F-D2B6-45AE-B257-4A439451C92F/assets/23497D77A7F06362AFD4423070F345EA.jpeg" width="1366.00" height="768.00" transform="matrix(1.41, 0.00, -0.00, -1.41, 0.0, 1080.0)"></image></g></g></g></g></g><g opacity="0.75"><g><clipPath id="clip-151"><path d="M 1250.0 0.0 L 1618.0 0.0 L 1618.0 361.0 L 1250.0 361.0 Z M 1250.0 0.0 "></path></clipPath><g clip-path="url(#clip-151)"><path d="M 1252.0 360.0 L 1617.0 360.0 L 1617.0 0.0 L 1252.0 0.0 Z M 1252.0 360.0 " fill="#000000"></path></g></g></g><g opacity="0.75"><g><clipPath id="clip-152"><path d="M 1250.0 718.0 L 1618.0 718.0 L 1618.0 1080.0 L 1250.0 1080.0 Z M 1250.0 718.0 "></path></clipPath><g clip-path="url(#clip-152)"><path d="M 1252.0 1080.0 L 1617.0 1080.0 L 1617.0 720.0 L 1252.0 720.0 Z M 1252.0 1080.0 " fill="#000000"></path></g></g></g><g opacity="0.75"><g><clipPath id="clip-153"><path d="M 1250.0 359.0 L 1618.0 359.0 L 1618.0 722.0 L 1250.0 722.0 Z M 1250.0 359.0 "></path></clipPath><g clip-path="url(#clip-153)"><path d="M 1252.0 720.3 L 1617.0 720.3 L 1617.0 360.3 L 1252.0 360.3 Z M 1252.0 720.3 " fill="#000000"></path></g></g></g><text xml:space="preserve" font-family="BebasNeueBold" font-weight="bold" font-size="75.0" fill="#6FBF40" transform="matrix(1.00, 0.00, -0.00, -1.00, 1314.0, 514.0)">p</text><text xml:space="preserve" font-family="BebasNeueBold" font-weight="bold" font-size="75.0" fill="#6FBF40" transform="matrix(1.00, 0.00, -0.00, -1.00, 1342.3, 514.0)">r</text><text xml:space="preserve" font-family="BebasNeueBold" font-weight="bold" font-size="75.0" fill="#6FBF40" transform="matrix(1.00, 0.00, -0.00, -1.00, 1372.4, 514.0)">o</text><text xml:space="preserve" font-family="BebasNeueBold" font-weight="bold" font-size="75.0" fill="#6FBF40" transform="matrix(1.00, 0.00, -0.00, -1.00, 1402.1, 514.0)">m</text><text xml:space="preserve" font-family="BebasNeueBold" font-weight="bold" font-size="75.0" fill="#6FBF40" transform="matrix(1.00, 0.00, -0.00, -1.00, 1442.7, 514.0)">i</text><text xml:space="preserve" font-family="BebasNeueBold" font-weight="bold" font-size="75.0" fill="#6FBF40" transform="matrix(1.00, 0.00, -0.00, -1.00, 1457.0, 514.0)">s</text><text xml:space="preserve" font-family="BebasNeueBold" font-weight="bold" font-size="75.0" fill="#6FBF40" transform="matrix(1.00, 0.00, -0.00, -1.00, 1485.0, 514.0)">e</text><text xml:space="preserve" font-family="BebasNeueBold" font-weight="bold" font-size="75.0" fill="#6FBF40" transform="matrix(1.00, 0.00, -0.00, -1.00, 1512.6, 514.0)">s</text><text xml:space="preserve" font-family="BebasNeueBold" font-weight="bold" font-size="75.0" fill="#6FBF40" transform="matrix(1.00, 0.00, -0.00, -1.00, 1316.0, 154.0)">c</text><text xml:space="preserve" font-family="BebasNeueBold" font-weight="bold" font-size="75.0" fill="#6FBF40" transform="matrix(1.00, 0.00, -0.00, -1.00, 1345.0, 154.0)">o</text><text xml:space="preserve" font-family="BebasNeueBold" font-weight="bold" font-size="75.0" fill="#6FBF40" transform="matrix(1.00, 0.00, -0.00, -1.00, 1374.7, 154.0)">e</text><text xml:space="preserve" font-family="BebasNeueBold" font-weight="bold" font-size="75.0" fill="#6FBF40" transform="matrix(1.00, 0.00, -0.00, -1.00, 1402.2, 154.0)">r</text><text xml:space="preserve" font-family="BebasNeueBold" font-weight="bold" font-size="75.0" fill="#6FBF40" transform="matrix(1.00, 0.00, -0.00, -1.00, 1432.4, 154.0)">c</text><text xml:space="preserve" font-family="BebasNeueBold" font-weight="bold" font-size="75.0" fill="#6FBF40" transform="matrix(1.00, 0.00, -0.00, -1.00, 1461.3, 154.0)">i</text><text xml:space="preserve" font-family="BebasNeueBold" font-weight="bold" font-size="75.0" fill="#6FBF40" transform="matrix(1.00, 0.00, -0.00, -1.00, 1475.6, 154.0)">o</text><text xml:space="preserve" font-family="BebasNeueBold" font-weight="bold" font-size="75.0" fill="#6FBF40" transform="matrix(1.00, 0.00, -0.00, -1.00, 1505.3, 154.0)">n</text><text xml:space="preserve" font-family="BebasNeueBold" font-weight="bold" font-size="75.0" fill="#6FBF40" transform="matrix(1.00, 0.00, -0.00, -1.00, 1355.0, 905.0)">t</text><text xml:space="preserve" font-family="BebasNeueBold" font-weight="bold" font-size="75.0" fill="#6FBF40" transform="matrix(1.00, 0.00, -0.00, -1.00, 1381.7, 905.0)">y</text><text xml:space="preserve" font-family="BebasNeueBold" font-weight="bold" font-size="75.0" fill="#6FBF40" transform="matrix(1.00, 0.00, -0.00, -1.00, 1411.4, 905.0)">p</text><text xml:space="preserve" font-family="BebasNeueBold" font-weight="bold" font-size="75.0" fill="#6FBF40" transform="matrix(1.00, 0.00, -0.00, -1.00, 1439.7, 905.0)">e</text><text xml:space="preserve" font-family="BebasNeueBold" font-weight="bold" font-size="75.0" fill="#6FBF40" transform="matrix(1.00, 0.00, -0.00, -1.00, 1467.3, 905.0)">d</text><text xml:space="preserve" font-family="BebasNeueBold" font-weight="bold" font-size="75.0" fill="#6FBF40" transform="matrix(1.00, 0.00, -0.00, -1.00, 1497.9, 905.0)"> </text><text xml:space="preserve" font-family="BebasNeueBold" font-weight="bold" font-size="75.0" fill="#6FBF40" transform="matrix(1.00, 0.00, -0.00, -1.00, 1339.0, 842.0)">e</text><text xml:space="preserve" font-family="BebasNeueBold" font-weight="bold" font-size="75.0" fill="#6FBF40" transform="matrix(1.00, 0.00, -0.00, -1.00, 1366.6, 842.0)">r</text><text xml:space="preserve" font-family="BebasNeueBold" font-weight="bold" font-size="75.0" fill="#6FBF40" transform="matrix(1.00, 0.00, -0.00, -1.00, 1396.8, 842.0)">r</text><text xml:space="preserve" font-family="BebasNeueBold" font-weight="bold" font-size="75.0" fill="#6FBF40" transform="matrix(1.00, 0.00, -0.00, -1.00, 1426.9, 842.0)">o</text><text xml:space="preserve" font-family="BebasNeueBold" font-weight="bold" font-size="75.0" fill="#6FBF40" transform="matrix(1.00, 0.00, -0.00, -1.00, 1456.6, 842.0)">r</text><text xml:space="preserve" font-family="BebasNeueBold" font-weight="bold" font-size="75.0" fill="#6FBF40" transform="matrix(1.00, 0.00, -0.00, -1.00, 1486.8, 842.0)">s</text><g opacity="0.75"><g><clipPath id="clip-154"><path d="M 302.0 0.0 L 670.0 0.0 L 670.0 361.0 L 302.0 361.0 Z M 302.0 0.0 "></path></clipPath><g clip-path="url(#clip-154)"><path d="M 303.0 360.0 L 668.0 360.0 L 668.0 0.0 L 303.0 0.0 Z M 303.0 360.0 " fill="#000000"></path></g></g></g><g opacity="0.75"><g><clipPath id="clip-155"><path d="M 302.0 718.0 L 670.0 718.0 L 670.0 1080.0 L 302.0 1080.0 Z M 302.0 718.0 "></path></clipPath><g clip-path="url(#clip-155)"><path d="M 303.0 1080.0 L 668.0 1080.0 L 668.0 720.0 L 303.0 720.0 Z M 303.0 1080.0 " fill="#000000"></path></g></g></g><g opacity="0.75"><g><clipPath id="clip-156"><path d="M 302.0 359.0 L 670.0 359.0 L 670.0 722.0 L 302.0 722.0 Z M 302.0 359.0 "></path></clipPath><g clip-path="url(#clip-156)"><path d="M 303.0 720.3 L 668.0 720.3 L 668.0 360.3 L 303.0 360.3 Z M 303.0 720.3 " fill="#000000"></path></g></g></g><text xml:space="preserve" font-family="BebasNeueBold" font-weight="bold" font-size="75.0" fill="#6FBF40" transform="matrix(1.00, 0.00, -0.00, -1.00, 364.0, 545.0)">u</text><text xml:space="preserve" font-family="BebasNeueBold" font-weight="bold" font-size="75.0" fill="#6FBF40" transform="matrix(1.00, 0.00, -0.00, -1.00, 393.9, 545.0)">p</text><text xml:space="preserve" font-family="BebasNeueBold" font-weight="bold" font-size="75.0" fill="#6FBF40" transform="matrix(1.00, 0.00, -0.00, -1.00, 422.1, 545.0)">d</text><text xml:space="preserve" font-family="BebasNeueBold" font-weight="bold" font-size="75.0" fill="#6FBF40" transform="matrix(1.00, 0.00, -0.00, -1.00, 452.6, 545.0)">a</text><text xml:space="preserve" font-family="BebasNeueBold" font-weight="bold" font-size="75.0" fill="#6FBF40" transform="matrix(1.00, 0.00, -0.00, -1.00, 480.3, 545.0)">t</text><text xml:space="preserve" font-family="BebasNeueBold" font-weight="bold" font-size="75.0" fill="#6FBF40" transform="matrix(1.00, 0.00, -0.00, -1.00, 507.0, 545.0)">e</text><text xml:space="preserve" font-family="BebasNeueBold" font-weight="bold" font-size="75.0" fill="#6FBF40" transform="matrix(1.00, 0.00, -0.00, -1.00, 534.6, 545.0)">r</text><text xml:space="preserve" font-family="BebasNeueBold" font-weight="bold" font-size="75.0" fill="#6FBF40" transform="matrix(1.00, 0.00, -0.00, -1.00, 564.8, 545.0)">s</text><text xml:space="preserve" font-family="BebasNeueBold" font-weight="bold" font-size="75.0" fill="#6FBF40" transform="matrix(1.00, 0.00, -0.00, -1.00, 592.8, 545.0)"> </text><text xml:space="preserve" font-family="BebasNeueBold" font-weight="bold" font-size="75.0" fill="#6FBF40" transform="matrix(1.00, 0.00, -0.00, -1.00, 380.0, 154.0)">p</text><text xml:space="preserve" font-family="BebasNeueBold" font-weight="bold" font-size="75.0" fill="#6FBF40" transform="matrix(1.00, 0.00, -0.00, -1.00, 408.3, 154.0)">o</text><text xml:space="preserve" font-family="BebasNeueBold" font-weight="bold" font-size="75.0" fill="#6FBF40" transform="matrix(1.00, 0.00, -0.00, -1.00, 438.0, 154.0)">l</text><text xml:space="preserve" font-family="BebasNeueBold" font-weight="bold" font-size="75.0" fill="#6FBF40" transform="matrix(1.00, 0.00, -0.00, -1.00, 463.4, 154.0)">i</text><text xml:space="preserve" font-family="BebasNeueBold" font-weight="bold" font-size="75.0" fill="#6FBF40" transform="matrix(1.00, 0.00, -0.00, -1.00, 477.6, 154.0)">c</text><text xml:space="preserve" font-family="BebasNeueBold" font-weight="bold" font-size="75.0" fill="#6FBF40" transform="matrix(1.00, 0.00, -0.00, -1.00, 506.6, 154.0)">i</text><text xml:space="preserve" font-family="BebasNeueBold" font-weight="bold" font-size="75.0" fill="#6FBF40" transform="matrix(1.00, 0.00, -0.00, -1.00, 520.9, 154.0)">e</text><text xml:space="preserve" font-family="BebasNeueBold" font-weight="bold" font-size="75.0" fill="#6FBF40" transform="matrix(1.00, 0.00, -0.00, -1.00, 548.5, 154.0)">s</text><text xml:space="preserve" font-family="BebasNeueBold" font-weight="bold" font-size="75.0" fill="#6FBF40" transform="matrix(1.00, 0.00, -0.00, -1.00, 332.0, 905.0)">r</text><text xml:space="preserve" font-family="BebasNeueBold" font-weight="bold" font-size="75.0" fill="#6FBF40" transform="matrix(1.00, 0.00, -0.00, -1.00, 362.1, 905.0)">e</text><text xml:space="preserve" font-family="BebasNeueBold" font-weight="bold" font-size="75.0" fill="#6FBF40" transform="matrix(1.00, 0.00, -0.00, -1.00, 389.8, 905.0)">s</text><text xml:space="preserve" font-family="BebasNeueBold" font-weight="bold" font-size="75.0" fill="#6FBF40" transform="matrix(1.00, 0.00, -0.00, -1.00, 417.8, 905.0)">p</text><text xml:space="preserve" font-family="BebasNeueBold" font-weight="bold" font-size="75.0" fill="#6FBF40" transform="matrix(1.00, 0.00, -0.00, -1.00, 446.1, 905.0)">o</text><text xml:space="preserve" font-family="BebasNeueBold" font-weight="bold" font-size="75.0" fill="#6FBF40" transform="matrix(1.00, 0.00, -0.00, -1.00, 475.8, 905.0)">n</text><text xml:space="preserve" font-family="BebasNeueBold" font-weight="bold" font-size="75.0" fill="#6FBF40" transform="matrix(1.00, 0.00, -0.00, -1.00, 507.8, 905.0)">d</text><text xml:space="preserve" font-family="BebasNeueBold" font-weight="bold" font-size="75.0" fill="#6FBF40" transform="matrix(1.00, 0.00, -0.00, -1.00, 538.4, 905.0)">e</text><text xml:space="preserve" font-family="BebasNeueBold" font-weight="bold" font-size="75.0" fill="#6FBF40" transform="matrix(1.00, 0.00, -0.00, -1.00, 566.0, 905.0)">r</text><text xml:space="preserve" font-family="BebasNeueBold" font-weight="bold" font-size="75.0" fill="#6FBF40" transform="matrix(1.00, 0.00, -0.00, -1.00, 596.1, 905.0)">s</text><text xml:space="preserve" font-family="BebasNeueBold" font-weight="bold" font-size="75.0" fill="#6FBF40" transform="matrix(1.00, 0.00, -0.00, -1.00, 624.2, 905.0)"> </text><text xml:space="preserve" font-family="BebasNeueBold" font-weight="bold" font-size="115.0" fill="#6FBF40" transform="matrix(1.00, 0.00, -0.00, -1.00, 771.0, 524.0)">c</text><text xml:space="preserve" font-family="BebasNeueBold" font-weight="bold" font-size="115.0" fill="#6FBF40" transform="matrix(1.00, 0.00, -0.00, -1.00, 815.4, 524.0)">o</text><text xml:space="preserve" font-family="BebasNeueBold" font-weight="bold" font-size="115.0" fill="#6FBF40" transform="matrix(1.00, 0.00, -0.00, -1.00, 860.9, 524.0)">n</text><text xml:space="preserve" font-family="BebasNeueBold" font-weight="bold" font-size="115.0" fill="#6FBF40" transform="matrix(1.00, 0.00, -0.00, -1.00, 910.0, 524.0)">c</text><text xml:space="preserve" font-family="BebasNeueBold" font-weight="bold" font-size="115.0" fill="#6FBF40" transform="matrix(1.00, 0.00, -0.00, -1.00, 954.4, 524.0)">e</text><text xml:space="preserve" font-family="BebasNeueBold" font-weight="bold" font-size="115.0" fill="#6FBF40" transform="matrix(1.00, 0.00, -0.00, -1.00, 996.7, 524.0)">i</text><text xml:space="preserve" font-family="BebasNeueBold" font-weight="bold" font-size="115.0" fill="#6FBF40" transform="matrix(1.00, 0.00, -0.00, -1.00, 1018.6, 524.0)">t</text><text xml:space="preserve" font-family="BebasNeueBold" font-weight="bold" font-size="115.0" fill="#6FBF40" transform="matrix(1.00, 0.00, -0.00, -1.00, 1059.5, 524.0)">o</text><text xml:space="preserve" font-family="BebasNeueBold" font-weight="bold" font-size="115.0" fill="#6FBF40" transform="matrix(1.00, 0.00, -0.00, -1.00, 1105.1, 524.0)">s</text></g></svg>