<?xml version="1.0" encoding="UTF-8" standalone="no"?><svg xmlns="http://www.w3.org/2000/svg" xmlns:xlink="http://www.w3.org/1999/xlink" clip-rule="evenodd" stroke-miterlimit="4.00" viewBox="0 0 175 120"><desc>SVG generated by Keynote</desc><defs></defs><g transform="matrix(1.00, 0.00, -0.00, -1.00, 0.0, 120.0)"><text xml:space="preserve" font-family="BebasNeueBold" font-weight="bold" font-size="75.0" fill="#6FBF40" transform="matrix(1.00, 0.00, -0.00, -1.00, 15.0, 65.0)">t</text><text xml:space="preserve" font-family="BebasNeueBold" font-weight="bold" font-size="75.0" fill="#6FBF40" transform="matrix(1.00, 0.00, -0.00, -1.00, 41.7, 65.0)">y</text><text xml:space="preserve" font-family="BebasNeueBold" font-weight="bold" font-size="75.0" fill="#6FBF40" transform="matrix(1.00, 0.00, -0.00, -1.00, 71.4, 65.0)">p</text><text xml:space="preserve" font-family="BebasNeueBold" font-weight="bold" font-size="75.0" fill="#6FBF40" transform="matrix(1.00, 0.00, -0.00, -1.00, 99.7, 65.0)">e</text><text xml:space="preserve" font-family="BebasNeueBold" font-weight="bold" font-size="75.0" fill="#6FBF40" transform="matrix(1.00, 0.00, -0.00, -1.00, 127.3, 65.0)">d</text><text xml:space="preserve" font-family="BebasNeueBold" font-weight="bold" font-size="75.0" fill="#6FBF40" transform="matrix(1.00, 0.00, -0.00, -1.00, 157.9, 65.0)"> </text><text xml:space="preserve" font-family="BebasNeueBold" font-weight="bold" font-size="75.0" fill="#6FBF40" transform="matrix(1.00, 0.00, -0.00, -1.00, -1.0, 2.0)">e</text><text xml:space="preserve" font-family="BebasNeueBold" font-weight="bold" font-size="75.0" fill="#6FBF40" transform="matrix(1.00, 0.00, -0.00, -1.00, 26.6, 2.0)">r</text><text xml:space="preserve" font-family="BebasNeueBold" font-weight="bold" font-size="75.0" fill="#6FBF40" transform="matrix(1.00, 0.00, -0.00, -1.00, 56.8, 2.0)">r</text><text xml:space="preserve" font-family="BebasNeueBold" font-weight="bold" font-size="75.0" fill="#6FBF40" transform="matrix(1.00, 0.00, -0.00, -1.00, 86.9, 2.0)">o</text><text xml:space="preserve" font-family="BebasNeueBold" font-weight="bold" font-size="75.0" fill="#6FBF40" transform="matrix(1.00, 0.00, -0.00, -1.00, 116.6, 2.0)">r</text><text xml:space="preserve" font-family="BebasNeueBold" font-weight="bold" font-size="75.0" fill="#6FBF40" transform="matrix(1.00, 0.00, -0.00, -1.00, 146.8, 2.0)">s</text></g></svg>