<?xml version="1.0" encoding="UTF-8" standalone="no"?><svg xmlns="http://www.w3.org/2000/svg" xmlns:xlink="http://www.w3.org/1999/xlink" clip-rule="evenodd" stroke-miterlimit="4.00" viewBox="0 0 1920 1080"><desc>SVG generated by Keynote</desc><defs></defs><g transform="matrix(1.00, 0.00, -0.00, -1.00, 0.0, 1080.0)"><path d="M 0.0 1080.0 L 1920.0 1080.0 L 1920.0 0.0 L 0.0 0.0 Z M 0.0 1080.0 " fill="#FEFFFF"></path><path d="M 480.0 1080.0 L 1920.0 1080.0 L 1920.0 -0.0 L 480.0 -0.0 Z M 480.0 1080.0 " fill="#011202"></path><g><clipPath id="clip-33"><path d="M 717.0 1080.0 L 2157.0 1080.0 L 2157.0 0.0 L 717.0 0.0 Z M 716.5 1080.0 "></path></clipPath><g clip-path="url(#clip-33)"><image xlink:href="../../49B0041F-D2B6-45AE-B257-4A439451C92F/assets/CCCCA27B926DD6F3F67FACF012D9245A.jpeg" width="1229.00" height="768.00" transform="matrix(1.41, 0.00, -0.00, -1.41, 573.0, 1080.0)"></image></g></g><g opacity="0.75"><g><clipPath id="clip-34"><path d="M 479.0 0.0 L 962.0 0.0 L 962.0 1080.0 L 479.0 1080.0 Z M 479.0 0.0 "></path></clipPath><g clip-path="url(#clip-34)"><path d="M 480.0 1080.0 L 960.0 1080.0 L 960.0 -0.0 L 480.0 -0.0 Z M 480.0 1080.0 " fill="#FEFFFF"></path></g></g></g><text xml:space="preserve" font-family="BebasNeueBold" font-weight="bold" font-size="90.0" fill="#6FBF40" transform="matrix(1.00, 0.00, -0.00, -1.00, 207.1, 487.8)">q</text><text xml:space="preserve" font-family="BebasNeueBold" font-weight="bold" font-size="90.0" fill="#6FBF40" transform="matrix(1.00, 0.00, -0.00, -1.00, 242.8, 487.8)">u</text><text xml:space="preserve" font-family="BebasNeueBold" font-weight="bold" font-size="90.0" fill="#6FBF40" transform="matrix(1.00, 0.00, -0.00, -1.00, 278.6, 487.8)">a</text><text xml:space="preserve" font-family="BebasNeueBold" font-weight="bold" font-size="90.0" fill="#6FBF40" transform="matrix(1.00, 0.00, -0.00, -1.00, 315.2, 487.8)">n</text><text xml:space="preserve" font-family="BebasNeueBold" font-weight="bold" font-size="90.0" fill="#6FBF40" transform="matrix(1.00, 0.00, -0.00, -1.00, 353.6, 487.8)">d</text><text xml:space="preserve" font-family="BebasNeueBold" font-weight="bold" font-size="90.0" fill="#6FBF40" transform="matrix(1.00, 0.00, -0.00, -1.00, 390.4, 487.8)">o</text><path d="M 1775.0 1030.0 L 1875.0 1030.0 L 1875.0 961.0 L 1775.0 961.0 Z M 1775.0 1030.0 " fill="#52575F"></path><g><clipPath id="clip-35"><path d="M 1766.5 952.5 L 1883.5 952.5 L 1883.5 1038.5 L 1766.5 1038.5 Z M 1766.5 952.5 "></path></clipPath><g clip-path="url(#clip-35)"><text xml:space="preserve" font-family="BebasNeueBold" font-weight="bold" font-size="50.0" fill="#FEFFFF" transform="matrix(1.00, 0.00, -0.00, -1.00, 1815.0, 978.0)"> </text><text xml:space="preserve" font-family="BebasNeueBold" font-weight="bold" font-size="50.0" fill="#FEFFFF" transform="matrix(1.00, 0.00, -0.00, -1.00, 1815.0, 978.0)">5</text></g></g><path d="M 645.0 957.2 L 795.0 957.2 L 795.0 807.2 L 645.0 807.2 Z M 645.0 957.2 " fill="#6FBF40"></path><g><clipPath id="clip-36"><path d="M 627.4 807.2 L 812.7 807.2 L 812.7 957.2 L 627.4 957.2 Z M 627.4 807.2 "></path></clipPath><g clip-path="url(#clip-36)"><text xml:space="preserve" font-family="Ionicons" font-size="85.0" fill="#FEFFFF" transform="matrix(1.00, 0.00, -0.00, -1.00, 683.0, 850.0)"></text></g></g><path d="M 645.0 351.4 L 795.0 351.4 L 795.0 201.4 L 645.0 201.4 Z M 645.0 351.4 " fill="#6FBF40"></path><g><clipPath id="clip-37"><path d="M 627.4 201.4 L 812.7 201.4 L 812.7 351.4 L 627.4 351.4 Z M 627.4 201.4 "></path></clipPath><g clip-path="url(#clip-37)"><text xml:space="preserve" font-family="Ionicons" font-size="85.0" fill="#FEFFFF" transform="matrix(1.00, 0.00, -0.00, -1.00, 688.0, 244.0)"></text></g></g><path d="M 645.0 652.7 L 795.0 652.7 L 795.0 502.7 L 645.0 502.7 Z M 645.0 652.7 " fill="#6FBF40"></path><g><clipPath id="clip-38"><path d="M 627.4 502.7 L 812.7 502.7 L 812.7 652.7 L 627.4 652.7 Z M 627.4 502.7 "></path></clipPath><g clip-path="url(#clip-38)"><text xml:space="preserve" font-family="Ionicons" font-size="85.0" fill="#FEFFFF" transform="matrix(1.00, 0.00, -0.00, -1.00, 696.0, 545.0)"></text></g></g></g></svg>