<?xml version="1.0" encoding="UTF-8" standalone="no"?><svg xmlns="http://www.w3.org/2000/svg" xmlns:xlink="http://www.w3.org/1999/xlink" clip-rule="evenodd" stroke-miterlimit="4.00" viewBox="0 0 1920 1080"><desc>SVG generated by Keynote</desc><defs></defs><g transform="matrix(1.00, 0.00, -0.00, -1.00, 0.0, 1080.0)"><path d="M 0.0 1080.0 L 1920.0 1080.0 L 1920.0 0.0 L 0.0 0.0 Z M 0.0 1080.0 " fill="#FEFFFF"></path><path d="M 0.0 1080.0 L 1920.0 1080.0 L 1920.0 720.0 L 0.0 720.0 Z M 0.0 1080.0 " fill="#011202"></path><g opacity="0.20"><g><clipPath id="clip-423"><path d="M 0.0 1080.0 L 1920.0 1080.0 L 1920.0 720.0 L 0.0 720.0 Z M 0.0 1080.0 "></path></clipPath><g clip-path="url(#clip-423)"><g><clipPath id="clip-424"><path d="M 0.0 718.0 L 1920.0 718.0 L 1920.0 1080.0 L 0.0 1080.0 Z M 0.0 718.0 "></path></clipPath><g clip-path="url(#clip-424)"><image xlink:href="../../49B0041F-D2B6-45AE-B257-4A439451C92F/assets/23497D77A7F06362AFD4423070F345EA.jpeg" width="1366.00" height="768.00" transform="matrix(1.41, 0.00, -0.00, -1.41, 0.0, 1440.0)"></image></g></g></g></g></g><text xml:space="preserve" font-family="BebasNeueBold" font-weight="bold" font-size="115.0" fill="#6FBF40" transform="matrix(1.00, 0.00, -0.00, -1.00, 795.0, 791.0)">s</text><text xml:space="preserve" font-family="BebasNeueBold" font-weight="bold" font-size="115.0" fill="#6FBF40" transform="matrix(1.00, 0.00, -0.00, -1.00, 838.0, 791.0)">e</text><text xml:space="preserve" font-family="BebasNeueBold" font-weight="bold" font-size="115.0" fill="#6FBF40" transform="matrix(1.00, 0.00, -0.00, -1.00, 880.3, 791.0)">c</text><text xml:space="preserve" font-family="BebasNeueBold" font-weight="bold" font-size="115.0" fill="#6FBF40" transform="matrix(1.00, 0.00, -0.00, -1.00, 924.7, 791.0)">u</text><text xml:space="preserve" font-family="BebasNeueBold" font-weight="bold" font-size="115.0" fill="#6FBF40" transform="matrix(1.00, 0.00, -0.00, -1.00, 970.5, 791.0)">r</text><text xml:space="preserve" font-family="BebasNeueBold" font-weight="bold" font-size="115.0" fill="#6FBF40" transform="matrix(1.00, 0.00, -0.00, -1.00, 1016.7, 791.0)">i</text><text xml:space="preserve" font-family="BebasNeueBold" font-weight="bold" font-size="115.0" fill="#6FBF40" transform="matrix(1.00, 0.00, -0.00, -1.00, 1038.6, 791.0)">t</text><text xml:space="preserve" font-family="BebasNeueBold" font-weight="bold" font-size="115.0" fill="#6FBF40" transform="matrix(1.00, 0.00, -0.00, -1.00, 1079.5, 791.0)">y</text><text xml:space="preserve" font-family="SourceSansPro-Semibold" font-weight="bold" font-size="26.9" fill="#FEFFFF" transform="matrix(1.00, 0.00, -0.00, -1.00, 147.0, 747.0)">S</text><text xml:space="preserve" font-family="SourceSansPro-Semibold" font-weight="bold" font-size="26.9" fill="#FEFFFF" transform="matrix(1.00, 0.00, -0.00, -1.00, 161.7, 747.0)">n</text><text xml:space="preserve" font-family="SourceSansPro-Semibold" font-weight="bold" font-size="26.9" fill="#FEFFFF" transform="matrix(1.00, 0.00, -0.00, -1.00, 176.8, 747.0)">y</text><text xml:space="preserve" font-family="SourceSansPro-Semibold" font-weight="bold" font-size="26.9" fill="#FEFFFF" transform="matrix(1.00, 0.00, -0.00, -1.00, 190.1, 747.0)">k</text><text xml:space="preserve" font-family="SourceSansPro-Semibold" font-weight="bold" font-size="26.9" fill="#FEFFFF" transform="matrix(1.00, 0.00, -0.00, -1.00, 204.2, 747.0)"> </text><text xml:space="preserve" font-family="SourceSansPro-Semibold" font-weight="bold" font-size="26.9" fill="#FEFFFF" transform="matrix(1.00, 0.00, -0.00, -1.00, 209.6, 747.0)">é</text><text xml:space="preserve" font-family="SourceSansPro-Semibold" font-weight="bold" font-size="26.9" fill="#FEFFFF" transform="matrix(1.00, 0.00, -0.00, -1.00, 223.2, 747.0)"> </text><text xml:space="preserve" font-family="SourceSansPro-Semibold" font-weight="bold" font-size="26.9" fill="#FEFFFF" transform="matrix(1.00, 0.00, -0.00, -1.00, 228.6, 747.0)">u</text><text xml:space="preserve" font-family="SourceSansPro-Semibold" font-weight="bold" font-size="26.9" fill="#FEFFFF" transform="matrix(1.00, 0.00, -0.00, -1.00, 243.6, 747.0)">m</text><text xml:space="preserve" font-family="SourceSansPro-Semibold" font-weight="bold" font-size="26.9" fill="#FEFFFF" transform="matrix(1.00, 0.00, -0.00, -1.00, 266.3, 747.0)">a</text><text xml:space="preserve" font-family="SourceSansPro-Semibold" font-weight="bold" font-size="26.9" fill="#FEFFFF" transform="matrix(1.00, 0.00, -0.00, -1.00, 280.2, 747.0)"> </text><text xml:space="preserve" font-family="SourceSansPro-Semibold" font-weight="bold" font-size="26.9" fill="#FEFFFF" transform="matrix(1.00, 0.00, -0.00, -1.00, 285.6, 747.0)">f</text><text xml:space="preserve" font-family="SourceSansPro-Semibold" font-weight="bold" font-size="26.9" fill="#FEFFFF" transform="matrix(1.00, 0.00, -0.00, -1.00, 293.9, 747.0)">e</text><text xml:space="preserve" font-family="SourceSansPro-Semibold" font-weight="bold" font-size="26.9" fill="#FEFFFF" transform="matrix(1.00, 0.00, -0.00, -1.00, 307.6, 747.0)">r</text><text xml:space="preserve" font-family="SourceSansPro-Semibold" font-weight="bold" font-size="26.9" fill="#FEFFFF" transform="matrix(1.00, 0.00, -0.00, -1.00, 317.6, 747.0)">r</text><text xml:space="preserve" font-family="SourceSansPro-Semibold" font-weight="bold" font-size="26.9" fill="#FEFFFF" transform="matrix(1.00, 0.00, -0.00, -1.00, 327.0, 747.0)">a</text><text xml:space="preserve" font-family="SourceSansPro-Semibold" font-weight="bold" font-size="26.9" fill="#FEFFFF" transform="matrix(1.00, 0.00, -0.00, -1.00, 340.9, 747.0)">m</text><text xml:space="preserve" font-family="SourceSansPro-Semibold" font-weight="bold" font-size="26.9" fill="#FEFFFF" transform="matrix(1.00, 0.00, -0.00, -1.00, 363.6, 747.0)">e</text><text xml:space="preserve" font-family="SourceSansPro-Semibold" font-weight="bold" font-size="26.9" fill="#FEFFFF" transform="matrix(1.00, 0.00, -0.00, -1.00, 377.3, 747.0)">n</text><text xml:space="preserve" font-family="SourceSansPro-Semibold" font-weight="bold" font-size="26.9" fill="#FEFFFF" transform="matrix(1.00, 0.00, -0.00, -1.00, 392.4, 747.0)">t</text><text xml:space="preserve" font-family="SourceSansPro-Semibold" font-weight="bold" font-size="26.9" fill="#FEFFFF" transform="matrix(1.00, 0.00, -0.00, -1.00, 401.5, 747.0)">a</text><text xml:space="preserve" font-family="SourceSansPro-Semibold" font-weight="bold" font-size="26.9" fill="#FEFFFF" transform="matrix(1.00, 0.00, -0.00, -1.00, 415.4, 747.0)"> </text><text xml:space="preserve" font-family="SourceSansPro-Semibold" font-weight="bold" font-size="26.9" fill="#FEFFFF" transform="matrix(1.00, 0.00, -0.00, -1.00, 420.8, 747.0)">e</text><text xml:space="preserve" font-family="SourceSansPro-Semibold" font-weight="bold" font-size="26.9" fill="#FEFFFF" transform="matrix(1.00, 0.00, -0.00, -1.00, 434.5, 747.0)">s</text><text xml:space="preserve" font-family="SourceSansPro-Semibold" font-weight="bold" font-size="26.9" fill="#FEFFFF" transform="matrix(1.00, 0.00, -0.00, -1.00, 446.1, 747.0)">s</text><text xml:space="preserve" font-family="SourceSansPro-Semibold" font-weight="bold" font-size="26.9" fill="#FEFFFF" transform="matrix(1.00, 0.00, -0.00, -1.00, 457.7, 747.0)">e</text><text xml:space="preserve" font-family="SourceSansPro-Semibold" font-weight="bold" font-size="26.9" fill="#FEFFFF" transform="matrix(1.00, 0.00, -0.00, -1.00, 471.4, 747.0)">n</text><text xml:space="preserve" font-family="SourceSansPro-Semibold" font-weight="bold" font-size="26.9" fill="#FEFFFF" transform="matrix(1.00, 0.00, -0.00, -1.00, 486.5, 747.0)">c</text><text xml:space="preserve" font-family="SourceSansPro-Semibold" font-weight="bold" font-size="26.9" fill="#FEFFFF" transform="matrix(1.00, 0.00, -0.00, -1.00, 498.9, 747.0)">i</text><text xml:space="preserve" font-family="SourceSansPro-Semibold" font-weight="bold" font-size="26.9" fill="#FEFFFF" transform="matrix(1.00, 0.00, -0.00, -1.00, 506.0, 747.0)">a</text><text xml:space="preserve" font-family="SourceSansPro-Semibold" font-weight="bold" font-size="26.9" fill="#FEFFFF" transform="matrix(1.00, 0.00, -0.00, -1.00, 519.9, 747.0)">l</text><text xml:space="preserve" font-family="SourceSansPro-Semibold" font-weight="bold" font-size="26.9" fill="#FEFFFF" transform="matrix(1.00, 0.00, -0.00, -1.00, 527.2, 747.0)"> </text><text xml:space="preserve" font-family="SourceSansPro-Semibold" font-weight="bold" font-size="26.9" fill="#FEFFFF" transform="matrix(1.00, 0.00, -0.00, -1.00, 532.6, 747.0)">p</text><text xml:space="preserve" font-family="SourceSansPro-Semibold" font-weight="bold" font-size="26.9" fill="#FEFFFF" transform="matrix(1.00, 0.00, -0.00, -1.00, 547.5, 747.0)">a</text><text xml:space="preserve" font-family="SourceSansPro-Semibold" font-weight="bold" font-size="26.9" fill="#FEFFFF" transform="matrix(1.00, 0.00, -0.00, -1.00, 561.4, 747.0)">r</text><text xml:space="preserve" font-family="SourceSansPro-Semibold" font-weight="bold" font-size="26.9" fill="#FEFFFF" transform="matrix(1.00, 0.00, -0.00, -1.00, 570.7, 747.0)">a</text><text xml:space="preserve" font-family="SourceSansPro-Semibold" font-weight="bold" font-size="26.9" fill="#FEFFFF" transform="matrix(1.00, 0.00, -0.00, -1.00, 584.6, 747.0)"> </text><text xml:space="preserve" font-family="SourceSansPro-Semibold" font-weight="bold" font-size="26.9" fill="#FEFFFF" transform="matrix(1.00, 0.00, -0.00, -1.00, 590.0, 747.0)">a</text><text xml:space="preserve" font-family="SourceSansPro-Semibold" font-weight="bold" font-size="26.9" fill="#FEFFFF" transform="matrix(1.00, 0.00, -0.00, -1.00, 603.9, 747.0)">p</text><text xml:space="preserve" font-family="SourceSansPro-Semibold" font-weight="bold" font-size="26.9" fill="#FEFFFF" transform="matrix(1.00, 0.00, -0.00, -1.00, 619.1, 747.0)">l</text><text xml:space="preserve" font-family="SourceSansPro-Semibold" font-weight="bold" font-size="26.9" fill="#FEFFFF" transform="matrix(1.00, 0.00, -0.00, -1.00, 626.4, 747.0)">i</text><text xml:space="preserve" font-family="SourceSansPro-Semibold" font-weight="bold" font-size="26.9" fill="#FEFFFF" transform="matrix(1.00, 0.00, -0.00, -1.00, 633.5, 747.0)">c</text><text xml:space="preserve" font-family="SourceSansPro-Semibold" font-weight="bold" font-size="26.9" fill="#FEFFFF" transform="matrix(1.00, 0.00, -0.00, -1.00, 645.7, 747.0)">a</text><text xml:space="preserve" font-family="SourceSansPro-Semibold" font-weight="bold" font-size="26.9" fill="#FEFFFF" transform="matrix(1.00, 0.00, -0.00, -1.00, 659.6, 747.0)">ç</text><text xml:space="preserve" font-family="SourceSansPro-Semibold" font-weight="bold" font-size="26.9" fill="#FEFFFF" transform="matrix(1.00, 0.00, -0.00, -1.00, 671.4, 747.0)">õ</text><text xml:space="preserve" font-family="SourceSansPro-Semibold" font-weight="bold" font-size="26.9" fill="#FEFFFF" transform="matrix(1.00, 0.00, -0.00, -1.00, 686.2, 747.0)">e</text><text xml:space="preserve" font-family="SourceSansPro-Semibold" font-weight="bold" font-size="26.9" fill="#FEFFFF" transform="matrix(1.00, 0.00, -0.00, -1.00, 699.8, 747.0)">s</text><text xml:space="preserve" font-family="SourceSansPro-Semibold" font-weight="bold" font-size="26.9" fill="#FEFFFF" transform="matrix(1.00, 0.00, -0.00, -1.00, 711.4, 747.0)"> </text><text xml:space="preserve" font-family="SourceSansPro-Semibold" font-weight="bold" font-size="26.9" fill="#FEFFFF" transform="matrix(1.00, 0.00, -0.00, -1.00, 716.8, 747.0)">c</text><text xml:space="preserve" font-family="SourceSansPro-Semibold" font-weight="bold" font-size="26.9" fill="#FEFFFF" transform="matrix(1.00, 0.00, -0.00, -1.00, 728.6, 747.0)">o</text><text xml:space="preserve" font-family="SourceSansPro-Semibold" font-weight="bold" font-size="26.9" fill="#FEFFFF" transform="matrix(1.00, 0.00, -0.00, -1.00, 743.4, 747.0)">m</text><text xml:space="preserve" font-family="SourceSansPro-Semibold" font-weight="bold" font-size="26.9" fill="#FEFFFF" transform="matrix(1.00, 0.00, -0.00, -1.00, 766.1, 747.0)">p</text><text xml:space="preserve" font-family="SourceSansPro-Semibold" font-weight="bold" font-size="26.9" fill="#FEFFFF" transform="matrix(1.00, 0.00, -0.00, -1.00, 781.3, 747.0)">l</text><text xml:space="preserve" font-family="SourceSansPro-Semibold" font-weight="bold" font-size="26.9" fill="#FEFFFF" transform="matrix(1.00, 0.00, -0.00, -1.00, 788.7, 747.0)">e</text><text xml:space="preserve" font-family="SourceSansPro-Semibold" font-weight="bold" font-size="26.9" fill="#FEFFFF" transform="matrix(1.00, 0.00, -0.00, -1.00, 802.0, 747.0)">x</text><text xml:space="preserve" font-family="SourceSansPro-Semibold" font-weight="bold" font-size="26.9" fill="#FEFFFF" transform="matrix(1.00, 0.00, -0.00, -1.00, 814.7, 747.0)">a</text><text xml:space="preserve" font-family="SourceSansPro-Semibold" font-weight="bold" font-size="26.9" fill="#FEFFFF" transform="matrix(1.00, 0.00, -0.00, -1.00, 828.6, 747.0)">s</text><text xml:space="preserve" font-family="SourceSansPro-Semibold" font-weight="bold" font-size="26.9" fill="#FEFFFF" transform="matrix(1.00, 0.00, -0.00, -1.00, 840.2, 747.0)"> </text><text xml:space="preserve" font-family="SourceSansPro-Semibold" font-weight="bold" font-size="26.9" fill="#FEFFFF" transform="matrix(1.00, 0.00, -0.00, -1.00, 845.6, 747.0)">e</text><text xml:space="preserve" font-family="SourceSansPro-Semibold" font-weight="bold" font-size="26.9" fill="#FEFFFF" transform="matrix(1.00, 0.00, -0.00, -1.00, 859.3, 747.0)"> </text><text xml:space="preserve" font-family="SourceSansPro-Semibold" font-weight="bold" font-size="26.9" fill="#FEFFFF" transform="matrix(1.00, 0.00, -0.00, -1.00, 864.7, 747.0)">a</text><text xml:space="preserve" font-family="SourceSansPro-Semibold" font-weight="bold" font-size="26.9" fill="#FEFFFF" transform="matrix(1.00, 0.00, -0.00, -1.00, 878.6, 747.0)">m</text><text xml:space="preserve" font-family="SourceSansPro-Semibold" font-weight="bold" font-size="26.9" fill="#FEFFFF" transform="matrix(1.00, 0.00, -0.00, -1.00, 901.3, 747.0)">b</text><text xml:space="preserve" font-family="SourceSansPro-Semibold" font-weight="bold" font-size="26.9" fill="#FEFFFF" transform="matrix(1.00, 0.00, -0.00, -1.00, 916.4, 747.0)">i</text><text xml:space="preserve" font-family="SourceSansPro-Semibold" font-weight="bold" font-size="26.9" fill="#FEFFFF" transform="matrix(1.00, 0.00, -0.00, -1.00, 923.5, 747.0)">e</text><text xml:space="preserve" font-family="SourceSansPro-Semibold" font-weight="bold" font-size="26.9" fill="#FEFFFF" transform="matrix(1.00, 0.00, -0.00, -1.00, 937.2, 747.0)">n</text><text xml:space="preserve" font-family="SourceSansPro-Semibold" font-weight="bold" font-size="26.9" fill="#FEFFFF" transform="matrix(1.00, 0.00, -0.00, -1.00, 952.3, 747.0)">t</text><text xml:space="preserve" font-family="SourceSansPro-Semibold" font-weight="bold" font-size="26.9" fill="#FEFFFF" transform="matrix(1.00, 0.00, -0.00, -1.00, 961.6, 747.0)">e</text><text xml:space="preserve" font-family="SourceSansPro-Semibold" font-weight="bold" font-size="26.9" fill="#FEFFFF" transform="matrix(1.00, 0.00, -0.00, -1.00, 975.2, 747.0)">s</text><text xml:space="preserve" font-family="SourceSansPro-Semibold" font-weight="bold" font-size="26.9" fill="#FEFFFF" transform="matrix(1.00, 0.00, -0.00, -1.00, 986.8, 747.0)"> </text><text xml:space="preserve" font-family="SourceSansPro-Semibold" font-weight="bold" font-size="26.9" fill="#FEFFFF" transform="matrix(1.00, 0.00, -0.00, -1.00, 992.2, 747.0)">c</text><text xml:space="preserve" font-family="SourceSansPro-Semibold" font-weight="bold" font-size="26.9" fill="#FEFFFF" transform="matrix(1.00, 0.00, -0.00, -1.00, 1004.7, 747.0)">r</text><text xml:space="preserve" font-family="SourceSansPro-Semibold" font-weight="bold" font-size="26.9" fill="#FEFFFF" transform="matrix(1.00, 0.00, -0.00, -1.00, 1014.7, 747.0)">í</text><text xml:space="preserve" font-family="SourceSansPro-Semibold" font-weight="bold" font-size="26.9" fill="#FEFFFF" transform="matrix(1.00, 0.00, -0.00, -1.00, 1021.8, 747.0)">t</text><text xml:space="preserve" font-family="SourceSansPro-Semibold" font-weight="bold" font-size="26.9" fill="#FEFFFF" transform="matrix(1.00, 0.00, -0.00, -1.00, 1031.5, 747.0)">i</text><text xml:space="preserve" font-family="SourceSansPro-Semibold" font-weight="bold" font-size="26.9" fill="#FEFFFF" transform="matrix(1.00, 0.00, -0.00, -1.00, 1038.6, 747.0)">c</text><text xml:space="preserve" font-family="SourceSansPro-Semibold" font-weight="bold" font-size="26.9" fill="#FEFFFF" transform="matrix(1.00, 0.00, -0.00, -1.00, 1050.4, 747.0)">o</text><text xml:space="preserve" font-family="SourceSansPro-Semibold" font-weight="bold" font-size="26.9" fill="#FEFFFF" transform="matrix(1.00, 0.00, -0.00, -1.00, 1065.1, 747.0)">s</text><text xml:space="preserve" font-family="SourceSansPro-Semibold" font-weight="bold" font-size="26.9" fill="#FEFFFF" transform="matrix(1.00, 0.00, -0.00, -1.00, 1076.7, 747.0)">,</text><text xml:space="preserve" font-family="SourceSansPro-Semibold" font-weight="bold" font-size="26.9" fill="#FEFFFF" transform="matrix(1.00, 0.00, -0.00, -1.00, 1084.1, 747.0)"> </text><text xml:space="preserve" font-family="SourceSansPro-Semibold" font-weight="bold" font-size="26.9" fill="#FEFFFF" transform="matrix(1.00, 0.00, -0.00, -1.00, 1089.5, 747.0)">c</text><text xml:space="preserve" font-family="SourceSansPro-Semibold" font-weight="bold" font-size="26.9" fill="#FEFFFF" transform="matrix(1.00, 0.00, -0.00, -1.00, 1101.3, 747.0)">o</text><text xml:space="preserve" font-family="SourceSansPro-Semibold" font-weight="bold" font-size="26.9" fill="#FEFFFF" transform="matrix(1.00, 0.00, -0.00, -1.00, 1116.1, 747.0)">m</text><text xml:space="preserve" font-family="SourceSansPro-Semibold" font-weight="bold" font-size="26.9" fill="#FEFFFF" transform="matrix(1.00, 0.00, -0.00, -1.00, 1138.8, 747.0)"> </text><text xml:space="preserve" font-family="SourceSansPro-Semibold" font-weight="bold" font-size="26.9" fill="#FEFFFF" transform="matrix(1.00, 0.00, -0.00, -1.00, 1144.2, 747.0)">e</text><text xml:space="preserve" font-family="SourceSansPro-Semibold" font-weight="bold" font-size="26.9" fill="#FEFFFF" transform="matrix(1.00, 0.00, -0.00, -1.00, 1157.9, 747.0)">l</text><text xml:space="preserve" font-family="SourceSansPro-Semibold" font-weight="bold" font-size="26.9" fill="#FEFFFF" transform="matrix(1.00, 0.00, -0.00, -1.00, 1165.2, 747.0)">e</text><text xml:space="preserve" font-family="SourceSansPro-Semibold" font-weight="bold" font-size="26.9" fill="#FEFFFF" transform="matrix(1.00, 0.00, -0.00, -1.00, 1178.8, 747.0)"> </text><text xml:space="preserve" font-family="SourceSansPro-Semibold" font-weight="bold" font-size="26.9" fill="#FEFFFF" transform="matrix(1.00, 0.00, -0.00, -1.00, 1184.2, 747.0)">é</text><text xml:space="preserve" font-family="SourceSansPro-Semibold" font-weight="bold" font-size="26.9" fill="#FEFFFF" transform="matrix(1.00, 0.00, -0.00, -1.00, 1197.9, 747.0)"> </text><text xml:space="preserve" font-family="SourceSansPro-Semibold" font-weight="bold" font-size="26.9" fill="#FEFFFF" transform="matrix(1.00, 0.00, -0.00, -1.00, 1203.3, 747.0)">p</text><text xml:space="preserve" font-family="SourceSansPro-Semibold" font-weight="bold" font-size="26.9" fill="#FEFFFF" transform="matrix(1.00, 0.00, -0.00, -1.00, 1218.5, 747.0)">o</text><text xml:space="preserve" font-family="SourceSansPro-Semibold" font-weight="bold" font-size="26.9" fill="#FEFFFF" transform="matrix(1.00, 0.00, -0.00, -1.00, 1233.2, 747.0)">s</text><text xml:space="preserve" font-family="SourceSansPro-Semibold" font-weight="bold" font-size="26.9" fill="#FEFFFF" transform="matrix(1.00, 0.00, -0.00, -1.00, 1244.8, 747.0)">s</text><text xml:space="preserve" font-family="SourceSansPro-Semibold" font-weight="bold" font-size="26.9" fill="#FEFFFF" transform="matrix(1.00, 0.00, -0.00, -1.00, 1256.4, 747.0)">í</text><text xml:space="preserve" font-family="SourceSansPro-Semibold" font-weight="bold" font-size="26.9" fill="#FEFFFF" transform="matrix(1.00, 0.00, -0.00, -1.00, 1263.5, 747.0)">v</text><text xml:space="preserve" font-family="SourceSansPro-Semibold" font-weight="bold" font-size="26.9" fill="#FEFFFF" transform="matrix(1.00, 0.00, -0.00, -1.00, 1276.6, 747.0)">e</text><text xml:space="preserve" font-family="SourceSansPro-Semibold" font-weight="bold" font-size="26.9" fill="#FEFFFF" transform="matrix(1.00, 0.00, -0.00, -1.00, 1290.3, 747.0)">l</text><text xml:space="preserve" font-family="SourceSansPro-Semibold" font-weight="bold" font-size="26.9" fill="#FEFFFF" transform="matrix(1.00, 0.00, -0.00, -1.00, 1297.6, 747.0)"> </text><text xml:space="preserve" font-family="SourceSansPro-Semibold" font-weight="bold" font-size="26.9" fill="#FEFFFF" transform="matrix(1.00, 0.00, -0.00, -1.00, 1303.0, 747.0)">v</text><text xml:space="preserve" font-family="SourceSansPro-Semibold" font-weight="bold" font-size="26.9" fill="#FEFFFF" transform="matrix(1.00, 0.00, -0.00, -1.00, 1316.2, 747.0)">e</text><text xml:space="preserve" font-family="SourceSansPro-Semibold" font-weight="bold" font-size="26.9" fill="#FEFFFF" transform="matrix(1.00, 0.00, -0.00, -1.00, 1329.8, 747.0)">r</text><text xml:space="preserve" font-family="SourceSansPro-Semibold" font-weight="bold" font-size="26.9" fill="#FEFFFF" transform="matrix(1.00, 0.00, -0.00, -1.00, 1339.9, 747.0)"> </text><text xml:space="preserve" font-family="SourceSansPro-Semibold" font-weight="bold" font-size="26.9" fill="#FEFFFF" transform="matrix(1.00, 0.00, -0.00, -1.00, 1345.3, 747.0)">o</text><text xml:space="preserve" font-family="SourceSansPro-Semibold" font-weight="bold" font-size="26.9" fill="#FEFFFF" transform="matrix(1.00, 0.00, -0.00, -1.00, 1360.0, 747.0)">s</text><text xml:space="preserve" font-family="SourceSansPro-Semibold" font-weight="bold" font-size="26.9" fill="#FEFFFF" transform="matrix(1.00, 0.00, -0.00, -1.00, 1371.6, 747.0)"> </text><text xml:space="preserve" font-family="SourceSansPro-Semibold" font-weight="bold" font-size="26.9" fill="#FEFFFF" transform="matrix(1.00, 0.00, -0.00, -1.00, 1377.0, 747.0)">r</text><text xml:space="preserve" font-family="SourceSansPro-Semibold" font-weight="bold" font-size="26.9" fill="#FEFFFF" transform="matrix(1.00, 0.00, -0.00, -1.00, 1387.0, 747.0)">i</text><text xml:space="preserve" font-family="SourceSansPro-Semibold" font-weight="bold" font-size="26.9" fill="#FEFFFF" transform="matrix(1.00, 0.00, -0.00, -1.00, 1394.1, 747.0)">s</text><text xml:space="preserve" font-family="SourceSansPro-Semibold" font-weight="bold" font-size="26.9" fill="#FEFFFF" transform="matrix(1.00, 0.00, -0.00, -1.00, 1405.7, 747.0)">c</text><text xml:space="preserve" font-family="SourceSansPro-Semibold" font-weight="bold" font-size="26.9" fill="#FEFFFF" transform="matrix(1.00, 0.00, -0.00, -1.00, 1417.5, 747.0)">o</text><text xml:space="preserve" font-family="SourceSansPro-Semibold" font-weight="bold" font-size="26.9" fill="#FEFFFF" transform="matrix(1.00, 0.00, -0.00, -1.00, 1432.2, 747.0)">s</text><text xml:space="preserve" font-family="SourceSansPro-Semibold" font-weight="bold" font-size="26.9" fill="#FEFFFF" transform="matrix(1.00, 0.00, -0.00, -1.00, 1443.8, 747.0)"> </text><text xml:space="preserve" font-family="SourceSansPro-Semibold" font-weight="bold" font-size="26.9" fill="#FEFFFF" transform="matrix(1.00, 0.00, -0.00, -1.00, 1449.2, 747.0)">a</text><text xml:space="preserve" font-family="SourceSansPro-Semibold" font-weight="bold" font-size="26.9" fill="#FEFFFF" transform="matrix(1.00, 0.00, -0.00, -1.00, 1463.1, 747.0)">o</text><text xml:space="preserve" font-family="SourceSansPro-Semibold" font-weight="bold" font-size="26.9" fill="#FEFFFF" transform="matrix(1.00, 0.00, -0.00, -1.00, 1477.8, 747.0)">s</text><text xml:space="preserve" font-family="SourceSansPro-Semibold" font-weight="bold" font-size="26.9" fill="#FEFFFF" transform="matrix(1.00, 0.00, -0.00, -1.00, 1489.4, 747.0)"> </text><text xml:space="preserve" font-family="SourceSansPro-Semibold" font-weight="bold" font-size="26.9" fill="#FEFFFF" transform="matrix(1.00, 0.00, -0.00, -1.00, 1494.8, 747.0)">q</text><text xml:space="preserve" font-family="SourceSansPro-Semibold" font-weight="bold" font-size="26.9" fill="#FEFFFF" transform="matrix(1.00, 0.00, -0.00, -1.00, 1510.0, 747.0)">u</text><text xml:space="preserve" font-family="SourceSansPro-Semibold" font-weight="bold" font-size="26.9" fill="#FEFFFF" transform="matrix(1.00, 0.00, -0.00, -1.00, 1525.0, 747.0)">a</text><text xml:space="preserve" font-family="SourceSansPro-Semibold" font-weight="bold" font-size="26.9" fill="#FEFFFF" transform="matrix(1.00, 0.00, -0.00, -1.00, 1538.9, 747.0)">i</text><text xml:space="preserve" font-family="SourceSansPro-Semibold" font-weight="bold" font-size="26.9" fill="#FEFFFF" transform="matrix(1.00, 0.00, -0.00, -1.00, 1545.9, 747.0)">s</text><text xml:space="preserve" font-family="SourceSansPro-Semibold" font-weight="bold" font-size="26.9" fill="#FEFFFF" transform="matrix(1.00, 0.00, -0.00, -1.00, 1557.6, 747.0)"> </text><text xml:space="preserve" font-family="SourceSansPro-Semibold" font-weight="bold" font-size="26.9" fill="#FEFFFF" transform="matrix(1.00, 0.00, -0.00, -1.00, 1563.0, 747.0)">v</text><text xml:space="preserve" font-family="SourceSansPro-Semibold" font-weight="bold" font-size="26.9" fill="#FEFFFF" transform="matrix(1.00, 0.00, -0.00, -1.00, 1576.1, 747.0)">o</text><text xml:space="preserve" font-family="SourceSansPro-Semibold" font-weight="bold" font-size="26.9" fill="#FEFFFF" transform="matrix(1.00, 0.00, -0.00, -1.00, 1590.9, 747.0)">c</text><text xml:space="preserve" font-family="SourceSansPro-Semibold" font-weight="bold" font-size="26.9" fill="#FEFFFF" transform="matrix(1.00, 0.00, -0.00, -1.00, 1602.7, 747.0)">ê</text><text xml:space="preserve" font-family="SourceSansPro-Semibold" font-weight="bold" font-size="26.9" fill="#FEFFFF" transform="matrix(1.00, 0.00, -0.00, -1.00, 1616.4, 747.0)"> </text><text xml:space="preserve" font-family="SourceSansPro-Semibold" font-weight="bold" font-size="26.9" fill="#FEFFFF" transform="matrix(1.00, 0.00, -0.00, -1.00, 1621.8, 747.0)">e</text><text xml:space="preserve" font-family="SourceSansPro-Semibold" font-weight="bold" font-size="26.9" fill="#FEFFFF" transform="matrix(1.00, 0.00, -0.00, -1.00, 1635.4, 747.0)">s</text><text xml:space="preserve" font-family="SourceSansPro-Semibold" font-weight="bold" font-size="26.9" fill="#FEFFFF" transform="matrix(1.00, 0.00, -0.00, -1.00, 1646.5, 747.0)">t</text><text xml:space="preserve" font-family="SourceSansPro-Semibold" font-weight="bold" font-size="26.9" fill="#FEFFFF" transform="matrix(1.00, 0.00, -0.00, -1.00, 1655.7, 747.0)">á</text><text xml:space="preserve" font-family="SourceSansPro-Semibold" font-weight="bold" font-size="26.9" fill="#FEFFFF" transform="matrix(1.00, 0.00, -0.00, -1.00, 1669.6, 747.0)"> </text><text xml:space="preserve" font-family="SourceSansPro-Semibold" font-weight="bold" font-size="26.9" fill="#FEFFFF" transform="matrix(1.00, 0.00, -0.00, -1.00, 1675.0, 747.0)">e</text><text xml:space="preserve" font-family="SourceSansPro-Semibold" font-weight="bold" font-size="26.9" fill="#FEFFFF" transform="matrix(1.00, 0.00, -0.00, -1.00, 1688.3, 747.0)">x</text><text xml:space="preserve" font-family="SourceSansPro-Semibold" font-weight="bold" font-size="26.9" fill="#FEFFFF" transform="matrix(1.00, 0.00, -0.00, -1.00, 1701.3, 747.0)">p</text><text xml:space="preserve" font-family="SourceSansPro-Semibold" font-weight="bold" font-size="26.9" fill="#FEFFFF" transform="matrix(1.00, 0.00, -0.00, -1.00, 1716.5, 747.0)">o</text><text xml:space="preserve" font-family="SourceSansPro-Semibold" font-weight="bold" font-size="26.9" fill="#FEFFFF" transform="matrix(1.00, 0.00, -0.00, -1.00, 1731.2, 747.0)">s</text><text xml:space="preserve" font-family="SourceSansPro-Semibold" font-weight="bold" font-size="26.9" fill="#FEFFFF" transform="matrix(1.00, 0.00, -0.00, -1.00, 1742.3, 747.0)">t</text><text xml:space="preserve" font-family="SourceSansPro-Semibold" font-weight="bold" font-size="26.9" fill="#FEFFFF" transform="matrix(1.00, 0.00, -0.00, -1.00, 1751.5, 747.0)">o</text><text xml:space="preserve" font-family="SourceSansPro-Semibold" font-weight="bold" font-size="26.9" fill="#FEFFFF" transform="matrix(1.00, 0.00, -0.00, -1.00, 1766.1, 747.0)">.</text><path d="M 1775.0 1030.0 L 1875.0 1030.0 L 1875.0 961.0 L 1775.0 961.0 Z M 1775.0 1030.0 " fill="#52575F"></path><g><clipPath id="clip-425"><path d="M 1766.5 952.5 L 1883.5 952.5 L 1883.5 1038.5 L 1766.5 1038.5 Z M 1766.5 952.5 "></path></clipPath><g clip-path="url(#clip-425)"><text xml:space="preserve" font-family="BebasNeueBold" font-weight="bold" font-size="50.0" fill="#FEFFFF" transform="matrix(1.00, 0.00, -0.00, -1.00, 1805.0, 978.0)"> </text><text xml:space="preserve" font-family="BebasNeueBold" font-weight="bold" font-size="50.0" fill="#FEFFFF" transform="matrix(1.00, 0.00, -0.00, -1.00, 1805.0, 978.0)">4</text><text xml:space="preserve" font-family="BebasNeueBold" font-weight="bold" font-size="50.0" fill="#FEFFFF" transform="matrix(1.00, 0.00, -0.00, -1.00, 1824.8, 978.0)">8</text></g></g><image xlink:href="../../0CA0E6B0-9BB1-41A8-AB92-73BD20362893/assets/1EE83767AF270F63B733E905F76AF71B.png" width="941.00" height="540.00" transform="matrix(1.63, 0.00, -0.00, -1.63, 192.0, 707.0)"></image><g><clipPath id="clip-426"><path d="M 378.0 653.0 L 1541.0 653.0 L 1541.0 -74.0 L 378.0 -74.0 Z M 378.3 652.5 "></path></clipPath><g clip-path="url(#clip-426)"><image xlink:href="../../D2879AE1-E1BB-4800-A1FC-887AAA8DCD63/assets/8587FE8022EFD304242E10FB35CE46CD.png" width="864.00" height="540.00" transform="matrix(1.35, 0.00, -0.00, -1.35, 378.0, 653.0)"></image></g></g></g></svg>