<?xml version="1.0" encoding="UTF-8" standalone="no"?><svg xmlns="http://www.w3.org/2000/svg" xmlns:xlink="http://www.w3.org/1999/xlink" clip-rule="evenodd" stroke-miterlimit="4.00" viewBox="0 0 357 340"><desc>SVG generated by Keynote</desc><defs></defs><g transform="matrix(1.00, 0.00, -0.00, -1.00, 0.0, 340.0)"><text xml:space="preserve" font-family="BebasNeueBold" font-weight="bold" font-size="75.0" fill="#6FBF40" transform="matrix(1.00, 0.00, -0.00, -1.00, 1.0, 274.0)">I</text><text xml:space="preserve" font-family="BebasNeueBold" font-weight="bold" font-size="75.0" fill="#6FBF40" transform="matrix(1.00, 0.00, -0.00, -1.00, 15.2, 274.0)">m</text><text xml:space="preserve" font-family="BebasNeueBold" font-weight="bold" font-size="75.0" fill="#6FBF40" transform="matrix(1.00, 0.00, -0.00, -1.00, 55.8, 274.0)">p</text><text xml:space="preserve" font-family="BebasNeueBold" font-weight="bold" font-size="75.0" fill="#6FBF40" transform="matrix(1.00, 0.00, -0.00, -1.00, 84.1, 274.0)">o</text><text xml:space="preserve" font-family="BebasNeueBold" font-weight="bold" font-size="75.0" fill="#6FBF40" transform="matrix(1.00, 0.00, -0.00, -1.00, 113.8, 274.0)">r</text><text xml:space="preserve" font-family="BebasNeueBold" font-weight="bold" font-size="75.0" fill="#6FBF40" transform="matrix(1.00, 0.00, -0.00, -1.00, 143.9, 274.0)">t</text><text xml:space="preserve" font-family="BebasNeueBold" font-weight="bold" font-size="75.0" fill="#6FBF40" transform="matrix(1.00, 0.00, -0.00, -1.00, 167.8, 274.0)">â</text><text xml:space="preserve" font-family="BebasNeueBold" font-weight="bold" font-size="75.0" fill="#6FBF40" transform="matrix(1.00, 0.00, -0.00, -1.00, 198.3, 274.0)">n</text><text xml:space="preserve" font-family="BebasNeueBold" font-weight="bold" font-size="75.0" fill="#6FBF40" transform="matrix(1.00, 0.00, -0.00, -1.00, 230.3, 274.0)">c</text><text xml:space="preserve" font-family="BebasNeueBold" font-weight="bold" font-size="75.0" fill="#6FBF40" transform="matrix(1.00, 0.00, -0.00, -1.00, 259.3, 274.0)">i</text><text xml:space="preserve" font-family="BebasNeueBold" font-weight="bold" font-size="75.0" fill="#6FBF40" transform="matrix(1.00, 0.00, -0.00, -1.00, 273.6, 274.0)">a</text><text xml:space="preserve" font-family="BebasNeueBold" font-weight="bold" font-size="75.0" fill="#6FBF40" transform="matrix(1.00, 0.00, -0.00, -1.00, 304.1, 274.0)"> </text><text xml:space="preserve" font-family="SourceSansPro-Regular" font-size="28.0" fill="#FEFFFF" transform="matrix(1.00, 0.00, -0.00, -1.00, 1.0, 218.0)">É</text><text xml:space="preserve" font-family="SourceSansPro-Regular" font-size="28.0" fill="#FEFFFF" transform="matrix(1.00, 0.00, -0.00, -1.00, 15.8, 218.0)"> </text><text xml:space="preserve" font-family="SourceSansPro-Regular" font-size="28.0" fill="#FEFFFF" transform="matrix(1.00, 0.00, -0.00, -1.00, 21.4, 218.0)">d</text><text xml:space="preserve" font-family="SourceSansPro-Regular" font-size="28.0" fill="#FEFFFF" transform="matrix(1.00, 0.00, -0.00, -1.00, 36.9, 218.0)">e</text><text xml:space="preserve" font-family="SourceSansPro-Regular" font-size="28.0" fill="#FEFFFF" transform="matrix(1.00, 0.00, -0.00, -1.00, 50.8, 218.0)"> </text><text xml:space="preserve" font-family="SourceSansPro-Regular" font-size="28.0" fill="#FEFFFF" transform="matrix(1.00, 0.00, -0.00, -1.00, 56.4, 218.0)">e</text><text xml:space="preserve" font-family="SourceSansPro-Regular" font-size="28.0" fill="#FEFFFF" transform="matrix(1.00, 0.00, -0.00, -1.00, 70.1, 218.0)">x</text><text xml:space="preserve" font-family="SourceSansPro-Regular" font-size="28.0" fill="#FEFFFF" transform="matrix(1.00, 0.00, -0.00, -1.00, 81.9, 218.0)">t</text><text xml:space="preserve" font-family="SourceSansPro-Regular" font-size="28.0" fill="#FEFFFF" transform="matrix(1.00, 0.00, -0.00, -1.00, 91.4, 218.0)">r</text><text xml:space="preserve" font-family="SourceSansPro-Regular" font-size="28.0" fill="#FEFFFF" transform="matrix(1.00, 0.00, -0.00, -1.00, 100.8, 218.0)">e</text><text xml:space="preserve" font-family="SourceSansPro-Regular" font-size="28.0" fill="#FEFFFF" transform="matrix(1.00, 0.00, -0.00, -1.00, 114.7, 218.0)">m</text><text xml:space="preserve" font-family="SourceSansPro-Regular" font-size="28.0" fill="#FEFFFF" transform="matrix(1.00, 0.00, -0.00, -1.00, 137.9, 218.0)">a</text><text xml:space="preserve" font-family="SourceSansPro-Regular" font-size="28.0" fill="#FEFFFF" transform="matrix(1.00, 0.00, -0.00, -1.00, 152.0, 218.0)"> </text><text xml:space="preserve" font-family="SourceSansPro-Regular" font-size="28.0" fill="#FEFFFF" transform="matrix(1.00, 0.00, -0.00, -1.00, 157.6, 218.0)">i</text><text xml:space="preserve" font-family="SourceSansPro-Regular" font-size="28.0" fill="#FEFFFF" transform="matrix(1.00, 0.00, -0.00, -1.00, 164.5, 218.0)">m</text><text xml:space="preserve" font-family="SourceSansPro-Regular" font-size="28.0" fill="#FEFFFF" transform="matrix(1.00, 0.00, -0.00, -1.00, 187.7, 218.0)">p</text><text xml:space="preserve" font-family="SourceSansPro-Regular" font-size="28.0" fill="#FEFFFF" transform="matrix(1.00, 0.00, -0.00, -1.00, 203.2, 218.0)">o</text><text xml:space="preserve" font-family="SourceSansPro-Regular" font-size="28.0" fill="#FEFFFF" transform="matrix(1.00, 0.00, -0.00, -1.00, 218.4, 218.0)">r</text><text xml:space="preserve" font-family="SourceSansPro-Regular" font-size="28.0" fill="#FEFFFF" transform="matrix(1.00, 0.00, -0.00, -1.00, 228.1, 218.0)">t</text><text xml:space="preserve" font-family="SourceSansPro-Regular" font-size="28.0" fill="#FEFFFF" transform="matrix(1.00, 0.00, -0.00, -1.00, 237.0, 218.0)">â</text><text xml:space="preserve" font-family="SourceSansPro-Regular" font-size="28.0" fill="#FEFFFF" transform="matrix(1.00, 0.00, -0.00, -1.00, 251.1, 218.0)">n</text><text xml:space="preserve" font-family="SourceSansPro-Regular" font-size="28.0" fill="#FEFFFF" transform="matrix(1.00, 0.00, -0.00, -1.00, 266.4, 218.0)">c</text><text xml:space="preserve" font-family="SourceSansPro-Regular" font-size="28.0" fill="#FEFFFF" transform="matrix(1.00, 0.00, -0.00, -1.00, 279.2, 218.0)">i</text><text xml:space="preserve" font-family="SourceSansPro-Regular" font-size="28.0" fill="#FEFFFF" transform="matrix(1.00, 0.00, -0.00, -1.00, 286.1, 218.0)">a</text><text xml:space="preserve" font-family="SourceSansPro-Regular" font-size="28.0" fill="#FEFFFF" transform="matrix(1.00, 0.00, -0.00, -1.00, 300.2, 218.0)"> </text><text xml:space="preserve" font-family="SourceSansPro-Regular" font-size="28.0" fill="#FEFFFF" transform="matrix(1.00, 0.00, -0.00, -1.00, 305.8, 218.0)">q</text><text xml:space="preserve" font-family="SourceSansPro-Regular" font-size="28.0" fill="#FEFFFF" transform="matrix(1.00, 0.00, -0.00, -1.00, 321.3, 218.0)">u</text><text xml:space="preserve" font-family="SourceSansPro-Regular" font-size="28.0" fill="#FEFFFF" transform="matrix(1.00, 0.00, -0.00, -1.00, 336.6, 218.0)">e</text><text xml:space="preserve" font-family="SourceSansPro-Regular" font-size="28.0" fill="#FEFFFF" transform="matrix(1.00, 0.00, -0.00, -1.00, 350.5, 218.0)"> </text><text xml:space="preserve" font-family="SourceSansPro-Regular" font-size="28.0" fill="#FEFFFF" transform="matrix(1.00, 0.00, -0.00, -1.00, 1.0, 182.0)">a</text><text xml:space="preserve" font-family="SourceSansPro-Regular" font-size="28.0" fill="#FEFFFF" transform="matrix(1.00, 0.00, -0.00, -1.00, 15.1, 182.0)">p</text><text xml:space="preserve" font-family="SourceSansPro-Regular" font-size="28.0" fill="#FEFFFF" transform="matrix(1.00, 0.00, -0.00, -1.00, 30.7, 182.0)">l</text><text xml:space="preserve" font-family="SourceSansPro-Regular" font-size="28.0" fill="#FEFFFF" transform="matrix(1.00, 0.00, -0.00, -1.00, 37.8, 182.0)">i</text><text xml:space="preserve" font-family="SourceSansPro-Regular" font-size="28.0" fill="#FEFFFF" transform="matrix(1.00, 0.00, -0.00, -1.00, 44.7, 182.0)">c</text><text xml:space="preserve" font-family="SourceSansPro-Regular" font-size="28.0" fill="#FEFFFF" transform="matrix(1.00, 0.00, -0.00, -1.00, 57.2, 182.0)">a</text><text xml:space="preserve" font-family="SourceSansPro-Regular" font-size="28.0" fill="#FEFFFF" transform="matrix(1.00, 0.00, -0.00, -1.00, 71.3, 182.0)">ç</text><text xml:space="preserve" font-family="SourceSansPro-Regular" font-size="28.0" fill="#FEFFFF" transform="matrix(1.00, 0.00, -0.00, -1.00, 83.5, 182.0)">õ</text><text xml:space="preserve" font-family="SourceSansPro-Regular" font-size="28.0" fill="#FEFFFF" transform="matrix(1.00, 0.00, -0.00, -1.00, 98.6, 182.0)">e</text><text xml:space="preserve" font-family="SourceSansPro-Regular" font-size="28.0" fill="#FEFFFF" transform="matrix(1.00, 0.00, -0.00, -1.00, 112.5, 182.0)">s</text><text xml:space="preserve" font-family="SourceSansPro-Regular" font-size="28.0" fill="#FEFFFF" transform="matrix(1.00, 0.00, -0.00, -1.00, 124.3, 182.0)"> </text><text xml:space="preserve" font-family="SourceSansPro-Regular" font-size="28.0" fill="#FEFFFF" transform="matrix(1.00, 0.00, -0.00, -1.00, 129.9, 182.0)">q</text><text xml:space="preserve" font-family="SourceSansPro-Regular" font-size="28.0" fill="#FEFFFF" transform="matrix(1.00, 0.00, -0.00, -1.00, 145.4, 182.0)">u</text><text xml:space="preserve" font-family="SourceSansPro-Regular" font-size="28.0" fill="#FEFFFF" transform="matrix(1.00, 0.00, -0.00, -1.00, 160.6, 182.0)">e</text><text xml:space="preserve" font-family="SourceSansPro-Regular" font-size="28.0" fill="#FEFFFF" transform="matrix(1.00, 0.00, -0.00, -1.00, 174.5, 182.0)"> </text><text xml:space="preserve" font-family="SourceSansPro-Regular" font-size="28.0" fill="#FEFFFF" transform="matrix(1.00, 0.00, -0.00, -1.00, 180.1, 182.0)">r</text><text xml:space="preserve" font-family="SourceSansPro-Regular" font-size="28.0" fill="#FEFFFF" transform="matrix(1.00, 0.00, -0.00, -1.00, 189.6, 182.0)">e</text><text xml:space="preserve" font-family="SourceSansPro-Regular" font-size="28.0" fill="#FEFFFF" transform="matrix(1.00, 0.00, -0.00, -1.00, 203.4, 182.0)">c</text><text xml:space="preserve" font-family="SourceSansPro-Regular" font-size="28.0" fill="#FEFFFF" transform="matrix(1.00, 0.00, -0.00, -1.00, 215.6, 182.0)">e</text><text xml:space="preserve" font-family="SourceSansPro-Regular" font-size="28.0" fill="#FEFFFF" transform="matrix(1.00, 0.00, -0.00, -1.00, 229.5, 182.0)">b</text><text xml:space="preserve" font-family="SourceSansPro-Regular" font-size="28.0" fill="#FEFFFF" transform="matrix(1.00, 0.00, -0.00, -1.00, 245.0, 182.0)">e</text><text xml:space="preserve" font-family="SourceSansPro-Regular" font-size="28.0" fill="#FEFFFF" transform="matrix(1.00, 0.00, -0.00, -1.00, 258.9, 182.0)">m</text><text xml:space="preserve" font-family="SourceSansPro-Regular" font-size="28.0" fill="#FEFFFF" transform="matrix(1.00, 0.00, -0.00, -1.00, 282.1, 182.0)"> </text><text xml:space="preserve" font-family="SourceSansPro-Regular" font-size="28.0" fill="#FEFFFF" transform="matrix(1.00, 0.00, -0.00, -1.00, 1.0, 146.0)">m</text><text xml:space="preserve" font-family="SourceSansPro-Regular" font-size="28.0" fill="#FEFFFF" transform="matrix(1.00, 0.00, -0.00, -1.00, 24.2, 146.0)">i</text><text xml:space="preserve" font-family="SourceSansPro-Regular" font-size="28.0" fill="#FEFFFF" transform="matrix(1.00, 0.00, -0.00, -1.00, 31.1, 146.0)">l</text><text xml:space="preserve" font-family="SourceSansPro-Regular" font-size="28.0" fill="#FEFFFF" transform="matrix(1.00, 0.00, -0.00, -1.00, 38.2, 146.0)">h</text><text xml:space="preserve" font-family="SourceSansPro-Regular" font-size="28.0" fill="#FEFFFF" transform="matrix(1.00, 0.00, -0.00, -1.00, 53.5, 146.0)">a</text><text xml:space="preserve" font-family="SourceSansPro-Regular" font-size="28.0" fill="#FEFFFF" transform="matrix(1.00, 0.00, -0.00, -1.00, 67.6, 146.0)">r</text><text xml:space="preserve" font-family="SourceSansPro-Regular" font-size="28.0" fill="#FEFFFF" transform="matrix(1.00, 0.00, -0.00, -1.00, 77.0, 146.0)">e</text><text xml:space="preserve" font-family="SourceSansPro-Regular" font-size="28.0" fill="#FEFFFF" transform="matrix(1.00, 0.00, -0.00, -1.00, 90.9, 146.0)">s</text><text xml:space="preserve" font-family="SourceSansPro-Regular" font-size="28.0" fill="#FEFFFF" transform="matrix(1.00, 0.00, -0.00, -1.00, 102.6, 146.0)"> </text><text xml:space="preserve" font-family="SourceSansPro-Regular" font-size="28.0" fill="#FEFFFF" transform="matrix(1.00, 0.00, -0.00, -1.00, 108.2, 146.0)">d</text><text xml:space="preserve" font-family="SourceSansPro-Regular" font-size="28.0" fill="#FEFFFF" transform="matrix(1.00, 0.00, -0.00, -1.00, 123.8, 146.0)">e</text><text xml:space="preserve" font-family="SourceSansPro-Regular" font-size="28.0" fill="#FEFFFF" transform="matrix(1.00, 0.00, -0.00, -1.00, 137.7, 146.0)"> </text><text xml:space="preserve" font-family="SourceSansPro-Regular" font-size="28.0" fill="#FEFFFF" transform="matrix(1.00, 0.00, -0.00, -1.00, 143.3, 146.0)">r</text><text xml:space="preserve" font-family="SourceSansPro-Regular" font-size="28.0" fill="#FEFFFF" transform="matrix(1.00, 0.00, -0.00, -1.00, 152.7, 146.0)">e</text><text xml:space="preserve" font-family="SourceSansPro-Regular" font-size="28.0" fill="#FEFFFF" transform="matrix(1.00, 0.00, -0.00, -1.00, 166.6, 146.0)">q</text><text xml:space="preserve" font-family="SourceSansPro-Regular" font-size="28.0" fill="#FEFFFF" transform="matrix(1.00, 0.00, -0.00, -1.00, 182.1, 146.0)">u</text><text xml:space="preserve" font-family="SourceSansPro-Regular" font-size="28.0" fill="#FEFFFF" transform="matrix(1.00, 0.00, -0.00, -1.00, 197.4, 146.0)">i</text><text xml:space="preserve" font-family="SourceSansPro-Regular" font-size="28.0" fill="#FEFFFF" transform="matrix(1.00, 0.00, -0.00, -1.00, 204.3, 146.0)">s</text><text xml:space="preserve" font-family="SourceSansPro-Regular" font-size="28.0" fill="#FEFFFF" transform="matrix(1.00, 0.00, -0.00, -1.00, 216.0, 146.0)">i</text><text xml:space="preserve" font-family="SourceSansPro-Regular" font-size="28.0" fill="#FEFFFF" transform="matrix(1.00, 0.00, -0.00, -1.00, 222.9, 146.0)">ç</text><text xml:space="preserve" font-family="SourceSansPro-Regular" font-size="28.0" fill="#FEFFFF" transform="matrix(1.00, 0.00, -0.00, -1.00, 235.1, 146.0)">õ</text><text xml:space="preserve" font-family="SourceSansPro-Regular" font-size="28.0" fill="#FEFFFF" transform="matrix(1.00, 0.00, -0.00, -1.00, 250.2, 146.0)">e</text><text xml:space="preserve" font-family="SourceSansPro-Regular" font-size="28.0" fill="#FEFFFF" transform="matrix(1.00, 0.00, -0.00, -1.00, 264.1, 146.0)">s</text><text xml:space="preserve" font-family="SourceSansPro-Regular" font-size="28.0" fill="#FEFFFF" transform="matrix(1.00, 0.00, -0.00, -1.00, 275.8, 146.0)">,</text><text xml:space="preserve" font-family="SourceSansPro-Regular" font-size="28.0" fill="#FEFFFF" transform="matrix(1.00, 0.00, -0.00, -1.00, 282.8, 146.0)"> </text><text xml:space="preserve" font-family="SourceSansPro-Regular" font-size="28.0" fill="#FEFFFF" transform="matrix(1.00, 0.00, -0.00, -1.00, 1.0, 110.0)">i</text><text xml:space="preserve" font-family="SourceSansPro-Regular" font-size="28.0" fill="#FEFFFF" transform="matrix(1.00, 0.00, -0.00, -1.00, 7.9, 110.0)">m</text><text xml:space="preserve" font-family="SourceSansPro-Regular" font-size="28.0" fill="#FEFFFF" transform="matrix(1.00, 0.00, -0.00, -1.00, 31.1, 110.0)">p</text><text xml:space="preserve" font-family="SourceSansPro-Regular" font-size="28.0" fill="#FEFFFF" transform="matrix(1.00, 0.00, -0.00, -1.00, 46.6, 110.0)">l</text><text xml:space="preserve" font-family="SourceSansPro-Regular" font-size="28.0" fill="#FEFFFF" transform="matrix(1.00, 0.00, -0.00, -1.00, 53.8, 110.0)">e</text><text xml:space="preserve" font-family="SourceSansPro-Regular" font-size="28.0" fill="#FEFFFF" transform="matrix(1.00, 0.00, -0.00, -1.00, 67.7, 110.0)">m</text><text xml:space="preserve" font-family="SourceSansPro-Regular" font-size="28.0" fill="#FEFFFF" transform="matrix(1.00, 0.00, -0.00, -1.00, 90.9, 110.0)">e</text><text xml:space="preserve" font-family="SourceSansPro-Regular" font-size="28.0" fill="#FEFFFF" transform="matrix(1.00, 0.00, -0.00, -1.00, 104.8, 110.0)">n</text><text xml:space="preserve" font-family="SourceSansPro-Regular" font-size="28.0" fill="#FEFFFF" transform="matrix(1.00, 0.00, -0.00, -1.00, 120.1, 110.0)">t</text><text xml:space="preserve" font-family="SourceSansPro-Regular" font-size="28.0" fill="#FEFFFF" transform="matrix(1.00, 0.00, -0.00, -1.00, 129.2, 110.0)">e</text><text xml:space="preserve" font-family="SourceSansPro-Regular" font-size="28.0" fill="#FEFFFF" transform="matrix(1.00, 0.00, -0.00, -1.00, 143.0, 110.0)"> </text><text xml:space="preserve" font-family="SourceSansPro-Semibold" font-weight="bold" font-size="28.0" fill="#FEFFFF" transform="matrix(1.00, 0.00, -0.00, -1.00, 148.6, 110.0)">r</text><text xml:space="preserve" font-family="SourceSansPro-Semibold" font-weight="bold" font-size="28.0" fill="#FEFFFF" transform="matrix(1.00, 0.00, -0.00, -1.00, 158.4, 110.0)">a</text><text xml:space="preserve" font-family="SourceSansPro-Semibold" font-weight="bold" font-size="28.0" fill="#FEFFFF" transform="matrix(1.00, 0.00, -0.00, -1.00, 172.4, 110.0)">t</text><text xml:space="preserve" font-family="SourceSansPro-Semibold" font-weight="bold" font-size="28.0" fill="#FEFFFF" transform="matrix(1.00, 0.00, -0.00, -1.00, 182.0, 110.0)">e</text><text xml:space="preserve" font-family="SourceSansPro-Semibold" font-weight="bold" font-size="28.0" fill="#FEFFFF" transform="matrix(1.00, 0.00, -0.00, -1.00, 196.2, 110.0)"> </text><text xml:space="preserve" font-family="SourceSansPro-Semibold" font-weight="bold" font-size="28.0" fill="#FEFFFF" transform="matrix(1.00, 0.00, -0.00, -1.00, 201.8, 110.0)">l</text><text xml:space="preserve" font-family="SourceSansPro-Semibold" font-weight="bold" font-size="28.0" fill="#FEFFFF" transform="matrix(1.00, 0.00, -0.00, -1.00, 209.4, 110.0)">i</text><text xml:space="preserve" font-family="SourceSansPro-Semibold" font-weight="bold" font-size="28.0" fill="#FEFFFF" transform="matrix(1.00, 0.00, -0.00, -1.00, 216.7, 110.0)">m</text><text xml:space="preserve" font-family="SourceSansPro-Semibold" font-weight="bold" font-size="28.0" fill="#FEFFFF" transform="matrix(1.00, 0.00, -0.00, -1.00, 240.3, 110.0)">i</text><text xml:space="preserve" font-family="SourceSansPro-Semibold" font-weight="bold" font-size="28.0" fill="#FEFFFF" transform="matrix(1.00, 0.00, -0.00, -1.00, 247.7, 110.0)">t</text><text xml:space="preserve" font-family="SourceSansPro-Semibold" font-weight="bold" font-size="28.0" fill="#FEFFFF" transform="matrix(1.00, 0.00, -0.00, -1.00, 257.8, 110.0)">i</text><text xml:space="preserve" font-family="SourceSansPro-Semibold" font-weight="bold" font-size="28.0" fill="#FEFFFF" transform="matrix(1.00, 0.00, -0.00, -1.00, 265.1, 110.0)">n</text><text xml:space="preserve" font-family="SourceSansPro-Semibold" font-weight="bold" font-size="28.0" fill="#FEFFFF" transform="matrix(1.00, 0.00, -0.00, -1.00, 280.8, 110.0)">g</text><text xml:space="preserve" font-family="SourceSansPro-Semibold" font-weight="bold" font-size="28.0" fill="#FEFFFF" transform="matrix(1.00, 0.00, -0.00, -1.00, 295.4, 110.0)"> </text><text xml:space="preserve" font-family="SourceSansPro-Regular" font-size="28.0" fill="#FEFFFF" transform="matrix(1.00, 0.00, -0.00, -1.00, 301.0, 110.0)">p</text><text xml:space="preserve" font-family="SourceSansPro-Regular" font-size="28.0" fill="#FEFFFF" transform="matrix(1.00, 0.00, -0.00, -1.00, 316.1, 110.0)">a</text><text xml:space="preserve" font-family="SourceSansPro-Regular" font-size="28.0" fill="#FEFFFF" transform="matrix(1.00, 0.00, -0.00, -1.00, 330.2, 110.0)">r</text><text xml:space="preserve" font-family="SourceSansPro-Regular" font-size="28.0" fill="#FEFFFF" transform="matrix(1.00, 0.00, -0.00, -1.00, 339.3, 110.0)">a</text><text xml:space="preserve" font-family="SourceSansPro-Regular" font-size="28.0" fill="#FEFFFF" transform="matrix(1.00, 0.00, -0.00, -1.00, 353.4, 110.0)"> </text><text xml:space="preserve" font-family="SourceSansPro-Regular" font-size="28.0" fill="#FEFFFF" transform="matrix(1.00, 0.00, -0.00, -1.00, 1.0, 74.0)">e</text><text xml:space="preserve" font-family="SourceSansPro-Regular" font-size="28.0" fill="#FEFFFF" transform="matrix(1.00, 0.00, -0.00, -1.00, 15.0, 74.0)">v</text><text xml:space="preserve" font-family="SourceSansPro-Regular" font-size="28.0" fill="#FEFFFF" transform="matrix(1.00, 0.00, -0.00, -1.00, 28.1, 74.0)">i</text><text xml:space="preserve" font-family="SourceSansPro-Regular" font-size="28.0" fill="#FEFFFF" transform="matrix(1.00, 0.00, -0.00, -1.00, 35.0, 74.0)">t</text><text xml:space="preserve" font-family="SourceSansPro-Regular" font-size="28.0" fill="#FEFFFF" transform="matrix(1.00, 0.00, -0.00, -1.00, 43.9, 74.0)">a</text><text xml:space="preserve" font-family="SourceSansPro-Regular" font-size="28.0" fill="#FEFFFF" transform="matrix(1.00, 0.00, -0.00, -1.00, 58.0, 74.0)">r</text><text xml:space="preserve" font-family="SourceSansPro-Regular" font-size="28.0" fill="#FEFFFF" transform="matrix(1.00, 0.00, -0.00, -1.00, 67.7, 74.0)"> </text><text xml:space="preserve" font-family="SourceSansPro-Regular" font-size="28.0" fill="#FEFFFF" transform="matrix(1.00, 0.00, -0.00, -1.00, 73.3, 74.0)">a</text><text xml:space="preserve" font-family="SourceSansPro-Regular" font-size="28.0" fill="#FEFFFF" transform="matrix(1.00, 0.00, -0.00, -1.00, 87.4, 74.0)">b</text><text xml:space="preserve" font-family="SourceSansPro-Regular" font-size="28.0" fill="#FEFFFF" transform="matrix(1.00, 0.00, -0.00, -1.00, 102.9, 74.0)">u</text><text xml:space="preserve" font-family="SourceSansPro-Regular" font-size="28.0" fill="#FEFFFF" transform="matrix(1.00, 0.00, -0.00, -1.00, 118.1, 74.0)">s</text><text xml:space="preserve" font-family="SourceSansPro-Regular" font-size="28.0" fill="#FEFFFF" transform="matrix(1.00, 0.00, -0.00, -1.00, 129.9, 74.0)">o</text><text xml:space="preserve" font-family="SourceSansPro-Regular" font-size="28.0" fill="#FEFFFF" transform="matrix(1.00, 0.00, -0.00, -1.00, 145.0, 74.0)">s</text><text xml:space="preserve" font-family="SourceSansPro-Regular" font-size="28.0" fill="#FEFFFF" transform="matrix(1.00, 0.00, -0.00, -1.00, 156.8, 74.0)"> </text><text xml:space="preserve" font-family="SourceSansPro-Regular" font-size="28.0" fill="#FEFFFF" transform="matrix(1.00, 0.00, -0.00, -1.00, 162.4, 74.0)">e</text><text xml:space="preserve" font-family="SourceSansPro-Regular" font-size="28.0" fill="#FEFFFF" transform="matrix(1.00, 0.00, -0.00, -1.00, 176.3, 74.0)"> </text><text xml:space="preserve" font-family="SourceSansPro-Regular" font-size="28.0" fill="#FEFFFF" transform="matrix(1.00, 0.00, -0.00, -1.00, 181.9, 74.0)">s</text><text xml:space="preserve" font-family="SourceSansPro-Regular" font-size="28.0" fill="#FEFFFF" transform="matrix(1.00, 0.00, -0.00, -1.00, 193.6, 74.0)">o</text><text xml:space="preserve" font-family="SourceSansPro-Regular" font-size="28.0" fill="#FEFFFF" transform="matrix(1.00, 0.00, -0.00, -1.00, 208.8, 74.0)">b</text><text xml:space="preserve" font-family="SourceSansPro-Regular" font-size="28.0" fill="#FEFFFF" transform="matrix(1.00, 0.00, -0.00, -1.00, 224.2, 74.0)">r</text><text xml:space="preserve" font-family="SourceSansPro-Regular" font-size="28.0" fill="#FEFFFF" transform="matrix(1.00, 0.00, -0.00, -1.00, 233.7, 74.0)">e</text><text xml:space="preserve" font-family="SourceSansPro-Regular" font-size="28.0" fill="#FEFFFF" transform="matrix(1.00, 0.00, -0.00, -1.00, 247.6, 74.0)">c</text><text xml:space="preserve" font-family="SourceSansPro-Regular" font-size="28.0" fill="#FEFFFF" transform="matrix(1.00, 0.00, -0.00, -1.00, 260.1, 74.0)">a</text><text xml:space="preserve" font-family="SourceSansPro-Regular" font-size="28.0" fill="#FEFFFF" transform="matrix(1.00, 0.00, -0.00, -1.00, 274.2, 74.0)">r</text><text xml:space="preserve" font-family="SourceSansPro-Regular" font-size="28.0" fill="#FEFFFF" transform="matrix(1.00, 0.00, -0.00, -1.00, 283.6, 74.0)">g</text><text xml:space="preserve" font-family="SourceSansPro-Regular" font-size="28.0" fill="#FEFFFF" transform="matrix(1.00, 0.00, -0.00, -1.00, 297.3, 74.0)">a</text><text xml:space="preserve" font-family="SourceSansPro-Regular" font-size="28.0" fill="#FEFFFF" transform="matrix(1.00, 0.00, -0.00, -1.00, 311.4, 74.0)">s</text><text xml:space="preserve" font-family="SourceSansPro-Regular" font-size="28.0" fill="#FEFFFF" transform="matrix(1.00, 0.00, -0.00, -1.00, 323.1, 74.0)"> </text><text xml:space="preserve" font-family="SourceSansPro-Regular" font-size="28.0" fill="#FEFFFF" transform="matrix(1.00, 0.00, -0.00, -1.00, 1.0, 38.0)">c</text><text xml:space="preserve" font-family="SourceSansPro-Regular" font-size="28.0" fill="#FEFFFF" transform="matrix(1.00, 0.00, -0.00, -1.00, 13.2, 38.0)">o</text><text xml:space="preserve" font-family="SourceSansPro-Regular" font-size="28.0" fill="#FEFFFF" transform="matrix(1.00, 0.00, -0.00, -1.00, 28.4, 38.0)">m</text><text xml:space="preserve" font-family="SourceSansPro-Regular" font-size="28.0" fill="#FEFFFF" transform="matrix(1.00, 0.00, -0.00, -1.00, 51.6, 38.0)"> </text><text xml:space="preserve" font-family="SourceSansPro-Regular" font-size="28.0" fill="#FEFFFF" transform="matrix(1.00, 0.00, -0.00, -1.00, 57.2, 38.0)">r</text><text xml:space="preserve" font-family="SourceSansPro-Regular" font-size="28.0" fill="#FEFFFF" transform="matrix(1.00, 0.00, -0.00, -1.00, 66.6, 38.0)">e</text><text xml:space="preserve" font-family="SourceSansPro-Regular" font-size="28.0" fill="#FEFFFF" transform="matrix(1.00, 0.00, -0.00, -1.00, 80.5, 38.0)">q</text><text xml:space="preserve" font-family="SourceSansPro-Regular" font-size="28.0" fill="#FEFFFF" transform="matrix(1.00, 0.00, -0.00, -1.00, 96.0, 38.0)">u</text><text xml:space="preserve" font-family="SourceSansPro-Regular" font-size="28.0" fill="#FEFFFF" transform="matrix(1.00, 0.00, -0.00, -1.00, 111.3, 38.0)">i</text><text xml:space="preserve" font-family="SourceSansPro-Regular" font-size="28.0" fill="#FEFFFF" transform="matrix(1.00, 0.00, -0.00, -1.00, 118.2, 38.0)">s</text><text xml:space="preserve" font-family="SourceSansPro-Regular" font-size="28.0" fill="#FEFFFF" transform="matrix(1.00, 0.00, -0.00, -1.00, 129.9, 38.0)">i</text><text xml:space="preserve" font-family="SourceSansPro-Regular" font-size="28.0" fill="#FEFFFF" transform="matrix(1.00, 0.00, -0.00, -1.00, 136.8, 38.0)">ç</text><text xml:space="preserve" font-family="SourceSansPro-Regular" font-size="28.0" fill="#FEFFFF" transform="matrix(1.00, 0.00, -0.00, -1.00, 149.0, 38.0)">õ</text><text xml:space="preserve" font-family="SourceSansPro-Regular" font-size="28.0" fill="#FEFFFF" transform="matrix(1.00, 0.00, -0.00, -1.00, 164.1, 38.0)">e</text><text xml:space="preserve" font-family="SourceSansPro-Regular" font-size="28.0" fill="#FEFFFF" transform="matrix(1.00, 0.00, -0.00, -1.00, 178.0, 38.0)">s</text><text xml:space="preserve" font-family="SourceSansPro-Regular" font-size="28.0" fill="#FEFFFF" transform="matrix(1.00, 0.00, -0.00, -1.00, 189.7, 38.0)"> </text><text xml:space="preserve" font-family="SourceSansPro-Regular" font-size="28.0" fill="#FEFFFF" transform="matrix(1.00, 0.00, -0.00, -1.00, 195.3, 38.0)">i</text><text xml:space="preserve" font-family="SourceSansPro-Regular" font-size="28.0" fill="#FEFFFF" transform="matrix(1.00, 0.00, -0.00, -1.00, 202.2, 38.0)">g</text><text xml:space="preserve" font-family="SourceSansPro-Regular" font-size="28.0" fill="#FEFFFF" transform="matrix(1.00, 0.00, -0.00, -1.00, 216.3, 38.0)">u</text><text xml:space="preserve" font-family="SourceSansPro-Regular" font-size="28.0" fill="#FEFFFF" transform="matrix(1.00, 0.00, -0.00, -1.00, 231.6, 38.0)">a</text><text xml:space="preserve" font-family="SourceSansPro-Regular" font-size="28.0" fill="#FEFFFF" transform="matrix(1.00, 0.00, -0.00, -1.00, 245.7, 38.0)">i</text><text xml:space="preserve" font-family="SourceSansPro-Regular" font-size="28.0" fill="#FEFFFF" transform="matrix(1.00, 0.00, -0.00, -1.00, 252.6, 38.0)">s</text><text xml:space="preserve" font-family="SourceSansPro-Regular" font-size="28.0" fill="#FEFFFF" transform="matrix(1.00, 0.00, -0.00, -1.00, 264.3, 38.0)"> </text><text xml:space="preserve" font-family="SourceSansPro-Regular" font-size="28.0" fill="#FEFFFF" transform="matrix(1.00, 0.00, -0.00, -1.00, 269.9, 38.0)">s</text><text xml:space="preserve" font-family="SourceSansPro-Regular" font-size="28.0" fill="#FEFFFF" transform="matrix(1.00, 0.00, -0.00, -1.00, 281.6, 38.0)">e</text><text xml:space="preserve" font-family="SourceSansPro-Regular" font-size="28.0" fill="#FEFFFF" transform="matrix(1.00, 0.00, -0.00, -1.00, 295.5, 38.0)">n</text><text xml:space="preserve" font-family="SourceSansPro-Regular" font-size="28.0" fill="#FEFFFF" transform="matrix(1.00, 0.00, -0.00, -1.00, 310.8, 38.0)">d</text><text xml:space="preserve" font-family="SourceSansPro-Regular" font-size="28.0" fill="#FEFFFF" transform="matrix(1.00, 0.00, -0.00, -1.00, 326.4, 38.0)">o</text><text xml:space="preserve" font-family="SourceSansPro-Regular" font-size="28.0" fill="#FEFFFF" transform="matrix(1.00, 0.00, -0.00, -1.00, 341.6, 38.0)"> </text><text xml:space="preserve" font-family="SourceSansPro-Regular" font-size="28.0" fill="#FEFFFF" transform="matrix(1.00, 0.00, -0.00, -1.00, 1.0, 2.0)">f</text><text xml:space="preserve" font-family="SourceSansPro-Regular" font-size="28.0" fill="#FEFFFF" transform="matrix(1.00, 0.00, -0.00, -1.00, 8.9, 2.0)">e</text><text xml:space="preserve" font-family="SourceSansPro-Regular" font-size="28.0" fill="#FEFFFF" transform="matrix(1.00, 0.00, -0.00, -1.00, 22.8, 2.0)">i</text><text xml:space="preserve" font-family="SourceSansPro-Regular" font-size="28.0" fill="#FEFFFF" transform="matrix(1.00, 0.00, -0.00, -1.00, 29.7, 2.0)">t</text><text xml:space="preserve" font-family="SourceSansPro-Regular" font-size="28.0" fill="#FEFFFF" transform="matrix(1.00, 0.00, -0.00, -1.00, 38.5, 2.0)">a</text><text xml:space="preserve" font-family="SourceSansPro-Regular" font-size="28.0" fill="#FEFFFF" transform="matrix(1.00, 0.00, -0.00, -1.00, 52.7, 2.0)">s</text><text xml:space="preserve" font-family="SourceSansPro-Regular" font-size="28.0" fill="#FEFFFF" transform="matrix(1.00, 0.00, -0.00, -1.00, 64.4, 2.0)"> </text><text xml:space="preserve" font-family="SourceSansPro-Regular" font-size="28.0" fill="#FEFFFF" transform="matrix(1.00, 0.00, -0.00, -1.00, 70.0, 2.0)">s</text><text xml:space="preserve" font-family="SourceSansPro-Regular" font-size="28.0" fill="#FEFFFF" transform="matrix(1.00, 0.00, -0.00, -1.00, 81.7, 2.0)">i</text><text xml:space="preserve" font-family="SourceSansPro-Regular" font-size="28.0" fill="#FEFFFF" transform="matrix(1.00, 0.00, -0.00, -1.00, 88.6, 2.0)">m</text><text xml:space="preserve" font-family="SourceSansPro-Regular" font-size="28.0" fill="#FEFFFF" transform="matrix(1.00, 0.00, -0.00, -1.00, 111.8, 2.0)">u</text><text xml:space="preserve" font-family="SourceSansPro-Regular" font-size="28.0" fill="#FEFFFF" transform="matrix(1.00, 0.00, -0.00, -1.00, 127.1, 2.0)">l</text><text xml:space="preserve" font-family="SourceSansPro-Regular" font-size="28.0" fill="#FEFFFF" transform="matrix(1.00, 0.00, -0.00, -1.00, 134.2, 2.0)">t</text><text xml:space="preserve" font-family="SourceSansPro-Regular" font-size="28.0" fill="#FEFFFF" transform="matrix(1.00, 0.00, -0.00, -1.00, 143.1, 2.0)">a</text><text xml:space="preserve" font-family="SourceSansPro-Regular" font-size="28.0" fill="#FEFFFF" transform="matrix(1.00, 0.00, -0.00, -1.00, 157.2, 2.0)">n</text><text xml:space="preserve" font-family="SourceSansPro-Regular" font-size="28.0" fill="#FEFFFF" transform="matrix(1.00, 0.00, -0.00, -1.00, 172.5, 2.0)">e</text><text xml:space="preserve" font-family="SourceSansPro-Regular" font-size="28.0" fill="#FEFFFF" transform="matrix(1.00, 0.00, -0.00, -1.00, 186.0, 2.0)">a</text><text xml:space="preserve" font-family="SourceSansPro-Regular" font-size="28.0" fill="#FEFFFF" transform="matrix(1.00, 0.00, -0.00, -1.00, 200.1, 2.0)">m</text><text xml:space="preserve" font-family="SourceSansPro-Regular" font-size="28.0" fill="#FEFFFF" transform="matrix(1.00, 0.00, -0.00, -1.00, 223.3, 2.0)">e</text><text xml:space="preserve" font-family="SourceSansPro-Regular" font-size="28.0" fill="#FEFFFF" transform="matrix(1.00, 0.00, -0.00, -1.00, 237.2, 2.0)">n</text><text xml:space="preserve" font-family="SourceSansPro-Regular" font-size="28.0" fill="#FEFFFF" transform="matrix(1.00, 0.00, -0.00, -1.00, 252.5, 2.0)">t</text><text xml:space="preserve" font-family="SourceSansPro-Regular" font-size="28.0" fill="#FEFFFF" transform="matrix(1.00, 0.00, -0.00, -1.00, 261.6, 2.0)">e</text><text xml:space="preserve" font-family="SourceSansPro-Regular" font-size="28.0" fill="#FEFFFF" transform="matrix(1.00, 0.00, -0.00, -1.00, 275.5, 2.0)">.</text></g></svg>