<?xml version="1.0" encoding="UTF-8" standalone="no"?><svg xmlns="http://www.w3.org/2000/svg" xmlns:xlink="http://www.w3.org/1999/xlink" clip-rule="evenodd" stroke-miterlimit="4.00" viewBox="0 0 1920 1080"><desc>SVG generated by Keynote</desc><defs></defs><g transform="matrix(1.00, 0.00, -0.00, -1.00, 0.0, 1080.0)"><path d="M 0.0 1080.0 L 1920.0 1080.0 L 1920.0 0.0 L 0.0 0.0 Z M 0.0 1080.0 " fill="#FEFFFF"></path><path d="M 1440.0 1080.0 L 1920.0 1080.0 L 1920.0 -0.0 L 1440.0 -0.0 Z M 1440.0 1080.0 " fill="#011202"></path><g><clipPath id="clip-360"><path d="M 0.0 1080.0 L 1440.0 1080.0 L 1440.0 0.0 L 0.0 0.0 Z M 0.0 1080.0 "></path></clipPath><g clip-path="url(#clip-360)"><image xlink:href="C87A6B3346EA29ABA3493580A785C922.jpeg" width="1365.00" height="767.00" transform="matrix(1.41, 0.00, -0.00, -1.41, -240.0, 1080.0)"></image></g></g><text xml:space="preserve" font-family="BebasNeueBold" font-weight="bold" font-size="90.0" fill="#6FBF40" transform="matrix(1.00, 0.00, -0.00, -1.00, 1494.0, 488.0)">r</text><text xml:space="preserve" font-family="BebasNeueBold" font-weight="bold" font-size="90.0" fill="#6FBF40" transform="matrix(1.00, 0.00, -0.00, -1.00, 1530.2, 488.0)">e</text><text xml:space="preserve" font-family="BebasNeueBold" font-weight="bold" font-size="90.0" fill="#6FBF40" transform="matrix(1.00, 0.00, -0.00, -1.00, 1563.3, 488.0)">q</text><text xml:space="preserve" font-family="BebasNeueBold" font-weight="bold" font-size="90.0" fill="#6FBF40" transform="matrix(1.00, 0.00, -0.00, -1.00, 1598.9, 488.0)">u</text><text xml:space="preserve" font-family="BebasNeueBold" font-weight="bold" font-size="90.0" fill="#6FBF40" transform="matrix(1.00, 0.00, -0.00, -1.00, 1634.8, 488.0)">e</text><text xml:space="preserve" font-family="BebasNeueBold" font-weight="bold" font-size="90.0" fill="#6FBF40" transform="matrix(1.00, 0.00, -0.00, -1.00, 1667.9, 488.0)">s</text><text xml:space="preserve" font-family="BebasNeueBold" font-weight="bold" font-size="90.0" fill="#6FBF40" transform="matrix(1.00, 0.00, -0.00, -1.00, 1701.5, 488.0)">t</text><text xml:space="preserve" font-family="BebasNeueBold" font-weight="bold" font-size="90.0" fill="#6FBF40" transform="matrix(1.00, 0.00, -0.00, -1.00, 1733.6, 488.0)"> </text><text xml:space="preserve" font-family="BebasNeueBold" font-weight="bold" font-size="90.0" fill="#6FBF40" transform="matrix(1.00, 0.00, -0.00, -1.00, 1747.5, 488.0)">i</text><text xml:space="preserve" font-family="BebasNeueBold" font-weight="bold" font-size="90.0" fill="#6FBF40" transform="matrix(1.00, 0.00, -0.00, -1.00, 1764.6, 488.0)">d</text><text xml:space="preserve" font-family="SourceSansPro-Regular" font-size="28.0" fill="#FEFFFF" transform="matrix(1.00, 0.00, -0.00, -1.00, 1494.0, 452.0)">É</text><text xml:space="preserve" font-family="SourceSansPro-Regular" font-size="28.0" fill="#FEFFFF" transform="matrix(1.00, 0.00, -0.00, -1.00, 1508.8, 452.0)"> </text><text xml:space="preserve" font-family="SourceSansPro-Regular" font-size="28.0" fill="#FEFFFF" transform="matrix(1.00, 0.00, -0.00, -1.00, 1514.4, 452.0)">u</text><text xml:space="preserve" font-family="SourceSansPro-Regular" font-size="28.0" fill="#FEFFFF" transform="matrix(1.00, 0.00, -0.00, -1.00, 1529.6, 452.0)">s</text><text xml:space="preserve" font-family="SourceSansPro-Regular" font-size="28.0" fill="#FEFFFF" transform="matrix(1.00, 0.00, -0.00, -1.00, 1541.3, 452.0)">a</text><text xml:space="preserve" font-family="SourceSansPro-Regular" font-size="28.0" fill="#FEFFFF" transform="matrix(1.00, 0.00, -0.00, -1.00, 1555.4, 452.0)">d</text><text xml:space="preserve" font-family="SourceSansPro-Regular" font-size="28.0" fill="#FEFFFF" transform="matrix(1.00, 0.00, -0.00, -1.00, 1571.0, 452.0)">o</text><text xml:space="preserve" font-family="SourceSansPro-Regular" font-size="28.0" fill="#FEFFFF" transform="matrix(1.00, 0.00, -0.00, -1.00, 1586.1, 452.0)"> </text><text xml:space="preserve" font-family="SourceSansPro-Regular" font-size="28.0" fill="#FEFFFF" transform="matrix(1.00, 0.00, -0.00, -1.00, 1591.7, 452.0)">p</text><text xml:space="preserve" font-family="SourceSansPro-Regular" font-size="28.0" fill="#FEFFFF" transform="matrix(1.00, 0.00, -0.00, -1.00, 1606.9, 452.0)">a</text><text xml:space="preserve" font-family="SourceSansPro-Regular" font-size="28.0" fill="#FEFFFF" transform="matrix(1.00, 0.00, -0.00, -1.00, 1621.0, 452.0)">r</text><text xml:space="preserve" font-family="SourceSansPro-Regular" font-size="28.0" fill="#FEFFFF" transform="matrix(1.00, 0.00, -0.00, -1.00, 1630.1, 452.0)">a</text><text xml:space="preserve" font-family="SourceSansPro-Regular" font-size="28.0" fill="#FEFFFF" transform="matrix(1.00, 0.00, -0.00, -1.00, 1644.2, 452.0)"> </text><text xml:space="preserve" font-family="SourceSansPro-Regular" font-size="28.0" fill="#FEFFFF" transform="matrix(1.00, 0.00, -0.00, -1.00, 1649.8, 452.0)">i</text><text xml:space="preserve" font-family="SourceSansPro-Regular" font-size="28.0" fill="#FEFFFF" transform="matrix(1.00, 0.00, -0.00, -1.00, 1656.7, 452.0)">d</text><text xml:space="preserve" font-family="SourceSansPro-Regular" font-size="28.0" fill="#FEFFFF" transform="matrix(1.00, 0.00, -0.00, -1.00, 1672.2, 452.0)">e</text><text xml:space="preserve" font-family="SourceSansPro-Regular" font-size="28.0" fill="#FEFFFF" transform="matrix(1.00, 0.00, -0.00, -1.00, 1686.1, 452.0)">n</text><text xml:space="preserve" font-family="SourceSansPro-Regular" font-size="28.0" fill="#FEFFFF" transform="matrix(1.00, 0.00, -0.00, -1.00, 1701.4, 452.0)">t</text><text xml:space="preserve" font-family="SourceSansPro-Regular" font-size="28.0" fill="#FEFFFF" transform="matrix(1.00, 0.00, -0.00, -1.00, 1710.9, 452.0)">i</text><text xml:space="preserve" font-family="SourceSansPro-Regular" font-size="28.0" fill="#FEFFFF" transform="matrix(1.00, 0.00, -0.00, -1.00, 1717.7, 452.0)">f</text><text xml:space="preserve" font-family="SourceSansPro-Regular" font-size="28.0" fill="#FEFFFF" transform="matrix(1.00, 0.00, -0.00, -1.00, 1725.9, 452.0)">i</text><text xml:space="preserve" font-family="SourceSansPro-Regular" font-size="28.0" fill="#FEFFFF" transform="matrix(1.00, 0.00, -0.00, -1.00, 1732.8, 452.0)">c</text><text xml:space="preserve" font-family="SourceSansPro-Regular" font-size="28.0" fill="#FEFFFF" transform="matrix(1.00, 0.00, -0.00, -1.00, 1745.3, 452.0)">a</text><text xml:space="preserve" font-family="SourceSansPro-Regular" font-size="28.0" fill="#FEFFFF" transform="matrix(1.00, 0.00, -0.00, -1.00, 1759.4, 452.0)">r</text><text xml:space="preserve" font-family="SourceSansPro-Regular" font-size="28.0" fill="#FEFFFF" transform="matrix(1.00, 0.00, -0.00, -1.00, 1769.1, 452.0)"> </text><text xml:space="preserve" font-family="SourceSansPro-Regular" font-size="28.0" fill="#FEFFFF" transform="matrix(1.00, 0.00, -0.00, -1.00, 1494.0, 416.0)">u</text><text xml:space="preserve" font-family="SourceSansPro-Regular" font-size="28.0" fill="#FEFFFF" transform="matrix(1.00, 0.00, -0.00, -1.00, 1509.2, 416.0)">s</text><text xml:space="preserve" font-family="SourceSansPro-Regular" font-size="28.0" fill="#FEFFFF" transform="matrix(1.00, 0.00, -0.00, -1.00, 1521.0, 416.0)">u</text><text xml:space="preserve" font-family="SourceSansPro-Regular" font-size="28.0" fill="#FEFFFF" transform="matrix(1.00, 0.00, -0.00, -1.00, 1536.2, 416.0)">á</text><text xml:space="preserve" font-family="SourceSansPro-Regular" font-size="28.0" fill="#FEFFFF" transform="matrix(1.00, 0.00, -0.00, -1.00, 1550.3, 416.0)">r</text><text xml:space="preserve" font-family="SourceSansPro-Regular" font-size="28.0" fill="#FEFFFF" transform="matrix(1.00, 0.00, -0.00, -1.00, 1560.0, 416.0)">i</text><text xml:space="preserve" font-family="SourceSansPro-Regular" font-size="28.0" fill="#FEFFFF" transform="matrix(1.00, 0.00, -0.00, -1.00, 1566.9, 416.0)">o</text><text xml:space="preserve" font-family="SourceSansPro-Regular" font-size="28.0" fill="#FEFFFF" transform="matrix(1.00, 0.00, -0.00, -1.00, 1582.1, 416.0)">s</text><text xml:space="preserve" font-family="SourceSansPro-Regular" font-size="28.0" fill="#FEFFFF" transform="matrix(1.00, 0.00, -0.00, -1.00, 1593.8, 416.0)"> </text><text xml:space="preserve" font-family="SourceSansPro-Regular" font-size="28.0" fill="#FEFFFF" transform="matrix(1.00, 0.00, -0.00, -1.00, 1599.4, 416.0)">d</text><text xml:space="preserve" font-family="SourceSansPro-Regular" font-size="28.0" fill="#FEFFFF" transform="matrix(1.00, 0.00, -0.00, -1.00, 1615.0, 416.0)">e</text><text xml:space="preserve" font-family="SourceSansPro-Regular" font-size="28.0" fill="#FEFFFF" transform="matrix(1.00, 0.00, -0.00, -1.00, 1628.8, 416.0)"> </text><text xml:space="preserve" font-family="SourceSansPro-Regular" font-size="28.0" fill="#FEFFFF" transform="matrix(1.00, 0.00, -0.00, -1.00, 1634.4, 416.0)">f</text><text xml:space="preserve" font-family="SourceSansPro-Regular" font-size="28.0" fill="#FEFFFF" transform="matrix(1.00, 0.00, -0.00, -1.00, 1642.3, 416.0)">o</text><text xml:space="preserve" font-family="SourceSansPro-Regular" font-size="28.0" fill="#FEFFFF" transform="matrix(1.00, 0.00, -0.00, -1.00, 1657.5, 416.0)">r</text><text xml:space="preserve" font-family="SourceSansPro-Regular" font-size="28.0" fill="#FEFFFF" transform="matrix(1.00, 0.00, -0.00, -1.00, 1667.2, 416.0)">m</text><text xml:space="preserve" font-family="SourceSansPro-Regular" font-size="28.0" fill="#FEFFFF" transform="matrix(1.00, 0.00, -0.00, -1.00, 1690.4, 416.0)">a</text><text xml:space="preserve" font-family="SourceSansPro-Regular" font-size="28.0" fill="#FEFFFF" transform="matrix(1.00, 0.00, -0.00, -1.00, 1704.6, 416.0)"> </text><text xml:space="preserve" font-family="SourceSansPro-Regular" font-size="28.0" fill="#FEFFFF" transform="matrix(1.00, 0.00, -0.00, -1.00, 1710.2, 416.0)">ú</text><text xml:space="preserve" font-family="SourceSansPro-Regular" font-size="28.0" fill="#FEFFFF" transform="matrix(1.00, 0.00, -0.00, -1.00, 1725.4, 416.0)">n</text><text xml:space="preserve" font-family="SourceSansPro-Regular" font-size="28.0" fill="#FEFFFF" transform="matrix(1.00, 0.00, -0.00, -1.00, 1740.7, 416.0)">i</text><text xml:space="preserve" font-family="SourceSansPro-Regular" font-size="28.0" fill="#FEFFFF" transform="matrix(1.00, 0.00, -0.00, -1.00, 1747.6, 416.0)">c</text><text xml:space="preserve" font-family="SourceSansPro-Regular" font-size="28.0" fill="#FEFFFF" transform="matrix(1.00, 0.00, -0.00, -1.00, 1760.1, 416.0)">a</text><text xml:space="preserve" font-family="SourceSansPro-Regular" font-size="28.0" fill="#FEFFFF" transform="matrix(1.00, 0.00, -0.00, -1.00, 1774.2, 416.0)">,</text><text xml:space="preserve" font-family="SourceSansPro-Regular" font-size="28.0" fill="#FEFFFF" transform="matrix(1.00, 0.00, -0.00, -1.00, 1781.2, 416.0)"> </text><text xml:space="preserve" font-family="SourceSansPro-Regular" font-size="28.0" fill="#FEFFFF" transform="matrix(1.00, 0.00, -0.00, -1.00, 1786.8, 416.0)">u</text><text xml:space="preserve" font-family="SourceSansPro-Regular" font-size="28.0" fill="#FEFFFF" transform="matrix(1.00, 0.00, -0.00, -1.00, 1802.0, 416.0)">m</text><text xml:space="preserve" font-family="SourceSansPro-Regular" font-size="28.0" fill="#FEFFFF" transform="matrix(1.00, 0.00, -0.00, -1.00, 1825.2, 416.0)">a</text><text xml:space="preserve" font-family="SourceSansPro-Regular" font-size="28.0" fill="#FEFFFF" transform="matrix(1.00, 0.00, -0.00, -1.00, 1839.3, 416.0)"> </text><text xml:space="preserve" font-family="SourceSansPro-Regular" font-size="28.0" fill="#FEFFFF" transform="matrix(1.00, 0.00, -0.00, -1.00, 1494.0, 380.0)">d</text><text xml:space="preserve" font-family="SourceSansPro-Regular" font-size="28.0" fill="#FEFFFF" transform="matrix(1.00, 0.00, -0.00, -1.00, 1509.5, 380.0)">a</text><text xml:space="preserve" font-family="SourceSansPro-Regular" font-size="28.0" fill="#FEFFFF" transform="matrix(1.00, 0.00, -0.00, -1.00, 1523.7, 380.0)">s</text><text xml:space="preserve" font-family="SourceSansPro-Regular" font-size="28.0" fill="#FEFFFF" transform="matrix(1.00, 0.00, -0.00, -1.00, 1535.4, 380.0)"> </text><text xml:space="preserve" font-family="SourceSansPro-Regular" font-size="28.0" fill="#FEFFFF" transform="matrix(1.00, 0.00, -0.00, -1.00, 1541.0, 380.0)">c</text><text xml:space="preserve" font-family="SourceSansPro-Regular" font-size="28.0" fill="#FEFFFF" transform="matrix(1.00, 0.00, -0.00, -1.00, 1553.2, 380.0)">o</text><text xml:space="preserve" font-family="SourceSansPro-Regular" font-size="28.0" fill="#FEFFFF" transform="matrix(1.00, 0.00, -0.00, -1.00, 1568.3, 380.0)">i</text><text xml:space="preserve" font-family="SourceSansPro-Regular" font-size="28.0" fill="#FEFFFF" transform="matrix(1.00, 0.00, -0.00, -1.00, 1575.2, 380.0)">s</text><text xml:space="preserve" font-family="SourceSansPro-Regular" font-size="28.0" fill="#FEFFFF" transform="matrix(1.00, 0.00, -0.00, -1.00, 1587.0, 380.0)">a</text><text xml:space="preserve" font-family="SourceSansPro-Regular" font-size="28.0" fill="#FEFFFF" transform="matrix(1.00, 0.00, -0.00, -1.00, 1601.1, 380.0)">s</text><text xml:space="preserve" font-family="SourceSansPro-Regular" font-size="28.0" fill="#FEFFFF" transform="matrix(1.00, 0.00, -0.00, -1.00, 1612.8, 380.0)"> </text><text xml:space="preserve" font-family="SourceSansPro-Regular" font-size="28.0" fill="#FEFFFF" transform="matrix(1.00, 0.00, -0.00, -1.00, 1618.4, 380.0)">q</text><text xml:space="preserve" font-family="SourceSansPro-Regular" font-size="28.0" fill="#FEFFFF" transform="matrix(1.00, 0.00, -0.00, -1.00, 1633.9, 380.0)">u</text><text xml:space="preserve" font-family="SourceSansPro-Regular" font-size="28.0" fill="#FEFFFF" transform="matrix(1.00, 0.00, -0.00, -1.00, 1649.2, 380.0)">a</text><text xml:space="preserve" font-family="SourceSansPro-Regular" font-size="28.0" fill="#FEFFFF" transform="matrix(1.00, 0.00, -0.00, -1.00, 1663.3, 380.0)">s</text><text xml:space="preserve" font-family="SourceSansPro-Regular" font-size="28.0" fill="#FEFFFF" transform="matrix(1.00, 0.00, -0.00, -1.00, 1675.0, 380.0)">e</text><text xml:space="preserve" font-family="SourceSansPro-Regular" font-size="28.0" fill="#FEFFFF" transform="matrix(1.00, 0.00, -0.00, -1.00, 1688.9, 380.0)"> </text><text xml:space="preserve" font-family="SourceSansPro-Regular" font-size="28.0" fill="#FEFFFF" transform="matrix(1.00, 0.00, -0.00, -1.00, 1694.5, 380.0)">o</text><text xml:space="preserve" font-family="SourceSansPro-Regular" font-size="28.0" fill="#FEFFFF" transform="matrix(1.00, 0.00, -0.00, -1.00, 1709.7, 380.0)">b</text><text xml:space="preserve" font-family="SourceSansPro-Regular" font-size="28.0" fill="#FEFFFF" transform="matrix(1.00, 0.00, -0.00, -1.00, 1725.2, 380.0)">r</text><text xml:space="preserve" font-family="SourceSansPro-Regular" font-size="28.0" fill="#FEFFFF" transform="matrix(1.00, 0.00, -0.00, -1.00, 1734.9, 380.0)">i</text><text xml:space="preserve" font-family="SourceSansPro-Regular" font-size="28.0" fill="#FEFFFF" transform="matrix(1.00, 0.00, -0.00, -1.00, 1741.8, 380.0)">g</text><text xml:space="preserve" font-family="SourceSansPro-Regular" font-size="28.0" fill="#FEFFFF" transform="matrix(1.00, 0.00, -0.00, -1.00, 1755.4, 380.0)">a</text><text xml:space="preserve" font-family="SourceSansPro-Regular" font-size="28.0" fill="#FEFFFF" transform="matrix(1.00, 0.00, -0.00, -1.00, 1769.2, 380.0)">t</text><text xml:space="preserve" font-family="SourceSansPro-Regular" font-size="28.0" fill="#FEFFFF" transform="matrix(1.00, 0.00, -0.00, -1.00, 1778.2, 380.0)">ó</text><text xml:space="preserve" font-family="SourceSansPro-Regular" font-size="28.0" fill="#FEFFFF" transform="matrix(1.00, 0.00, -0.00, -1.00, 1793.4, 380.0)">r</text><text xml:space="preserve" font-family="SourceSansPro-Regular" font-size="28.0" fill="#FEFFFF" transform="matrix(1.00, 0.00, -0.00, -1.00, 1803.1, 380.0)">i</text><text xml:space="preserve" font-family="SourceSansPro-Regular" font-size="28.0" fill="#FEFFFF" transform="matrix(1.00, 0.00, -0.00, -1.00, 1810.0, 380.0)">a</text><text xml:space="preserve" font-family="SourceSansPro-Regular" font-size="28.0" fill="#FEFFFF" transform="matrix(1.00, 0.00, -0.00, -1.00, 1824.1, 380.0)">s</text><text xml:space="preserve" font-family="SourceSansPro-Regular" font-size="28.0" fill="#FEFFFF" transform="matrix(1.00, 0.00, -0.00, -1.00, 1835.9, 380.0)"> </text><text xml:space="preserve" font-family="SourceSansPro-Regular" font-size="28.0" fill="#FEFFFF" transform="matrix(1.00, 0.00, -0.00, -1.00, 1494.0, 344.0)">a</text><text xml:space="preserve" font-family="SourceSansPro-Regular" font-size="28.0" fill="#FEFFFF" transform="matrix(1.00, 0.00, -0.00, -1.00, 1508.1, 344.0)">o</text><text xml:space="preserve" font-family="SourceSansPro-Regular" font-size="28.0" fill="#FEFFFF" transform="matrix(1.00, 0.00, -0.00, -1.00, 1523.3, 344.0)"> </text><text xml:space="preserve" font-family="SourceSansPro-Regular" font-size="28.0" fill="#FEFFFF" transform="matrix(1.00, 0.00, -0.00, -1.00, 1528.9, 344.0)">s</text><text xml:space="preserve" font-family="SourceSansPro-Regular" font-size="28.0" fill="#FEFFFF" transform="matrix(1.00, 0.00, -0.00, -1.00, 1540.6, 344.0)">e</text><text xml:space="preserve" font-family="SourceSansPro-Regular" font-size="28.0" fill="#FEFFFF" transform="matrix(1.00, 0.00, -0.00, -1.00, 1554.5, 344.0)"> </text><text xml:space="preserve" font-family="SourceSansPro-Regular" font-size="28.0" fill="#FEFFFF" transform="matrix(1.00, 0.00, -0.00, -1.00, 1560.1, 344.0)">c</text><text xml:space="preserve" font-family="SourceSansPro-Regular" font-size="28.0" fill="#FEFFFF" transform="matrix(1.00, 0.00, -0.00, -1.00, 1572.9, 344.0)">r</text><text xml:space="preserve" font-family="SourceSansPro-Regular" font-size="28.0" fill="#FEFFFF" transform="matrix(1.00, 0.00, -0.00, -1.00, 1582.6, 344.0)">i</text><text xml:space="preserve" font-family="SourceSansPro-Regular" font-size="28.0" fill="#FEFFFF" transform="matrix(1.00, 0.00, -0.00, -1.00, 1589.5, 344.0)">a</text><text xml:space="preserve" font-family="SourceSansPro-Regular" font-size="28.0" fill="#FEFFFF" transform="matrix(1.00, 0.00, -0.00, -1.00, 1603.6, 344.0)">r</text><text xml:space="preserve" font-family="SourceSansPro-Regular" font-size="28.0" fill="#FEFFFF" transform="matrix(1.00, 0.00, -0.00, -1.00, 1613.3, 344.0)"> </text><text xml:space="preserve" font-family="SourceSansPro-Regular" font-size="28.0" fill="#FEFFFF" transform="matrix(1.00, 0.00, -0.00, -1.00, 1618.9, 344.0)">u</text><text xml:space="preserve" font-family="SourceSansPro-Regular" font-size="28.0" fill="#FEFFFF" transform="matrix(1.00, 0.00, -0.00, -1.00, 1634.1, 344.0)">m</text><text xml:space="preserve" font-family="SourceSansPro-Regular" font-size="28.0" fill="#FEFFFF" transform="matrix(1.00, 0.00, -0.00, -1.00, 1657.4, 344.0)">a</text><text xml:space="preserve" font-family="SourceSansPro-Regular" font-size="28.0" fill="#FEFFFF" transform="matrix(1.00, 0.00, -0.00, -1.00, 1671.5, 344.0)"> </text><text xml:space="preserve" font-family="SourceSansPro-Regular" font-size="28.0" fill="#FEFFFF" transform="matrix(1.00, 0.00, -0.00, -1.00, 1677.1, 344.0)">A</text><text xml:space="preserve" font-family="SourceSansPro-Regular" font-size="28.0" fill="#FEFFFF" transform="matrix(1.00, 0.00, -0.00, -1.00, 1692.3, 344.0)">P</text><text xml:space="preserve" font-family="SourceSansPro-Regular" font-size="28.0" fill="#FEFFFF" transform="matrix(1.00, 0.00, -0.00, -1.00, 1708.1, 344.0)">I</text><text xml:space="preserve" font-family="SourceSansPro-Regular" font-size="28.0" fill="#FEFFFF" transform="matrix(1.00, 0.00, -0.00, -1.00, 1715.5, 344.0)">.</text><path d="M 50.0 1030.0 L 150.0 1030.0 L 150.0 961.0 L 50.0 961.0 Z M 50.0 1030.0 " fill="#52575F"></path><g><clipPath id="clip-361"><path d="M 41.5 952.5 L 158.5 952.5 L 158.5 1038.5 L 41.5 1038.5 Z M 41.5 952.5 "></path></clipPath><g clip-path="url(#clip-361)"><text xml:space="preserve" font-family="BebasNeueBold" font-weight="bold" font-size="50.0" fill="#FEFFFF" transform="matrix(1.00, 0.00, -0.00, -1.00, 80.0, 978.0)"> </text><text xml:space="preserve" font-family="BebasNeueBold" font-weight="bold" font-size="50.0" fill="#FEFFFF" transform="matrix(1.00, 0.00, -0.00, -1.00, 80.0, 978.0)">4</text><text xml:space="preserve" font-family="BebasNeueBold" font-weight="bold" font-size="50.0" fill="#FEFFFF" transform="matrix(1.00, 0.00, -0.00, -1.00, 99.8, 978.0)">2</text></g></g><path d="M 1415.0 1080.0 L 1440.0 1080.0 L 1440.0 -0.0 L 1415.0 -0.0 Z M 1415.0 1080.0 " fill="#6FBF40"></path><text xml:space="preserve" font-family="SourceSansPro-SemiboldIt" font-style="italic" font-weight="bold" font-size="28.0" fill="#FEFFFF" transform="matrix(1.00, 0.00, -0.00, -1.00, 1006.0, 426.0)">S</text><text xml:space="preserve" font-family="SourceSansPro-SemiboldIt" font-style="italic" font-weight="bold" font-size="28.0" fill="#FEFFFF" transform="matrix(1.00, 0.00, -0.00, -1.00, 1020.5, 426.0)">e</text><text xml:space="preserve" font-family="SourceSansPro-SemiboldIt" font-style="italic" font-weight="bold" font-size="28.0" fill="#FEFFFF" transform="matrix(1.00, 0.00, -0.00, -1.00, 1034.2, 426.0)"> </text><text xml:space="preserve" font-family="SourceSansPro-SemiboldIt" font-style="italic" font-weight="bold" font-size="28.0" fill="#FEFFFF" transform="matrix(1.00, 0.00, -0.00, -1.00, 1039.6, 426.0)">v</text><text xml:space="preserve" font-family="SourceSansPro-SemiboldIt" font-style="italic" font-weight="bold" font-size="28.0" fill="#FEFFFF" transform="matrix(1.00, 0.00, -0.00, -1.00, 1052.7, 426.0)">o</text><text xml:space="preserve" font-family="SourceSansPro-SemiboldIt" font-style="italic" font-weight="bold" font-size="28.0" fill="#FEFFFF" transform="matrix(1.00, 0.00, -0.00, -1.00, 1067.4, 426.0)">c</text><text xml:space="preserve" font-family="SourceSansPro-SemiboldIt" font-style="italic" font-weight="bold" font-size="28.0" fill="#FEFFFF" transform="matrix(1.00, 0.00, -0.00, -1.00, 1079.3, 426.0)">ê</text><text xml:space="preserve" font-family="SourceSansPro-SemiboldIt" font-style="italic" font-weight="bold" font-size="28.0" fill="#FEFFFF" transform="matrix(1.00, 0.00, -0.00, -1.00, 1092.9, 426.0)"> </text><text xml:space="preserve" font-family="SourceSansPro-SemiboldIt" font-style="italic" font-weight="bold" font-size="28.0" fill="#FEFFFF" transform="matrix(1.00, 0.00, -0.00, -1.00, 1098.4, 426.0)">n</text><text xml:space="preserve" font-family="SourceSansPro-SemiboldIt" font-style="italic" font-weight="bold" font-size="28.0" fill="#FEFFFF" transform="matrix(1.00, 0.00, -0.00, -1.00, 1113.5, 426.0)">ã</text><text xml:space="preserve" font-family="SourceSansPro-SemiboldIt" font-style="italic" font-weight="bold" font-size="28.0" fill="#FEFFFF" transform="matrix(1.00, 0.00, -0.00, -1.00, 1128.7, 426.0)">o</text><text xml:space="preserve" font-family="SourceSansPro-SemiboldIt" font-style="italic" font-weight="bold" font-size="28.0" fill="#FEFFFF" transform="matrix(1.00, 0.00, -0.00, -1.00, 1143.4, 426.0)"> </text><text xml:space="preserve" font-family="SourceSansPro-SemiboldIt" font-style="italic" font-weight="bold" font-size="28.0" fill="#FEFFFF" transform="matrix(1.00, 0.00, -0.00, -1.00, 1148.9, 426.0)">c</text><text xml:space="preserve" font-family="SourceSansPro-SemiboldIt" font-style="italic" font-weight="bold" font-size="28.0" fill="#FEFFFF" transform="matrix(1.00, 0.00, -0.00, -1.00, 1160.7, 426.0)">o</text><text xml:space="preserve" font-family="SourceSansPro-SemiboldIt" font-style="italic" font-weight="bold" font-size="28.0" fill="#FEFFFF" transform="matrix(1.00, 0.00, -0.00, -1.00, 1175.4, 426.0)">n</text><text xml:space="preserve" font-family="SourceSansPro-SemiboldIt" font-style="italic" font-weight="bold" font-size="28.0" fill="#FEFFFF" transform="matrix(1.00, 0.00, -0.00, -1.00, 1190.5, 426.0)">h</text><text xml:space="preserve" font-family="SourceSansPro-SemiboldIt" font-style="italic" font-weight="bold" font-size="28.0" fill="#FEFFFF" transform="matrix(1.00, 0.00, -0.00, -1.00, 1205.4, 426.0)">e</text><text xml:space="preserve" font-family="SourceSansPro-SemiboldIt" font-style="italic" font-weight="bold" font-size="28.0" fill="#FEFFFF" transform="matrix(1.00, 0.00, -0.00, -1.00, 1219.1, 426.0)">c</text><text xml:space="preserve" font-family="SourceSansPro-SemiboldIt" font-style="italic" font-weight="bold" font-size="28.0" fill="#FEFFFF" transform="matrix(1.00, 0.00, -0.00, -1.00, 1231.4, 426.0)">i</text><text xml:space="preserve" font-family="SourceSansPro-SemiboldIt" font-style="italic" font-weight="bold" font-size="28.0" fill="#FEFFFF" transform="matrix(1.00, 0.00, -0.00, -1.00, 1238.4, 426.0)">a</text><text xml:space="preserve" font-family="SourceSansPro-SemiboldIt" font-style="italic" font-weight="bold" font-size="28.0" fill="#FEFFFF" transform="matrix(1.00, 0.00, -0.00, -1.00, 1253.6, 426.0)"> </text><text xml:space="preserve" font-family="SourceSansPro-SemiboldIt" font-style="italic" font-weight="bold" font-size="28.0" fill="#FEFFFF" transform="matrix(1.00, 0.00, -0.00, -1.00, 1259.1, 426.0)">R</text><text xml:space="preserve" font-family="SourceSansPro-SemiboldIt" font-style="italic" font-weight="bold" font-size="28.0" fill="#FEFFFF" transform="matrix(1.00, 0.00, -0.00, -1.00, 1274.9, 426.0)">e</text><text xml:space="preserve" font-family="SourceSansPro-SemiboldIt" font-style="italic" font-weight="bold" font-size="28.0" fill="#FEFFFF" transform="matrix(1.00, 0.00, -0.00, -1.00, 1288.6, 426.0)">q</text><text xml:space="preserve" font-family="SourceSansPro-SemiboldIt" font-style="italic" font-weight="bold" font-size="28.0" fill="#FEFFFF" transform="matrix(1.00, 0.00, -0.00, -1.00, 1303.8, 426.0)">u</text><text xml:space="preserve" font-family="SourceSansPro-SemiboldIt" font-style="italic" font-weight="bold" font-size="28.0" fill="#FEFFFF" transform="matrix(1.00, 0.00, -0.00, -1.00, 1318.9, 426.0)">e</text><text xml:space="preserve" font-family="SourceSansPro-SemiboldIt" font-style="italic" font-weight="bold" font-size="28.0" fill="#FEFFFF" transform="matrix(1.00, 0.00, -0.00, -1.00, 1332.5, 426.0)">s</text><text xml:space="preserve" font-family="SourceSansPro-SemiboldIt" font-style="italic" font-weight="bold" font-size="28.0" fill="#FEFFFF" transform="matrix(1.00, 0.00, -0.00, -1.00, 1344.1, 426.0)">t</text><text xml:space="preserve" font-family="SourceSansPro-SemiboldIt" font-style="italic" font-weight="bold" font-size="28.0" fill="#FEFFFF" transform="matrix(1.00, 0.00, -0.00, -1.00, 1353.8, 426.0)"> </text><text xml:space="preserve" font-family="SourceSansPro-SemiboldIt" font-style="italic" font-weight="bold" font-size="28.0" fill="#FEFFFF" transform="matrix(1.00, 0.00, -0.00, -1.00, 1006.0, 390.0)">I</text><text xml:space="preserve" font-family="SourceSansPro-SemiboldIt" font-style="italic" font-weight="bold" font-size="28.0" fill="#FEFFFF" transform="matrix(1.00, 0.00, -0.00, -1.00, 1013.6, 390.0)">D</text><text xml:space="preserve" font-family="SourceSansPro-SemiboldIt" font-style="italic" font-weight="bold" font-size="28.0" fill="#FEFFFF" transform="matrix(1.00, 0.00, -0.00, -1.00, 1030.6, 390.0)">,</text><text xml:space="preserve" font-family="SourceSansPro-SemiboldIt" font-style="italic" font-weight="bold" font-size="28.0" fill="#FEFFFF" transform="matrix(1.00, 0.00, -0.00, -1.00, 1038.0, 390.0)"> </text><text xml:space="preserve" font-family="SourceSansPro-SemiboldIt" font-style="italic" font-weight="bold" font-size="28.0" fill="#FEFFFF" transform="matrix(1.00, 0.00, -0.00, -1.00, 1043.5, 390.0)">a</text><text xml:space="preserve" font-family="SourceSansPro-SemiboldIt" font-style="italic" font-weight="bold" font-size="28.0" fill="#FEFFFF" transform="matrix(1.00, 0.00, -0.00, -1.00, 1058.7, 390.0)">q</text><text xml:space="preserve" font-family="SourceSansPro-SemiboldIt" font-style="italic" font-weight="bold" font-size="28.0" fill="#FEFFFF" transform="matrix(1.00, 0.00, -0.00, -1.00, 1074.0, 390.0)">u</text><text xml:space="preserve" font-family="SourceSansPro-SemiboldIt" font-style="italic" font-weight="bold" font-size="28.0" fill="#FEFFFF" transform="matrix(1.00, 0.00, -0.00, -1.00, 1089.0, 390.0)">i</text><text xml:space="preserve" font-family="SourceSansPro-SemiboldIt" font-style="italic" font-weight="bold" font-size="28.0" fill="#FEFFFF" transform="matrix(1.00, 0.00, -0.00, -1.00, 1096.0, 390.0)"> </text><text xml:space="preserve" font-family="SourceSansPro-SemiboldIt" font-style="italic" font-weight="bold" font-size="28.0" fill="#FEFFFF" transform="matrix(1.00, 0.00, -0.00, -1.00, 1101.5, 390.0)">e</text><text xml:space="preserve" font-family="SourceSansPro-SemiboldIt" font-style="italic" font-weight="bold" font-size="28.0" fill="#FEFFFF" transform="matrix(1.00, 0.00, -0.00, -1.00, 1115.1, 390.0)">s</text><text xml:space="preserve" font-family="SourceSansPro-SemiboldIt" font-style="italic" font-weight="bold" font-size="28.0" fill="#FEFFFF" transform="matrix(1.00, 0.00, -0.00, -1.00, 1126.7, 390.0)">t</text><text xml:space="preserve" font-family="SourceSansPro-SemiboldIt" font-style="italic" font-weight="bold" font-size="28.0" fill="#FEFFFF" transform="matrix(1.00, 0.00, -0.00, -1.00, 1136.1, 390.0)">á</text><text xml:space="preserve" font-family="SourceSansPro-SemiboldIt" font-style="italic" font-weight="bold" font-size="28.0" fill="#FEFFFF" transform="matrix(1.00, 0.00, -0.00, -1.00, 1151.3, 390.0)"> </text><text xml:space="preserve" font-family="SourceSansPro-SemiboldIt" font-style="italic" font-weight="bold" font-size="28.0" fill="#FEFFFF" transform="matrix(1.00, 0.00, -0.00, -1.00, 1156.8, 390.0)">u</text><text xml:space="preserve" font-family="SourceSansPro-SemiboldIt" font-style="italic" font-weight="bold" font-size="28.0" fill="#FEFFFF" transform="matrix(1.00, 0.00, -0.00, -1.00, 1171.8, 390.0)">m</text><text xml:space="preserve" font-family="SourceSansPro-SemiboldIt" font-style="italic" font-weight="bold" font-size="28.0" fill="#FEFFFF" transform="matrix(1.00, 0.00, -0.00, -1.00, 1194.6, 390.0)">a</text><text xml:space="preserve" font-family="SourceSansPro-SemiboldIt" font-style="italic" font-weight="bold" font-size="28.0" fill="#FEFFFF" transform="matrix(1.00, 0.00, -0.00, -1.00, 1209.8, 390.0)"> </text><text xml:space="preserve" font-family="SourceSansPro-SemiboldIt" font-style="italic" font-weight="bold" font-size="28.0" fill="#FEFFFF" transform="matrix(1.00, 0.00, -0.00, -1.00, 1215.2, 390.0)">d</text><text xml:space="preserve" font-family="SourceSansPro-SemiboldIt" font-style="italic" font-weight="bold" font-size="28.0" fill="#FEFFFF" transform="matrix(1.00, 0.00, -0.00, -1.00, 1230.4, 390.0)">a</text><text xml:space="preserve" font-family="SourceSansPro-SemiboldIt" font-style="italic" font-weight="bold" font-size="28.0" fill="#FEFFFF" transform="matrix(1.00, 0.00, -0.00, -1.00, 1245.6, 390.0)">s</text><text xml:space="preserve" font-family="SourceSansPro-SemiboldIt" font-style="italic" font-weight="bold" font-size="28.0" fill="#FEFFFF" transform="matrix(1.00, 0.00, -0.00, -1.00, 1257.2, 390.0)"> </text><text xml:space="preserve" font-family="SourceSansPro-SemiboldIt" font-style="italic" font-weight="bold" font-size="28.0" fill="#FEFFFF" transform="matrix(1.00, 0.00, -0.00, -1.00, 1006.0, 354.0)">m</text><text xml:space="preserve" font-family="SourceSansPro-SemiboldIt" font-style="italic" font-weight="bold" font-size="28.0" fill="#FEFFFF" transform="matrix(1.00, 0.00, -0.00, -1.00, 1028.8, 354.0)">e</text><text xml:space="preserve" font-family="SourceSansPro-SemiboldIt" font-style="italic" font-weight="bold" font-size="28.0" fill="#FEFFFF" transform="matrix(1.00, 0.00, -0.00, -1.00, 1042.4, 354.0)">l</text><text xml:space="preserve" font-family="SourceSansPro-SemiboldIt" font-style="italic" font-weight="bold" font-size="28.0" fill="#FEFFFF" transform="matrix(1.00, 0.00, -0.00, -1.00, 1049.8, 354.0)">h</text><text xml:space="preserve" font-family="SourceSansPro-SemiboldIt" font-style="italic" font-weight="bold" font-size="28.0" fill="#FEFFFF" transform="matrix(1.00, 0.00, -0.00, -1.00, 1064.7, 354.0)">o</text><text xml:space="preserve" font-family="SourceSansPro-SemiboldIt" font-style="italic" font-weight="bold" font-size="28.0" fill="#FEFFFF" transform="matrix(1.00, 0.00, -0.00, -1.00, 1079.4, 354.0)">r</text><text xml:space="preserve" font-family="SourceSansPro-SemiboldIt" font-style="italic" font-weight="bold" font-size="28.0" fill="#FEFFFF" transform="matrix(1.00, 0.00, -0.00, -1.00, 1089.2, 354.0)">e</text><text xml:space="preserve" font-family="SourceSansPro-SemiboldIt" font-style="italic" font-weight="bold" font-size="28.0" fill="#FEFFFF" transform="matrix(1.00, 0.00, -0.00, -1.00, 1102.9, 354.0)">s</text><text xml:space="preserve" font-family="SourceSansPro-SemiboldIt" font-style="italic" font-weight="bold" font-size="28.0" fill="#FEFFFF" transform="matrix(1.00, 0.00, -0.00, -1.00, 1114.5, 354.0)"> </text><text xml:space="preserve" font-family="SourceSansPro-SemiboldIt" font-style="italic" font-weight="bold" font-size="28.0" fill="#FEFFFF" transform="matrix(1.00, 0.00, -0.00, -1.00, 1119.9, 354.0)">l</text><text xml:space="preserve" font-family="SourceSansPro-SemiboldIt" font-style="italic" font-weight="bold" font-size="28.0" fill="#FEFFFF" transform="matrix(1.00, 0.00, -0.00, -1.00, 1127.3, 354.0)">i</text><text xml:space="preserve" font-family="SourceSansPro-SemiboldIt" font-style="italic" font-weight="bold" font-size="28.0" fill="#FEFFFF" transform="matrix(1.00, 0.00, -0.00, -1.00, 1134.3, 354.0)">b</text><text xml:space="preserve" font-family="SourceSansPro-SemiboldIt" font-style="italic" font-weight="bold" font-size="28.0" fill="#FEFFFF" transform="matrix(1.00, 0.00, -0.00, -1.00, 1149.6, 354.0)">s</text><text xml:space="preserve" font-family="SourceSansPro-SemiboldIt" font-style="italic" font-weight="bold" font-size="28.0" fill="#FEFFFF" transform="matrix(1.00, 0.00, -0.00, -1.00, 1161.1, 354.0)"> </text><text xml:space="preserve" font-family="SourceSansPro-SemiboldIt" font-style="italic" font-weight="bold" font-size="28.0" fill="#FEFFFF" transform="matrix(1.00, 0.00, -0.00, -1.00, 1166.6, 354.0)">p</text><text xml:space="preserve" font-family="SourceSansPro-SemiboldIt" font-style="italic" font-weight="bold" font-size="28.0" fill="#FEFFFF" transform="matrix(1.00, 0.00, -0.00, -1.00, 1181.8, 354.0)">a</text><text xml:space="preserve" font-family="SourceSansPro-SemiboldIt" font-style="italic" font-weight="bold" font-size="28.0" fill="#FEFFFF" transform="matrix(1.00, 0.00, -0.00, -1.00, 1197.0, 354.0)">r</text><text xml:space="preserve" font-family="SourceSansPro-SemiboldIt" font-style="italic" font-weight="bold" font-size="28.0" fill="#FEFFFF" transform="matrix(1.00, 0.00, -0.00, -1.00, 1206.9, 354.0)">a</text><text xml:space="preserve" font-family="SourceSansPro-SemiboldIt" font-style="italic" font-weight="bold" font-size="28.0" fill="#FEFFFF" transform="matrix(1.00, 0.00, -0.00, -1.00, 1222.2, 354.0)"> </text><text xml:space="preserve" font-family="SourceSansPro-SemiboldIt" font-style="italic" font-weight="bold" font-size="28.0" fill="#FEFFFF" transform="matrix(1.00, 0.00, -0.00, -1.00, 1227.6, 354.0)">u</text><text xml:space="preserve" font-family="SourceSansPro-SemiboldIt" font-style="italic" font-weight="bold" font-size="28.0" fill="#FEFFFF" transform="matrix(1.00, 0.00, -0.00, -1.00, 1242.7, 354.0)">s</text><text xml:space="preserve" font-family="SourceSansPro-SemiboldIt" font-style="italic" font-weight="bold" font-size="28.0" fill="#FEFFFF" transform="matrix(1.00, 0.00, -0.00, -1.00, 1254.2, 354.0)">a</text><text xml:space="preserve" font-family="SourceSansPro-SemiboldIt" font-style="italic" font-weight="bold" font-size="28.0" fill="#FEFFFF" transform="matrix(1.00, 0.00, -0.00, -1.00, 1269.5, 354.0)">r</text><text xml:space="preserve" font-family="SourceSansPro-SemiboldIt" font-style="italic" font-weight="bold" font-size="28.0" fill="#FEFFFF" transform="matrix(1.00, 0.00, -0.00, -1.00, 1279.6, 354.0)"> </text><text xml:space="preserve" font-family="SourceSansPro-SemiboldIt" font-style="italic" font-weight="bold" font-size="28.0" fill="#FEFFFF" transform="matrix(1.00, 0.00, -0.00, -1.00, 1285.1, 354.0)">c</text><text xml:space="preserve" font-family="SourceSansPro-SemiboldIt" font-style="italic" font-weight="bold" font-size="28.0" fill="#FEFFFF" transform="matrix(1.00, 0.00, -0.00, -1.00, 1296.9, 354.0)">o</text><text xml:space="preserve" font-family="SourceSansPro-SemiboldIt" font-style="italic" font-weight="bold" font-size="28.0" fill="#FEFFFF" transform="matrix(1.00, 0.00, -0.00, -1.00, 1311.6, 354.0)">m</text><text xml:space="preserve" font-family="SourceSansPro-SemiboldIt" font-style="italic" font-weight="bold" font-size="28.0" fill="#FEFFFF" transform="matrix(1.00, 0.00, -0.00, -1.00, 1334.4, 354.0)"> </text><text xml:space="preserve" font-family="SourceSansPro-SemiboldIt" font-style="italic" font-weight="bold" font-size="28.0" fill="#FEFFFF" transform="matrix(1.00, 0.00, -0.00, -1.00, 1006.0, 318.0)">E</text><text xml:space="preserve" font-family="SourceSansPro-SemiboldIt" font-style="italic" font-weight="bold" font-size="28.0" fill="#FEFFFF" transform="matrix(1.00, 0.00, -0.00, -1.00, 1020.4, 318.0)">x</text><text xml:space="preserve" font-family="SourceSansPro-SemiboldIt" font-style="italic" font-weight="bold" font-size="28.0" fill="#FEFFFF" transform="matrix(1.00, 0.00, -0.00, -1.00, 1033.3, 318.0)">p</text><text xml:space="preserve" font-family="SourceSansPro-SemiboldIt" font-style="italic" font-weight="bold" font-size="28.0" fill="#FEFFFF" transform="matrix(1.00, 0.00, -0.00, -1.00, 1048.5, 318.0)">r</text><text xml:space="preserve" font-family="SourceSansPro-SemiboldIt" font-style="italic" font-weight="bold" font-size="28.0" fill="#FEFFFF" transform="matrix(1.00, 0.00, -0.00, -1.00, 1058.4, 318.0)">e</text><text xml:space="preserve" font-family="SourceSansPro-SemiboldIt" font-style="italic" font-weight="bold" font-size="28.0" fill="#FEFFFF" transform="matrix(1.00, 0.00, -0.00, -1.00, 1072.1, 318.0)">s</text><text xml:space="preserve" font-family="SourceSansPro-SemiboldIt" font-style="italic" font-weight="bold" font-size="28.0" fill="#FEFFFF" transform="matrix(1.00, 0.00, -0.00, -1.00, 1083.6, 318.0)">s</text><text xml:space="preserve" font-family="SourceSansPro-SemiboldIt" font-style="italic" font-weight="bold" font-size="28.0" fill="#FEFFFF" transform="matrix(1.00, 0.00, -0.00, -1.00, 1095.2, 318.0)">.</text><text xml:space="preserve" font-family="SourceSansPro-SemiboldIt" font-style="italic" font-weight="bold" font-size="28.0" fill="#FEFFFF" transform="matrix(1.00, 0.00, -0.00, -1.00, 1102.7, 318.0)"> </text><text xml:space="preserve" font-family="SourceSansPro-Bold" font-weight="bold" font-size="38.0" fill="#6FBF40" transform="matrix(1.00, 0.00, -0.00, -1.00, 1006.0, 238.0)">n</text><text xml:space="preserve" font-family="SourceSansPro-Bold" font-weight="bold" font-size="38.0" fill="#6FBF40" transform="matrix(1.00, 0.00, -0.00, -1.00, 1027.7, 238.0)">p</text><text xml:space="preserve" font-family="SourceSansPro-Bold" font-weight="bold" font-size="38.0" fill="#6FBF40" transform="matrix(1.00, 0.00, -0.00, -1.00, 1049.5, 238.0)">m</text><text xml:space="preserve" font-family="SourceSansPro-Bold" font-weight="bold" font-size="38.0" fill="#6FBF40" transform="matrix(1.00, 0.00, -0.00, -1.00, 1082.1, 238.0)">j</text><text xml:space="preserve" font-family="SourceSansPro-Bold" font-weight="bold" font-size="38.0" fill="#6FBF40" transform="matrix(1.00, 0.00, -0.00, -1.00, 1092.6, 238.0)">s</text><text xml:space="preserve" font-family="SourceSansPro-Bold" font-weight="bold" font-size="38.0" fill="#6FBF40" transform="matrix(1.00, 0.00, -0.00, -1.00, 1109.5, 238.0)">.</text><text xml:space="preserve" font-family="SourceSansPro-Bold" font-weight="bold" font-size="38.0" fill="#6FBF40" transform="matrix(1.00, 0.00, -0.00, -1.00, 1120.5, 238.0)">c</text><text xml:space="preserve" font-family="SourceSansPro-Bold" font-weight="bold" font-size="38.0" fill="#6FBF40" transform="matrix(1.00, 0.00, -0.00, -1.00, 1137.2, 238.0)">o</text><text xml:space="preserve" font-family="SourceSansPro-Bold" font-weight="bold" font-size="38.0" fill="#6FBF40" transform="matrix(1.00, 0.00, -0.00, -1.00, 1158.3, 238.0)">m</text><text xml:space="preserve" font-family="SourceSansPro-Bold" font-weight="bold" font-size="38.0" fill="#6FBF40" transform="matrix(1.00, 0.00, -0.00, -1.00, 1190.8, 238.0)">/</text><text xml:space="preserve" font-family="SourceSansPro-Bold" font-weight="bold" font-size="38.0" fill="#6FBF40" transform="matrix(1.00, 0.00, -0.00, -1.00, 1203.7, 238.0)">r</text><text xml:space="preserve" font-family="SourceSansPro-Bold" font-weight="bold" font-size="38.0" fill="#6FBF40" transform="matrix(1.00, 0.00, -0.00, -1.00, 1218.5, 238.0)">e</text><text xml:space="preserve" font-family="SourceSansPro-Bold" font-weight="bold" font-size="38.0" fill="#6FBF40" transform="matrix(1.00, 0.00, -0.00, -1.00, 1238.1, 238.0)">q</text><text xml:space="preserve" font-family="SourceSansPro-Bold" font-weight="bold" font-size="38.0" fill="#6FBF40" transform="matrix(1.00, 0.00, -0.00, -1.00, 1259.9, 238.0)">u</text><text xml:space="preserve" font-family="SourceSansPro-Bold" font-weight="bold" font-size="38.0" fill="#6FBF40" transform="matrix(1.00, 0.00, -0.00, -1.00, 1281.5, 238.0)">e</text><text xml:space="preserve" font-family="SourceSansPro-Bold" font-weight="bold" font-size="38.0" fill="#6FBF40" transform="matrix(1.00, 0.00, -0.00, -1.00, 1301.2, 238.0)">s</text><text xml:space="preserve" font-family="SourceSansPro-Bold" font-weight="bold" font-size="38.0" fill="#6FBF40" transform="matrix(1.00, 0.00, -0.00, -1.00, 1317.3, 238.0)">t</text><text xml:space="preserve" font-family="SourceSansPro-Bold" font-weight="bold" font-size="38.0" fill="#6FBF40" transform="matrix(1.00, 0.00, -0.00, -1.00, 1330.4, 238.0)">-</text><g><clipPath id="clip-362"><path d="M 1005.3 233.1 L 1343.4 233.1 L 1343.4 237.0 L 1005.3 237.0 Z M 1005.3 233.1 "></path></clipPath><g clip-path="url(#clip-362)"><path d="M 4.0 223.5 L 341.1 223.5 " fill="none" stroke="#6FBF40" stroke-width="1.90" stroke-miterlimit="0.00" transform="matrix(1.00, 0.00, 0.00, -1.00, 1002.3, 458.5)"></path></g></g><text xml:space="preserve" font-family="SourceSansPro-Bold" font-weight="bold" font-size="38.0" fill="#6FBF40" transform="matrix(1.00, 0.00, -0.00, -1.00, 1006.0, 191.0)">i</text><text xml:space="preserve" font-family="SourceSansPro-Bold" font-weight="bold" font-size="38.0" fill="#6FBF40" transform="matrix(1.00, 0.00, -0.00, -1.00, 1016.5, 191.0)">d</text><g><clipPath id="clip-363"><path d="M 1005.3 186.1 L 1038.6 186.1 L 1038.6 190.0 L 1005.3 190.0 Z M 1005.3 186.1 "></path></clipPath><g clip-path="url(#clip-363)"><path d="M 4.0 270.5 L 36.3 270.5 " fill="none" stroke="#6FBF40" stroke-width="1.90" stroke-miterlimit="0.00" transform="matrix(1.00, 0.00, 0.00, -1.00, 1002.3, 458.5)"></path></g></g></g></svg>