<?xml version="1.0" encoding="UTF-8" standalone="no"?><svg xmlns="http://www.w3.org/2000/svg" xmlns:xlink="http://www.w3.org/1999/xlink" clip-rule="evenodd" stroke-miterlimit="4.00" viewBox="0 0 340 269"><desc>SVG generated by Keynote</desc><defs></defs><g transform="matrix(1.00, 0.00, -0.00, -1.00, 0.0, 269.0)"><text xml:space="preserve" font-family="SourceSansPro-SemiboldIt" font-style="italic" font-weight="bold" font-size="28.0" fill="#FEFFFF" transform="matrix(1.00, 0.00, -0.00, -1.00, 1.0, 246.0)">S</text><text xml:space="preserve" font-family="SourceSansPro-SemiboldIt" font-style="italic" font-weight="bold" font-size="28.0" fill="#FEFFFF" transform="matrix(1.00, 0.00, -0.00, -1.00, 15.5, 246.0)">e</text><text xml:space="preserve" font-family="SourceSansPro-SemiboldIt" font-style="italic" font-weight="bold" font-size="28.0" fill="#FEFFFF" transform="matrix(1.00, 0.00, -0.00, -1.00, 29.2, 246.0)"> </text><text xml:space="preserve" font-family="SourceSansPro-SemiboldIt" font-style="italic" font-weight="bold" font-size="28.0" fill="#FEFFFF" transform="matrix(1.00, 0.00, -0.00, -1.00, 34.6, 246.0)">v</text><text xml:space="preserve" font-family="SourceSansPro-SemiboldIt" font-style="italic" font-weight="bold" font-size="28.0" fill="#FEFFFF" transform="matrix(1.00, 0.00, -0.00, -1.00, 47.7, 246.0)">o</text><text xml:space="preserve" font-family="SourceSansPro-SemiboldIt" font-style="italic" font-weight="bold" font-size="28.0" fill="#FEFFFF" transform="matrix(1.00, 0.00, -0.00, -1.00, 62.4, 246.0)">c</text><text xml:space="preserve" font-family="SourceSansPro-SemiboldIt" font-style="italic" font-weight="bold" font-size="28.0" fill="#FEFFFF" transform="matrix(1.00, 0.00, -0.00, -1.00, 74.3, 246.0)">ê</text><text xml:space="preserve" font-family="SourceSansPro-SemiboldIt" font-style="italic" font-weight="bold" font-size="28.0" fill="#FEFFFF" transform="matrix(1.00, 0.00, -0.00, -1.00, 87.9, 246.0)"> </text><text xml:space="preserve" font-family="SourceSansPro-SemiboldIt" font-style="italic" font-weight="bold" font-size="28.0" fill="#FEFFFF" transform="matrix(1.00, 0.00, -0.00, -1.00, 93.4, 246.0)">n</text><text xml:space="preserve" font-family="SourceSansPro-SemiboldIt" font-style="italic" font-weight="bold" font-size="28.0" fill="#FEFFFF" transform="matrix(1.00, 0.00, -0.00, -1.00, 108.5, 246.0)">ã</text><text xml:space="preserve" font-family="SourceSansPro-SemiboldIt" font-style="italic" font-weight="bold" font-size="28.0" fill="#FEFFFF" transform="matrix(1.00, 0.00, -0.00, -1.00, 123.7, 246.0)">o</text><text xml:space="preserve" font-family="SourceSansPro-SemiboldIt" font-style="italic" font-weight="bold" font-size="28.0" fill="#FEFFFF" transform="matrix(1.00, 0.00, -0.00, -1.00, 138.4, 246.0)"> </text><text xml:space="preserve" font-family="SourceSansPro-SemiboldIt" font-style="italic" font-weight="bold" font-size="28.0" fill="#FEFFFF" transform="matrix(1.00, 0.00, -0.00, -1.00, 143.9, 246.0)">c</text><text xml:space="preserve" font-family="SourceSansPro-SemiboldIt" font-style="italic" font-weight="bold" font-size="28.0" fill="#FEFFFF" transform="matrix(1.00, 0.00, -0.00, -1.00, 155.7, 246.0)">o</text><text xml:space="preserve" font-family="SourceSansPro-SemiboldIt" font-style="italic" font-weight="bold" font-size="28.0" fill="#FEFFFF" transform="matrix(1.00, 0.00, -0.00, -1.00, 170.4, 246.0)">n</text><text xml:space="preserve" font-family="SourceSansPro-SemiboldIt" font-style="italic" font-weight="bold" font-size="28.0" fill="#FEFFFF" transform="matrix(1.00, 0.00, -0.00, -1.00, 185.5, 246.0)">h</text><text xml:space="preserve" font-family="SourceSansPro-SemiboldIt" font-style="italic" font-weight="bold" font-size="28.0" fill="#FEFFFF" transform="matrix(1.00, 0.00, -0.00, -1.00, 200.4, 246.0)">e</text><text xml:space="preserve" font-family="SourceSansPro-SemiboldIt" font-style="italic" font-weight="bold" font-size="28.0" fill="#FEFFFF" transform="matrix(1.00, 0.00, -0.00, -1.00, 214.1, 246.0)">c</text><text xml:space="preserve" font-family="SourceSansPro-SemiboldIt" font-style="italic" font-weight="bold" font-size="28.0" fill="#FEFFFF" transform="matrix(1.00, 0.00, -0.00, -1.00, 226.4, 246.0)">i</text><text xml:space="preserve" font-family="SourceSansPro-SemiboldIt" font-style="italic" font-weight="bold" font-size="28.0" fill="#FEFFFF" transform="matrix(1.00, 0.00, -0.00, -1.00, 233.4, 246.0)">a</text><text xml:space="preserve" font-family="SourceSansPro-SemiboldIt" font-style="italic" font-weight="bold" font-size="28.0" fill="#FEFFFF" transform="matrix(1.00, 0.00, -0.00, -1.00, 248.6, 246.0)"> </text><text xml:space="preserve" font-family="SourceSansPro-SemiboldIt" font-style="italic" font-weight="bold" font-size="28.0" fill="#FEFFFF" transform="matrix(1.00, 0.00, -0.00, -1.00, 254.1, 246.0)">R</text><text xml:space="preserve" font-family="SourceSansPro-SemiboldIt" font-style="italic" font-weight="bold" font-size="28.0" fill="#FEFFFF" transform="matrix(1.00, 0.00, -0.00, -1.00, 269.9, 246.0)">a</text><text xml:space="preserve" font-family="SourceSansPro-SemiboldIt" font-style="italic" font-weight="bold" font-size="28.0" fill="#FEFFFF" transform="matrix(1.00, 0.00, -0.00, -1.00, 285.2, 246.0)">t</text><text xml:space="preserve" font-family="SourceSansPro-SemiboldIt" font-style="italic" font-weight="bold" font-size="28.0" fill="#FEFFFF" transform="matrix(1.00, 0.00, -0.00, -1.00, 294.5, 246.0)">e</text><text xml:space="preserve" font-family="SourceSansPro-SemiboldIt" font-style="italic" font-weight="bold" font-size="28.0" fill="#FEFFFF" transform="matrix(1.00, 0.00, -0.00, -1.00, 308.2, 246.0)"> </text><text xml:space="preserve" font-family="SourceSansPro-SemiboldIt" font-style="italic" font-weight="bold" font-size="28.0" fill="#FEFFFF" transform="matrix(1.00, 0.00, -0.00, -1.00, 1.0, 210.0)">L</text><text xml:space="preserve" font-family="SourceSansPro-SemiboldIt" font-style="italic" font-weight="bold" font-size="28.0" fill="#FEFFFF" transform="matrix(1.00, 0.00, -0.00, -1.00, 14.5, 210.0)">i</text><text xml:space="preserve" font-family="SourceSansPro-SemiboldIt" font-style="italic" font-weight="bold" font-size="28.0" fill="#FEFFFF" transform="matrix(1.00, 0.00, -0.00, -1.00, 21.5, 210.0)">m</text><text xml:space="preserve" font-family="SourceSansPro-SemiboldIt" font-style="italic" font-weight="bold" font-size="28.0" fill="#FEFFFF" transform="matrix(1.00, 0.00, -0.00, -1.00, 44.3, 210.0)">i</text><text xml:space="preserve" font-family="SourceSansPro-SemiboldIt" font-style="italic" font-weight="bold" font-size="28.0" fill="#FEFFFF" transform="matrix(1.00, 0.00, -0.00, -1.00, 51.3, 210.0)">t</text><text xml:space="preserve" font-family="SourceSansPro-SemiboldIt" font-style="italic" font-weight="bold" font-size="28.0" fill="#FEFFFF" transform="matrix(1.00, 0.00, -0.00, -1.00, 61.0, 210.0)">i</text><text xml:space="preserve" font-family="SourceSansPro-SemiboldIt" font-style="italic" font-weight="bold" font-size="28.0" fill="#FEFFFF" transform="matrix(1.00, 0.00, -0.00, -1.00, 68.0, 210.0)">n</text><text xml:space="preserve" font-family="SourceSansPro-SemiboldIt" font-style="italic" font-weight="bold" font-size="28.0" fill="#FEFFFF" transform="matrix(1.00, 0.00, -0.00, -1.00, 83.1, 210.0)">g</text><text xml:space="preserve" font-family="SourceSansPro-SemiboldIt" font-style="italic" font-weight="bold" font-size="28.0" fill="#FEFFFF" transform="matrix(1.00, 0.00, -0.00, -1.00, 98.2, 210.0)">,</text><text xml:space="preserve" font-family="SourceSansPro-SemiboldIt" font-style="italic" font-weight="bold" font-size="28.0" fill="#FEFFFF" transform="matrix(1.00, 0.00, -0.00, -1.00, 105.6, 210.0)"> </text><text xml:space="preserve" font-family="SourceSansPro-SemiboldIt" font-style="italic" font-weight="bold" font-size="28.0" fill="#FEFFFF" transform="matrix(1.00, 0.00, -0.00, -1.00, 111.1, 210.0)">a</text><text xml:space="preserve" font-family="SourceSansPro-SemiboldIt" font-style="italic" font-weight="bold" font-size="28.0" fill="#FEFFFF" transform="matrix(1.00, 0.00, -0.00, -1.00, 126.3, 210.0)">q</text><text xml:space="preserve" font-family="SourceSansPro-SemiboldIt" font-style="italic" font-weight="bold" font-size="28.0" fill="#FEFFFF" transform="matrix(1.00, 0.00, -0.00, -1.00, 141.6, 210.0)">u</text><text xml:space="preserve" font-family="SourceSansPro-SemiboldIt" font-style="italic" font-weight="bold" font-size="28.0" fill="#FEFFFF" transform="matrix(1.00, 0.00, -0.00, -1.00, 156.6, 210.0)">i</text><text xml:space="preserve" font-family="SourceSansPro-SemiboldIt" font-style="italic" font-weight="bold" font-size="28.0" fill="#FEFFFF" transform="matrix(1.00, 0.00, -0.00, -1.00, 163.6, 210.0)"> </text><text xml:space="preserve" font-family="SourceSansPro-SemiboldIt" font-style="italic" font-weight="bold" font-size="28.0" fill="#FEFFFF" transform="matrix(1.00, 0.00, -0.00, -1.00, 169.1, 210.0)">e</text><text xml:space="preserve" font-family="SourceSansPro-SemiboldIt" font-style="italic" font-weight="bold" font-size="28.0" fill="#FEFFFF" transform="matrix(1.00, 0.00, -0.00, -1.00, 182.7, 210.0)">s</text><text xml:space="preserve" font-family="SourceSansPro-SemiboldIt" font-style="italic" font-weight="bold" font-size="28.0" fill="#FEFFFF" transform="matrix(1.00, 0.00, -0.00, -1.00, 194.3, 210.0)">t</text><text xml:space="preserve" font-family="SourceSansPro-SemiboldIt" font-style="italic" font-weight="bold" font-size="28.0" fill="#FEFFFF" transform="matrix(1.00, 0.00, -0.00, -1.00, 203.7, 210.0)">á</text><text xml:space="preserve" font-family="SourceSansPro-SemiboldIt" font-style="italic" font-weight="bold" font-size="28.0" fill="#FEFFFF" transform="matrix(1.00, 0.00, -0.00, -1.00, 218.9, 210.0)"> </text><text xml:space="preserve" font-family="SourceSansPro-SemiboldIt" font-style="italic" font-weight="bold" font-size="28.0" fill="#FEFFFF" transform="matrix(1.00, 0.00, -0.00, -1.00, 224.4, 210.0)">u</text><text xml:space="preserve" font-family="SourceSansPro-SemiboldIt" font-style="italic" font-weight="bold" font-size="28.0" fill="#FEFFFF" transform="matrix(1.00, 0.00, -0.00, -1.00, 239.4, 210.0)">m</text><text xml:space="preserve" font-family="SourceSansPro-SemiboldIt" font-style="italic" font-weight="bold" font-size="28.0" fill="#FEFFFF" transform="matrix(1.00, 0.00, -0.00, -1.00, 262.2, 210.0)">a</text><text xml:space="preserve" font-family="SourceSansPro-SemiboldIt" font-style="italic" font-weight="bold" font-size="28.0" fill="#FEFFFF" transform="matrix(1.00, 0.00, -0.00, -1.00, 277.4, 210.0)"> </text><text xml:space="preserve" font-family="SourceSansPro-SemiboldIt" font-style="italic" font-weight="bold" font-size="28.0" fill="#FEFFFF" transform="matrix(1.00, 0.00, -0.00, -1.00, 282.8, 210.0)">d</text><text xml:space="preserve" font-family="SourceSansPro-SemiboldIt" font-style="italic" font-weight="bold" font-size="28.0" fill="#FEFFFF" transform="matrix(1.00, 0.00, -0.00, -1.00, 298.0, 210.0)">a</text><text xml:space="preserve" font-family="SourceSansPro-SemiboldIt" font-style="italic" font-weight="bold" font-size="28.0" fill="#FEFFFF" transform="matrix(1.00, 0.00, -0.00, -1.00, 313.2, 210.0)">s</text><text xml:space="preserve" font-family="SourceSansPro-SemiboldIt" font-style="italic" font-weight="bold" font-size="28.0" fill="#FEFFFF" transform="matrix(1.00, 0.00, -0.00, -1.00, 324.8, 210.0)"> </text><text xml:space="preserve" font-family="SourceSansPro-SemiboldIt" font-style="italic" font-weight="bold" font-size="28.0" fill="#FEFFFF" transform="matrix(1.00, 0.00, -0.00, -1.00, 1.0, 174.0)">m</text><text xml:space="preserve" font-family="SourceSansPro-SemiboldIt" font-style="italic" font-weight="bold" font-size="28.0" fill="#FEFFFF" transform="matrix(1.00, 0.00, -0.00, -1.00, 23.8, 174.0)">e</text><text xml:space="preserve" font-family="SourceSansPro-SemiboldIt" font-style="italic" font-weight="bold" font-size="28.0" fill="#FEFFFF" transform="matrix(1.00, 0.00, -0.00, -1.00, 37.4, 174.0)">l</text><text xml:space="preserve" font-family="SourceSansPro-SemiboldIt" font-style="italic" font-weight="bold" font-size="28.0" fill="#FEFFFF" transform="matrix(1.00, 0.00, -0.00, -1.00, 44.8, 174.0)">h</text><text xml:space="preserve" font-family="SourceSansPro-SemiboldIt" font-style="italic" font-weight="bold" font-size="28.0" fill="#FEFFFF" transform="matrix(1.00, 0.00, -0.00, -1.00, 59.7, 174.0)">o</text><text xml:space="preserve" font-family="SourceSansPro-SemiboldIt" font-style="italic" font-weight="bold" font-size="28.0" fill="#FEFFFF" transform="matrix(1.00, 0.00, -0.00, -1.00, 74.4, 174.0)">r</text><text xml:space="preserve" font-family="SourceSansPro-SemiboldIt" font-style="italic" font-weight="bold" font-size="28.0" fill="#FEFFFF" transform="matrix(1.00, 0.00, -0.00, -1.00, 84.2, 174.0)">e</text><text xml:space="preserve" font-family="SourceSansPro-SemiboldIt" font-style="italic" font-weight="bold" font-size="28.0" fill="#FEFFFF" transform="matrix(1.00, 0.00, -0.00, -1.00, 97.9, 174.0)">s</text><text xml:space="preserve" font-family="SourceSansPro-SemiboldIt" font-style="italic" font-weight="bold" font-size="28.0" fill="#FEFFFF" transform="matrix(1.00, 0.00, -0.00, -1.00, 109.5, 174.0)"> </text><text xml:space="preserve" font-family="SourceSansPro-SemiboldIt" font-style="italic" font-weight="bold" font-size="28.0" fill="#FEFFFF" transform="matrix(1.00, 0.00, -0.00, -1.00, 114.9, 174.0)">l</text><text xml:space="preserve" font-family="SourceSansPro-SemiboldIt" font-style="italic" font-weight="bold" font-size="28.0" fill="#FEFFFF" transform="matrix(1.00, 0.00, -0.00, -1.00, 122.3, 174.0)">i</text><text xml:space="preserve" font-family="SourceSansPro-SemiboldIt" font-style="italic" font-weight="bold" font-size="28.0" fill="#FEFFFF" transform="matrix(1.00, 0.00, -0.00, -1.00, 129.3, 174.0)">b</text><text xml:space="preserve" font-family="SourceSansPro-SemiboldIt" font-style="italic" font-weight="bold" font-size="28.0" fill="#FEFFFF" transform="matrix(1.00, 0.00, -0.00, -1.00, 144.6, 174.0)">s</text><text xml:space="preserve" font-family="SourceSansPro-SemiboldIt" font-style="italic" font-weight="bold" font-size="28.0" fill="#FEFFFF" transform="matrix(1.00, 0.00, -0.00, -1.00, 156.1, 174.0)"> </text><text xml:space="preserve" font-family="SourceSansPro-SemiboldIt" font-style="italic" font-weight="bold" font-size="28.0" fill="#FEFFFF" transform="matrix(1.00, 0.00, -0.00, -1.00, 161.6, 174.0)">p</text><text xml:space="preserve" font-family="SourceSansPro-SemiboldIt" font-style="italic" font-weight="bold" font-size="28.0" fill="#FEFFFF" transform="matrix(1.00, 0.00, -0.00, -1.00, 176.8, 174.0)">a</text><text xml:space="preserve" font-family="SourceSansPro-SemiboldIt" font-style="italic" font-weight="bold" font-size="28.0" fill="#FEFFFF" transform="matrix(1.00, 0.00, -0.00, -1.00, 192.0, 174.0)">r</text><text xml:space="preserve" font-family="SourceSansPro-SemiboldIt" font-style="italic" font-weight="bold" font-size="28.0" fill="#FEFFFF" transform="matrix(1.00, 0.00, -0.00, -1.00, 201.9, 174.0)">a</text><text xml:space="preserve" font-family="SourceSansPro-SemiboldIt" font-style="italic" font-weight="bold" font-size="28.0" fill="#FEFFFF" transform="matrix(1.00, 0.00, -0.00, -1.00, 217.2, 174.0)"> </text><text xml:space="preserve" font-family="SourceSansPro-SemiboldIt" font-style="italic" font-weight="bold" font-size="28.0" fill="#FEFFFF" transform="matrix(1.00, 0.00, -0.00, -1.00, 222.6, 174.0)">u</text><text xml:space="preserve" font-family="SourceSansPro-SemiboldIt" font-style="italic" font-weight="bold" font-size="28.0" fill="#FEFFFF" transform="matrix(1.00, 0.00, -0.00, -1.00, 237.7, 174.0)">s</text><text xml:space="preserve" font-family="SourceSansPro-SemiboldIt" font-style="italic" font-weight="bold" font-size="28.0" fill="#FEFFFF" transform="matrix(1.00, 0.00, -0.00, -1.00, 249.2, 174.0)">a</text><text xml:space="preserve" font-family="SourceSansPro-SemiboldIt" font-style="italic" font-weight="bold" font-size="28.0" fill="#FEFFFF" transform="matrix(1.00, 0.00, -0.00, -1.00, 264.5, 174.0)">r</text><text xml:space="preserve" font-family="SourceSansPro-SemiboldIt" font-style="italic" font-weight="bold" font-size="28.0" fill="#FEFFFF" transform="matrix(1.00, 0.00, -0.00, -1.00, 274.6, 174.0)"> </text><text xml:space="preserve" font-family="SourceSansPro-SemiboldIt" font-style="italic" font-weight="bold" font-size="28.0" fill="#FEFFFF" transform="matrix(1.00, 0.00, -0.00, -1.00, 280.1, 174.0)">c</text><text xml:space="preserve" font-family="SourceSansPro-SemiboldIt" font-style="italic" font-weight="bold" font-size="28.0" fill="#FEFFFF" transform="matrix(1.00, 0.00, -0.00, -1.00, 291.9, 174.0)">o</text><text xml:space="preserve" font-family="SourceSansPro-SemiboldIt" font-style="italic" font-weight="bold" font-size="28.0" fill="#FEFFFF" transform="matrix(1.00, 0.00, -0.00, -1.00, 306.6, 174.0)">m</text><text xml:space="preserve" font-family="SourceSansPro-SemiboldIt" font-style="italic" font-weight="bold" font-size="28.0" fill="#FEFFFF" transform="matrix(1.00, 0.00, -0.00, -1.00, 329.4, 174.0)"> </text><text xml:space="preserve" font-family="SourceSansPro-SemiboldIt" font-style="italic" font-weight="bold" font-size="28.0" fill="#FEFFFF" transform="matrix(1.00, 0.00, -0.00, -1.00, 1.0, 138.0)">E</text><text xml:space="preserve" font-family="SourceSansPro-SemiboldIt" font-style="italic" font-weight="bold" font-size="28.0" fill="#FEFFFF" transform="matrix(1.00, 0.00, -0.00, -1.00, 15.4, 138.0)">x</text><text xml:space="preserve" font-family="SourceSansPro-SemiboldIt" font-style="italic" font-weight="bold" font-size="28.0" fill="#FEFFFF" transform="matrix(1.00, 0.00, -0.00, -1.00, 28.3, 138.0)">p</text><text xml:space="preserve" font-family="SourceSansPro-SemiboldIt" font-style="italic" font-weight="bold" font-size="28.0" fill="#FEFFFF" transform="matrix(1.00, 0.00, -0.00, -1.00, 43.5, 138.0)">r</text><text xml:space="preserve" font-family="SourceSansPro-SemiboldIt" font-style="italic" font-weight="bold" font-size="28.0" fill="#FEFFFF" transform="matrix(1.00, 0.00, -0.00, -1.00, 53.4, 138.0)">e</text><text xml:space="preserve" font-family="SourceSansPro-SemiboldIt" font-style="italic" font-weight="bold" font-size="28.0" fill="#FEFFFF" transform="matrix(1.00, 0.00, -0.00, -1.00, 67.1, 138.0)">s</text><text xml:space="preserve" font-family="SourceSansPro-SemiboldIt" font-style="italic" font-weight="bold" font-size="28.0" fill="#FEFFFF" transform="matrix(1.00, 0.00, -0.00, -1.00, 78.6, 138.0)">s</text><text xml:space="preserve" font-family="SourceSansPro-SemiboldIt" font-style="italic" font-weight="bold" font-size="28.0" fill="#FEFFFF" transform="matrix(1.00, 0.00, -0.00, -1.00, 90.2, 138.0)">.</text><text xml:space="preserve" font-family="SourceSansPro-SemiboldIt" font-style="italic" font-weight="bold" font-size="28.0" fill="#FEFFFF" transform="matrix(1.00, 0.00, -0.00, -1.00, 97.7, 138.0)"> </text><text xml:space="preserve" font-family="SourceSansPro-Bold" font-weight="bold" font-size="38.0" fill="#6FBF40" transform="matrix(1.00, 0.00, -0.00, -1.00, 1.0, 58.0)">n</text><text xml:space="preserve" font-family="SourceSansPro-Bold" font-weight="bold" font-size="38.0" fill="#6FBF40" transform="matrix(1.00, 0.00, -0.00, -1.00, 22.7, 58.0)">p</text><text xml:space="preserve" font-family="SourceSansPro-Bold" font-weight="bold" font-size="38.0" fill="#6FBF40" transform="matrix(1.00, 0.00, -0.00, -1.00, 44.5, 58.0)">m</text><text xml:space="preserve" font-family="SourceSansPro-Bold" font-weight="bold" font-size="38.0" fill="#6FBF40" transform="matrix(1.00, 0.00, -0.00, -1.00, 77.1, 58.0)">j</text><text xml:space="preserve" font-family="SourceSansPro-Bold" font-weight="bold" font-size="38.0" fill="#6FBF40" transform="matrix(1.00, 0.00, -0.00, -1.00, 87.6, 58.0)">s</text><text xml:space="preserve" font-family="SourceSansPro-Bold" font-weight="bold" font-size="38.0" fill="#6FBF40" transform="matrix(1.00, 0.00, -0.00, -1.00, 104.5, 58.0)">.</text><text xml:space="preserve" font-family="SourceSansPro-Bold" font-weight="bold" font-size="38.0" fill="#6FBF40" transform="matrix(1.00, 0.00, -0.00, -1.00, 115.5, 58.0)">c</text><text xml:space="preserve" font-family="SourceSansPro-Bold" font-weight="bold" font-size="38.0" fill="#6FBF40" transform="matrix(1.00, 0.00, -0.00, -1.00, 132.2, 58.0)">o</text><text xml:space="preserve" font-family="SourceSansPro-Bold" font-weight="bold" font-size="38.0" fill="#6FBF40" transform="matrix(1.00, 0.00, -0.00, -1.00, 153.3, 58.0)">m</text><text xml:space="preserve" font-family="SourceSansPro-Bold" font-weight="bold" font-size="38.0" fill="#6FBF40" transform="matrix(1.00, 0.00, -0.00, -1.00, 185.8, 58.0)">/</text><text xml:space="preserve" font-family="SourceSansPro-Bold" font-weight="bold" font-size="38.0" fill="#6FBF40" transform="matrix(1.00, 0.00, -0.00, -1.00, 198.1, 58.0)">e</text><text xml:space="preserve" font-family="SourceSansPro-Bold" font-weight="bold" font-size="38.0" fill="#6FBF40" transform="matrix(1.00, 0.00, -0.00, -1.00, 217.2, 58.0)">x</text><text xml:space="preserve" font-family="SourceSansPro-Bold" font-weight="bold" font-size="38.0" fill="#6FBF40" transform="matrix(1.00, 0.00, -0.00, -1.00, 236.7, 58.0)">p</text><text xml:space="preserve" font-family="SourceSansPro-Bold" font-weight="bold" font-size="38.0" fill="#6FBF40" transform="matrix(1.00, 0.00, -0.00, -1.00, 258.5, 58.0)">r</text><text xml:space="preserve" font-family="SourceSansPro-Bold" font-weight="bold" font-size="38.0" fill="#6FBF40" transform="matrix(1.00, 0.00, -0.00, -1.00, 273.2, 58.0)">e</text><text xml:space="preserve" font-family="SourceSansPro-Bold" font-weight="bold" font-size="38.0" fill="#6FBF40" transform="matrix(1.00, 0.00, -0.00, -1.00, 292.9, 58.0)">s</text><text xml:space="preserve" font-family="SourceSansPro-Bold" font-weight="bold" font-size="38.0" fill="#6FBF40" transform="matrix(1.00, 0.00, -0.00, -1.00, 309.8, 58.0)">s</text><text xml:space="preserve" font-family="SourceSansPro-Bold" font-weight="bold" font-size="38.0" fill="#6FBF40" transform="matrix(1.00, 0.00, -0.00, -1.00, 327.0, 58.0)">-</text><g><clipPath id="clip-353"><path d="M 0.3 53.1 L 339.9 53.1 L 339.9 57.0 L 0.3 57.0 Z M 0.3 53.1 "></path></clipPath><g clip-path="url(#clip-353)"><path d="M 4.0 223.5 L 342.6 223.5 " fill="none" stroke="#6FBF40" stroke-width="1.90" stroke-miterlimit="0.00" transform="matrix(1.00, 0.00, 0.00, -1.00, -2.7, 278.5)"></path></g></g><text xml:space="preserve" font-family="SourceSansPro-Bold" font-weight="bold" font-size="38.0" fill="#6FBF40" transform="matrix(1.00, 0.00, -0.00, -1.00, 1.0, 11.0)">r</text><text xml:space="preserve" font-family="SourceSansPro-Bold" font-weight="bold" font-size="38.0" fill="#6FBF40" transform="matrix(1.00, 0.00, -0.00, -1.00, 15.1, 11.0)">a</text><text xml:space="preserve" font-family="SourceSansPro-Bold" font-weight="bold" font-size="38.0" fill="#6FBF40" transform="matrix(1.00, 0.00, -0.00, -1.00, 34.4, 11.0)">t</text><text xml:space="preserve" font-family="SourceSansPro-Bold" font-weight="bold" font-size="38.0" fill="#6FBF40" transform="matrix(1.00, 0.00, -0.00, -1.00, 48.3, 11.0)">e</text><text xml:space="preserve" font-family="SourceSansPro-Bold" font-weight="bold" font-size="38.0" fill="#6FBF40" transform="matrix(1.00, 0.00, -0.00, -1.00, 68.3, 11.0)">-</text><text xml:space="preserve" font-family="SourceSansPro-Bold" font-weight="bold" font-size="38.0" fill="#6FBF40" transform="matrix(1.00, 0.00, -0.00, -1.00, 81.0, 11.0)">l</text><text xml:space="preserve" font-family="SourceSansPro-Bold" font-weight="bold" font-size="38.0" fill="#6FBF40" transform="matrix(1.00, 0.00, -0.00, -1.00, 91.8, 11.0)">i</text><text xml:space="preserve" font-family="SourceSansPro-Bold" font-weight="bold" font-size="38.0" fill="#6FBF40" transform="matrix(1.00, 0.00, -0.00, -1.00, 102.3, 11.0)">m</text><text xml:space="preserve" font-family="SourceSansPro-Bold" font-weight="bold" font-size="38.0" fill="#6FBF40" transform="matrix(1.00, 0.00, -0.00, -1.00, 134.9, 11.0)">i</text><text xml:space="preserve" font-family="SourceSansPro-Bold" font-weight="bold" font-size="38.0" fill="#6FBF40" transform="matrix(1.00, 0.00, -0.00, -1.00, 145.4, 11.0)">t</text><g><clipPath id="clip-354"><path d="M 0.3 6.1 L 160.3 6.1 L 160.3 10.0 L 0.3 10.0 Z M 0.3 6.1 "></path></clipPath><g clip-path="url(#clip-354)"><path d="M 4.0 270.5 L 162.9 270.5 " fill="none" stroke="#6FBF40" stroke-width="1.90" stroke-miterlimit="0.00" transform="matrix(1.00, 0.00, 0.00, -1.00, -2.7, 278.5)"></path></g></g></g></svg>