<?xml version="1.0" encoding="UTF-8" standalone="no"?><svg xmlns="http://www.w3.org/2000/svg" xmlns:xlink="http://www.w3.org/1999/xlink" clip-rule="evenodd" stroke-miterlimit="4.00" viewBox="0 0 251 57"><desc>SVG generated by Keynote</desc><defs></defs><g transform="matrix(1.00, 0.00, -0.00, -1.00, 0.0, 57.0)"><text xml:space="preserve" font-family="BebasNeueBold" font-weight="bold" font-size="75.0" fill="#6FBF40" transform="matrix(1.00, 0.00, -0.00, -1.00, -1.0, 2.0)">e</text><text xml:space="preserve" font-family="BebasNeueBold" font-weight="bold" font-size="75.0" fill="#6FBF40" transform="matrix(1.00, 0.00, -0.00, -1.00, 26.6, 2.0)">n</text><text xml:space="preserve" font-family="BebasNeueBold" font-weight="bold" font-size="75.0" fill="#6FBF40" transform="matrix(1.00, 0.00, -0.00, -1.00, 58.6, 2.0)">d</text><text xml:space="preserve" font-family="BebasNeueBold" font-weight="bold" font-size="75.0" fill="#6FBF40" transform="matrix(1.00, 0.00, -0.00, -1.00, 89.2, 2.0)">p</text><text xml:space="preserve" font-family="BebasNeueBold" font-weight="bold" font-size="75.0" fill="#6FBF40" transform="matrix(1.00, 0.00, -0.00, -1.00, 117.5, 2.0)">o</text><text xml:space="preserve" font-family="BebasNeueBold" font-weight="bold" font-size="75.0" fill="#6FBF40" transform="matrix(1.00, 0.00, -0.00, -1.00, 147.2, 2.0)">i</text><text xml:space="preserve" font-family="BebasNeueBold" font-weight="bold" font-size="75.0" fill="#6FBF40" transform="matrix(1.00, 0.00, -0.00, -1.00, 161.4, 2.0)">n</text><text xml:space="preserve" font-family="BebasNeueBold" font-weight="bold" font-size="75.0" fill="#6FBF40" transform="matrix(1.00, 0.00, -0.00, -1.00, 193.5, 2.0)">t</text><text xml:space="preserve" font-family="BebasNeueBold" font-weight="bold" font-size="75.0" fill="#6FBF40" transform="matrix(1.00, 0.00, -0.00, -1.00, 220.2, 2.0)">s</text><text xml:space="preserve" font-family="BebasNeueBold" font-weight="bold" font-size="75.0" fill="#6FBF40" transform="matrix(1.00, 0.00, -0.00, -1.00, 248.2, 2.0)"> </text></g></svg>