<?xml version="1.0" encoding="UTF-8" standalone="no"?><svg xmlns="http://www.w3.org/2000/svg" xmlns:xlink="http://www.w3.org/1999/xlink" clip-rule="evenodd" stroke-miterlimit="4.00" viewBox="0 0 1920 1080"><desc>SVG generated by Keynote</desc><defs></defs><g transform="matrix(1.00, 0.00, -0.00, -1.00, 0.0, 1080.0)"><path d="M 0.0 1080.0 L 1920.0 1080.0 L 1920.0 0.0 L 0.0 0.0 Z M 0.0 1080.0 " fill="#FEFFFF"></path><g opacity="0.20"><g><clipPath id="clip-138"><path d="M 0.0 1080.0 L 1920.0 1080.0 L 1920.0 0.0 L 0.0 0.0 Z M 0.0 1080.0 "></path></clipPath><g clip-path="url(#clip-138)"><g><clipPath id="clip-139"><path d="M 0.0 0.0 L 1920.0 0.0 L 1920.0 1080.0 L 0.0 1080.0 Z M 0.0 0.0 "></path></clipPath><g clip-path="url(#clip-139)"><image xlink:href="../../49B0041F-D2B6-45AE-B257-4A439451C92F/assets/23497D77A7F06362AFD4423070F345EA.jpeg" width="1366.00" height="768.00" transform="matrix(1.41, 0.00, -0.00, -1.41, 0.0, 1080.0)"></image></g></g></g></g></g><g opacity="0.75"><g><clipPath id="clip-140"><path d="M 1250.0 0.0 L 1618.0 0.0 L 1618.0 361.0 L 1250.0 361.0 Z M 1250.0 0.0 "></path></clipPath><g clip-path="url(#clip-140)"><path d="M 1252.0 360.0 L 1617.0 360.0 L 1617.0 0.0 L 1252.0 0.0 Z M 1252.0 360.0 " fill="#000000"></path></g></g></g><g opacity="0.75"><g><clipPath id="clip-141"><path d="M 1250.0 718.0 L 1618.0 718.0 L 1618.0 1080.0 L 1250.0 1080.0 Z M 1250.0 718.0 "></path></clipPath><g clip-path="url(#clip-141)"><path d="M 1252.0 1080.0 L 1617.0 1080.0 L 1617.0 720.0 L 1252.0 720.0 Z M 1252.0 1080.0 " fill="#000000"></path></g></g></g><g opacity="0.75"><g><clipPath id="clip-142"><path d="M 1250.0 359.0 L 1618.0 359.0 L 1618.0 722.0 L 1250.0 722.0 Z M 1250.0 359.0 "></path></clipPath><g clip-path="url(#clip-142)"><path d="M 1252.0 720.3 L 1617.0 720.3 L 1617.0 360.3 L 1252.0 360.3 Z M 1252.0 720.3 " fill="#000000"></path></g></g></g><text xml:space="preserve" font-family="BebasNeueBold" font-weight="bold" font-size="75.0" fill="#6FBF40" transform="matrix(1.00, 0.00, -0.00, -1.00, 1336.0, 514.0)">m</text><text xml:space="preserve" font-family="BebasNeueBold" font-weight="bold" font-size="75.0" fill="#6FBF40" transform="matrix(1.00, 0.00, -0.00, -1.00, 1376.6, 514.0)">o</text><text xml:space="preserve" font-family="BebasNeueBold" font-weight="bold" font-size="75.0" fill="#6FBF40" transform="matrix(1.00, 0.00, -0.00, -1.00, 1406.3, 514.0)">d</text><text xml:space="preserve" font-family="BebasNeueBold" font-weight="bold" font-size="75.0" fill="#6FBF40" transform="matrix(1.00, 0.00, -0.00, -1.00, 1436.9, 514.0)">e</text><text xml:space="preserve" font-family="BebasNeueBold" font-weight="bold" font-size="75.0" fill="#6FBF40" transform="matrix(1.00, 0.00, -0.00, -1.00, 1464.5, 514.0)">l</text><text xml:space="preserve" font-family="BebasNeueBold" font-weight="bold" font-size="75.0" fill="#6FBF40" transform="matrix(1.00, 0.00, -0.00, -1.00, 1489.9, 514.0)">s</text><text xml:space="preserve" font-family="BebasNeueBold" font-weight="bold" font-size="75.0" fill="#6FBF40" transform="matrix(1.00, 0.00, -0.00, -1.00, 1319.0, 154.0)">s</text><text xml:space="preserve" font-family="BebasNeueBold" font-weight="bold" font-size="75.0" fill="#6FBF40" transform="matrix(1.00, 0.00, -0.00, -1.00, 1347.0, 154.0)">c</text><text xml:space="preserve" font-family="BebasNeueBold" font-weight="bold" font-size="75.0" fill="#6FBF40" transform="matrix(1.00, 0.00, -0.00, -1.00, 1376.0, 154.0)">h</text><text xml:space="preserve" font-family="BebasNeueBold" font-weight="bold" font-size="75.0" fill="#6FBF40" transform="matrix(1.00, 0.00, -0.00, -1.00, 1408.0, 154.0)">e</text><text xml:space="preserve" font-family="BebasNeueBold" font-weight="bold" font-size="75.0" fill="#6FBF40" transform="matrix(1.00, 0.00, -0.00, -1.00, 1435.6, 154.0)">m</text><text xml:space="preserve" font-family="BebasNeueBold" font-weight="bold" font-size="75.0" fill="#6FBF40" transform="matrix(1.00, 0.00, -0.00, -1.00, 1476.2, 154.0)">a</text><text xml:space="preserve" font-family="BebasNeueBold" font-weight="bold" font-size="75.0" fill="#6FBF40" transform="matrix(1.00, 0.00, -0.00, -1.00, 1506.7, 154.0)">s</text><text xml:space="preserve" font-family="BebasNeueBold" font-weight="bold" font-size="75.0" fill="#6FBF40" transform="matrix(1.00, 0.00, -0.00, -1.00, 1327.0, 874.0)">h</text><text xml:space="preserve" font-family="BebasNeueBold" font-weight="bold" font-size="75.0" fill="#6FBF40" transform="matrix(1.00, 0.00, -0.00, -1.00, 1359.0, 874.0)">e</text><text xml:space="preserve" font-family="BebasNeueBold" font-weight="bold" font-size="75.0" fill="#6FBF40" transform="matrix(1.00, 0.00, -0.00, -1.00, 1386.6, 874.0)">l</text><text xml:space="preserve" font-family="BebasNeueBold" font-weight="bold" font-size="75.0" fill="#6FBF40" transform="matrix(1.00, 0.00, -0.00, -1.00, 1412.0, 874.0)">p</text><text xml:space="preserve" font-family="BebasNeueBold" font-weight="bold" font-size="75.0" fill="#6FBF40" transform="matrix(1.00, 0.00, -0.00, -1.00, 1440.3, 874.0)">e</text><text xml:space="preserve" font-family="BebasNeueBold" font-weight="bold" font-size="75.0" fill="#6FBF40" transform="matrix(1.00, 0.00, -0.00, -1.00, 1467.9, 874.0)">r</text><text xml:space="preserve" font-family="BebasNeueBold" font-weight="bold" font-size="75.0" fill="#6FBF40" transform="matrix(1.00, 0.00, -0.00, -1.00, 1498.1, 874.0)">s</text><g opacity="0.75"><g><clipPath id="clip-143"><path d="M 302.0 0.0 L 670.0 0.0 L 670.0 361.0 L 302.0 361.0 Z M 302.0 0.0 "></path></clipPath><g clip-path="url(#clip-143)"><path d="M 303.0 360.0 L 668.0 360.0 L 668.0 0.0 L 303.0 0.0 Z M 303.0 360.0 " fill="#000000"></path></g></g></g><g opacity="0.75"><g><clipPath id="clip-144"><path d="M 302.0 718.0 L 670.0 718.0 L 670.0 1080.0 L 302.0 1080.0 Z M 302.0 718.0 "></path></clipPath><g clip-path="url(#clip-144)"><path d="M 303.0 1080.0 L 668.0 1080.0 L 668.0 720.0 L 303.0 720.0 Z M 303.0 1080.0 " fill="#000000"></path></g></g></g><g opacity="0.75"><g><clipPath id="clip-145"><path d="M 302.0 359.0 L 670.0 359.0 L 670.0 722.0 L 302.0 722.0 Z M 302.0 359.0 "></path></clipPath><g clip-path="url(#clip-145)"><path d="M 303.0 720.3 L 668.0 720.3 L 668.0 360.3 L 303.0 360.3 Z M 303.0 720.3 " fill="#000000"></path></g></g></g><text xml:space="preserve" font-family="BebasNeueBold" font-weight="bold" font-size="75.0" fill="#6FBF40" transform="matrix(1.00, 0.00, -0.00, -1.00, 353.0, 545.0)">e</text><text xml:space="preserve" font-family="BebasNeueBold" font-weight="bold" font-size="75.0" fill="#6FBF40" transform="matrix(1.00, 0.00, -0.00, -1.00, 380.6, 545.0)">n</text><text xml:space="preserve" font-family="BebasNeueBold" font-weight="bold" font-size="75.0" fill="#6FBF40" transform="matrix(1.00, 0.00, -0.00, -1.00, 412.6, 545.0)">d</text><text xml:space="preserve" font-family="BebasNeueBold" font-weight="bold" font-size="75.0" fill="#6FBF40" transform="matrix(1.00, 0.00, -0.00, -1.00, 443.2, 545.0)">p</text><text xml:space="preserve" font-family="BebasNeueBold" font-weight="bold" font-size="75.0" fill="#6FBF40" transform="matrix(1.00, 0.00, -0.00, -1.00, 471.5, 545.0)">o</text><text xml:space="preserve" font-family="BebasNeueBold" font-weight="bold" font-size="75.0" fill="#6FBF40" transform="matrix(1.00, 0.00, -0.00, -1.00, 501.2, 545.0)">i</text><text xml:space="preserve" font-family="BebasNeueBold" font-weight="bold" font-size="75.0" fill="#6FBF40" transform="matrix(1.00, 0.00, -0.00, -1.00, 515.5, 545.0)">n</text><text xml:space="preserve" font-family="BebasNeueBold" font-weight="bold" font-size="75.0" fill="#6FBF40" transform="matrix(1.00, 0.00, -0.00, -1.00, 547.5, 545.0)">t</text><text xml:space="preserve" font-family="BebasNeueBold" font-weight="bold" font-size="75.0" fill="#6FBF40" transform="matrix(1.00, 0.00, -0.00, -1.00, 574.2, 545.0)">s</text><text xml:space="preserve" font-family="BebasNeueBold" font-weight="bold" font-size="75.0" fill="#6FBF40" transform="matrix(1.00, 0.00, -0.00, -1.00, 602.2, 545.0)"> </text><text xml:space="preserve" font-family="BebasNeueBold" font-weight="bold" font-size="75.0" fill="#6FBF40" transform="matrix(1.00, 0.00, -0.00, -1.00, 371.0, 154.0)">s</text><text xml:space="preserve" font-family="BebasNeueBold" font-weight="bold" font-size="75.0" fill="#6FBF40" transform="matrix(1.00, 0.00, -0.00, -1.00, 399.1, 154.0)">e</text><text xml:space="preserve" font-family="BebasNeueBold" font-weight="bold" font-size="75.0" fill="#6FBF40" transform="matrix(1.00, 0.00, -0.00, -1.00, 426.6, 154.0)">r</text><text xml:space="preserve" font-family="BebasNeueBold" font-weight="bold" font-size="75.0" fill="#6FBF40" transform="matrix(1.00, 0.00, -0.00, -1.00, 456.6, 154.0)">v</text><text xml:space="preserve" font-family="BebasNeueBold" font-weight="bold" font-size="75.0" fill="#6FBF40" transform="matrix(1.00, 0.00, -0.00, -1.00, 486.8, 154.0)">i</text><text xml:space="preserve" font-family="BebasNeueBold" font-weight="bold" font-size="75.0" fill="#6FBF40" transform="matrix(1.00, 0.00, -0.00, -1.00, 501.0, 154.0)">c</text><text xml:space="preserve" font-family="BebasNeueBold" font-weight="bold" font-size="75.0" fill="#6FBF40" transform="matrix(1.00, 0.00, -0.00, -1.00, 530.0, 154.0)">e</text><text xml:space="preserve" font-family="BebasNeueBold" font-weight="bold" font-size="75.0" fill="#6FBF40" transform="matrix(1.00, 0.00, -0.00, -1.00, 557.6, 154.0)">s</text><text xml:space="preserve" font-family="BebasNeueBold" font-weight="bold" font-size="75.0" fill="#6FBF40" transform="matrix(1.00, 0.00, -0.00, -1.00, 362.0, 905.0)">a</text><text xml:space="preserve" font-family="BebasNeueBold" font-weight="bold" font-size="75.0" fill="#6FBF40" transform="matrix(1.00, 0.00, -0.00, -1.00, 392.5, 905.0)">d</text><text xml:space="preserve" font-family="BebasNeueBold" font-weight="bold" font-size="75.0" fill="#6FBF40" transform="matrix(1.00, 0.00, -0.00, -1.00, 423.1, 905.0)">a</text><text xml:space="preserve" font-family="BebasNeueBold" font-weight="bold" font-size="75.0" fill="#6FBF40" transform="matrix(1.00, 0.00, -0.00, -1.00, 453.6, 905.0)">p</text><text xml:space="preserve" font-family="BebasNeueBold" font-weight="bold" font-size="75.0" fill="#6FBF40" transform="matrix(1.00, 0.00, -0.00, -1.00, 481.9, 905.0)">t</text><text xml:space="preserve" font-family="BebasNeueBold" font-weight="bold" font-size="75.0" fill="#6FBF40" transform="matrix(1.00, 0.00, -0.00, -1.00, 508.5, 905.0)">e</text><text xml:space="preserve" font-family="BebasNeueBold" font-weight="bold" font-size="75.0" fill="#6FBF40" transform="matrix(1.00, 0.00, -0.00, -1.00, 536.1, 905.0)">r</text><text xml:space="preserve" font-family="BebasNeueBold" font-weight="bold" font-size="75.0" fill="#6FBF40" transform="matrix(1.00, 0.00, -0.00, -1.00, 566.3, 905.0)">s</text><text xml:space="preserve" font-family="BebasNeueBold" font-weight="bold" font-size="75.0" fill="#6FBF40" transform="matrix(1.00, 0.00, -0.00, -1.00, 594.4, 905.0)"> </text><text xml:space="preserve" font-family="BebasNeueBold" font-weight="bold" font-size="115.0" fill="#6FBF40" transform="matrix(1.00, 0.00, -0.00, -1.00, 771.0, 524.0)">c</text><text xml:space="preserve" font-family="BebasNeueBold" font-weight="bold" font-size="115.0" fill="#6FBF40" transform="matrix(1.00, 0.00, -0.00, -1.00, 815.4, 524.0)">o</text><text xml:space="preserve" font-family="BebasNeueBold" font-weight="bold" font-size="115.0" fill="#6FBF40" transform="matrix(1.00, 0.00, -0.00, -1.00, 860.9, 524.0)">n</text><text xml:space="preserve" font-family="BebasNeueBold" font-weight="bold" font-size="115.0" fill="#6FBF40" transform="matrix(1.00, 0.00, -0.00, -1.00, 910.0, 524.0)">c</text><text xml:space="preserve" font-family="BebasNeueBold" font-weight="bold" font-size="115.0" fill="#6FBF40" transform="matrix(1.00, 0.00, -0.00, -1.00, 954.4, 524.0)">e</text><text xml:space="preserve" font-family="BebasNeueBold" font-weight="bold" font-size="115.0" fill="#6FBF40" transform="matrix(1.00, 0.00, -0.00, -1.00, 996.7, 524.0)">i</text><text xml:space="preserve" font-family="BebasNeueBold" font-weight="bold" font-size="115.0" fill="#6FBF40" transform="matrix(1.00, 0.00, -0.00, -1.00, 1018.6, 524.0)">t</text><text xml:space="preserve" font-family="BebasNeueBold" font-weight="bold" font-size="115.0" fill="#6FBF40" transform="matrix(1.00, 0.00, -0.00, -1.00, 1059.5, 524.0)">o</text><text xml:space="preserve" font-family="BebasNeueBold" font-weight="bold" font-size="115.0" fill="#6FBF40" transform="matrix(1.00, 0.00, -0.00, -1.00, 1105.1, 524.0)">s</text></g></svg>