<?xml version="1.0" encoding="UTF-8" standalone="no"?><svg xmlns="http://www.w3.org/2000/svg" xmlns:xlink="http://www.w3.org/1999/xlink" clip-rule="evenodd" stroke-miterlimit="4.00" viewBox="0 0 362 102"><desc>SVG generated by Keynote</desc><defs></defs><g transform="matrix(1.00, 0.00, -0.00, -1.00, 0.0, 102.0)"><text xml:space="preserve" font-family="SourceSansPro-Regular" font-size="28.0" fill="#000000" transform="matrix(1.00, 0.00, -0.00, -1.00, 16.0, 80.0)">S</text><text xml:space="preserve" font-family="SourceSansPro-Regular" font-size="28.0" fill="#000000" transform="matrix(1.00, 0.00, -0.00, -1.00, 31.0, 80.0)">e</text><text xml:space="preserve" font-family="SourceSansPro-Regular" font-size="28.0" fill="#000000" transform="matrix(1.00, 0.00, -0.00, -1.00, 44.8, 80.0)">u</text><text xml:space="preserve" font-family="SourceSansPro-Regular" font-size="28.0" fill="#000000" transform="matrix(1.00, 0.00, -0.00, -1.00, 60.1, 80.0)"> </text><text xml:space="preserve" font-family="SourceSansPro-Regular" font-size="28.0" fill="#000000" transform="matrix(1.00, 0.00, -0.00, -1.00, 65.7, 80.0)">p</text><text xml:space="preserve" font-family="SourceSansPro-Regular" font-size="28.0" fill="#000000" transform="matrix(1.00, 0.00, -0.00, -1.00, 81.2, 80.0)">r</text><text xml:space="preserve" font-family="SourceSansPro-Regular" font-size="28.0" fill="#000000" transform="matrix(1.00, 0.00, -0.00, -1.00, 90.6, 80.0)">o</text><text xml:space="preserve" font-family="SourceSansPro-Regular" font-size="28.0" fill="#000000" transform="matrix(1.00, 0.00, -0.00, -1.00, 105.8, 80.0)">d</text><text xml:space="preserve" font-family="SourceSansPro-Regular" font-size="28.0" fill="#000000" transform="matrix(1.00, 0.00, -0.00, -1.00, 121.4, 80.0)">u</text><text xml:space="preserve" font-family="SourceSansPro-Regular" font-size="28.0" fill="#000000" transform="matrix(1.00, 0.00, -0.00, -1.00, 136.6, 80.0)">t</text><text xml:space="preserve" font-family="SourceSansPro-Regular" font-size="28.0" fill="#000000" transform="matrix(1.00, 0.00, -0.00, -1.00, 145.7, 80.0)">o</text><text xml:space="preserve" font-family="SourceSansPro-Regular" font-size="28.0" fill="#000000" transform="matrix(1.00, 0.00, -0.00, -1.00, 160.8, 80.0)"> </text><text xml:space="preserve" font-family="SourceSansPro-Regular" font-size="28.0" fill="#000000" transform="matrix(1.00, 0.00, -0.00, -1.00, 166.4, 80.0)">p</text><text xml:space="preserve" font-family="SourceSansPro-Regular" font-size="28.0" fill="#000000" transform="matrix(1.00, 0.00, -0.00, -1.00, 182.0, 80.0)">r</text><text xml:space="preserve" font-family="SourceSansPro-Regular" font-size="28.0" fill="#000000" transform="matrix(1.00, 0.00, -0.00, -1.00, 191.4, 80.0)">e</text><text xml:space="preserve" font-family="SourceSansPro-Regular" font-size="28.0" fill="#000000" transform="matrix(1.00, 0.00, -0.00, -1.00, 205.3, 80.0)">c</text><text xml:space="preserve" font-family="SourceSansPro-Regular" font-size="28.0" fill="#000000" transform="matrix(1.00, 0.00, -0.00, -1.00, 218.1, 80.0)">i</text><text xml:space="preserve" font-family="SourceSansPro-Regular" font-size="28.0" fill="#000000" transform="matrix(1.00, 0.00, -0.00, -1.00, 225.0, 80.0)">s</text><text xml:space="preserve" font-family="SourceSansPro-Regular" font-size="28.0" fill="#000000" transform="matrix(1.00, 0.00, -0.00, -1.00, 236.7, 80.0)">a</text><text xml:space="preserve" font-family="SourceSansPro-Regular" font-size="28.0" fill="#000000" transform="matrix(1.00, 0.00, -0.00, -1.00, 250.8, 80.0)"> </text><text xml:space="preserve" font-family="SourceSansPro-Regular" font-size="28.0" fill="#000000" transform="matrix(1.00, 0.00, -0.00, -1.00, 256.4, 80.0)">d</text><text xml:space="preserve" font-family="SourceSansPro-Regular" font-size="28.0" fill="#000000" transform="matrix(1.00, 0.00, -0.00, -1.00, 271.9, 80.0)">e</text><text xml:space="preserve" font-family="SourceSansPro-Regular" font-size="28.0" fill="#000000" transform="matrix(1.00, 0.00, -0.00, -1.00, 285.8, 80.0)"> </text><text xml:space="preserve" font-family="SourceSansPro-Regular" font-size="28.0" fill="#000000" transform="matrix(1.00, 0.00, -0.00, -1.00, 291.4, 80.0)">u</text><text xml:space="preserve" font-family="SourceSansPro-Regular" font-size="28.0" fill="#000000" transform="matrix(1.00, 0.00, -0.00, -1.00, 306.7, 80.0)">m</text><text xml:space="preserve" font-family="SourceSansPro-Regular" font-size="28.0" fill="#000000" transform="matrix(1.00, 0.00, -0.00, -1.00, 329.9, 80.0)">a</text><text xml:space="preserve" font-family="SourceSansPro-Regular" font-size="28.0" fill="#000000" transform="matrix(1.00, 0.00, -0.00, -1.00, 344.0, 80.0)"> </text><text xml:space="preserve" font-family="SourceSansPro-Regular" font-size="28.0" fill="#000000" transform="matrix(1.00, 0.00, -0.00, -1.00, 0.0, 44.0)">a</text><text xml:space="preserve" font-family="SourceSansPro-Regular" font-size="28.0" fill="#000000" transform="matrix(1.00, 0.00, -0.00, -1.00, 14.1, 44.0)">p</text><text xml:space="preserve" font-family="SourceSansPro-Regular" font-size="28.0" fill="#000000" transform="matrix(1.00, 0.00, -0.00, -1.00, 29.7, 44.0)">l</text><text xml:space="preserve" font-family="SourceSansPro-Regular" font-size="28.0" fill="#000000" transform="matrix(1.00, 0.00, -0.00, -1.00, 36.8, 44.0)">i</text><text xml:space="preserve" font-family="SourceSansPro-Regular" font-size="28.0" fill="#000000" transform="matrix(1.00, 0.00, -0.00, -1.00, 43.7, 44.0)">c</text><text xml:space="preserve" font-family="SourceSansPro-Regular" font-size="28.0" fill="#000000" transform="matrix(1.00, 0.00, -0.00, -1.00, 56.2, 44.0)">a</text><text xml:space="preserve" font-family="SourceSansPro-Regular" font-size="28.0" fill="#000000" transform="matrix(1.00, 0.00, -0.00, -1.00, 70.3, 44.0)">รง</text><text xml:space="preserve" font-family="SourceSansPro-Regular" font-size="28.0" fill="#000000" transform="matrix(1.00, 0.00, -0.00, -1.00, 82.8, 44.0)">รฃ</text><text xml:space="preserve" font-family="SourceSansPro-Regular" font-size="28.0" fill="#000000" transform="matrix(1.00, 0.00, -0.00, -1.00, 96.9, 44.0)">o</text><text xml:space="preserve" font-family="SourceSansPro-Regular" font-size="28.0" fill="#000000" transform="matrix(1.00, 0.00, -0.00, -1.00, 112.1, 44.0)"> </text><text xml:space="preserve" font-family="SourceSansPro-Regular" font-size="28.0" fill="#000000" transform="matrix(1.00, 0.00, -0.00, -1.00, 117.7, 44.0)">c</text><text xml:space="preserve" font-family="SourceSansPro-Regular" font-size="28.0" fill="#000000" transform="matrix(1.00, 0.00, -0.00, -1.00, 129.8, 44.0)">o</text><text xml:space="preserve" font-family="SourceSansPro-Regular" font-size="28.0" fill="#000000" transform="matrix(1.00, 0.00, -0.00, -1.00, 145.0, 44.0)">m</text><text xml:space="preserve" font-family="SourceSansPro-Regular" font-size="28.0" fill="#000000" transform="matrix(1.00, 0.00, -0.00, -1.00, 168.2, 44.0)">p</text><text xml:space="preserve" font-family="SourceSansPro-Regular" font-size="28.0" fill="#000000" transform="matrix(1.00, 0.00, -0.00, -1.00, 183.8, 44.0)">l</text><text xml:space="preserve" font-family="SourceSansPro-Regular" font-size="28.0" fill="#000000" transform="matrix(1.00, 0.00, -0.00, -1.00, 190.9, 44.0)">e</text><text xml:space="preserve" font-family="SourceSansPro-Regular" font-size="28.0" fill="#000000" transform="matrix(1.00, 0.00, -0.00, -1.00, 204.6, 44.0)">x</text><text xml:space="preserve" font-family="SourceSansPro-Regular" font-size="28.0" fill="#000000" transform="matrix(1.00, 0.00, -0.00, -1.00, 216.8, 44.0)">a</text><text xml:space="preserve" font-family="SourceSansPro-Regular" font-size="28.0" fill="#000000" transform="matrix(1.00, 0.00, -0.00, -1.00, 230.9, 44.0)"> </text><text xml:space="preserve" font-family="SourceSansPro-Regular" font-size="28.0" fill="#000000" transform="matrix(1.00, 0.00, -0.00, -1.00, 236.5, 44.0)">e</text><text xml:space="preserve" font-family="SourceSansPro-Regular" font-size="28.0" fill="#000000" transform="matrix(1.00, 0.00, -0.00, -1.00, 250.4, 44.0)"> </text><text xml:space="preserve" font-family="SourceSansPro-Regular" font-size="28.0" fill="#000000" transform="matrix(1.00, 0.00, -0.00, -1.00, 256.0, 44.0)">q</text><text xml:space="preserve" font-family="SourceSansPro-Regular" font-size="28.0" fill="#000000" transform="matrix(1.00, 0.00, -0.00, -1.00, 271.5, 44.0)">u</text><text xml:space="preserve" font-family="SourceSansPro-Regular" font-size="28.0" fill="#000000" transform="matrix(1.00, 0.00, -0.00, -1.00, 286.8, 44.0)">e</text><text xml:space="preserve" font-family="SourceSansPro-Regular" font-size="28.0" fill="#000000" transform="matrix(1.00, 0.00, -0.00, -1.00, 300.7, 44.0)"> </text><text xml:space="preserve" font-family="SourceSansPro-Regular" font-size="28.0" fill="#000000" transform="matrix(1.00, 0.00, -0.00, -1.00, 306.3, 44.0)">d</text><text xml:space="preserve" font-family="SourceSansPro-Regular" font-size="28.0" fill="#000000" transform="matrix(1.00, 0.00, -0.00, -1.00, 321.8, 44.0)">u</text><text xml:space="preserve" font-family="SourceSansPro-Regular" font-size="28.0" fill="#000000" transform="matrix(1.00, 0.00, -0.00, -1.00, 337.0, 44.0)">r</text><text xml:space="preserve" font-family="SourceSansPro-Regular" font-size="28.0" fill="#000000" transform="matrix(1.00, 0.00, -0.00, -1.00, 346.5, 44.0)">e</text><text xml:space="preserve" font-family="SourceSansPro-Regular" font-size="28.0" fill="#000000" transform="matrix(1.00, 0.00, -0.00, -1.00, 360.4, 44.0)"> </text><text xml:space="preserve" font-family="SourceSansPro-Regular" font-size="28.0" fill="#000000" transform="matrix(1.00, 0.00, -0.00, -1.00, 87.0, 8.0)">p</text><text xml:space="preserve" font-family="SourceSansPro-Regular" font-size="28.0" fill="#000000" transform="matrix(1.00, 0.00, -0.00, -1.00, 102.5, 8.0)">o</text><text xml:space="preserve" font-family="SourceSansPro-Regular" font-size="28.0" fill="#000000" transform="matrix(1.00, 0.00, -0.00, -1.00, 117.7, 8.0)">r</text><text xml:space="preserve" font-family="SourceSansPro-Regular" font-size="28.0" fill="#000000" transform="matrix(1.00, 0.00, -0.00, -1.00, 127.4, 8.0)"> </text><text xml:space="preserve" font-family="SourceSansPro-Regular" font-size="28.0" fill="#000000" transform="matrix(1.00, 0.00, -0.00, -1.00, 133.0, 8.0)">v</text><text xml:space="preserve" font-family="SourceSansPro-Regular" font-size="28.0" fill="#000000" transform="matrix(1.00, 0.00, -0.00, -1.00, 145.5, 8.0)">รก</text><text xml:space="preserve" font-family="SourceSansPro-Regular" font-size="28.0" fill="#000000" transform="matrix(1.00, 0.00, -0.00, -1.00, 159.7, 8.0)">r</text><text xml:space="preserve" font-family="SourceSansPro-Regular" font-size="28.0" fill="#000000" transform="matrix(1.00, 0.00, -0.00, -1.00, 169.4, 8.0)">i</text><text xml:space="preserve" font-family="SourceSansPro-Regular" font-size="28.0" fill="#000000" transform="matrix(1.00, 0.00, -0.00, -1.00, 176.3, 8.0)">o</text><text xml:space="preserve" font-family="SourceSansPro-Regular" font-size="28.0" fill="#000000" transform="matrix(1.00, 0.00, -0.00, -1.00, 191.4, 8.0)">s</text><text xml:space="preserve" font-family="SourceSansPro-Regular" font-size="28.0" fill="#000000" transform="matrix(1.00, 0.00, -0.00, -1.00, 203.2, 8.0)"> </text><text xml:space="preserve" font-family="SourceSansPro-Regular" font-size="28.0" fill="#000000" transform="matrix(1.00, 0.00, -0.00, -1.00, 208.8, 8.0)">a</text><text xml:space="preserve" font-family="SourceSansPro-Regular" font-size="28.0" fill="#000000" transform="matrix(1.00, 0.00, -0.00, -1.00, 222.9, 8.0)">n</text><text xml:space="preserve" font-family="SourceSansPro-Regular" font-size="28.0" fill="#000000" transform="matrix(1.00, 0.00, -0.00, -1.00, 238.2, 8.0)">o</text><text xml:space="preserve" font-family="SourceSansPro-Regular" font-size="28.0" fill="#000000" transform="matrix(1.00, 0.00, -0.00, -1.00, 253.4, 8.0)">s</text><text xml:space="preserve" font-family="SourceSansPro-Regular" font-size="28.0" fill="#000000" transform="matrix(1.00, 0.00, -0.00, -1.00, 265.1, 8.0)">.</text></g></svg>