<?xml version="1.0" encoding="UTF-8" standalone="no"?><svg xmlns="http://www.w3.org/2000/svg" xmlns:xlink="http://www.w3.org/1999/xlink" clip-rule="evenodd" stroke-miterlimit="4.00" viewBox="0 0 1920 1080"><desc>SVG generated by Keynote</desc><defs></defs><g transform="matrix(1.00, 0.00, -0.00, -1.00, 0.0, 1080.0)"><path d="M 0.0 1080.0 L 1920.0 1080.0 L 1920.0 0.0 L 0.0 0.0 Z M 0.0 1080.0 " fill="#FEFFFF"></path><path d="M 480.0 1080.0 L 1920.0 1080.0 L 1920.0 -0.0 L 480.0 -0.0 Z M 480.0 1080.0 " fill="#011202"></path><g><clipPath id="clip-44"><path d="M 717.0 1080.0 L 2157.0 1080.0 L 2157.0 0.0 L 717.0 0.0 Z M 716.5 1080.0 "></path></clipPath><g clip-path="url(#clip-44)"><image xlink:href="../../49B0041F-D2B6-45AE-B257-4A439451C92F/assets/CCCCA27B926DD6F3F67FACF012D9245A.jpeg" width="1229.00" height="768.00" transform="matrix(1.41, 0.00, -0.00, -1.41, 573.0, 1080.0)"></image></g></g><g opacity="0.75"><g><clipPath id="clip-45"><path d="M 479.0 0.0 L 962.0 0.0 L 962.0 1080.0 L 479.0 1080.0 Z M 479.0 0.0 "></path></clipPath><g clip-path="url(#clip-45)"><path d="M 480.0 1080.0 L 960.0 1080.0 L 960.0 -0.0 L 480.0 -0.0 Z M 480.0 1080.0 " fill="#FEFFFF"></path></g></g></g><text xml:space="preserve" font-family="BebasNeueBold" font-weight="bold" font-size="90.0" fill="#6FBF40" transform="matrix(1.00, 0.00, -0.00, -1.00, 207.1, 487.8)">q</text><text xml:space="preserve" font-family="BebasNeueBold" font-weight="bold" font-size="90.0" fill="#6FBF40" transform="matrix(1.00, 0.00, -0.00, -1.00, 242.8, 487.8)">u</text><text xml:space="preserve" font-family="BebasNeueBold" font-weight="bold" font-size="90.0" fill="#6FBF40" transform="matrix(1.00, 0.00, -0.00, -1.00, 278.6, 487.8)">a</text><text xml:space="preserve" font-family="BebasNeueBold" font-weight="bold" font-size="90.0" fill="#6FBF40" transform="matrix(1.00, 0.00, -0.00, -1.00, 315.2, 487.8)">n</text><text xml:space="preserve" font-family="BebasNeueBold" font-weight="bold" font-size="90.0" fill="#6FBF40" transform="matrix(1.00, 0.00, -0.00, -1.00, 353.6, 487.8)">d</text><text xml:space="preserve" font-family="BebasNeueBold" font-weight="bold" font-size="90.0" fill="#6FBF40" transform="matrix(1.00, 0.00, -0.00, -1.00, 390.4, 487.8)">o</text><path d="M 1775.0 1030.0 L 1875.0 1030.0 L 1875.0 961.0 L 1775.0 961.0 Z M 1775.0 1030.0 " fill="#52575F"></path><g><clipPath id="clip-46"><path d="M 1766.5 952.5 L 1883.5 952.5 L 1883.5 1038.5 L 1766.5 1038.5 Z M 1766.5 952.5 "></path></clipPath><g clip-path="url(#clip-46)"><text xml:space="preserve" font-family="BebasNeueBold" font-weight="bold" font-size="50.0" fill="#FEFFFF" transform="matrix(1.00, 0.00, -0.00, -1.00, 1815.0, 978.0)"> </text><text xml:space="preserve" font-family="BebasNeueBold" font-weight="bold" font-size="50.0" fill="#FEFFFF" transform="matrix(1.00, 0.00, -0.00, -1.00, 1815.0, 978.0)">5</text></g></g><text xml:space="preserve" font-family="SourceSansPro-Regular" font-size="28.0" fill="#000000" transform="matrix(1.00, 0.00, -0.00, -1.00, 556.0, 754.0)">S</text><text xml:space="preserve" font-family="SourceSansPro-Regular" font-size="28.0" fill="#000000" transform="matrix(1.00, 0.00, -0.00, -1.00, 571.0, 754.0)">e</text><text xml:space="preserve" font-family="SourceSansPro-Regular" font-size="28.0" fill="#000000" transform="matrix(1.00, 0.00, -0.00, -1.00, 584.8, 754.0)">u</text><text xml:space="preserve" font-family="SourceSansPro-Regular" font-size="28.0" fill="#000000" transform="matrix(1.00, 0.00, -0.00, -1.00, 600.1, 754.0)"> </text><text xml:space="preserve" font-family="SourceSansPro-Regular" font-size="28.0" fill="#000000" transform="matrix(1.00, 0.00, -0.00, -1.00, 605.7, 754.0)">p</text><text xml:space="preserve" font-family="SourceSansPro-Regular" font-size="28.0" fill="#000000" transform="matrix(1.00, 0.00, -0.00, -1.00, 621.2, 754.0)">r</text><text xml:space="preserve" font-family="SourceSansPro-Regular" font-size="28.0" fill="#000000" transform="matrix(1.00, 0.00, -0.00, -1.00, 630.6, 754.0)">o</text><text xml:space="preserve" font-family="SourceSansPro-Regular" font-size="28.0" fill="#000000" transform="matrix(1.00, 0.00, -0.00, -1.00, 645.8, 754.0)">d</text><text xml:space="preserve" font-family="SourceSansPro-Regular" font-size="28.0" fill="#000000" transform="matrix(1.00, 0.00, -0.00, -1.00, 661.4, 754.0)">u</text><text xml:space="preserve" font-family="SourceSansPro-Regular" font-size="28.0" fill="#000000" transform="matrix(1.00, 0.00, -0.00, -1.00, 676.6, 754.0)">t</text><text xml:space="preserve" font-family="SourceSansPro-Regular" font-size="28.0" fill="#000000" transform="matrix(1.00, 0.00, -0.00, -1.00, 685.7, 754.0)">o</text><text xml:space="preserve" font-family="SourceSansPro-Regular" font-size="28.0" fill="#000000" transform="matrix(1.00, 0.00, -0.00, -1.00, 700.8, 754.0)"> </text><text xml:space="preserve" font-family="SourceSansPro-Regular" font-size="28.0" fill="#000000" transform="matrix(1.00, 0.00, -0.00, -1.00, 706.4, 754.0)">p</text><text xml:space="preserve" font-family="SourceSansPro-Regular" font-size="28.0" fill="#000000" transform="matrix(1.00, 0.00, -0.00, -1.00, 722.0, 754.0)">r</text><text xml:space="preserve" font-family="SourceSansPro-Regular" font-size="28.0" fill="#000000" transform="matrix(1.00, 0.00, -0.00, -1.00, 731.4, 754.0)">e</text><text xml:space="preserve" font-family="SourceSansPro-Regular" font-size="28.0" fill="#000000" transform="matrix(1.00, 0.00, -0.00, -1.00, 745.3, 754.0)">c</text><text xml:space="preserve" font-family="SourceSansPro-Regular" font-size="28.0" fill="#000000" transform="matrix(1.00, 0.00, -0.00, -1.00, 758.1, 754.0)">i</text><text xml:space="preserve" font-family="SourceSansPro-Regular" font-size="28.0" fill="#000000" transform="matrix(1.00, 0.00, -0.00, -1.00, 765.0, 754.0)">s</text><text xml:space="preserve" font-family="SourceSansPro-Regular" font-size="28.0" fill="#000000" transform="matrix(1.00, 0.00, -0.00, -1.00, 776.7, 754.0)">a</text><text xml:space="preserve" font-family="SourceSansPro-Regular" font-size="28.0" fill="#000000" transform="matrix(1.00, 0.00, -0.00, -1.00, 790.8, 754.0)"> </text><text xml:space="preserve" font-family="SourceSansPro-Regular" font-size="28.0" fill="#000000" transform="matrix(1.00, 0.00, -0.00, -1.00, 796.4, 754.0)">d</text><text xml:space="preserve" font-family="SourceSansPro-Regular" font-size="28.0" fill="#000000" transform="matrix(1.00, 0.00, -0.00, -1.00, 811.9, 754.0)">e</text><text xml:space="preserve" font-family="SourceSansPro-Regular" font-size="28.0" fill="#000000" transform="matrix(1.00, 0.00, -0.00, -1.00, 825.8, 754.0)"> </text><text xml:space="preserve" font-family="SourceSansPro-Regular" font-size="28.0" fill="#000000" transform="matrix(1.00, 0.00, -0.00, -1.00, 831.4, 754.0)">u</text><text xml:space="preserve" font-family="SourceSansPro-Regular" font-size="28.0" fill="#000000" transform="matrix(1.00, 0.00, -0.00, -1.00, 846.7, 754.0)">m</text><text xml:space="preserve" font-family="SourceSansPro-Regular" font-size="28.0" fill="#000000" transform="matrix(1.00, 0.00, -0.00, -1.00, 869.9, 754.0)">a</text><text xml:space="preserve" font-family="SourceSansPro-Regular" font-size="28.0" fill="#000000" transform="matrix(1.00, 0.00, -0.00, -1.00, 884.0, 754.0)"> </text><text xml:space="preserve" font-family="SourceSansPro-Regular" font-size="28.0" fill="#000000" transform="matrix(1.00, 0.00, -0.00, -1.00, 540.0, 718.0)">a</text><text xml:space="preserve" font-family="SourceSansPro-Regular" font-size="28.0" fill="#000000" transform="matrix(1.00, 0.00, -0.00, -1.00, 554.1, 718.0)">p</text><text xml:space="preserve" font-family="SourceSansPro-Regular" font-size="28.0" fill="#000000" transform="matrix(1.00, 0.00, -0.00, -1.00, 569.7, 718.0)">l</text><text xml:space="preserve" font-family="SourceSansPro-Regular" font-size="28.0" fill="#000000" transform="matrix(1.00, 0.00, -0.00, -1.00, 576.8, 718.0)">i</text><text xml:space="preserve" font-family="SourceSansPro-Regular" font-size="28.0" fill="#000000" transform="matrix(1.00, 0.00, -0.00, -1.00, 583.7, 718.0)">c</text><text xml:space="preserve" font-family="SourceSansPro-Regular" font-size="28.0" fill="#000000" transform="matrix(1.00, 0.00, -0.00, -1.00, 596.2, 718.0)">a</text><text xml:space="preserve" font-family="SourceSansPro-Regular" font-size="28.0" fill="#000000" transform="matrix(1.00, 0.00, -0.00, -1.00, 610.3, 718.0)">ç</text><text xml:space="preserve" font-family="SourceSansPro-Regular" font-size="28.0" fill="#000000" transform="matrix(1.00, 0.00, -0.00, -1.00, 622.8, 718.0)">ã</text><text xml:space="preserve" font-family="SourceSansPro-Regular" font-size="28.0" fill="#000000" transform="matrix(1.00, 0.00, -0.00, -1.00, 636.9, 718.0)">o</text><text xml:space="preserve" font-family="SourceSansPro-Regular" font-size="28.0" fill="#000000" transform="matrix(1.00, 0.00, -0.00, -1.00, 652.1, 718.0)"> </text><text xml:space="preserve" font-family="SourceSansPro-Regular" font-size="28.0" fill="#000000" transform="matrix(1.00, 0.00, -0.00, -1.00, 657.7, 718.0)">c</text><text xml:space="preserve" font-family="SourceSansPro-Regular" font-size="28.0" fill="#000000" transform="matrix(1.00, 0.00, -0.00, -1.00, 669.8, 718.0)">o</text><text xml:space="preserve" font-family="SourceSansPro-Regular" font-size="28.0" fill="#000000" transform="matrix(1.00, 0.00, -0.00, -1.00, 685.0, 718.0)">m</text><text xml:space="preserve" font-family="SourceSansPro-Regular" font-size="28.0" fill="#000000" transform="matrix(1.00, 0.00, -0.00, -1.00, 708.2, 718.0)">p</text><text xml:space="preserve" font-family="SourceSansPro-Regular" font-size="28.0" fill="#000000" transform="matrix(1.00, 0.00, -0.00, -1.00, 723.8, 718.0)">l</text><text xml:space="preserve" font-family="SourceSansPro-Regular" font-size="28.0" fill="#000000" transform="matrix(1.00, 0.00, -0.00, -1.00, 730.9, 718.0)">e</text><text xml:space="preserve" font-family="SourceSansPro-Regular" font-size="28.0" fill="#000000" transform="matrix(1.00, 0.00, -0.00, -1.00, 744.6, 718.0)">x</text><text xml:space="preserve" font-family="SourceSansPro-Regular" font-size="28.0" fill="#000000" transform="matrix(1.00, 0.00, -0.00, -1.00, 756.8, 718.0)">a</text><text xml:space="preserve" font-family="SourceSansPro-Regular" font-size="28.0" fill="#000000" transform="matrix(1.00, 0.00, -0.00, -1.00, 770.9, 718.0)"> </text><text xml:space="preserve" font-family="SourceSansPro-Regular" font-size="28.0" fill="#000000" transform="matrix(1.00, 0.00, -0.00, -1.00, 776.5, 718.0)">e</text><text xml:space="preserve" font-family="SourceSansPro-Regular" font-size="28.0" fill="#000000" transform="matrix(1.00, 0.00, -0.00, -1.00, 790.4, 718.0)"> </text><text xml:space="preserve" font-family="SourceSansPro-Regular" font-size="28.0" fill="#000000" transform="matrix(1.00, 0.00, -0.00, -1.00, 796.0, 718.0)">q</text><text xml:space="preserve" font-family="SourceSansPro-Regular" font-size="28.0" fill="#000000" transform="matrix(1.00, 0.00, -0.00, -1.00, 811.5, 718.0)">u</text><text xml:space="preserve" font-family="SourceSansPro-Regular" font-size="28.0" fill="#000000" transform="matrix(1.00, 0.00, -0.00, -1.00, 826.8, 718.0)">e</text><text xml:space="preserve" font-family="SourceSansPro-Regular" font-size="28.0" fill="#000000" transform="matrix(1.00, 0.00, -0.00, -1.00, 840.7, 718.0)"> </text><text xml:space="preserve" font-family="SourceSansPro-Regular" font-size="28.0" fill="#000000" transform="matrix(1.00, 0.00, -0.00, -1.00, 846.3, 718.0)">d</text><text xml:space="preserve" font-family="SourceSansPro-Regular" font-size="28.0" fill="#000000" transform="matrix(1.00, 0.00, -0.00, -1.00, 861.8, 718.0)">u</text><text xml:space="preserve" font-family="SourceSansPro-Regular" font-size="28.0" fill="#000000" transform="matrix(1.00, 0.00, -0.00, -1.00, 877.0, 718.0)">r</text><text xml:space="preserve" font-family="SourceSansPro-Regular" font-size="28.0" fill="#000000" transform="matrix(1.00, 0.00, -0.00, -1.00, 886.5, 718.0)">e</text><text xml:space="preserve" font-family="SourceSansPro-Regular" font-size="28.0" fill="#000000" transform="matrix(1.00, 0.00, -0.00, -1.00, 900.4, 718.0)"> </text><text xml:space="preserve" font-family="SourceSansPro-Regular" font-size="28.0" fill="#000000" transform="matrix(1.00, 0.00, -0.00, -1.00, 627.0, 682.0)">p</text><text xml:space="preserve" font-family="SourceSansPro-Regular" font-size="28.0" fill="#000000" transform="matrix(1.00, 0.00, -0.00, -1.00, 642.5, 682.0)">o</text><text xml:space="preserve" font-family="SourceSansPro-Regular" font-size="28.0" fill="#000000" transform="matrix(1.00, 0.00, -0.00, -1.00, 657.7, 682.0)">r</text><text xml:space="preserve" font-family="SourceSansPro-Regular" font-size="28.0" fill="#000000" transform="matrix(1.00, 0.00, -0.00, -1.00, 667.4, 682.0)"> </text><text xml:space="preserve" font-family="SourceSansPro-Regular" font-size="28.0" fill="#000000" transform="matrix(1.00, 0.00, -0.00, -1.00, 673.0, 682.0)">v</text><text xml:space="preserve" font-family="SourceSansPro-Regular" font-size="28.0" fill="#000000" transform="matrix(1.00, 0.00, -0.00, -1.00, 685.5, 682.0)">á</text><text xml:space="preserve" font-family="SourceSansPro-Regular" font-size="28.0" fill="#000000" transform="matrix(1.00, 0.00, -0.00, -1.00, 699.7, 682.0)">r</text><text xml:space="preserve" font-family="SourceSansPro-Regular" font-size="28.0" fill="#000000" transform="matrix(1.00, 0.00, -0.00, -1.00, 709.4, 682.0)">i</text><text xml:space="preserve" font-family="SourceSansPro-Regular" font-size="28.0" fill="#000000" transform="matrix(1.00, 0.00, -0.00, -1.00, 716.3, 682.0)">o</text><text xml:space="preserve" font-family="SourceSansPro-Regular" font-size="28.0" fill="#000000" transform="matrix(1.00, 0.00, -0.00, -1.00, 731.4, 682.0)">s</text><text xml:space="preserve" font-family="SourceSansPro-Regular" font-size="28.0" fill="#000000" transform="matrix(1.00, 0.00, -0.00, -1.00, 743.2, 682.0)"> </text><text xml:space="preserve" font-family="SourceSansPro-Regular" font-size="28.0" fill="#000000" transform="matrix(1.00, 0.00, -0.00, -1.00, 748.8, 682.0)">a</text><text xml:space="preserve" font-family="SourceSansPro-Regular" font-size="28.0" fill="#000000" transform="matrix(1.00, 0.00, -0.00, -1.00, 762.9, 682.0)">n</text><text xml:space="preserve" font-family="SourceSansPro-Regular" font-size="28.0" fill="#000000" transform="matrix(1.00, 0.00, -0.00, -1.00, 778.2, 682.0)">o</text><text xml:space="preserve" font-family="SourceSansPro-Regular" font-size="28.0" fill="#000000" transform="matrix(1.00, 0.00, -0.00, -1.00, 793.4, 682.0)">s</text><text xml:space="preserve" font-family="SourceSansPro-Regular" font-size="28.0" fill="#000000" transform="matrix(1.00, 0.00, -0.00, -1.00, 805.1, 682.0)">.</text><text xml:space="preserve" font-family="SourceSansPro-Regular" font-size="28.0" fill="#000000" transform="matrix(1.00, 0.00, -0.00, -1.00, 547.0, 453.0)">V</text><text xml:space="preserve" font-family="SourceSansPro-Regular" font-size="28.0" fill="#000000" transform="matrix(1.00, 0.00, -0.00, -1.00, 561.0, 453.0)">o</text><text xml:space="preserve" font-family="SourceSansPro-Regular" font-size="28.0" fill="#000000" transform="matrix(1.00, 0.00, -0.00, -1.00, 576.2, 453.0)">c</text><text xml:space="preserve" font-family="SourceSansPro-Regular" font-size="28.0" fill="#000000" transform="matrix(1.00, 0.00, -0.00, -1.00, 588.4, 453.0)">ê</text><text xml:space="preserve" font-family="SourceSansPro-Regular" font-size="28.0" fill="#000000" transform="matrix(1.00, 0.00, -0.00, -1.00, 602.2, 453.0)"> </text><text xml:space="preserve" font-family="SourceSansPro-Regular" font-size="28.0" fill="#000000" transform="matrix(1.00, 0.00, -0.00, -1.00, 607.8, 453.0)">p</text><text xml:space="preserve" font-family="SourceSansPro-Regular" font-size="28.0" fill="#000000" transform="matrix(1.00, 0.00, -0.00, -1.00, 623.4, 453.0)">r</text><text xml:space="preserve" font-family="SourceSansPro-Regular" font-size="28.0" fill="#000000" transform="matrix(1.00, 0.00, -0.00, -1.00, 632.8, 453.0)">e</text><text xml:space="preserve" font-family="SourceSansPro-Regular" font-size="28.0" fill="#000000" transform="matrix(1.00, 0.00, -0.00, -1.00, 646.7, 453.0)">c</text><text xml:space="preserve" font-family="SourceSansPro-Regular" font-size="28.0" fill="#000000" transform="matrix(1.00, 0.00, -0.00, -1.00, 659.5, 453.0)">i</text><text xml:space="preserve" font-family="SourceSansPro-Regular" font-size="28.0" fill="#000000" transform="matrix(1.00, 0.00, -0.00, -1.00, 666.4, 453.0)">s</text><text xml:space="preserve" font-family="SourceSansPro-Regular" font-size="28.0" fill="#000000" transform="matrix(1.00, 0.00, -0.00, -1.00, 678.1, 453.0)">a</text><text xml:space="preserve" font-family="SourceSansPro-Regular" font-size="28.0" fill="#000000" transform="matrix(1.00, 0.00, -0.00, -1.00, 692.2, 453.0)"> </text><text xml:space="preserve" font-family="SourceSansPro-Regular" font-size="28.0" fill="#000000" transform="matrix(1.00, 0.00, -0.00, -1.00, 697.8, 453.0)">t</text><text xml:space="preserve" font-family="SourceSansPro-Regular" font-size="28.0" fill="#000000" transform="matrix(1.00, 0.00, -0.00, -1.00, 706.9, 453.0)">e</text><text xml:space="preserve" font-family="SourceSansPro-Regular" font-size="28.0" fill="#000000" transform="matrix(1.00, 0.00, -0.00, -1.00, 720.8, 453.0)">r</text><text xml:space="preserve" font-family="SourceSansPro-Regular" font-size="28.0" fill="#000000" transform="matrix(1.00, 0.00, -0.00, -1.00, 730.5, 453.0)"> </text><text xml:space="preserve" font-family="SourceSansPro-Regular" font-size="28.0" fill="#000000" transform="matrix(1.00, 0.00, -0.00, -1.00, 736.1, 453.0)">c</text><text xml:space="preserve" font-family="SourceSansPro-Regular" font-size="28.0" fill="#000000" transform="matrix(1.00, 0.00, -0.00, -1.00, 748.3, 453.0)">o</text><text xml:space="preserve" font-family="SourceSansPro-Regular" font-size="28.0" fill="#000000" transform="matrix(1.00, 0.00, -0.00, -1.00, 763.4, 453.0)">n</text><text xml:space="preserve" font-family="SourceSansPro-Regular" font-size="28.0" fill="#000000" transform="matrix(1.00, 0.00, -0.00, -1.00, 778.8, 453.0)">t</text><text xml:space="preserve" font-family="SourceSansPro-Regular" font-size="28.0" fill="#000000" transform="matrix(1.00, 0.00, -0.00, -1.00, 788.2, 453.0)">r</text><text xml:space="preserve" font-family="SourceSansPro-Regular" font-size="28.0" fill="#000000" transform="matrix(1.00, 0.00, -0.00, -1.00, 797.7, 453.0)">o</text><text xml:space="preserve" font-family="SourceSansPro-Regular" font-size="28.0" fill="#000000" transform="matrix(1.00, 0.00, -0.00, -1.00, 812.8, 453.0)">l</text><text xml:space="preserve" font-family="SourceSansPro-Regular" font-size="28.0" fill="#000000" transform="matrix(1.00, 0.00, -0.00, -1.00, 820.0, 453.0)">e</text><text xml:space="preserve" font-family="SourceSansPro-Regular" font-size="28.0" fill="#000000" transform="matrix(1.00, 0.00, -0.00, -1.00, 833.9, 453.0)"> </text><text xml:space="preserve" font-family="SourceSansPro-Regular" font-size="28.0" fill="#000000" transform="matrix(1.00, 0.00, -0.00, -1.00, 839.5, 453.0)">t</text><text xml:space="preserve" font-family="SourceSansPro-Regular" font-size="28.0" fill="#000000" transform="matrix(1.00, 0.00, -0.00, -1.00, 848.5, 453.0)">o</text><text xml:space="preserve" font-family="SourceSansPro-Regular" font-size="28.0" fill="#000000" transform="matrix(1.00, 0.00, -0.00, -1.00, 863.2, 453.0)">t</text><text xml:space="preserve" font-family="SourceSansPro-Regular" font-size="28.0" fill="#000000" transform="matrix(1.00, 0.00, -0.00, -1.00, 872.1, 453.0)">a</text><text xml:space="preserve" font-family="SourceSansPro-Regular" font-size="28.0" fill="#000000" transform="matrix(1.00, 0.00, -0.00, -1.00, 886.2, 453.0)">l</text><text xml:space="preserve" font-family="SourceSansPro-Regular" font-size="28.0" fill="#000000" transform="matrix(1.00, 0.00, -0.00, -1.00, 893.4, 453.0)"> </text><text xml:space="preserve" font-family="SourceSansPro-Regular" font-size="28.0" fill="#000000" transform="matrix(1.00, 0.00, -0.00, -1.00, 538.0, 417.0)">d</text><text xml:space="preserve" font-family="SourceSansPro-Regular" font-size="28.0" fill="#000000" transform="matrix(1.00, 0.00, -0.00, -1.00, 553.5, 417.0)">e</text><text xml:space="preserve" font-family="SourceSansPro-Regular" font-size="28.0" fill="#000000" transform="matrix(1.00, 0.00, -0.00, -1.00, 567.4, 417.0)"> </text><text xml:space="preserve" font-family="SourceSansPro-Regular" font-size="28.0" fill="#000000" transform="matrix(1.00, 0.00, -0.00, -1.00, 573.0, 417.0)">t</text><text xml:space="preserve" font-family="SourceSansPro-Regular" font-size="28.0" fill="#000000" transform="matrix(1.00, 0.00, -0.00, -1.00, 582.1, 417.0)">o</text><text xml:space="preserve" font-family="SourceSansPro-Regular" font-size="28.0" fill="#000000" transform="matrix(1.00, 0.00, -0.00, -1.00, 597.3, 417.0)">d</text><text xml:space="preserve" font-family="SourceSansPro-Regular" font-size="28.0" fill="#000000" transform="matrix(1.00, 0.00, -0.00, -1.00, 612.8, 417.0)">a</text><text xml:space="preserve" font-family="SourceSansPro-Regular" font-size="28.0" fill="#000000" transform="matrix(1.00, 0.00, -0.00, -1.00, 626.9, 417.0)"> </text><text xml:space="preserve" font-family="SourceSansPro-Regular" font-size="28.0" fill="#000000" transform="matrix(1.00, 0.00, -0.00, -1.00, 632.5, 417.0)">a</text><text xml:space="preserve" font-family="SourceSansPro-Regular" font-size="28.0" fill="#000000" transform="matrix(1.00, 0.00, -0.00, -1.00, 646.6, 417.0)"> </text><text xml:space="preserve" font-family="SourceSansPro-Regular" font-size="28.0" fill="#000000" transform="matrix(1.00, 0.00, -0.00, -1.00, 652.2, 417.0)">e</text><text xml:space="preserve" font-family="SourceSansPro-Regular" font-size="28.0" fill="#000000" transform="matrix(1.00, 0.00, -0.00, -1.00, 666.1, 417.0)">s</text><text xml:space="preserve" font-family="SourceSansPro-Regular" font-size="28.0" fill="#000000" transform="matrix(1.00, 0.00, -0.00, -1.00, 677.3, 417.0)">t</text><text xml:space="preserve" font-family="SourceSansPro-Regular" font-size="28.0" fill="#000000" transform="matrix(1.00, 0.00, -0.00, -1.00, 686.8, 417.0)">r</text><text xml:space="preserve" font-family="SourceSansPro-Regular" font-size="28.0" fill="#000000" transform="matrix(1.00, 0.00, -0.00, -1.00, 696.5, 417.0)">u</text><text xml:space="preserve" font-family="SourceSansPro-Regular" font-size="28.0" fill="#000000" transform="matrix(1.00, 0.00, -0.00, -1.00, 711.7, 417.0)">t</text><text xml:space="preserve" font-family="SourceSansPro-Regular" font-size="28.0" fill="#000000" transform="matrix(1.00, 0.00, -0.00, -1.00, 721.2, 417.0)">u</text><text xml:space="preserve" font-family="SourceSansPro-Regular" font-size="28.0" fill="#000000" transform="matrix(1.00, 0.00, -0.00, -1.00, 736.4, 417.0)">r</text><text xml:space="preserve" font-family="SourceSansPro-Regular" font-size="28.0" fill="#000000" transform="matrix(1.00, 0.00, -0.00, -1.00, 745.5, 417.0)">a</text><text xml:space="preserve" font-family="SourceSansPro-Regular" font-size="28.0" fill="#000000" transform="matrix(1.00, 0.00, -0.00, -1.00, 759.6, 417.0)"> </text><text xml:space="preserve" font-family="SourceSansPro-Regular" font-size="28.0" fill="#000000" transform="matrix(1.00, 0.00, -0.00, -1.00, 765.2, 417.0)">d</text><text xml:space="preserve" font-family="SourceSansPro-Regular" font-size="28.0" fill="#000000" transform="matrix(1.00, 0.00, -0.00, -1.00, 780.7, 417.0)">e</text><text xml:space="preserve" font-family="SourceSansPro-Regular" font-size="28.0" fill="#000000" transform="matrix(1.00, 0.00, -0.00, -1.00, 794.6, 417.0)"> </text><text xml:space="preserve" font-family="SourceSansPro-Regular" font-size="28.0" fill="#000000" transform="matrix(1.00, 0.00, -0.00, -1.00, 800.2, 417.0)">a</text><text xml:space="preserve" font-family="SourceSansPro-Regular" font-size="28.0" fill="#000000" transform="matrix(1.00, 0.00, -0.00, -1.00, 814.3, 417.0)">r</text><text xml:space="preserve" font-family="SourceSansPro-Regular" font-size="28.0" fill="#000000" transform="matrix(1.00, 0.00, -0.00, -1.00, 823.7, 417.0)">q</text><text xml:space="preserve" font-family="SourceSansPro-Regular" font-size="28.0" fill="#000000" transform="matrix(1.00, 0.00, -0.00, -1.00, 839.3, 417.0)">u</text><text xml:space="preserve" font-family="SourceSansPro-Regular" font-size="28.0" fill="#000000" transform="matrix(1.00, 0.00, -0.00, -1.00, 854.5, 417.0)">i</text><text xml:space="preserve" font-family="SourceSansPro-Regular" font-size="28.0" fill="#000000" transform="matrix(1.00, 0.00, -0.00, -1.00, 861.4, 417.0)">v</text><text xml:space="preserve" font-family="SourceSansPro-Regular" font-size="28.0" fill="#000000" transform="matrix(1.00, 0.00, -0.00, -1.00, 874.4, 417.0)">o</text><text xml:space="preserve" font-family="SourceSansPro-Regular" font-size="28.0" fill="#000000" transform="matrix(1.00, 0.00, -0.00, -1.00, 889.5, 417.0)">s</text><text xml:space="preserve" font-family="SourceSansPro-Regular" font-size="28.0" fill="#000000" transform="matrix(1.00, 0.00, -0.00, -1.00, 901.3, 417.0)"> </text><text xml:space="preserve" font-family="SourceSansPro-Regular" font-size="28.0" fill="#000000" transform="matrix(1.00, 0.00, -0.00, -1.00, 620.0, 381.0)">d</text><text xml:space="preserve" font-family="SourceSansPro-Regular" font-size="28.0" fill="#000000" transform="matrix(1.00, 0.00, -0.00, -1.00, 635.5, 381.0)">a</text><text xml:space="preserve" font-family="SourceSansPro-Regular" font-size="28.0" fill="#000000" transform="matrix(1.00, 0.00, -0.00, -1.00, 649.7, 381.0)"> </text><text xml:space="preserve" font-family="SourceSansPro-Regular" font-size="28.0" fill="#000000" transform="matrix(1.00, 0.00, -0.00, -1.00, 655.3, 381.0)">s</text><text xml:space="preserve" font-family="SourceSansPro-Regular" font-size="28.0" fill="#000000" transform="matrix(1.00, 0.00, -0.00, -1.00, 667.0, 381.0)">u</text><text xml:space="preserve" font-family="SourceSansPro-Regular" font-size="28.0" fill="#000000" transform="matrix(1.00, 0.00, -0.00, -1.00, 682.2, 381.0)">a</text><text xml:space="preserve" font-family="SourceSansPro-Regular" font-size="28.0" fill="#000000" transform="matrix(1.00, 0.00, -0.00, -1.00, 696.3, 381.0)"> </text><text xml:space="preserve" font-family="SourceSansPro-Regular" font-size="28.0" fill="#000000" transform="matrix(1.00, 0.00, -0.00, -1.00, 701.9, 381.0)">a</text><text xml:space="preserve" font-family="SourceSansPro-Regular" font-size="28.0" fill="#000000" transform="matrix(1.00, 0.00, -0.00, -1.00, 716.0, 381.0)">p</text><text xml:space="preserve" font-family="SourceSansPro-Regular" font-size="28.0" fill="#000000" transform="matrix(1.00, 0.00, -0.00, -1.00, 731.6, 381.0)">l</text><text xml:space="preserve" font-family="SourceSansPro-Regular" font-size="28.0" fill="#000000" transform="matrix(1.00, 0.00, -0.00, -1.00, 738.7, 381.0)">i</text><text xml:space="preserve" font-family="SourceSansPro-Regular" font-size="28.0" fill="#000000" transform="matrix(1.00, 0.00, -0.00, -1.00, 745.6, 381.0)">c</text><text xml:space="preserve" font-family="SourceSansPro-Regular" font-size="28.0" fill="#000000" transform="matrix(1.00, 0.00, -0.00, -1.00, 758.1, 381.0)">a</text><text xml:space="preserve" font-family="SourceSansPro-Regular" font-size="28.0" fill="#000000" transform="matrix(1.00, 0.00, -0.00, -1.00, 772.2, 381.0)">ç</text><text xml:space="preserve" font-family="SourceSansPro-Regular" font-size="28.0" fill="#000000" transform="matrix(1.00, 0.00, -0.00, -1.00, 784.7, 381.0)">ã</text><text xml:space="preserve" font-family="SourceSansPro-Regular" font-size="28.0" fill="#000000" transform="matrix(1.00, 0.00, -0.00, -1.00, 798.8, 381.0)">o</text><text xml:space="preserve" font-family="SourceSansPro-Regular" font-size="28.0" fill="#000000" transform="matrix(1.00, 0.00, -0.00, -1.00, 813.7, 381.0)">.</text><text xml:space="preserve" font-family="SourceSansPro-Regular" font-size="28.0" fill="#000000" transform="matrix(1.00, 0.00, -0.00, -1.00, 556.0, 151.0)">A</text><text xml:space="preserve" font-family="SourceSansPro-Regular" font-size="28.0" fill="#000000" transform="matrix(1.00, 0.00, -0.00, -1.00, 571.9, 151.0)">s</text><text xml:space="preserve" font-family="SourceSansPro-Regular" font-size="28.0" fill="#000000" transform="matrix(1.00, 0.00, -0.00, -1.00, 583.6, 151.0)"> </text><text xml:space="preserve" font-family="SourceSansPro-Regular" font-size="28.0" fill="#000000" transform="matrix(1.00, 0.00, -0.00, -1.00, 589.2, 151.0)">s</text><text xml:space="preserve" font-family="SourceSansPro-Regular" font-size="28.0" fill="#000000" transform="matrix(1.00, 0.00, -0.00, -1.00, 600.9, 151.0)">o</text><text xml:space="preserve" font-family="SourceSansPro-Regular" font-size="28.0" fill="#000000" transform="matrix(1.00, 0.00, -0.00, -1.00, 616.1, 151.0)">l</text><text xml:space="preserve" font-family="SourceSansPro-Regular" font-size="28.0" fill="#000000" transform="matrix(1.00, 0.00, -0.00, -1.00, 623.3, 151.0)">u</text><text xml:space="preserve" font-family="SourceSansPro-Regular" font-size="28.0" fill="#000000" transform="matrix(1.00, 0.00, -0.00, -1.00, 638.5, 151.0)">ç</text><text xml:space="preserve" font-family="SourceSansPro-Regular" font-size="28.0" fill="#000000" transform="matrix(1.00, 0.00, -0.00, -1.00, 650.7, 151.0)">õ</text><text xml:space="preserve" font-family="SourceSansPro-Regular" font-size="28.0" fill="#000000" transform="matrix(1.00, 0.00, -0.00, -1.00, 665.8, 151.0)">e</text><text xml:space="preserve" font-family="SourceSansPro-Regular" font-size="28.0" fill="#000000" transform="matrix(1.00, 0.00, -0.00, -1.00, 679.7, 151.0)">s</text><text xml:space="preserve" font-family="SourceSansPro-Regular" font-size="28.0" fill="#000000" transform="matrix(1.00, 0.00, -0.00, -1.00, 691.5, 151.0)"> </text><text xml:space="preserve" font-family="SourceSansPro-Regular" font-size="28.0" fill="#000000" transform="matrix(1.00, 0.00, -0.00, -1.00, 697.1, 151.0)">a</text><text xml:space="preserve" font-family="SourceSansPro-Regular" font-size="28.0" fill="#000000" transform="matrix(1.00, 0.00, -0.00, -1.00, 710.8, 151.0)">t</text><text xml:space="preserve" font-family="SourceSansPro-Regular" font-size="28.0" fill="#000000" transform="matrix(1.00, 0.00, -0.00, -1.00, 720.2, 151.0)">u</text><text xml:space="preserve" font-family="SourceSansPro-Regular" font-size="28.0" fill="#000000" transform="matrix(1.00, 0.00, -0.00, -1.00, 735.5, 151.0)">a</text><text xml:space="preserve" font-family="SourceSansPro-Regular" font-size="28.0" fill="#000000" transform="matrix(1.00, 0.00, -0.00, -1.00, 749.6, 151.0)">i</text><text xml:space="preserve" font-family="SourceSansPro-Regular" font-size="28.0" fill="#000000" transform="matrix(1.00, 0.00, -0.00, -1.00, 756.5, 151.0)">s</text><text xml:space="preserve" font-family="SourceSansPro-Regular" font-size="28.0" fill="#000000" transform="matrix(1.00, 0.00, -0.00, -1.00, 768.2, 151.0)"> </text><text xml:space="preserve" font-family="SourceSansPro-Regular" font-size="28.0" fill="#000000" transform="matrix(1.00, 0.00, -0.00, -1.00, 773.8, 151.0)">l</text><text xml:space="preserve" font-family="SourceSansPro-Regular" font-size="28.0" fill="#000000" transform="matrix(1.00, 0.00, -0.00, -1.00, 781.0, 151.0)">i</text><text xml:space="preserve" font-family="SourceSansPro-Regular" font-size="28.0" fill="#000000" transform="matrix(1.00, 0.00, -0.00, -1.00, 787.8, 151.0)">m</text><text xml:space="preserve" font-family="SourceSansPro-Regular" font-size="28.0" fill="#000000" transform="matrix(1.00, 0.00, -0.00, -1.00, 811.1, 151.0)">i</text><text xml:space="preserve" font-family="SourceSansPro-Regular" font-size="28.0" fill="#000000" transform="matrix(1.00, 0.00, -0.00, -1.00, 817.9, 151.0)">t</text><text xml:space="preserve" font-family="SourceSansPro-Regular" font-size="28.0" fill="#000000" transform="matrix(1.00, 0.00, -0.00, -1.00, 826.8, 151.0)">a</text><text xml:space="preserve" font-family="SourceSansPro-Regular" font-size="28.0" fill="#000000" transform="matrix(1.00, 0.00, -0.00, -1.00, 840.9, 151.0)">m</text><text xml:space="preserve" font-family="SourceSansPro-Regular" font-size="28.0" fill="#000000" transform="matrix(1.00, 0.00, -0.00, -1.00, 864.1, 151.0)"> </text><text xml:space="preserve" font-family="SourceSansPro-Regular" font-size="28.0" fill="#000000" transform="matrix(1.00, 0.00, -0.00, -1.00, 869.7, 151.0)">o</text><text xml:space="preserve" font-family="SourceSansPro-Regular" font-size="28.0" fill="#000000" transform="matrix(1.00, 0.00, -0.00, -1.00, 884.9, 151.0)"> </text><text xml:space="preserve" font-family="SourceSansPro-Regular" font-size="28.0" fill="#000000" transform="matrix(1.00, 0.00, -0.00, -1.00, 544.0, 115.0)">c</text><text xml:space="preserve" font-family="SourceSansPro-Regular" font-size="28.0" fill="#000000" transform="matrix(1.00, 0.00, -0.00, -1.00, 556.8, 115.0)">r</text><text xml:space="preserve" font-family="SourceSansPro-Regular" font-size="28.0" fill="#000000" transform="matrix(1.00, 0.00, -0.00, -1.00, 566.2, 115.0)">e</text><text xml:space="preserve" font-family="SourceSansPro-Regular" font-size="28.0" fill="#000000" transform="matrix(1.00, 0.00, -0.00, -1.00, 580.1, 115.0)">s</text><text xml:space="preserve" font-family="SourceSansPro-Regular" font-size="28.0" fill="#000000" transform="matrix(1.00, 0.00, -0.00, -1.00, 591.8, 115.0)">c</text><text xml:space="preserve" font-family="SourceSansPro-Regular" font-size="28.0" fill="#000000" transform="matrix(1.00, 0.00, -0.00, -1.00, 604.6, 115.0)">i</text><text xml:space="preserve" font-family="SourceSansPro-Regular" font-size="28.0" fill="#000000" transform="matrix(1.00, 0.00, -0.00, -1.00, 611.5, 115.0)">m</text><text xml:space="preserve" font-family="SourceSansPro-Regular" font-size="28.0" fill="#000000" transform="matrix(1.00, 0.00, -0.00, -1.00, 634.7, 115.0)">e</text><text xml:space="preserve" font-family="SourceSansPro-Regular" font-size="28.0" fill="#000000" transform="matrix(1.00, 0.00, -0.00, -1.00, 648.6, 115.0)">n</text><text xml:space="preserve" font-family="SourceSansPro-Regular" font-size="28.0" fill="#000000" transform="matrix(1.00, 0.00, -0.00, -1.00, 663.9, 115.0)">t</text><text xml:space="preserve" font-family="SourceSansPro-Regular" font-size="28.0" fill="#000000" transform="matrix(1.00, 0.00, -0.00, -1.00, 673.0, 115.0)">o</text><text xml:space="preserve" font-family="SourceSansPro-Regular" font-size="28.0" fill="#000000" transform="matrix(1.00, 0.00, -0.00, -1.00, 688.1, 115.0)"> </text><text xml:space="preserve" font-family="SourceSansPro-Regular" font-size="28.0" fill="#000000" transform="matrix(1.00, 0.00, -0.00, -1.00, 693.7, 115.0)">e</text><text xml:space="preserve" font-family="SourceSansPro-Regular" font-size="28.0" fill="#000000" transform="matrix(1.00, 0.00, -0.00, -1.00, 707.6, 115.0)"> </text><text xml:space="preserve" font-family="SourceSansPro-Regular" font-size="28.0" fill="#000000" transform="matrix(1.00, 0.00, -0.00, -1.00, 713.2, 115.0)">m</text><text xml:space="preserve" font-family="SourceSansPro-Regular" font-size="28.0" fill="#000000" transform="matrix(1.00, 0.00, -0.00, -1.00, 736.4, 115.0)">a</text><text xml:space="preserve" font-family="SourceSansPro-Regular" font-size="28.0" fill="#000000" transform="matrix(1.00, 0.00, -0.00, -1.00, 750.6, 115.0)">n</text><text xml:space="preserve" font-family="SourceSansPro-Regular" font-size="28.0" fill="#000000" transform="matrix(1.00, 0.00, -0.00, -1.00, 765.9, 115.0)">u</text><text xml:space="preserve" font-family="SourceSansPro-Regular" font-size="28.0" fill="#000000" transform="matrix(1.00, 0.00, -0.00, -1.00, 781.1, 115.0)">t</text><text xml:space="preserve" font-family="SourceSansPro-Regular" font-size="28.0" fill="#000000" transform="matrix(1.00, 0.00, -0.00, -1.00, 790.2, 115.0)">e</text><text xml:space="preserve" font-family="SourceSansPro-Regular" font-size="28.0" fill="#000000" transform="matrix(1.00, 0.00, -0.00, -1.00, 804.1, 115.0)">n</text><text xml:space="preserve" font-family="SourceSansPro-Regular" font-size="28.0" fill="#000000" transform="matrix(1.00, 0.00, -0.00, -1.00, 819.4, 115.0)">ç</text><text xml:space="preserve" font-family="SourceSansPro-Regular" font-size="28.0" fill="#000000" transform="matrix(1.00, 0.00, -0.00, -1.00, 831.9, 115.0)">ã</text><text xml:space="preserve" font-family="SourceSansPro-Regular" font-size="28.0" fill="#000000" transform="matrix(1.00, 0.00, -0.00, -1.00, 846.0, 115.0)">o</text><text xml:space="preserve" font-family="SourceSansPro-Regular" font-size="28.0" fill="#000000" transform="matrix(1.00, 0.00, -0.00, -1.00, 861.2, 115.0)"> </text><text xml:space="preserve" font-family="SourceSansPro-Regular" font-size="28.0" fill="#000000" transform="matrix(1.00, 0.00, -0.00, -1.00, 866.8, 115.0)">d</text><text xml:space="preserve" font-family="SourceSansPro-Regular" font-size="28.0" fill="#000000" transform="matrix(1.00, 0.00, -0.00, -1.00, 882.3, 115.0)">a</text><text xml:space="preserve" font-family="SourceSansPro-Regular" font-size="28.0" fill="#000000" transform="matrix(1.00, 0.00, -0.00, -1.00, 896.4, 115.0)"> </text><text xml:space="preserve" font-family="SourceSansPro-Regular" font-size="28.0" fill="#000000" transform="matrix(1.00, 0.00, -0.00, -1.00, 637.0, 79.0)">s</text><text xml:space="preserve" font-family="SourceSansPro-Regular" font-size="28.0" fill="#000000" transform="matrix(1.00, 0.00, -0.00, -1.00, 648.7, 79.0)">u</text><text xml:space="preserve" font-family="SourceSansPro-Regular" font-size="28.0" fill="#000000" transform="matrix(1.00, 0.00, -0.00, -1.00, 664.0, 79.0)">a</text><text xml:space="preserve" font-family="SourceSansPro-Regular" font-size="28.0" fill="#000000" transform="matrix(1.00, 0.00, -0.00, -1.00, 678.1, 79.0)"> </text><text xml:space="preserve" font-family="SourceSansPro-Regular" font-size="28.0" fill="#000000" transform="matrix(1.00, 0.00, -0.00, -1.00, 683.7, 79.0)">a</text><text xml:space="preserve" font-family="SourceSansPro-Regular" font-size="28.0" fill="#000000" transform="matrix(1.00, 0.00, -0.00, -1.00, 697.8, 79.0)">p</text><text xml:space="preserve" font-family="SourceSansPro-Regular" font-size="28.0" fill="#000000" transform="matrix(1.00, 0.00, -0.00, -1.00, 713.3, 79.0)">l</text><text xml:space="preserve" font-family="SourceSansPro-Regular" font-size="28.0" fill="#000000" transform="matrix(1.00, 0.00, -0.00, -1.00, 720.5, 79.0)">i</text><text xml:space="preserve" font-family="SourceSansPro-Regular" font-size="28.0" fill="#000000" transform="matrix(1.00, 0.00, -0.00, -1.00, 727.4, 79.0)">c</text><text xml:space="preserve" font-family="SourceSansPro-Regular" font-size="28.0" fill="#000000" transform="matrix(1.00, 0.00, -0.00, -1.00, 739.8, 79.0)">a</text><text xml:space="preserve" font-family="SourceSansPro-Regular" font-size="28.0" fill="#000000" transform="matrix(1.00, 0.00, -0.00, -1.00, 754.0, 79.0)">ç</text><text xml:space="preserve" font-family="SourceSansPro-Regular" font-size="28.0" fill="#000000" transform="matrix(1.00, 0.00, -0.00, -1.00, 766.4, 79.0)">ã</text><text xml:space="preserve" font-family="SourceSansPro-Regular" font-size="28.0" fill="#000000" transform="matrix(1.00, 0.00, -0.00, -1.00, 780.6, 79.0)">o</text><text xml:space="preserve" font-family="SourceSansPro-Regular" font-size="28.0" fill="#000000" transform="matrix(1.00, 0.00, -0.00, -1.00, 795.5, 79.0)">.</text><path d="M 645.0 957.2 L 795.0 957.2 L 795.0 807.2 L 645.0 807.2 Z M 645.0 957.2 " fill="#6FBF40"></path><g><clipPath id="clip-47"><path d="M 627.4 807.2 L 812.7 807.2 L 812.7 957.2 L 627.4 957.2 Z M 627.4 807.2 "></path></clipPath><g clip-path="url(#clip-47)"><text xml:space="preserve" font-family="Ionicons" font-size="85.0" fill="#FEFFFF" transform="matrix(1.00, 0.00, -0.00, -1.00, 683.0, 850.0)"></text></g></g><path d="M 645.0 351.4 L 795.0 351.4 L 795.0 201.4 L 645.0 201.4 Z M 645.0 351.4 " fill="#6FBF40"></path><g><clipPath id="clip-48"><path d="M 627.4 201.4 L 812.7 201.4 L 812.7 351.4 L 627.4 351.4 Z M 627.4 201.4 "></path></clipPath><g clip-path="url(#clip-48)"><text xml:space="preserve" font-family="Ionicons" font-size="85.0" fill="#FEFFFF" transform="matrix(1.00, 0.00, -0.00, -1.00, 688.0, 244.0)"></text></g></g><path d="M 645.0 652.7 L 795.0 652.7 L 795.0 502.7 L 645.0 502.7 Z M 645.0 652.7 " fill="#6FBF40"></path><g><clipPath id="clip-49"><path d="M 627.4 502.7 L 812.7 502.7 L 812.7 652.7 L 627.4 652.7 Z M 627.4 502.7 "></path></clipPath><g clip-path="url(#clip-49)"><text xml:space="preserve" font-family="Ionicons" font-size="85.0" fill="#FEFFFF" transform="matrix(1.00, 0.00, -0.00, -1.00, 696.0, 545.0)"></text></g></g></g></svg>