<?xml version="1.0" encoding="UTF-8" standalone="no"?><svg xmlns="http://www.w3.org/2000/svg" xmlns:xlink="http://www.w3.org/1999/xlink" clip-rule="evenodd" stroke-miterlimit="4.00" viewBox="0 0 1920 1080"><desc>SVG generated by Keynote</desc><defs></defs><g transform="matrix(1.00, 0.00, -0.00, -1.00, 0.0, 1080.0)"><path d="M 0.0 1080.0 L 1920.0 1080.0 L 1920.0 0.0 L 0.0 0.0 Z M 0.0 1080.0 " fill="#FEFFFF"></path><g><clipPath id="clip-289"><path d="M 480.0 1080.0 L 1440.0 1080.0 L 1440.0 0.0 L 480.0 0.0 Z M 480.0 1080.0 "></path></clipPath><g clip-path="url(#clip-289)"><image xlink:href="3C6BBF4574D23CC977F47E7F35E18D79.jpeg" width="375.00" height="500.00" transform="matrix(2.56, 0.00, -0.00, -2.56, 480.0, 1180.0)"></image></g></g><text xml:space="preserve" font-family="BebasNeueBold" font-weight="bold" font-size="90.0" fill="#6FBF40" transform="matrix(1.00, 0.00, -0.00, -1.00, 291.3, 563.5)">t</text><text xml:space="preserve" font-family="BebasNeueBold" font-weight="bold" font-size="90.0" fill="#6FBF40" transform="matrix(1.00, 0.00, -0.00, -1.00, 323.3, 563.5)">y</text><text xml:space="preserve" font-family="BebasNeueBold" font-weight="bold" font-size="90.0" fill="#6FBF40" transform="matrix(1.00, 0.00, -0.00, -1.00, 358.9, 563.5)">p</text><text xml:space="preserve" font-family="BebasNeueBold" font-weight="bold" font-size="90.0" fill="#6FBF40" transform="matrix(1.00, 0.00, -0.00, -1.00, 392.9, 563.5)">e</text><text xml:space="preserve" font-family="BebasNeueBold" font-weight="bold" font-size="90.0" fill="#6FBF40" transform="matrix(1.00, 0.00, -0.00, -1.00, 426.0, 563.5)"> </text><text xml:space="preserve" font-family="BebasNeueBold" font-weight="bold" font-size="90.0" fill="#6FBF40" transform="matrix(1.00, 0.00, -0.00, -1.00, 160.4, 487.2)">c</text><text xml:space="preserve" font-family="BebasNeueBold" font-weight="bold" font-size="90.0" fill="#6FBF40" transform="matrix(1.00, 0.00, -0.00, -1.00, 195.2, 487.2)">o</text><text xml:space="preserve" font-family="BebasNeueBold" font-weight="bold" font-size="90.0" fill="#6FBF40" transform="matrix(1.00, 0.00, -0.00, -1.00, 230.8, 487.2)">e</text><text xml:space="preserve" font-family="BebasNeueBold" font-weight="bold" font-size="90.0" fill="#6FBF40" transform="matrix(1.00, 0.00, -0.00, -1.00, 263.9, 487.2)">r</text><text xml:space="preserve" font-family="BebasNeueBold" font-weight="bold" font-size="90.0" fill="#6FBF40" transform="matrix(1.00, 0.00, -0.00, -1.00, 300.1, 487.2)">c</text><text xml:space="preserve" font-family="BebasNeueBold" font-weight="bold" font-size="90.0" fill="#6FBF40" transform="matrix(1.00, 0.00, -0.00, -1.00, 334.8, 487.2)">i</text><text xml:space="preserve" font-family="BebasNeueBold" font-weight="bold" font-size="90.0" fill="#6FBF40" transform="matrix(1.00, 0.00, -0.00, -1.00, 351.9, 487.2)">o</text><text xml:space="preserve" font-family="BebasNeueBold" font-weight="bold" font-size="90.0" fill="#6FBF40" transform="matrix(1.00, 0.00, -0.00, -1.00, 387.6, 487.2)">n</text><text xml:space="preserve" font-family="SourceSansPro-Regular" font-size="28.0" fill="#000000" transform="matrix(1.00, 0.00, -0.00, -1.00, 77.1, 451.6)">C</text><text xml:space="preserve" font-family="SourceSansPro-Regular" font-size="28.0" fill="#000000" transform="matrix(1.00, 0.00, -0.00, -1.00, 93.1, 451.6)">o</text><text xml:space="preserve" font-family="SourceSansPro-Regular" font-size="28.0" fill="#000000" transform="matrix(1.00, 0.00, -0.00, -1.00, 108.3, 451.6)">e</text><text xml:space="preserve" font-family="SourceSansPro-Regular" font-size="28.0" fill="#000000" transform="matrix(1.00, 0.00, -0.00, -1.00, 122.1, 451.6)">r</text><text xml:space="preserve" font-family="SourceSansPro-Regular" font-size="28.0" fill="#000000" transform="matrix(1.00, 0.00, -0.00, -1.00, 131.6, 451.6)">ç</text><text xml:space="preserve" font-family="SourceSansPro-Regular" font-size="28.0" fill="#000000" transform="matrix(1.00, 0.00, -0.00, -1.00, 144.1, 451.6)">ã</text><text xml:space="preserve" font-family="SourceSansPro-Regular" font-size="28.0" fill="#000000" transform="matrix(1.00, 0.00, -0.00, -1.00, 158.2, 451.6)">o</text><text xml:space="preserve" font-family="SourceSansPro-Regular" font-size="28.0" fill="#000000" transform="matrix(1.00, 0.00, -0.00, -1.00, 173.4, 451.6)"> </text><text xml:space="preserve" font-family="SourceSansPro-Regular" font-size="28.0" fill="#000000" transform="matrix(1.00, 0.00, -0.00, -1.00, 179.0, 451.6)">d</text><text xml:space="preserve" font-family="SourceSansPro-Regular" font-size="28.0" fill="#000000" transform="matrix(1.00, 0.00, -0.00, -1.00, 194.5, 451.6)">e</text><text xml:space="preserve" font-family="SourceSansPro-Regular" font-size="28.0" fill="#000000" transform="matrix(1.00, 0.00, -0.00, -1.00, 208.4, 451.6)"> </text><text xml:space="preserve" font-family="SourceSansPro-Regular" font-size="28.0" fill="#000000" transform="matrix(1.00, 0.00, -0.00, -1.00, 214.0, 451.6)">t</text><text xml:space="preserve" font-family="SourceSansPro-Regular" font-size="28.0" fill="#000000" transform="matrix(1.00, 0.00, -0.00, -1.00, 223.4, 451.6)">i</text><text xml:space="preserve" font-family="SourceSansPro-Regular" font-size="28.0" fill="#000000" transform="matrix(1.00, 0.00, -0.00, -1.00, 230.3, 451.6)">p</text><text xml:space="preserve" font-family="SourceSansPro-Regular" font-size="28.0" fill="#000000" transform="matrix(1.00, 0.00, -0.00, -1.00, 245.9, 451.6)">o</text><text xml:space="preserve" font-family="SourceSansPro-Regular" font-size="28.0" fill="#000000" transform="matrix(1.00, 0.00, -0.00, -1.00, 261.1, 451.6)"> </text><text xml:space="preserve" font-family="SourceSansPro-Regular" font-size="28.0" fill="#000000" transform="matrix(1.00, 0.00, -0.00, -1.00, 266.7, 451.6)">é</text><text xml:space="preserve" font-family="SourceSansPro-Regular" font-size="28.0" fill="#000000" transform="matrix(1.00, 0.00, -0.00, -1.00, 280.5, 451.6)"> </text><text xml:space="preserve" font-family="SourceSansPro-Regular" font-size="28.0" fill="#000000" transform="matrix(1.00, 0.00, -0.00, -1.00, 286.1, 451.6)">a</text><text xml:space="preserve" font-family="SourceSansPro-Regular" font-size="28.0" fill="#000000" transform="matrix(1.00, 0.00, -0.00, -1.00, 300.3, 451.6)"> </text><text xml:space="preserve" font-family="SourceSansPro-Regular" font-size="28.0" fill="#000000" transform="matrix(1.00, 0.00, -0.00, -1.00, 305.9, 451.6)">c</text><text xml:space="preserve" font-family="SourceSansPro-Regular" font-size="28.0" fill="#000000" transform="matrix(1.00, 0.00, -0.00, -1.00, 318.0, 451.6)">o</text><text xml:space="preserve" font-family="SourceSansPro-Regular" font-size="28.0" fill="#000000" transform="matrix(1.00, 0.00, -0.00, -1.00, 333.2, 451.6)">n</text><text xml:space="preserve" font-family="SourceSansPro-Regular" font-size="28.0" fill="#000000" transform="matrix(1.00, 0.00, -0.00, -1.00, 348.5, 451.6)">v</text><text xml:space="preserve" font-family="SourceSansPro-Regular" font-size="28.0" fill="#000000" transform="matrix(1.00, 0.00, -0.00, -1.00, 361.5, 451.6)">e</text><text xml:space="preserve" font-family="SourceSansPro-Regular" font-size="28.0" fill="#000000" transform="matrix(1.00, 0.00, -0.00, -1.00, 375.4, 451.6)">r</text><text xml:space="preserve" font-family="SourceSansPro-Regular" font-size="28.0" fill="#000000" transform="matrix(1.00, 0.00, -0.00, -1.00, 385.0, 451.6)">s</text><text xml:space="preserve" font-family="SourceSansPro-Regular" font-size="28.0" fill="#000000" transform="matrix(1.00, 0.00, -0.00, -1.00, 396.7, 451.6)">ã</text><text xml:space="preserve" font-family="SourceSansPro-Regular" font-size="28.0" fill="#000000" transform="matrix(1.00, 0.00, -0.00, -1.00, 410.8, 451.6)">o</text><text xml:space="preserve" font-family="SourceSansPro-Regular" font-size="28.0" fill="#000000" transform="matrix(1.00, 0.00, -0.00, -1.00, 426.0, 451.6)"> </text><text xml:space="preserve" font-family="SourceSansPro-Regular" font-size="28.0" fill="#000000" transform="matrix(1.00, 0.00, -0.00, -1.00, 81.7, 415.6)">d</text><text xml:space="preserve" font-family="SourceSansPro-Regular" font-size="28.0" fill="#000000" transform="matrix(1.00, 0.00, -0.00, -1.00, 97.3, 415.6)">e</text><text xml:space="preserve" font-family="SourceSansPro-Regular" font-size="28.0" fill="#000000" transform="matrix(1.00, 0.00, -0.00, -1.00, 111.2, 415.6)"> </text><text xml:space="preserve" font-family="SourceSansPro-Regular" font-size="28.0" fill="#000000" transform="matrix(1.00, 0.00, -0.00, -1.00, 116.8, 415.6)">u</text><text xml:space="preserve" font-family="SourceSansPro-Regular" font-size="28.0" fill="#000000" transform="matrix(1.00, 0.00, -0.00, -1.00, 132.0, 415.6)">m</text><text xml:space="preserve" font-family="SourceSansPro-Regular" font-size="28.0" fill="#000000" transform="matrix(1.00, 0.00, -0.00, -1.00, 155.2, 415.6)"> </text><text xml:space="preserve" font-family="SourceSansPro-Regular" font-size="28.0" fill="#000000" transform="matrix(1.00, 0.00, -0.00, -1.00, 160.8, 415.6)">t</text><text xml:space="preserve" font-family="SourceSansPro-Regular" font-size="28.0" fill="#000000" transform="matrix(1.00, 0.00, -0.00, -1.00, 170.3, 415.6)">i</text><text xml:space="preserve" font-family="SourceSansPro-Regular" font-size="28.0" fill="#000000" transform="matrix(1.00, 0.00, -0.00, -1.00, 177.2, 415.6)">p</text><text xml:space="preserve" font-family="SourceSansPro-Regular" font-size="28.0" fill="#000000" transform="matrix(1.00, 0.00, -0.00, -1.00, 192.7, 415.6)">o</text><text xml:space="preserve" font-family="SourceSansPro-Regular" font-size="28.0" fill="#000000" transform="matrix(1.00, 0.00, -0.00, -1.00, 207.9, 415.6)"> </text><text xml:space="preserve" font-family="SourceSansPro-Regular" font-size="28.0" fill="#000000" transform="matrix(1.00, 0.00, -0.00, -1.00, 213.5, 415.6)">d</text><text xml:space="preserve" font-family="SourceSansPro-Regular" font-size="28.0" fill="#000000" transform="matrix(1.00, 0.00, -0.00, -1.00, 229.0, 415.6)">e</text><text xml:space="preserve" font-family="SourceSansPro-Regular" font-size="28.0" fill="#000000" transform="matrix(1.00, 0.00, -0.00, -1.00, 242.9, 415.6)"> </text><text xml:space="preserve" font-family="SourceSansPro-Regular" font-size="28.0" fill="#000000" transform="matrix(1.00, 0.00, -0.00, -1.00, 248.5, 415.6)">o</text><text xml:space="preserve" font-family="SourceSansPro-Regular" font-size="28.0" fill="#000000" transform="matrix(1.00, 0.00, -0.00, -1.00, 263.7, 415.6)">b</text><text xml:space="preserve" font-family="SourceSansPro-Regular" font-size="28.0" fill="#000000" transform="matrix(1.00, 0.00, -0.00, -1.00, 279.2, 415.6)">j</text><text xml:space="preserve" font-family="SourceSansPro-Regular" font-size="28.0" fill="#000000" transform="matrix(1.00, 0.00, -0.00, -1.00, 286.1, 415.6)">e</text><text xml:space="preserve" font-family="SourceSansPro-Regular" font-size="28.0" fill="#000000" transform="matrix(1.00, 0.00, -0.00, -1.00, 299.7, 415.6)">t</text><text xml:space="preserve" font-family="SourceSansPro-Regular" font-size="28.0" fill="#000000" transform="matrix(1.00, 0.00, -0.00, -1.00, 308.8, 415.6)">o</text><text xml:space="preserve" font-family="SourceSansPro-Regular" font-size="28.0" fill="#000000" transform="matrix(1.00, 0.00, -0.00, -1.00, 323.9, 415.6)"> </text><text xml:space="preserve" font-family="SourceSansPro-Regular" font-size="28.0" fill="#000000" transform="matrix(1.00, 0.00, -0.00, -1.00, 329.5, 415.6)">p</text><text xml:space="preserve" font-family="SourceSansPro-Regular" font-size="28.0" fill="#000000" transform="matrix(1.00, 0.00, -0.00, -1.00, 344.7, 415.6)">a</text><text xml:space="preserve" font-family="SourceSansPro-Regular" font-size="28.0" fill="#000000" transform="matrix(1.00, 0.00, -0.00, -1.00, 358.8, 415.6)">r</text><text xml:space="preserve" font-family="SourceSansPro-Regular" font-size="28.0" fill="#000000" transform="matrix(1.00, 0.00, -0.00, -1.00, 367.8, 415.6)">a</text><text xml:space="preserve" font-family="SourceSansPro-Regular" font-size="28.0" fill="#000000" transform="matrix(1.00, 0.00, -0.00, -1.00, 382.0, 415.6)"> </text><text xml:space="preserve" font-family="SourceSansPro-Regular" font-size="28.0" fill="#000000" transform="matrix(1.00, 0.00, -0.00, -1.00, 387.6, 415.6)">u</text><text xml:space="preserve" font-family="SourceSansPro-Regular" font-size="28.0" fill="#000000" transform="matrix(1.00, 0.00, -0.00, -1.00, 402.8, 415.6)">m</text><text xml:space="preserve" font-family="SourceSansPro-Regular" font-size="28.0" fill="#000000" transform="matrix(1.00, 0.00, -0.00, -1.00, 426.0, 415.6)"> </text><text xml:space="preserve" font-family="SourceSansPro-Regular" font-size="28.0" fill="#000000" transform="matrix(1.00, 0.00, -0.00, -1.00, 154.7, 379.6)">n</text><text xml:space="preserve" font-family="SourceSansPro-Regular" font-size="28.0" fill="#000000" transform="matrix(1.00, 0.00, -0.00, -1.00, 170.0, 379.6)">o</text><text xml:space="preserve" font-family="SourceSansPro-Regular" font-size="28.0" fill="#000000" transform="matrix(1.00, 0.00, -0.00, -1.00, 185.1, 379.6)">v</text><text xml:space="preserve" font-family="SourceSansPro-Regular" font-size="28.0" fill="#000000" transform="matrix(1.00, 0.00, -0.00, -1.00, 198.1, 379.6)">o</text><text xml:space="preserve" font-family="SourceSansPro-Regular" font-size="28.0" fill="#000000" transform="matrix(1.00, 0.00, -0.00, -1.00, 213.2, 379.6)"> </text><text xml:space="preserve" font-family="SourceSansPro-Regular" font-size="28.0" fill="#000000" transform="matrix(1.00, 0.00, -0.00, -1.00, 218.8, 379.6)">o</text><text xml:space="preserve" font-family="SourceSansPro-Regular" font-size="28.0" fill="#000000" transform="matrix(1.00, 0.00, -0.00, -1.00, 234.0, 379.6)">b</text><text xml:space="preserve" font-family="SourceSansPro-Regular" font-size="28.0" fill="#000000" transform="matrix(1.00, 0.00, -0.00, -1.00, 249.5, 379.6)">j</text><text xml:space="preserve" font-family="SourceSansPro-Regular" font-size="28.0" fill="#000000" transform="matrix(1.00, 0.00, -0.00, -1.00, 256.4, 379.6)">e</text><text xml:space="preserve" font-family="SourceSansPro-Regular" font-size="28.0" fill="#000000" transform="matrix(1.00, 0.00, -0.00, -1.00, 270.0, 379.6)">t</text><text xml:space="preserve" font-family="SourceSansPro-Regular" font-size="28.0" fill="#000000" transform="matrix(1.00, 0.00, -0.00, -1.00, 279.1, 379.6)">o</text><text xml:space="preserve" font-family="SourceSansPro-Regular" font-size="28.0" fill="#000000" transform="matrix(1.00, 0.00, -0.00, -1.00, 294.3, 379.6)"> </text><text xml:space="preserve" font-family="SourceSansPro-Regular" font-size="28.0" fill="#000000" transform="matrix(1.00, 0.00, -0.00, -1.00, 299.9, 379.6)">d</text><text xml:space="preserve" font-family="SourceSansPro-Regular" font-size="28.0" fill="#000000" transform="matrix(1.00, 0.00, -0.00, -1.00, 315.4, 379.6)">e</text><text xml:space="preserve" font-family="SourceSansPro-Regular" font-size="28.0" fill="#000000" transform="matrix(1.00, 0.00, -0.00, -1.00, 329.3, 379.6)"> </text><text xml:space="preserve" font-family="SourceSansPro-Regular" font-size="28.0" fill="#000000" transform="matrix(1.00, 0.00, -0.00, -1.00, 334.9, 379.6)">u</text><text xml:space="preserve" font-family="SourceSansPro-Regular" font-size="28.0" fill="#000000" transform="matrix(1.00, 0.00, -0.00, -1.00, 350.1, 379.6)">m</text><text xml:space="preserve" font-family="SourceSansPro-Regular" font-size="28.0" fill="#000000" transform="matrix(1.00, 0.00, -0.00, -1.00, 373.3, 379.6)"> </text><text xml:space="preserve" font-family="SourceSansPro-Regular" font-size="28.0" fill="#000000" transform="matrix(1.00, 0.00, -0.00, -1.00, 378.9, 379.6)">t</text><text xml:space="preserve" font-family="SourceSansPro-Regular" font-size="28.0" fill="#000000" transform="matrix(1.00, 0.00, -0.00, -1.00, 388.4, 379.6)">i</text><text xml:space="preserve" font-family="SourceSansPro-Regular" font-size="28.0" fill="#000000" transform="matrix(1.00, 0.00, -0.00, -1.00, 395.3, 379.6)">p</text><text xml:space="preserve" font-family="SourceSansPro-Regular" font-size="28.0" fill="#000000" transform="matrix(1.00, 0.00, -0.00, -1.00, 410.8, 379.6)">o</text><text xml:space="preserve" font-family="SourceSansPro-Regular" font-size="28.0" fill="#000000" transform="matrix(1.00, 0.00, -0.00, -1.00, 426.0, 379.6)"> </text><text xml:space="preserve" font-family="SourceSansPro-Regular" font-size="28.0" fill="#000000" transform="matrix(1.00, 0.00, -0.00, -1.00, 77.3, 343.6)">d</text><text xml:space="preserve" font-family="SourceSansPro-Regular" font-size="28.0" fill="#000000" transform="matrix(1.00, 0.00, -0.00, -1.00, 92.9, 343.6)">i</text><text xml:space="preserve" font-family="SourceSansPro-Regular" font-size="28.0" fill="#000000" transform="matrix(1.00, 0.00, -0.00, -1.00, 99.7, 343.6)">f</text><text xml:space="preserve" font-family="SourceSansPro-Regular" font-size="28.0" fill="#000000" transform="matrix(1.00, 0.00, -0.00, -1.00, 107.6, 343.6)">e</text><text xml:space="preserve" font-family="SourceSansPro-Regular" font-size="28.0" fill="#000000" transform="matrix(1.00, 0.00, -0.00, -1.00, 121.5, 343.6)">r</text><text xml:space="preserve" font-family="SourceSansPro-Regular" font-size="28.0" fill="#000000" transform="matrix(1.00, 0.00, -0.00, -1.00, 131.0, 343.6)">e</text><text xml:space="preserve" font-family="SourceSansPro-Regular" font-size="28.0" fill="#000000" transform="matrix(1.00, 0.00, -0.00, -1.00, 144.9, 343.6)">n</text><text xml:space="preserve" font-family="SourceSansPro-Regular" font-size="28.0" fill="#000000" transform="matrix(1.00, 0.00, -0.00, -1.00, 160.2, 343.6)">t</text><text xml:space="preserve" font-family="SourceSansPro-Regular" font-size="28.0" fill="#000000" transform="matrix(1.00, 0.00, -0.00, -1.00, 169.2, 343.6)">e</text><text xml:space="preserve" font-family="SourceSansPro-Regular" font-size="28.0" fill="#000000" transform="matrix(1.00, 0.00, -0.00, -1.00, 183.1, 343.6)"> </text><text xml:space="preserve" font-family="SourceSansPro-Regular" font-size="28.0" fill="#000000" transform="matrix(1.00, 0.00, -0.00, -1.00, 188.7, 343.6)">d</text><text xml:space="preserve" font-family="SourceSansPro-Regular" font-size="28.0" fill="#000000" transform="matrix(1.00, 0.00, -0.00, -1.00, 204.3, 343.6)">e</text><text xml:space="preserve" font-family="SourceSansPro-Regular" font-size="28.0" fill="#000000" transform="matrix(1.00, 0.00, -0.00, -1.00, 218.2, 343.6)"> </text><text xml:space="preserve" font-family="SourceSansPro-Regular" font-size="28.0" fill="#000000" transform="matrix(1.00, 0.00, -0.00, -1.00, 223.8, 343.6)">c</text><text xml:space="preserve" font-family="SourceSansPro-Regular" font-size="28.0" fill="#000000" transform="matrix(1.00, 0.00, -0.00, -1.00, 235.9, 343.6)">o</text><text xml:space="preserve" font-family="SourceSansPro-Regular" font-size="28.0" fill="#000000" transform="matrix(1.00, 0.00, -0.00, -1.00, 251.1, 343.6)">n</text><text xml:space="preserve" font-family="SourceSansPro-Regular" font-size="28.0" fill="#000000" transform="matrix(1.00, 0.00, -0.00, -1.00, 266.4, 343.6)">t</text><text xml:space="preserve" font-family="SourceSansPro-Regular" font-size="28.0" fill="#000000" transform="matrix(1.00, 0.00, -0.00, -1.00, 275.5, 343.6)">e</text><text xml:space="preserve" font-family="SourceSansPro-Regular" font-size="28.0" fill="#000000" transform="matrix(1.00, 0.00, -0.00, -1.00, 289.4, 343.6)">ú</text><text xml:space="preserve" font-family="SourceSansPro-Regular" font-size="28.0" fill="#000000" transform="matrix(1.00, 0.00, -0.00, -1.00, 304.6, 343.6)">d</text><text xml:space="preserve" font-family="SourceSansPro-Regular" font-size="28.0" fill="#000000" transform="matrix(1.00, 0.00, -0.00, -1.00, 320.2, 343.6)">o</text><text xml:space="preserve" font-family="SourceSansPro-Regular" font-size="28.0" fill="#000000" transform="matrix(1.00, 0.00, -0.00, -1.00, 335.3, 343.6)"> </text><text xml:space="preserve" font-family="SourceSansPro-Regular" font-size="28.0" fill="#000000" transform="matrix(1.00, 0.00, -0.00, -1.00, 340.9, 343.6)">s</text><text xml:space="preserve" font-family="SourceSansPro-Regular" font-size="28.0" fill="#000000" transform="matrix(1.00, 0.00, -0.00, -1.00, 352.7, 343.6)">i</text><text xml:space="preserve" font-family="SourceSansPro-Regular" font-size="28.0" fill="#000000" transform="matrix(1.00, 0.00, -0.00, -1.00, 359.6, 343.6)">m</text><text xml:space="preserve" font-family="SourceSansPro-Regular" font-size="28.0" fill="#000000" transform="matrix(1.00, 0.00, -0.00, -1.00, 382.8, 343.6)">i</text><text xml:space="preserve" font-family="SourceSansPro-Regular" font-size="28.0" fill="#000000" transform="matrix(1.00, 0.00, -0.00, -1.00, 389.7, 343.6)">l</text><text xml:space="preserve" font-family="SourceSansPro-Regular" font-size="28.0" fill="#000000" transform="matrix(1.00, 0.00, -0.00, -1.00, 396.8, 343.6)">a</text><text xml:space="preserve" font-family="SourceSansPro-Regular" font-size="28.0" fill="#000000" transform="matrix(1.00, 0.00, -0.00, -1.00, 410.9, 343.6)">r</text><text xml:space="preserve" font-family="SourceSansPro-Regular" font-size="28.0" fill="#000000" transform="matrix(1.00, 0.00, -0.00, -1.00, 419.0, 343.6)">.</text><path d="M 1775.0 1030.0 L 1875.0 1030.0 L 1875.0 961.0 L 1775.0 961.0 Z M 1775.0 1030.0 " fill="#DCDDE0"></path><g><clipPath id="clip-290"><path d="M 1766.5 952.5 L 1883.5 952.5 L 1883.5 1038.5 L 1766.5 1038.5 Z M 1766.5 952.5 "></path></clipPath><g clip-path="url(#clip-290)"><text xml:space="preserve" font-family="BebasNeueBold" font-weight="bold" font-size="50.0" fill="#FEFFFF" transform="matrix(1.00, 0.00, -0.00, -1.00, 1805.0, 978.0)"> </text><text xml:space="preserve" font-family="BebasNeueBold" font-weight="bold" font-size="50.0" fill="#FEFFFF" transform="matrix(1.00, 0.00, -0.00, -1.00, 1805.0, 978.0)">3</text><text xml:space="preserve" font-family="BebasNeueBold" font-weight="bold" font-size="50.0" fill="#FEFFFF" transform="matrix(1.00, 0.00, -0.00, -1.00, 1824.8, 978.0)">5</text></g></g></g></svg>