<?xml version="1.0" encoding="UTF-8" standalone="no"?><svg xmlns="http://www.w3.org/2000/svg" xmlns:xlink="http://www.w3.org/1999/xlink" clip-rule="evenodd" stroke-miterlimit="4.00" viewBox="0 0 1920 1080"><desc>SVG generated by Keynote</desc><defs></defs><g transform="matrix(1.00, 0.00, -0.00, -1.00, 0.0, 1080.0)"><path d="M 0.0 1080.0 L 1920.0 1080.0 L 1920.0 0.0 L 0.0 0.0 Z M 0.0 1080.0 " fill="#FEFFFF"></path><path d="M 0.0 1080.0 L 1920.0 1080.0 L 1920.0 -0.0 L 0.0 -0.0 Z M 0.0 1080.0 " fill="#011202"></path><g opacity="0.20"><g><clipPath id="clip-174"><path d="M 0.0 1080.0 L 1920.0 1080.0 L 1920.0 0.0 L 0.0 0.0 Z M 0.0 1080.0 "></path></clipPath><g clip-path="url(#clip-174)"><g><clipPath id="clip-175"><path d="M 0.0 0.0 L 1920.0 0.0 L 1920.0 1080.0 L 0.0 1080.0 Z M 0.0 0.0 "></path></clipPath><g clip-path="url(#clip-175)"><image xlink:href="../../49B0041F-D2B6-45AE-B257-4A439451C92F/assets/23497D77A7F06362AFD4423070F345EA.jpeg" width="1366.00" height="768.00" transform="matrix(1.41, 0.00, -0.00, -1.41, 0.0, 1080.0)"></image></g></g></g></g></g><text xml:space="preserve" font-family="BebasNeueBold" font-weight="bold" font-size="115.0" fill="#6FBF40" transform="matrix(1.00, 0.00, -0.00, -1.00, 769.0, 428.0)">e</text><text xml:space="preserve" font-family="BebasNeueBold" font-weight="bold" font-size="115.0" fill="#6FBF40" transform="matrix(1.00, 0.00, -0.00, -1.00, 811.3, 428.0)">n</text><text xml:space="preserve" font-family="BebasNeueBold" font-weight="bold" font-size="115.0" fill="#6FBF40" transform="matrix(1.00, 0.00, -0.00, -1.00, 860.4, 428.0)">d</text><text xml:space="preserve" font-family="BebasNeueBold" font-weight="bold" font-size="115.0" fill="#6FBF40" transform="matrix(1.00, 0.00, -0.00, -1.00, 907.3, 428.0)">p</text><text xml:space="preserve" font-family="BebasNeueBold" font-weight="bold" font-size="115.0" fill="#6FBF40" transform="matrix(1.00, 0.00, -0.00, -1.00, 950.7, 428.0)">o</text><text xml:space="preserve" font-family="BebasNeueBold" font-weight="bold" font-size="115.0" fill="#6FBF40" transform="matrix(1.00, 0.00, -0.00, -1.00, 996.2, 428.0)">i</text><text xml:space="preserve" font-family="BebasNeueBold" font-weight="bold" font-size="115.0" fill="#6FBF40" transform="matrix(1.00, 0.00, -0.00, -1.00, 1018.1, 428.0)">n</text><text xml:space="preserve" font-family="BebasNeueBold" font-weight="bold" font-size="115.0" fill="#6FBF40" transform="matrix(1.00, 0.00, -0.00, -1.00, 1067.2, 428.0)">t</text><text xml:space="preserve" font-family="BebasNeueBold" font-weight="bold" font-size="115.0" fill="#6FBF40" transform="matrix(1.00, 0.00, -0.00, -1.00, 1108.1, 428.0)">s</text><text xml:space="preserve" font-family="SourceSansPro-Regular" font-size="49.0" fill="#FEFFFF" transform="matrix(1.00, 0.00, -0.00, -1.00, 319.0, 347.0)">R</text><text xml:space="preserve" font-family="SourceSansPro-Regular" font-size="49.0" fill="#FEFFFF" transform="matrix(1.00, 0.00, -0.00, -1.00, 346.4, 347.0)">e</text><text xml:space="preserve" font-family="SourceSansPro-Regular" font-size="49.0" fill="#FEFFFF" transform="matrix(1.00, 0.00, -0.00, -1.00, 370.7, 347.0)">s</text><text xml:space="preserve" font-family="SourceSansPro-Regular" font-size="49.0" fill="#FEFFFF" transform="matrix(1.00, 0.00, -0.00, -1.00, 391.2, 347.0)">p</text><text xml:space="preserve" font-family="SourceSansPro-Regular" font-size="49.0" fill="#FEFFFF" transform="matrix(1.00, 0.00, -0.00, -1.00, 418.4, 347.0)">o</text><text xml:space="preserve" font-family="SourceSansPro-Regular" font-size="49.0" fill="#FEFFFF" transform="matrix(1.00, 0.00, -0.00, -1.00, 445.0, 347.0)">n</text><text xml:space="preserve" font-family="SourceSansPro-Regular" font-size="49.0" fill="#FEFFFF" transform="matrix(1.00, 0.00, -0.00, -1.00, 471.8, 347.0)">s</text><text xml:space="preserve" font-family="SourceSansPro-Regular" font-size="49.0" fill="#FEFFFF" transform="matrix(1.00, 0.00, -0.00, -1.00, 492.3, 347.0)">á</text><text xml:space="preserve" font-family="SourceSansPro-Regular" font-size="49.0" fill="#FEFFFF" transform="matrix(1.00, 0.00, -0.00, -1.00, 517.0, 347.0)">v</text><text xml:space="preserve" font-family="SourceSansPro-Regular" font-size="49.0" fill="#FEFFFF" transform="matrix(1.00, 0.00, -0.00, -1.00, 539.7, 347.0)">e</text><text xml:space="preserve" font-family="SourceSansPro-Regular" font-size="49.0" fill="#FEFFFF" transform="matrix(1.00, 0.00, -0.00, -1.00, 564.0, 347.0)">i</text><text xml:space="preserve" font-family="SourceSansPro-Regular" font-size="49.0" fill="#FEFFFF" transform="matrix(1.00, 0.00, -0.00, -1.00, 576.1, 347.0)">s</text><text xml:space="preserve" font-family="SourceSansPro-Regular" font-size="49.0" fill="#FEFFFF" transform="matrix(1.00, 0.00, -0.00, -1.00, 596.6, 347.0)"> </text><text xml:space="preserve" font-family="SourceSansPro-Regular" font-size="49.0" fill="#FEFFFF" transform="matrix(1.00, 0.00, -0.00, -1.00, 606.4, 347.0)">p</text><text xml:space="preserve" font-family="SourceSansPro-Regular" font-size="49.0" fill="#FEFFFF" transform="matrix(1.00, 0.00, -0.00, -1.00, 633.6, 347.0)">o</text><text xml:space="preserve" font-family="SourceSansPro-Regular" font-size="49.0" fill="#FEFFFF" transform="matrix(1.00, 0.00, -0.00, -1.00, 660.1, 347.0)">r</text><text xml:space="preserve" font-family="SourceSansPro-Regular" font-size="49.0" fill="#FEFFFF" transform="matrix(1.00, 0.00, -0.00, -1.00, 677.1, 347.0)"> </text><text xml:space="preserve" font-family="SourceSansPro-Regular" font-size="49.0" fill="#FEFFFF" transform="matrix(1.00, 0.00, -0.00, -1.00, 686.9, 347.0)">s</text><text xml:space="preserve" font-family="SourceSansPro-Regular" font-size="49.0" fill="#FEFFFF" transform="matrix(1.00, 0.00, -0.00, -1.00, 707.5, 347.0)">e</text><text xml:space="preserve" font-family="SourceSansPro-Regular" font-size="49.0" fill="#FEFFFF" transform="matrix(1.00, 0.00, -0.00, -1.00, 731.8, 347.0)">r</text><text xml:space="preserve" font-family="SourceSansPro-Regular" font-size="49.0" fill="#FEFFFF" transform="matrix(1.00, 0.00, -0.00, -1.00, 750.0, 347.0)">v</text><text xml:space="preserve" font-family="SourceSansPro-Regular" font-size="49.0" fill="#FEFFFF" transform="matrix(1.00, 0.00, -0.00, -1.00, 772.9, 347.0)">i</text><text xml:space="preserve" font-family="SourceSansPro-Regular" font-size="49.0" fill="#FEFFFF" transform="matrix(1.00, 0.00, -0.00, -1.00, 784.9, 347.0)">r</text><text xml:space="preserve" font-family="SourceSansPro-Regular" font-size="49.0" fill="#FEFFFF" transform="matrix(1.00, 0.00, -0.00, -1.00, 801.9, 347.0)"> </text><text xml:space="preserve" font-family="SourceSansPro-Regular" font-size="49.0" fill="#FEFFFF" transform="matrix(1.00, 0.00, -0.00, -1.00, 811.7, 347.0)">r</text><text xml:space="preserve" font-family="SourceSansPro-Regular" font-size="49.0" fill="#FEFFFF" transform="matrix(1.00, 0.00, -0.00, -1.00, 828.3, 347.0)">e</text><text xml:space="preserve" font-family="SourceSansPro-Regular" font-size="49.0" fill="#FEFFFF" transform="matrix(1.00, 0.00, -0.00, -1.00, 852.6, 347.0)">q</text><text xml:space="preserve" font-family="SourceSansPro-Regular" font-size="49.0" fill="#FEFFFF" transform="matrix(1.00, 0.00, -0.00, -1.00, 879.8, 347.0)">u</text><text xml:space="preserve" font-family="SourceSansPro-Regular" font-size="49.0" fill="#FEFFFF" transform="matrix(1.00, 0.00, -0.00, -1.00, 906.4, 347.0)">i</text><text xml:space="preserve" font-family="SourceSansPro-Regular" font-size="49.0" fill="#FEFFFF" transform="matrix(1.00, 0.00, -0.00, -1.00, 918.5, 347.0)">s</text><text xml:space="preserve" font-family="SourceSansPro-Regular" font-size="49.0" fill="#FEFFFF" transform="matrix(1.00, 0.00, -0.00, -1.00, 939.0, 347.0)">i</text><text xml:space="preserve" font-family="SourceSansPro-Regular" font-size="49.0" fill="#FEFFFF" transform="matrix(1.00, 0.00, -0.00, -1.00, 951.1, 347.0)">ç</text><text xml:space="preserve" font-family="SourceSansPro-Regular" font-size="49.0" fill="#FEFFFF" transform="matrix(1.00, 0.00, -0.00, -1.00, 972.4, 347.0)">õ</text><text xml:space="preserve" font-family="SourceSansPro-Regular" font-size="49.0" fill="#FEFFFF" transform="matrix(1.00, 0.00, -0.00, -1.00, 998.9, 347.0)">e</text><text xml:space="preserve" font-family="SourceSansPro-Regular" font-size="49.0" fill="#FEFFFF" transform="matrix(1.00, 0.00, -0.00, -1.00, 1023.2, 347.0)">s</text><text xml:space="preserve" font-family="SourceSansPro-Regular" font-size="49.0" fill="#FEFFFF" transform="matrix(1.00, 0.00, -0.00, -1.00, 1043.8, 347.0)"> </text><text xml:space="preserve" font-family="SourceSansPro-Regular" font-size="49.0" fill="#FEFFFF" transform="matrix(1.00, 0.00, -0.00, -1.00, 1053.6, 347.0)">H</text><text xml:space="preserve" font-family="SourceSansPro-Regular" font-size="49.0" fill="#FEFFFF" transform="matrix(1.00, 0.00, -0.00, -1.00, 1085.5, 347.0)">T</text><text xml:space="preserve" font-family="SourceSansPro-Regular" font-size="49.0" fill="#FEFFFF" transform="matrix(1.00, 0.00, -0.00, -1.00, 1111.8, 347.0)">T</text><text xml:space="preserve" font-family="SourceSansPro-Regular" font-size="49.0" fill="#FEFFFF" transform="matrix(1.00, 0.00, -0.00, -1.00, 1138.0, 347.0)">P</text><text xml:space="preserve" font-family="SourceSansPro-Regular" font-size="49.0" fill="#FEFFFF" transform="matrix(1.00, 0.00, -0.00, -1.00, 1165.8, 347.0)"> </text><text xml:space="preserve" font-family="SourceSansPro-Regular" font-size="49.0" fill="#FEFFFF" transform="matrix(1.00, 0.00, -0.00, -1.00, 1175.6, 347.0)">o</text><text xml:space="preserve" font-family="SourceSansPro-Regular" font-size="49.0" fill="#FEFFFF" transform="matrix(1.00, 0.00, -0.00, -1.00, 1202.1, 347.0)">u</text><text xml:space="preserve" font-family="SourceSansPro-Regular" font-size="49.0" fill="#FEFFFF" transform="matrix(1.00, 0.00, -0.00, -1.00, 1228.8, 347.0)"> </text><text xml:space="preserve" font-family="SourceSansPro-Regular" font-size="49.0" fill="#FEFFFF" transform="matrix(1.00, 0.00, -0.00, -1.00, 1238.6, 347.0)">o</text><text xml:space="preserve" font-family="SourceSansPro-Regular" font-size="49.0" fill="#FEFFFF" transform="matrix(1.00, 0.00, -0.00, -1.00, 1265.1, 347.0)">u</text><text xml:space="preserve" font-family="SourceSansPro-Regular" font-size="49.0" fill="#FEFFFF" transform="matrix(1.00, 0.00, -0.00, -1.00, 1291.8, 347.0)">t</text><text xml:space="preserve" font-family="SourceSansPro-Regular" font-size="49.0" fill="#FEFFFF" transform="matrix(1.00, 0.00, -0.00, -1.00, 1308.4, 347.0)">r</text><text xml:space="preserve" font-family="SourceSansPro-Regular" font-size="49.0" fill="#FEFFFF" transform="matrix(1.00, 0.00, -0.00, -1.00, 1324.9, 347.0)">o</text><text xml:space="preserve" font-family="SourceSansPro-Regular" font-size="49.0" fill="#FEFFFF" transform="matrix(1.00, 0.00, -0.00, -1.00, 1351.4, 347.0)">s</text><text xml:space="preserve" font-family="SourceSansPro-Regular" font-size="49.0" fill="#FEFFFF" transform="matrix(1.00, 0.00, -0.00, -1.00, 1372.0, 347.0)"> </text><text xml:space="preserve" font-family="SourceSansPro-Regular" font-size="49.0" fill="#FEFFFF" transform="matrix(1.00, 0.00, -0.00, -1.00, 1381.8, 347.0)">p</text><text xml:space="preserve" font-family="SourceSansPro-Regular" font-size="49.0" fill="#FEFFFF" transform="matrix(1.00, 0.00, -0.00, -1.00, 1409.0, 347.0)">r</text><text xml:space="preserve" font-family="SourceSansPro-Regular" font-size="49.0" fill="#FEFFFF" transform="matrix(1.00, 0.00, -0.00, -1.00, 1425.5, 347.0)">o</text><text xml:space="preserve" font-family="SourceSansPro-Regular" font-size="49.0" fill="#FEFFFF" transform="matrix(1.00, 0.00, -0.00, -1.00, 1451.2, 347.0)">t</text><text xml:space="preserve" font-family="SourceSansPro-Regular" font-size="49.0" fill="#FEFFFF" transform="matrix(1.00, 0.00, -0.00, -1.00, 1467.1, 347.0)">o</text><text xml:space="preserve" font-family="SourceSansPro-Regular" font-size="49.0" fill="#FEFFFF" transform="matrix(1.00, 0.00, -0.00, -1.00, 1493.6, 347.0)">c</text><text xml:space="preserve" font-family="SourceSansPro-Regular" font-size="49.0" fill="#FEFFFF" transform="matrix(1.00, 0.00, -0.00, -1.00, 1514.9, 347.0)">o</text><text xml:space="preserve" font-family="SourceSansPro-Regular" font-size="49.0" fill="#FEFFFF" transform="matrix(1.00, 0.00, -0.00, -1.00, 1541.5, 347.0)">l</text><text xml:space="preserve" font-family="SourceSansPro-Regular" font-size="49.0" fill="#FEFFFF" transform="matrix(1.00, 0.00, -0.00, -1.00, 1554.0, 347.0)">o</text><text xml:space="preserve" font-family="SourceSansPro-Regular" font-size="49.0" fill="#FEFFFF" transform="matrix(1.00, 0.00, -0.00, -1.00, 1580.6, 347.0)">s</text><text xml:space="preserve" font-family="SourceSansPro-Regular" font-size="49.0" fill="#FEFFFF" transform="matrix(1.00, 0.00, -0.00, -1.00, 1601.1, 347.0)"> </text><text xml:space="preserve" font-family="SourceSansPro-Regular" font-size="49.0" fill="#FEFFFF" transform="matrix(1.00, 0.00, -0.00, -1.00, 850.0, 286.0)">d</text><text xml:space="preserve" font-family="SourceSansPro-Regular" font-size="49.0" fill="#FEFFFF" transform="matrix(1.00, 0.00, -0.00, -1.00, 877.2, 286.0)">e</text><text xml:space="preserve" font-family="SourceSansPro-Regular" font-size="49.0" fill="#FEFFFF" transform="matrix(1.00, 0.00, -0.00, -1.00, 901.5, 286.0)">s</text><text xml:space="preserve" font-family="SourceSansPro-Regular" font-size="49.0" fill="#FEFFFF" transform="matrix(1.00, 0.00, -0.00, -1.00, 922.0, 286.0)">e</text><text xml:space="preserve" font-family="SourceSansPro-Regular" font-size="49.0" fill="#FEFFFF" transform="matrix(1.00, 0.00, -0.00, -1.00, 946.3, 286.0)">j</text><text xml:space="preserve" font-family="SourceSansPro-Regular" font-size="49.0" fill="#FEFFFF" transform="matrix(1.00, 0.00, -0.00, -1.00, 958.4, 286.0)">a</text><text xml:space="preserve" font-family="SourceSansPro-Regular" font-size="49.0" fill="#FEFFFF" transform="matrix(1.00, 0.00, -0.00, -1.00, 983.1, 286.0)">d</text><text xml:space="preserve" font-family="SourceSansPro-Regular" font-size="49.0" fill="#FEFFFF" transform="matrix(1.00, 0.00, -0.00, -1.00, 1010.3, 286.0)">o</text><text xml:space="preserve" font-family="SourceSansPro-Regular" font-size="49.0" fill="#FEFFFF" transform="matrix(1.00, 0.00, -0.00, -1.00, 1036.9, 286.0)">s</text><text xml:space="preserve" font-family="SourceSansPro-Regular" font-size="49.0" fill="#FEFFFF" transform="matrix(1.00, 0.00, -0.00, -1.00, 1057.4, 286.0)">.</text><path d="M 1775.0 1030.0 L 1875.0 1030.0 L 1875.0 961.0 L 1775.0 961.0 Z M 1775.0 1030.0 " fill="#52575F"></path><g><clipPath id="clip-176"><path d="M 1766.5 952.5 L 1883.5 952.5 L 1883.5 1038.5 L 1766.5 1038.5 Z M 1766.5 952.5 "></path></clipPath><g clip-path="url(#clip-176)"><text xml:space="preserve" font-family="BebasNeueBold" font-weight="bold" font-size="50.0" fill="#FEFFFF" transform="matrix(1.00, 0.00, -0.00, -1.00, 1805.0, 978.0)"> </text><text xml:space="preserve" font-family="BebasNeueBold" font-weight="bold" font-size="50.0" fill="#FEFFFF" transform="matrix(1.00, 0.00, -0.00, -1.00, 1805.0, 978.0)">1</text><text xml:space="preserve" font-family="BebasNeueBold" font-weight="bold" font-size="50.0" fill="#FEFFFF" transform="matrix(1.00, 0.00, -0.00, -1.00, 1824.8, 978.0)">8</text></g></g></g></svg>