<?xml version="1.0" encoding="UTF-8" standalone="no"?><svg xmlns="http://www.w3.org/2000/svg" xmlns:xlink="http://www.w3.org/1999/xlink" clip-rule="evenodd" stroke-miterlimit="4.00" viewBox="0 0 352 269"><desc>SVG generated by Keynote</desc><defs></defs><g transform="matrix(1.00, 0.00, -0.00, -1.00, 0.0, 269.0)"><text xml:space="preserve" font-family="SourceSansPro-SemiboldIt" font-style="italic" font-weight="bold" font-size="28.0" fill="#FEFFFF" transform="matrix(1.00, 0.00, -0.00, -1.00, 1.0, 246.0)">S</text><text xml:space="preserve" font-family="SourceSansPro-SemiboldIt" font-style="italic" font-weight="bold" font-size="28.0" fill="#FEFFFF" transform="matrix(1.00, 0.00, -0.00, -1.00, 15.5, 246.0)">e</text><text xml:space="preserve" font-family="SourceSansPro-SemiboldIt" font-style="italic" font-weight="bold" font-size="28.0" fill="#FEFFFF" transform="matrix(1.00, 0.00, -0.00, -1.00, 29.2, 246.0)"> </text><text xml:space="preserve" font-family="SourceSansPro-SemiboldIt" font-style="italic" font-weight="bold" font-size="28.0" fill="#FEFFFF" transform="matrix(1.00, 0.00, -0.00, -1.00, 34.6, 246.0)">v</text><text xml:space="preserve" font-family="SourceSansPro-SemiboldIt" font-style="italic" font-weight="bold" font-size="28.0" fill="#FEFFFF" transform="matrix(1.00, 0.00, -0.00, -1.00, 47.7, 246.0)">o</text><text xml:space="preserve" font-family="SourceSansPro-SemiboldIt" font-style="italic" font-weight="bold" font-size="28.0" fill="#FEFFFF" transform="matrix(1.00, 0.00, -0.00, -1.00, 62.4, 246.0)">c</text><text xml:space="preserve" font-family="SourceSansPro-SemiboldIt" font-style="italic" font-weight="bold" font-size="28.0" fill="#FEFFFF" transform="matrix(1.00, 0.00, -0.00, -1.00, 74.3, 246.0)">ê</text><text xml:space="preserve" font-family="SourceSansPro-SemiboldIt" font-style="italic" font-weight="bold" font-size="28.0" fill="#FEFFFF" transform="matrix(1.00, 0.00, -0.00, -1.00, 87.9, 246.0)"> </text><text xml:space="preserve" font-family="SourceSansPro-SemiboldIt" font-style="italic" font-weight="bold" font-size="28.0" fill="#FEFFFF" transform="matrix(1.00, 0.00, -0.00, -1.00, 93.4, 246.0)">n</text><text xml:space="preserve" font-family="SourceSansPro-SemiboldIt" font-style="italic" font-weight="bold" font-size="28.0" fill="#FEFFFF" transform="matrix(1.00, 0.00, -0.00, -1.00, 108.5, 246.0)">ã</text><text xml:space="preserve" font-family="SourceSansPro-SemiboldIt" font-style="italic" font-weight="bold" font-size="28.0" fill="#FEFFFF" transform="matrix(1.00, 0.00, -0.00, -1.00, 123.7, 246.0)">o</text><text xml:space="preserve" font-family="SourceSansPro-SemiboldIt" font-style="italic" font-weight="bold" font-size="28.0" fill="#FEFFFF" transform="matrix(1.00, 0.00, -0.00, -1.00, 138.4, 246.0)"> </text><text xml:space="preserve" font-family="SourceSansPro-SemiboldIt" font-style="italic" font-weight="bold" font-size="28.0" fill="#FEFFFF" transform="matrix(1.00, 0.00, -0.00, -1.00, 143.9, 246.0)">c</text><text xml:space="preserve" font-family="SourceSansPro-SemiboldIt" font-style="italic" font-weight="bold" font-size="28.0" fill="#FEFFFF" transform="matrix(1.00, 0.00, -0.00, -1.00, 155.7, 246.0)">o</text><text xml:space="preserve" font-family="SourceSansPro-SemiboldIt" font-style="italic" font-weight="bold" font-size="28.0" fill="#FEFFFF" transform="matrix(1.00, 0.00, -0.00, -1.00, 170.4, 246.0)">n</text><text xml:space="preserve" font-family="SourceSansPro-SemiboldIt" font-style="italic" font-weight="bold" font-size="28.0" fill="#FEFFFF" transform="matrix(1.00, 0.00, -0.00, -1.00, 185.5, 246.0)">h</text><text xml:space="preserve" font-family="SourceSansPro-SemiboldIt" font-style="italic" font-weight="bold" font-size="28.0" fill="#FEFFFF" transform="matrix(1.00, 0.00, -0.00, -1.00, 200.4, 246.0)">e</text><text xml:space="preserve" font-family="SourceSansPro-SemiboldIt" font-style="italic" font-weight="bold" font-size="28.0" fill="#FEFFFF" transform="matrix(1.00, 0.00, -0.00, -1.00, 214.1, 246.0)">c</text><text xml:space="preserve" font-family="SourceSansPro-SemiboldIt" font-style="italic" font-weight="bold" font-size="28.0" fill="#FEFFFF" transform="matrix(1.00, 0.00, -0.00, -1.00, 226.4, 246.0)">i</text><text xml:space="preserve" font-family="SourceSansPro-SemiboldIt" font-style="italic" font-weight="bold" font-size="28.0" fill="#FEFFFF" transform="matrix(1.00, 0.00, -0.00, -1.00, 233.4, 246.0)">a</text><text xml:space="preserve" font-family="SourceSansPro-SemiboldIt" font-style="italic" font-weight="bold" font-size="28.0" fill="#FEFFFF" transform="matrix(1.00, 0.00, -0.00, -1.00, 248.6, 246.0)"> </text><text xml:space="preserve" font-family="SourceSansPro-SemiboldIt" font-style="italic" font-weight="bold" font-size="28.0" fill="#FEFFFF" transform="matrix(1.00, 0.00, -0.00, -1.00, 254.1, 246.0)">R</text><text xml:space="preserve" font-family="SourceSansPro-SemiboldIt" font-style="italic" font-weight="bold" font-size="28.0" fill="#FEFFFF" transform="matrix(1.00, 0.00, -0.00, -1.00, 269.9, 246.0)">e</text><text xml:space="preserve" font-family="SourceSansPro-SemiboldIt" font-style="italic" font-weight="bold" font-size="28.0" fill="#FEFFFF" transform="matrix(1.00, 0.00, -0.00, -1.00, 283.6, 246.0)">q</text><text xml:space="preserve" font-family="SourceSansPro-SemiboldIt" font-style="italic" font-weight="bold" font-size="28.0" fill="#FEFFFF" transform="matrix(1.00, 0.00, -0.00, -1.00, 298.8, 246.0)">u</text><text xml:space="preserve" font-family="SourceSansPro-SemiboldIt" font-style="italic" font-weight="bold" font-size="28.0" fill="#FEFFFF" transform="matrix(1.00, 0.00, -0.00, -1.00, 313.9, 246.0)">e</text><text xml:space="preserve" font-family="SourceSansPro-SemiboldIt" font-style="italic" font-weight="bold" font-size="28.0" fill="#FEFFFF" transform="matrix(1.00, 0.00, -0.00, -1.00, 327.5, 246.0)">s</text><text xml:space="preserve" font-family="SourceSansPro-SemiboldIt" font-style="italic" font-weight="bold" font-size="28.0" fill="#FEFFFF" transform="matrix(1.00, 0.00, -0.00, -1.00, 339.1, 246.0)">t</text><text xml:space="preserve" font-family="SourceSansPro-SemiboldIt" font-style="italic" font-weight="bold" font-size="28.0" fill="#FEFFFF" transform="matrix(1.00, 0.00, -0.00, -1.00, 348.8, 246.0)"> </text><text xml:space="preserve" font-family="SourceSansPro-SemiboldIt" font-style="italic" font-weight="bold" font-size="28.0" fill="#FEFFFF" transform="matrix(1.00, 0.00, -0.00, -1.00, 1.0, 210.0)">I</text><text xml:space="preserve" font-family="SourceSansPro-SemiboldIt" font-style="italic" font-weight="bold" font-size="28.0" fill="#FEFFFF" transform="matrix(1.00, 0.00, -0.00, -1.00, 8.6, 210.0)">D</text><text xml:space="preserve" font-family="SourceSansPro-SemiboldIt" font-style="italic" font-weight="bold" font-size="28.0" fill="#FEFFFF" transform="matrix(1.00, 0.00, -0.00, -1.00, 25.6, 210.0)">,</text><text xml:space="preserve" font-family="SourceSansPro-SemiboldIt" font-style="italic" font-weight="bold" font-size="28.0" fill="#FEFFFF" transform="matrix(1.00, 0.00, -0.00, -1.00, 33.0, 210.0)"> </text><text xml:space="preserve" font-family="SourceSansPro-SemiboldIt" font-style="italic" font-weight="bold" font-size="28.0" fill="#FEFFFF" transform="matrix(1.00, 0.00, -0.00, -1.00, 38.5, 210.0)">a</text><text xml:space="preserve" font-family="SourceSansPro-SemiboldIt" font-style="italic" font-weight="bold" font-size="28.0" fill="#FEFFFF" transform="matrix(1.00, 0.00, -0.00, -1.00, 53.7, 210.0)">q</text><text xml:space="preserve" font-family="SourceSansPro-SemiboldIt" font-style="italic" font-weight="bold" font-size="28.0" fill="#FEFFFF" transform="matrix(1.00, 0.00, -0.00, -1.00, 69.0, 210.0)">u</text><text xml:space="preserve" font-family="SourceSansPro-SemiboldIt" font-style="italic" font-weight="bold" font-size="28.0" fill="#FEFFFF" transform="matrix(1.00, 0.00, -0.00, -1.00, 84.0, 210.0)">i</text><text xml:space="preserve" font-family="SourceSansPro-SemiboldIt" font-style="italic" font-weight="bold" font-size="28.0" fill="#FEFFFF" transform="matrix(1.00, 0.00, -0.00, -1.00, 91.0, 210.0)"> </text><text xml:space="preserve" font-family="SourceSansPro-SemiboldIt" font-style="italic" font-weight="bold" font-size="28.0" fill="#FEFFFF" transform="matrix(1.00, 0.00, -0.00, -1.00, 96.5, 210.0)">e</text><text xml:space="preserve" font-family="SourceSansPro-SemiboldIt" font-style="italic" font-weight="bold" font-size="28.0" fill="#FEFFFF" transform="matrix(1.00, 0.00, -0.00, -1.00, 110.1, 210.0)">s</text><text xml:space="preserve" font-family="SourceSansPro-SemiboldIt" font-style="italic" font-weight="bold" font-size="28.0" fill="#FEFFFF" transform="matrix(1.00, 0.00, -0.00, -1.00, 121.7, 210.0)">t</text><text xml:space="preserve" font-family="SourceSansPro-SemiboldIt" font-style="italic" font-weight="bold" font-size="28.0" fill="#FEFFFF" transform="matrix(1.00, 0.00, -0.00, -1.00, 131.1, 210.0)">á</text><text xml:space="preserve" font-family="SourceSansPro-SemiboldIt" font-style="italic" font-weight="bold" font-size="28.0" fill="#FEFFFF" transform="matrix(1.00, 0.00, -0.00, -1.00, 146.3, 210.0)"> </text><text xml:space="preserve" font-family="SourceSansPro-SemiboldIt" font-style="italic" font-weight="bold" font-size="28.0" fill="#FEFFFF" transform="matrix(1.00, 0.00, -0.00, -1.00, 151.8, 210.0)">u</text><text xml:space="preserve" font-family="SourceSansPro-SemiboldIt" font-style="italic" font-weight="bold" font-size="28.0" fill="#FEFFFF" transform="matrix(1.00, 0.00, -0.00, -1.00, 166.8, 210.0)">m</text><text xml:space="preserve" font-family="SourceSansPro-SemiboldIt" font-style="italic" font-weight="bold" font-size="28.0" fill="#FEFFFF" transform="matrix(1.00, 0.00, -0.00, -1.00, 189.6, 210.0)">a</text><text xml:space="preserve" font-family="SourceSansPro-SemiboldIt" font-style="italic" font-weight="bold" font-size="28.0" fill="#FEFFFF" transform="matrix(1.00, 0.00, -0.00, -1.00, 204.8, 210.0)"> </text><text xml:space="preserve" font-family="SourceSansPro-SemiboldIt" font-style="italic" font-weight="bold" font-size="28.0" fill="#FEFFFF" transform="matrix(1.00, 0.00, -0.00, -1.00, 210.2, 210.0)">d</text><text xml:space="preserve" font-family="SourceSansPro-SemiboldIt" font-style="italic" font-weight="bold" font-size="28.0" fill="#FEFFFF" transform="matrix(1.00, 0.00, -0.00, -1.00, 225.4, 210.0)">a</text><text xml:space="preserve" font-family="SourceSansPro-SemiboldIt" font-style="italic" font-weight="bold" font-size="28.0" fill="#FEFFFF" transform="matrix(1.00, 0.00, -0.00, -1.00, 240.6, 210.0)">s</text><text xml:space="preserve" font-family="SourceSansPro-SemiboldIt" font-style="italic" font-weight="bold" font-size="28.0" fill="#FEFFFF" transform="matrix(1.00, 0.00, -0.00, -1.00, 252.2, 210.0)"> </text><text xml:space="preserve" font-family="SourceSansPro-SemiboldIt" font-style="italic" font-weight="bold" font-size="28.0" fill="#FEFFFF" transform="matrix(1.00, 0.00, -0.00, -1.00, 1.0, 174.0)">m</text><text xml:space="preserve" font-family="SourceSansPro-SemiboldIt" font-style="italic" font-weight="bold" font-size="28.0" fill="#FEFFFF" transform="matrix(1.00, 0.00, -0.00, -1.00, 23.8, 174.0)">e</text><text xml:space="preserve" font-family="SourceSansPro-SemiboldIt" font-style="italic" font-weight="bold" font-size="28.0" fill="#FEFFFF" transform="matrix(1.00, 0.00, -0.00, -1.00, 37.4, 174.0)">l</text><text xml:space="preserve" font-family="SourceSansPro-SemiboldIt" font-style="italic" font-weight="bold" font-size="28.0" fill="#FEFFFF" transform="matrix(1.00, 0.00, -0.00, -1.00, 44.8, 174.0)">h</text><text xml:space="preserve" font-family="SourceSansPro-SemiboldIt" font-style="italic" font-weight="bold" font-size="28.0" fill="#FEFFFF" transform="matrix(1.00, 0.00, -0.00, -1.00, 59.7, 174.0)">o</text><text xml:space="preserve" font-family="SourceSansPro-SemiboldIt" font-style="italic" font-weight="bold" font-size="28.0" fill="#FEFFFF" transform="matrix(1.00, 0.00, -0.00, -1.00, 74.4, 174.0)">r</text><text xml:space="preserve" font-family="SourceSansPro-SemiboldIt" font-style="italic" font-weight="bold" font-size="28.0" fill="#FEFFFF" transform="matrix(1.00, 0.00, -0.00, -1.00, 84.2, 174.0)">e</text><text xml:space="preserve" font-family="SourceSansPro-SemiboldIt" font-style="italic" font-weight="bold" font-size="28.0" fill="#FEFFFF" transform="matrix(1.00, 0.00, -0.00, -1.00, 97.9, 174.0)">s</text><text xml:space="preserve" font-family="SourceSansPro-SemiboldIt" font-style="italic" font-weight="bold" font-size="28.0" fill="#FEFFFF" transform="matrix(1.00, 0.00, -0.00, -1.00, 109.5, 174.0)"> </text><text xml:space="preserve" font-family="SourceSansPro-SemiboldIt" font-style="italic" font-weight="bold" font-size="28.0" fill="#FEFFFF" transform="matrix(1.00, 0.00, -0.00, -1.00, 114.9, 174.0)">l</text><text xml:space="preserve" font-family="SourceSansPro-SemiboldIt" font-style="italic" font-weight="bold" font-size="28.0" fill="#FEFFFF" transform="matrix(1.00, 0.00, -0.00, -1.00, 122.3, 174.0)">i</text><text xml:space="preserve" font-family="SourceSansPro-SemiboldIt" font-style="italic" font-weight="bold" font-size="28.0" fill="#FEFFFF" transform="matrix(1.00, 0.00, -0.00, -1.00, 129.3, 174.0)">b</text><text xml:space="preserve" font-family="SourceSansPro-SemiboldIt" font-style="italic" font-weight="bold" font-size="28.0" fill="#FEFFFF" transform="matrix(1.00, 0.00, -0.00, -1.00, 144.6, 174.0)">s</text><text xml:space="preserve" font-family="SourceSansPro-SemiboldIt" font-style="italic" font-weight="bold" font-size="28.0" fill="#FEFFFF" transform="matrix(1.00, 0.00, -0.00, -1.00, 156.1, 174.0)"> </text><text xml:space="preserve" font-family="SourceSansPro-SemiboldIt" font-style="italic" font-weight="bold" font-size="28.0" fill="#FEFFFF" transform="matrix(1.00, 0.00, -0.00, -1.00, 161.6, 174.0)">p</text><text xml:space="preserve" font-family="SourceSansPro-SemiboldIt" font-style="italic" font-weight="bold" font-size="28.0" fill="#FEFFFF" transform="matrix(1.00, 0.00, -0.00, -1.00, 176.8, 174.0)">a</text><text xml:space="preserve" font-family="SourceSansPro-SemiboldIt" font-style="italic" font-weight="bold" font-size="28.0" fill="#FEFFFF" transform="matrix(1.00, 0.00, -0.00, -1.00, 192.0, 174.0)">r</text><text xml:space="preserve" font-family="SourceSansPro-SemiboldIt" font-style="italic" font-weight="bold" font-size="28.0" fill="#FEFFFF" transform="matrix(1.00, 0.00, -0.00, -1.00, 201.9, 174.0)">a</text><text xml:space="preserve" font-family="SourceSansPro-SemiboldIt" font-style="italic" font-weight="bold" font-size="28.0" fill="#FEFFFF" transform="matrix(1.00, 0.00, -0.00, -1.00, 217.2, 174.0)"> </text><text xml:space="preserve" font-family="SourceSansPro-SemiboldIt" font-style="italic" font-weight="bold" font-size="28.0" fill="#FEFFFF" transform="matrix(1.00, 0.00, -0.00, -1.00, 222.6, 174.0)">u</text><text xml:space="preserve" font-family="SourceSansPro-SemiboldIt" font-style="italic" font-weight="bold" font-size="28.0" fill="#FEFFFF" transform="matrix(1.00, 0.00, -0.00, -1.00, 237.7, 174.0)">s</text><text xml:space="preserve" font-family="SourceSansPro-SemiboldIt" font-style="italic" font-weight="bold" font-size="28.0" fill="#FEFFFF" transform="matrix(1.00, 0.00, -0.00, -1.00, 249.2, 174.0)">a</text><text xml:space="preserve" font-family="SourceSansPro-SemiboldIt" font-style="italic" font-weight="bold" font-size="28.0" fill="#FEFFFF" transform="matrix(1.00, 0.00, -0.00, -1.00, 264.5, 174.0)">r</text><text xml:space="preserve" font-family="SourceSansPro-SemiboldIt" font-style="italic" font-weight="bold" font-size="28.0" fill="#FEFFFF" transform="matrix(1.00, 0.00, -0.00, -1.00, 274.6, 174.0)"> </text><text xml:space="preserve" font-family="SourceSansPro-SemiboldIt" font-style="italic" font-weight="bold" font-size="28.0" fill="#FEFFFF" transform="matrix(1.00, 0.00, -0.00, -1.00, 280.1, 174.0)">c</text><text xml:space="preserve" font-family="SourceSansPro-SemiboldIt" font-style="italic" font-weight="bold" font-size="28.0" fill="#FEFFFF" transform="matrix(1.00, 0.00, -0.00, -1.00, 291.9, 174.0)">o</text><text xml:space="preserve" font-family="SourceSansPro-SemiboldIt" font-style="italic" font-weight="bold" font-size="28.0" fill="#FEFFFF" transform="matrix(1.00, 0.00, -0.00, -1.00, 306.6, 174.0)">m</text><text xml:space="preserve" font-family="SourceSansPro-SemiboldIt" font-style="italic" font-weight="bold" font-size="28.0" fill="#FEFFFF" transform="matrix(1.00, 0.00, -0.00, -1.00, 329.4, 174.0)"> </text><text xml:space="preserve" font-family="SourceSansPro-SemiboldIt" font-style="italic" font-weight="bold" font-size="28.0" fill="#FEFFFF" transform="matrix(1.00, 0.00, -0.00, -1.00, 1.0, 138.0)">E</text><text xml:space="preserve" font-family="SourceSansPro-SemiboldIt" font-style="italic" font-weight="bold" font-size="28.0" fill="#FEFFFF" transform="matrix(1.00, 0.00, -0.00, -1.00, 15.4, 138.0)">x</text><text xml:space="preserve" font-family="SourceSansPro-SemiboldIt" font-style="italic" font-weight="bold" font-size="28.0" fill="#FEFFFF" transform="matrix(1.00, 0.00, -0.00, -1.00, 28.3, 138.0)">p</text><text xml:space="preserve" font-family="SourceSansPro-SemiboldIt" font-style="italic" font-weight="bold" font-size="28.0" fill="#FEFFFF" transform="matrix(1.00, 0.00, -0.00, -1.00, 43.5, 138.0)">r</text><text xml:space="preserve" font-family="SourceSansPro-SemiboldIt" font-style="italic" font-weight="bold" font-size="28.0" fill="#FEFFFF" transform="matrix(1.00, 0.00, -0.00, -1.00, 53.4, 138.0)">e</text><text xml:space="preserve" font-family="SourceSansPro-SemiboldIt" font-style="italic" font-weight="bold" font-size="28.0" fill="#FEFFFF" transform="matrix(1.00, 0.00, -0.00, -1.00, 67.1, 138.0)">s</text><text xml:space="preserve" font-family="SourceSansPro-SemiboldIt" font-style="italic" font-weight="bold" font-size="28.0" fill="#FEFFFF" transform="matrix(1.00, 0.00, -0.00, -1.00, 78.6, 138.0)">s</text><text xml:space="preserve" font-family="SourceSansPro-SemiboldIt" font-style="italic" font-weight="bold" font-size="28.0" fill="#FEFFFF" transform="matrix(1.00, 0.00, -0.00, -1.00, 90.2, 138.0)">.</text><text xml:space="preserve" font-family="SourceSansPro-SemiboldIt" font-style="italic" font-weight="bold" font-size="28.0" fill="#FEFFFF" transform="matrix(1.00, 0.00, -0.00, -1.00, 97.7, 138.0)"> </text><text xml:space="preserve" font-family="SourceSansPro-Bold" font-weight="bold" font-size="38.0" fill="#6FBF40" transform="matrix(1.00, 0.00, -0.00, -1.00, 1.0, 58.0)">n</text><text xml:space="preserve" font-family="SourceSansPro-Bold" font-weight="bold" font-size="38.0" fill="#6FBF40" transform="matrix(1.00, 0.00, -0.00, -1.00, 22.7, 58.0)">p</text><text xml:space="preserve" font-family="SourceSansPro-Bold" font-weight="bold" font-size="38.0" fill="#6FBF40" transform="matrix(1.00, 0.00, -0.00, -1.00, 44.5, 58.0)">m</text><text xml:space="preserve" font-family="SourceSansPro-Bold" font-weight="bold" font-size="38.0" fill="#6FBF40" transform="matrix(1.00, 0.00, -0.00, -1.00, 77.1, 58.0)">j</text><text xml:space="preserve" font-family="SourceSansPro-Bold" font-weight="bold" font-size="38.0" fill="#6FBF40" transform="matrix(1.00, 0.00, -0.00, -1.00, 87.6, 58.0)">s</text><text xml:space="preserve" font-family="SourceSansPro-Bold" font-weight="bold" font-size="38.0" fill="#6FBF40" transform="matrix(1.00, 0.00, -0.00, -1.00, 104.5, 58.0)">.</text><text xml:space="preserve" font-family="SourceSansPro-Bold" font-weight="bold" font-size="38.0" fill="#6FBF40" transform="matrix(1.00, 0.00, -0.00, -1.00, 115.5, 58.0)">c</text><text xml:space="preserve" font-family="SourceSansPro-Bold" font-weight="bold" font-size="38.0" fill="#6FBF40" transform="matrix(1.00, 0.00, -0.00, -1.00, 132.2, 58.0)">o</text><text xml:space="preserve" font-family="SourceSansPro-Bold" font-weight="bold" font-size="38.0" fill="#6FBF40" transform="matrix(1.00, 0.00, -0.00, -1.00, 153.3, 58.0)">m</text><text xml:space="preserve" font-family="SourceSansPro-Bold" font-weight="bold" font-size="38.0" fill="#6FBF40" transform="matrix(1.00, 0.00, -0.00, -1.00, 185.8, 58.0)">/</text><text xml:space="preserve" font-family="SourceSansPro-Bold" font-weight="bold" font-size="38.0" fill="#6FBF40" transform="matrix(1.00, 0.00, -0.00, -1.00, 198.7, 58.0)">r</text><text xml:space="preserve" font-family="SourceSansPro-Bold" font-weight="bold" font-size="38.0" fill="#6FBF40" transform="matrix(1.00, 0.00, -0.00, -1.00, 213.5, 58.0)">e</text><text xml:space="preserve" font-family="SourceSansPro-Bold" font-weight="bold" font-size="38.0" fill="#6FBF40" transform="matrix(1.00, 0.00, -0.00, -1.00, 233.1, 58.0)">q</text><text xml:space="preserve" font-family="SourceSansPro-Bold" font-weight="bold" font-size="38.0" fill="#6FBF40" transform="matrix(1.00, 0.00, -0.00, -1.00, 254.9, 58.0)">u</text><text xml:space="preserve" font-family="SourceSansPro-Bold" font-weight="bold" font-size="38.0" fill="#6FBF40" transform="matrix(1.00, 0.00, -0.00, -1.00, 276.5, 58.0)">e</text><text xml:space="preserve" font-family="SourceSansPro-Bold" font-weight="bold" font-size="38.0" fill="#6FBF40" transform="matrix(1.00, 0.00, -0.00, -1.00, 296.2, 58.0)">s</text><text xml:space="preserve" font-family="SourceSansPro-Bold" font-weight="bold" font-size="38.0" fill="#6FBF40" transform="matrix(1.00, 0.00, -0.00, -1.00, 312.3, 58.0)">t</text><text xml:space="preserve" font-family="SourceSansPro-Bold" font-weight="bold" font-size="38.0" fill="#6FBF40" transform="matrix(1.00, 0.00, -0.00, -1.00, 325.4, 58.0)">-</text><g><clipPath id="clip-366"><path d="M 0.3 53.1 L 338.4 53.1 L 338.4 57.0 L 0.3 57.0 Z M 0.3 53.1 "></path></clipPath><g clip-path="url(#clip-366)"><path d="M 4.0 223.5 L 341.1 223.5 " fill="none" stroke="#6FBF40" stroke-width="1.90" stroke-miterlimit="0.00" transform="matrix(1.00, 0.00, 0.00, -1.00, -2.7, 278.5)"></path></g></g><text xml:space="preserve" font-family="SourceSansPro-Bold" font-weight="bold" font-size="38.0" fill="#6FBF40" transform="matrix(1.00, 0.00, -0.00, -1.00, 1.0, 11.0)">i</text><text xml:space="preserve" font-family="SourceSansPro-Bold" font-weight="bold" font-size="38.0" fill="#6FBF40" transform="matrix(1.00, 0.00, -0.00, -1.00, 11.5, 11.0)">d</text><g><clipPath id="clip-367"><path d="M 0.3 6.1 L 33.6 6.1 L 33.6 10.0 L 0.3 10.0 Z M 0.3 6.1 "></path></clipPath><g clip-path="url(#clip-367)"><path d="M 4.0 270.5 L 36.3 270.5 " fill="none" stroke="#6FBF40" stroke-width="1.90" stroke-miterlimit="0.00" transform="matrix(1.00, 0.00, 0.00, -1.00, -2.7, 278.5)"></path></g></g></g></svg>