<?xml version="1.0" encoding="UTF-8" standalone="no"?><svg xmlns="http://www.w3.org/2000/svg" xmlns:xlink="http://www.w3.org/1999/xlink" clip-rule="evenodd" stroke-miterlimit="4.00" viewBox="0 0 1920 1080"><desc>SVG generated by Keynote</desc><defs></defs><g transform="matrix(1.00, 0.00, -0.00, -1.00, 0.0, 1080.0)"><path d="M 0.0 1080.0 L 1920.0 1080.0 L 1920.0 0.0 L 0.0 0.0 Z M 0.0 1080.0 " fill="#FEFFFF"></path><path d="M 0.0 1080.0 L 1920.0 1080.0 L 1920.0 360.0 L 0.0 360.0 Z M 0.0 1080.0 " fill="#011202"></path><g opacity="0.20"><g><clipPath id="clip-379"><path d="M 7.0 1275.0 L 1913.0 1275.0 L 1913.0 560.0 L 7.0 560.0 Z M 6.5 1275.3 "></path></clipPath><g clip-path="url(#clip-379)"><g><clipPath id="clip-380"><path d="M 5.0 559.0 L 1915.0 559.0 L 1915.0 1080.0 L 5.0 1080.0 Z M 5.0 559.0 "></path></clipPath><g clip-path="url(#clip-380)"><image xlink:href="7789F6A4D1855369624AA42D2754BB4E.jpeg" width="1365.00" height="493.00" transform="matrix(1.45, 0.00, -0.00, -1.45, -28.0, 1275.0)"></image></g></g></g></g></g><path d="M 0.0 720.0 L 1920.0 720.0 L 1920.0 360.0 L 0.0 360.0 Z M 0.0 720.0 " fill="#000000"></path><text xml:space="preserve" font-family="BebasNeueBold" font-weight="bold" font-size="115.0" fill="#6FBF40" transform="matrix(1.00, 0.00, -0.00, -1.00, 614.0, 247.0)">i</text><text xml:space="preserve" font-family="BebasNeueBold" font-weight="bold" font-size="115.0" fill="#6FBF40" transform="matrix(1.00, 0.00, -0.00, -1.00, 635.9, 247.0)">t</text><text xml:space="preserve" font-family="BebasNeueBold" font-weight="bold" font-size="115.0" fill="#6FBF40" transform="matrix(1.00, 0.00, -0.00, -1.00, 676.8, 247.0)">e</text><text xml:space="preserve" font-family="BebasNeueBold" font-weight="bold" font-size="115.0" fill="#6FBF40" transform="matrix(1.00, 0.00, -0.00, -1.00, 719.1, 247.0)">n</text><text xml:space="preserve" font-family="BebasNeueBold" font-weight="bold" font-size="115.0" fill="#6FBF40" transform="matrix(1.00, 0.00, -0.00, -1.00, 768.2, 247.0)">s</text><text xml:space="preserve" font-family="BebasNeueBold" font-weight="bold" font-size="115.0" fill="#6FBF40" transform="matrix(1.00, 0.00, -0.00, -1.00, 811.2, 247.0)"> </text><text xml:space="preserve" font-family="BebasNeueBold" font-weight="bold" font-size="115.0" fill="#6FBF40" transform="matrix(1.00, 0.00, -0.00, -1.00, 829.0, 247.0)">i</text><text xml:space="preserve" font-family="BebasNeueBold" font-weight="bold" font-size="115.0" fill="#6FBF40" transform="matrix(1.00, 0.00, -0.00, -1.00, 850.9, 247.0)">m</text><text xml:space="preserve" font-family="BebasNeueBold" font-weight="bold" font-size="115.0" fill="#6FBF40" transform="matrix(1.00, 0.00, -0.00, -1.00, 913.1, 247.0)">p</text><text xml:space="preserve" font-family="BebasNeueBold" font-weight="bold" font-size="115.0" fill="#6FBF40" transform="matrix(1.00, 0.00, -0.00, -1.00, 956.5, 247.0)">o</text><text xml:space="preserve" font-family="BebasNeueBold" font-weight="bold" font-size="115.0" fill="#6FBF40" transform="matrix(1.00, 0.00, -0.00, -1.00, 1002.0, 247.0)">r</text><text xml:space="preserve" font-family="BebasNeueBold" font-weight="bold" font-size="115.0" fill="#6FBF40" transform="matrix(1.00, 0.00, -0.00, -1.00, 1048.2, 247.0)">t</text><text xml:space="preserve" font-family="BebasNeueBold" font-weight="bold" font-size="115.0" fill="#6FBF40" transform="matrix(1.00, 0.00, -0.00, -1.00, 1084.8, 247.0)">a</text><text xml:space="preserve" font-family="BebasNeueBold" font-weight="bold" font-size="115.0" fill="#6FBF40" transform="matrix(1.00, 0.00, -0.00, -1.00, 1131.6, 247.0)">n</text><text xml:space="preserve" font-family="BebasNeueBold" font-weight="bold" font-size="115.0" fill="#6FBF40" transform="matrix(1.00, 0.00, -0.00, -1.00, 1180.7, 247.0)">t</text><text xml:space="preserve" font-family="BebasNeueBold" font-weight="bold" font-size="115.0" fill="#6FBF40" transform="matrix(1.00, 0.00, -0.00, -1.00, 1221.7, 247.0)">e</text><text xml:space="preserve" font-family="BebasNeueBold" font-weight="bold" font-size="115.0" fill="#6FBF40" transform="matrix(1.00, 0.00, -0.00, -1.00, 1264.0, 247.0)">s</text><text xml:space="preserve" font-family="SourceSansPro-Semibold" font-weight="bold" font-size="36.0" fill="#000000" transform="matrix(1.00, 0.00, -0.00, -1.00, 273.0, 194.0)">P</text><text xml:space="preserve" font-family="SourceSansPro-Semibold" font-weight="bold" font-size="36.0" fill="#000000" transform="matrix(1.00, 0.00, -0.00, -1.00, 293.2, 194.0)">o</text><text xml:space="preserve" font-family="SourceSansPro-Semibold" font-weight="bold" font-size="36.0" fill="#000000" transform="matrix(1.00, 0.00, -0.00, -1.00, 312.9, 194.0)">r</text><text xml:space="preserve" font-family="SourceSansPro-Semibold" font-weight="bold" font-size="36.0" fill="#000000" transform="matrix(1.00, 0.00, -0.00, -1.00, 326.0, 194.0)">q</text><text xml:space="preserve" font-family="SourceSansPro-Semibold" font-weight="bold" font-size="36.0" fill="#000000" transform="matrix(1.00, 0.00, -0.00, -1.00, 346.3, 194.0)">u</text><text xml:space="preserve" font-family="SourceSansPro-Semibold" font-weight="bold" font-size="36.0" fill="#000000" transform="matrix(1.00, 0.00, -0.00, -1.00, 366.3, 194.0)">e</text><text xml:space="preserve" font-family="SourceSansPro-Semibold" font-weight="bold" font-size="36.0" fill="#000000" transform="matrix(1.00, 0.00, -0.00, -1.00, 384.6, 194.0)"> </text><text xml:space="preserve" font-family="SourceSansPro-Semibold" font-weight="bold" font-size="36.0" fill="#000000" transform="matrix(1.00, 0.00, -0.00, -1.00, 391.8, 194.0)">q</text><text xml:space="preserve" font-family="SourceSansPro-Semibold" font-weight="bold" font-size="36.0" fill="#000000" transform="matrix(1.00, 0.00, -0.00, -1.00, 412.1, 194.0)">u</text><text xml:space="preserve" font-family="SourceSansPro-Semibold" font-weight="bold" font-size="36.0" fill="#000000" transform="matrix(1.00, 0.00, -0.00, -1.00, 432.1, 194.0)">e</text><text xml:space="preserve" font-family="SourceSansPro-Semibold" font-weight="bold" font-size="36.0" fill="#000000" transform="matrix(1.00, 0.00, -0.00, -1.00, 450.3, 194.0)"> </text><text xml:space="preserve" font-family="SourceSansPro-Semibold" font-weight="bold" font-size="36.0" fill="#000000" transform="matrix(1.00, 0.00, -0.00, -1.00, 457.5, 194.0)">u</text><text xml:space="preserve" font-family="SourceSansPro-Semibold" font-weight="bold" font-size="36.0" fill="#000000" transform="matrix(1.00, 0.00, -0.00, -1.00, 477.6, 194.0)">m</text><text xml:space="preserve" font-family="SourceSansPro-Semibold" font-weight="bold" font-size="36.0" fill="#000000" transform="matrix(1.00, 0.00, -0.00, -1.00, 507.9, 194.0)"> </text><text xml:space="preserve" font-family="SourceSansPro-Semibold" font-weight="bold" font-size="36.0" fill="#000000" transform="matrix(1.00, 0.00, -0.00, -1.00, 515.1, 194.0)">a</text><text xml:space="preserve" font-family="SourceSansPro-Semibold" font-weight="bold" font-size="36.0" fill="#000000" transform="matrix(1.00, 0.00, -0.00, -1.00, 533.7, 194.0)">m</text><text xml:space="preserve" font-family="SourceSansPro-Semibold" font-weight="bold" font-size="36.0" fill="#000000" transform="matrix(1.00, 0.00, -0.00, -1.00, 564.0, 194.0)">b</text><text xml:space="preserve" font-family="SourceSansPro-Semibold" font-weight="bold" font-size="36.0" fill="#000000" transform="matrix(1.00, 0.00, -0.00, -1.00, 584.3, 194.0)">i</text><text xml:space="preserve" font-family="SourceSansPro-Semibold" font-weight="bold" font-size="36.0" fill="#000000" transform="matrix(1.00, 0.00, -0.00, -1.00, 593.7, 194.0)">e</text><text xml:space="preserve" font-family="SourceSansPro-Semibold" font-weight="bold" font-size="36.0" fill="#000000" transform="matrix(1.00, 0.00, -0.00, -1.00, 612.0, 194.0)">n</text><text xml:space="preserve" font-family="SourceSansPro-Semibold" font-weight="bold" font-size="36.0" fill="#000000" transform="matrix(1.00, 0.00, -0.00, -1.00, 632.1, 194.0)">t</text><text xml:space="preserve" font-family="SourceSansPro-Semibold" font-weight="bold" font-size="36.0" fill="#000000" transform="matrix(1.00, 0.00, -0.00, -1.00, 644.6, 194.0)">e</text><text xml:space="preserve" font-family="SourceSansPro-Semibold" font-weight="bold" font-size="36.0" fill="#000000" transform="matrix(1.00, 0.00, -0.00, -1.00, 662.8, 194.0)"> </text><text xml:space="preserve" font-family="SourceSansPro-Semibold" font-weight="bold" font-size="36.0" fill="#000000" transform="matrix(1.00, 0.00, -0.00, -1.00, 670.0, 194.0)">s</text><text xml:space="preserve" font-family="SourceSansPro-Semibold" font-weight="bold" font-size="36.0" fill="#000000" transform="matrix(1.00, 0.00, -0.00, -1.00, 685.5, 194.0)">e</text><text xml:space="preserve" font-family="SourceSansPro-Semibold" font-weight="bold" font-size="36.0" fill="#000000" transform="matrix(1.00, 0.00, -0.00, -1.00, 703.4, 194.0)">g</text><text xml:space="preserve" font-family="SourceSansPro-Semibold" font-weight="bold" font-size="36.0" fill="#000000" transform="matrix(1.00, 0.00, -0.00, -1.00, 722.1, 194.0)">u</text><text xml:space="preserve" font-family="SourceSansPro-Semibold" font-weight="bold" font-size="36.0" fill="#000000" transform="matrix(1.00, 0.00, -0.00, -1.00, 742.2, 194.0)">r</text><text xml:space="preserve" font-family="SourceSansPro-Semibold" font-weight="bold" font-size="36.0" fill="#000000" transform="matrix(1.00, 0.00, -0.00, -1.00, 755.2, 194.0)">o</text><text xml:space="preserve" font-family="SourceSansPro-Semibold" font-weight="bold" font-size="36.0" fill="#000000" transform="matrix(1.00, 0.00, -0.00, -1.00, 775.0, 194.0)"> </text><text xml:space="preserve" font-family="SourceSansPro-Semibold" font-weight="bold" font-size="36.0" fill="#000000" transform="matrix(1.00, 0.00, -0.00, -1.00, 782.2, 194.0)">e</text><text xml:space="preserve" font-family="SourceSansPro-Semibold" font-weight="bold" font-size="36.0" fill="#000000" transform="matrix(1.00, 0.00, -0.00, -1.00, 800.4, 194.0)"> </text><text xml:space="preserve" font-family="SourceSansPro-Semibold" font-weight="bold" font-size="36.0" fill="#000000" transform="matrix(1.00, 0.00, -0.00, -1.00, 807.6, 194.0)">c</text><text xml:space="preserve" font-family="SourceSansPro-Semibold" font-weight="bold" font-size="36.0" fill="#000000" transform="matrix(1.00, 0.00, -0.00, -1.00, 823.4, 194.0)">o</text><text xml:space="preserve" font-family="SourceSansPro-Semibold" font-weight="bold" font-size="36.0" fill="#000000" transform="matrix(1.00, 0.00, -0.00, -1.00, 843.2, 194.0)">n</text><text xml:space="preserve" font-family="SourceSansPro-Semibold" font-weight="bold" font-size="36.0" fill="#000000" transform="matrix(1.00, 0.00, -0.00, -1.00, 863.3, 194.0)">f</text><text xml:space="preserve" font-family="SourceSansPro-Semibold" font-weight="bold" font-size="36.0" fill="#000000" transform="matrix(1.00, 0.00, -0.00, -1.00, 874.7, 194.0)">i</text><text xml:space="preserve" font-family="SourceSansPro-Semibold" font-weight="bold" font-size="36.0" fill="#000000" transform="matrix(1.00, 0.00, -0.00, -1.00, 884.2, 194.0)">á</text><text xml:space="preserve" font-family="SourceSansPro-Semibold" font-weight="bold" font-size="36.0" fill="#000000" transform="matrix(1.00, 0.00, -0.00, -1.00, 902.7, 194.0)">v</text><text xml:space="preserve" font-family="SourceSansPro-Semibold" font-weight="bold" font-size="36.0" fill="#000000" transform="matrix(1.00, 0.00, -0.00, -1.00, 920.4, 194.0)">e</text><text xml:space="preserve" font-family="SourceSansPro-Semibold" font-weight="bold" font-size="36.0" fill="#000000" transform="matrix(1.00, 0.00, -0.00, -1.00, 938.6, 194.0)">l</text><text xml:space="preserve" font-family="SourceSansPro-Semibold" font-weight="bold" font-size="36.0" fill="#000000" transform="matrix(1.00, 0.00, -0.00, -1.00, 948.4, 194.0)"> </text><text xml:space="preserve" font-family="SourceSansPro-Semibold" font-weight="bold" font-size="36.0" fill="#000000" transform="matrix(1.00, 0.00, -0.00, -1.00, 955.6, 194.0)">t</text><text xml:space="preserve" font-family="SourceSansPro-Semibold" font-weight="bold" font-size="36.0" fill="#000000" transform="matrix(1.00, 0.00, -0.00, -1.00, 967.8, 194.0)">a</text><text xml:space="preserve" font-family="SourceSansPro-Semibold" font-weight="bold" font-size="36.0" fill="#000000" transform="matrix(1.00, 0.00, -0.00, -1.00, 986.4, 194.0)">m</text><text xml:space="preserve" font-family="SourceSansPro-Semibold" font-weight="bold" font-size="36.0" fill="#000000" transform="matrix(1.00, 0.00, -0.00, -1.00, 1016.7, 194.0)">b</text><text xml:space="preserve" font-family="SourceSansPro-Semibold" font-weight="bold" font-size="36.0" fill="#000000" transform="matrix(1.00, 0.00, -0.00, -1.00, 1037.0, 194.0)">é</text><text xml:space="preserve" font-family="SourceSansPro-Semibold" font-weight="bold" font-size="36.0" fill="#000000" transform="matrix(1.00, 0.00, -0.00, -1.00, 1055.2, 194.0)">m</text><text xml:space="preserve" font-family="SourceSansPro-Semibold" font-weight="bold" font-size="36.0" fill="#000000" transform="matrix(1.00, 0.00, -0.00, -1.00, 1085.6, 194.0)"> </text><text xml:space="preserve" font-family="SourceSansPro-Semibold" font-weight="bold" font-size="36.0" fill="#000000" transform="matrix(1.00, 0.00, -0.00, -1.00, 1092.8, 194.0)">f</text><text xml:space="preserve" font-family="SourceSansPro-Semibold" font-weight="bold" font-size="36.0" fill="#000000" transform="matrix(1.00, 0.00, -0.00, -1.00, 1103.5, 194.0)">a</text><text xml:space="preserve" font-family="SourceSansPro-Semibold" font-weight="bold" font-size="36.0" fill="#000000" transform="matrix(1.00, 0.00, -0.00, -1.00, 1122.1, 194.0)">z</text><text xml:space="preserve" font-family="SourceSansPro-Semibold" font-weight="bold" font-size="36.0" fill="#000000" transform="matrix(1.00, 0.00, -0.00, -1.00, 1138.0, 194.0)"> </text><text xml:space="preserve" font-family="SourceSansPro-Semibold" font-weight="bold" font-size="36.0" fill="#000000" transform="matrix(1.00, 0.00, -0.00, -1.00, 1145.2, 194.0)">p</text><text xml:space="preserve" font-family="SourceSansPro-Semibold" font-weight="bold" font-size="36.0" fill="#000000" transform="matrix(1.00, 0.00, -0.00, -1.00, 1165.1, 194.0)">a</text><text xml:space="preserve" font-family="SourceSansPro-Semibold" font-weight="bold" font-size="36.0" fill="#000000" transform="matrix(1.00, 0.00, -0.00, -1.00, 1183.7, 194.0)">r</text><text xml:space="preserve" font-family="SourceSansPro-Semibold" font-weight="bold" font-size="36.0" fill="#000000" transform="matrix(1.00, 0.00, -0.00, -1.00, 1197.1, 194.0)">t</text><text xml:space="preserve" font-family="SourceSansPro-Semibold" font-weight="bold" font-size="36.0" fill="#000000" transform="matrix(1.00, 0.00, -0.00, -1.00, 1209.5, 194.0)">e</text><text xml:space="preserve" font-family="SourceSansPro-Semibold" font-weight="bold" font-size="36.0" fill="#000000" transform="matrix(1.00, 0.00, -0.00, -1.00, 1227.8, 194.0)"> </text><text xml:space="preserve" font-family="SourceSansPro-Semibold" font-weight="bold" font-size="36.0" fill="#000000" transform="matrix(1.00, 0.00, -0.00, -1.00, 1235.0, 194.0)">d</text><text xml:space="preserve" font-family="SourceSansPro-Semibold" font-weight="bold" font-size="36.0" fill="#000000" transform="matrix(1.00, 0.00, -0.00, -1.00, 1255.3, 194.0)">a</text><text xml:space="preserve" font-family="SourceSansPro-Semibold" font-weight="bold" font-size="36.0" fill="#000000" transform="matrix(1.00, 0.00, -0.00, -1.00, 1273.8, 194.0)"> </text><text xml:space="preserve" font-family="SourceSansPro-Semibold" font-weight="bold" font-size="36.0" fill="#000000" transform="matrix(1.00, 0.00, -0.00, -1.00, 1281.0, 194.0)">a</text><text xml:space="preserve" font-family="SourceSansPro-Semibold" font-weight="bold" font-size="36.0" fill="#000000" transform="matrix(1.00, 0.00, -0.00, -1.00, 1299.6, 194.0)">r</text><text xml:space="preserve" font-family="SourceSansPro-Semibold" font-weight="bold" font-size="36.0" fill="#000000" transform="matrix(1.00, 0.00, -0.00, -1.00, 1312.7, 194.0)">q</text><text xml:space="preserve" font-family="SourceSansPro-Semibold" font-weight="bold" font-size="36.0" fill="#000000" transform="matrix(1.00, 0.00, -0.00, -1.00, 1333.0, 194.0)">u</text><text xml:space="preserve" font-family="SourceSansPro-Semibold" font-weight="bold" font-size="36.0" fill="#000000" transform="matrix(1.00, 0.00, -0.00, -1.00, 1353.0, 194.0)">i</text><text xml:space="preserve" font-family="SourceSansPro-Semibold" font-weight="bold" font-size="36.0" fill="#000000" transform="matrix(1.00, 0.00, -0.00, -1.00, 1362.4, 194.0)">t</text><text xml:space="preserve" font-family="SourceSansPro-Semibold" font-weight="bold" font-size="36.0" fill="#000000" transform="matrix(1.00, 0.00, -0.00, -1.00, 1374.9, 194.0)">e</text><text xml:space="preserve" font-family="SourceSansPro-Semibold" font-weight="bold" font-size="36.0" fill="#000000" transform="matrix(1.00, 0.00, -0.00, -1.00, 1392.7, 194.0)">t</text><text xml:space="preserve" font-family="SourceSansPro-Semibold" font-weight="bold" font-size="36.0" fill="#000000" transform="matrix(1.00, 0.00, -0.00, -1.00, 1405.7, 194.0)">u</text><text xml:space="preserve" font-family="SourceSansPro-Semibold" font-weight="bold" font-size="36.0" fill="#000000" transform="matrix(1.00, 0.00, -0.00, -1.00, 1425.8, 194.0)">r</text><text xml:space="preserve" font-family="SourceSansPro-Semibold" font-weight="bold" font-size="36.0" fill="#000000" transform="matrix(1.00, 0.00, -0.00, -1.00, 1438.2, 194.0)">a</text><text xml:space="preserve" font-family="SourceSansPro-Semibold" font-weight="bold" font-size="36.0" fill="#000000" transform="matrix(1.00, 0.00, -0.00, -1.00, 1456.8, 194.0)"> </text><text xml:space="preserve" font-family="SourceSansPro-Semibold" font-weight="bold" font-size="36.0" fill="#000000" transform="matrix(1.00, 0.00, -0.00, -1.00, 1464.0, 194.0)">d</text><text xml:space="preserve" font-family="SourceSansPro-Semibold" font-weight="bold" font-size="36.0" fill="#000000" transform="matrix(1.00, 0.00, -0.00, -1.00, 1484.3, 194.0)">e</text><text xml:space="preserve" font-family="SourceSansPro-Semibold" font-weight="bold" font-size="36.0" fill="#000000" transform="matrix(1.00, 0.00, -0.00, -1.00, 1502.6, 194.0)"> </text><text xml:space="preserve" font-family="SourceSansPro-Semibold" font-weight="bold" font-size="36.0" fill="#000000" transform="matrix(1.00, 0.00, -0.00, -1.00, 1509.8, 194.0)">u</text><text xml:space="preserve" font-family="SourceSansPro-Semibold" font-weight="bold" font-size="36.0" fill="#000000" transform="matrix(1.00, 0.00, -0.00, -1.00, 1529.8, 194.0)">m</text><text xml:space="preserve" font-family="SourceSansPro-Semibold" font-weight="bold" font-size="36.0" fill="#000000" transform="matrix(1.00, 0.00, -0.00, -1.00, 1560.1, 194.0)">a</text><text xml:space="preserve" font-family="SourceSansPro-Semibold" font-weight="bold" font-size="36.0" fill="#000000" transform="matrix(1.00, 0.00, -0.00, -1.00, 1578.7, 194.0)"> </text><text xml:space="preserve" font-family="SourceSansPro-Semibold" font-weight="bold" font-size="36.0" fill="#000000" transform="matrix(1.00, 0.00, -0.00, -1.00, 1585.9, 194.0)">A</text><text xml:space="preserve" font-family="SourceSansPro-Semibold" font-weight="bold" font-size="36.0" fill="#000000" transform="matrix(1.00, 0.00, -0.00, -1.00, 1606.0, 194.0)">P</text><text xml:space="preserve" font-family="SourceSansPro-Semibold" font-weight="bold" font-size="36.0" fill="#000000" transform="matrix(1.00, 0.00, -0.00, -1.00, 1627.0, 194.0)">I</text><text xml:space="preserve" font-family="SourceSansPro-Semibold" font-weight="bold" font-size="36.0" fill="#000000" transform="matrix(1.00, 0.00, -0.00, -1.00, 1637.1, 194.0)">.</text><path d="M 1775.0 1030.0 L 1875.0 1030.0 L 1875.0 961.0 L 1775.0 961.0 Z M 1775.0 1030.0 " fill="#52575F"></path><g><clipPath id="clip-381"><path d="M 1766.5 952.5 L 1883.5 952.5 L 1883.5 1038.5 L 1766.5 1038.5 Z M 1766.5 952.5 "></path></clipPath><g clip-path="url(#clip-381)"><text xml:space="preserve" font-family="BebasNeueBold" font-weight="bold" font-size="50.0" fill="#FEFFFF" transform="matrix(1.00, 0.00, -0.00, -1.00, 1805.0, 978.0)"> </text><text xml:space="preserve" font-family="BebasNeueBold" font-weight="bold" font-size="50.0" fill="#FEFFFF" transform="matrix(1.00, 0.00, -0.00, -1.00, 1805.0, 978.0)">4</text><text xml:space="preserve" font-family="BebasNeueBold" font-weight="bold" font-size="50.0" fill="#FEFFFF" transform="matrix(1.00, 0.00, -0.00, -1.00, 1824.8, 978.0)">4</text></g></g></g></svg>