<?xml version="1.0" encoding="UTF-8" standalone="no"?><svg xmlns="http://www.w3.org/2000/svg" xmlns:xlink="http://www.w3.org/1999/xlink" clip-rule="evenodd" stroke-miterlimit="4.00" viewBox="0 0 1920 1080"><desc>SVG generated by Keynote</desc><defs></defs><g transform="matrix(1.00, 0.00, -0.00, -1.00, 0.0, 1080.0)"><path d="M 0.0 1080.0 L 1920.0 1080.0 L 1920.0 0.0 L 0.0 0.0 Z M 0.0 1080.0 " fill="#FEFFFF"></path><path d="M 0.0 1080.0 L 1920.0 1080.0 L 1920.0 -0.0 L 0.0 -0.0 Z M 0.0 1080.0 " fill="#011202"></path><g opacity="0.20"><g><clipPath id="clip-243"><path d="M 0.0 1080.0 L 1920.0 1080.0 L 1920.0 0.0 L 0.0 0.0 Z M 0.0 1080.0 "></path></clipPath><g clip-path="url(#clip-243)"><g><clipPath id="clip-244"><path d="M 0.0 0.0 L 1920.0 0.0 L 1920.0 1080.0 L 0.0 1080.0 Z M 0.0 0.0 "></path></clipPath><g clip-path="url(#clip-244)"><image xlink:href="../../49B0041F-D2B6-45AE-B257-4A439451C92F/assets/23497D77A7F06362AFD4423070F345EA.jpeg" width="1366.00" height="768.00" transform="matrix(1.41, 0.00, -0.00, -1.41, 0.0, 1080.0)"></image></g></g></g></g></g><text xml:space="preserve" font-family="BebasNeueBold" font-weight="bold" font-size="115.0" fill="#6FBF40" transform="matrix(1.00, 0.00, -0.00, -1.00, 795.0, 428.0)">s</text><text xml:space="preserve" font-family="BebasNeueBold" font-weight="bold" font-size="115.0" fill="#6FBF40" transform="matrix(1.00, 0.00, -0.00, -1.00, 838.0, 428.0)">c</text><text xml:space="preserve" font-family="BebasNeueBold" font-weight="bold" font-size="115.0" fill="#6FBF40" transform="matrix(1.00, 0.00, -0.00, -1.00, 882.4, 428.0)">h</text><text xml:space="preserve" font-family="BebasNeueBold" font-weight="bold" font-size="115.0" fill="#6FBF40" transform="matrix(1.00, 0.00, -0.00, -1.00, 931.5, 428.0)">e</text><text xml:space="preserve" font-family="BebasNeueBold" font-weight="bold" font-size="115.0" fill="#6FBF40" transform="matrix(1.00, 0.00, -0.00, -1.00, 973.8, 428.0)">m</text><text xml:space="preserve" font-family="BebasNeueBold" font-weight="bold" font-size="115.0" fill="#6FBF40" transform="matrix(1.00, 0.00, -0.00, -1.00, 1036.0, 428.0)">a</text><text xml:space="preserve" font-family="BebasNeueBold" font-weight="bold" font-size="115.0" fill="#6FBF40" transform="matrix(1.00, 0.00, -0.00, -1.00, 1082.8, 428.0)">s</text><text xml:space="preserve" font-family="SourceSansPro-Regular" font-size="43.1" fill="#FEFFFF" transform="matrix(1.00, 0.00, -0.00, -1.00, 372.0, 353.0)">R</text><text xml:space="preserve" font-family="SourceSansPro-Regular" font-size="43.1" fill="#FEFFFF" transform="matrix(1.00, 0.00, -0.00, -1.00, 396.1, 353.0)">e</text><text xml:space="preserve" font-family="SourceSansPro-Regular" font-size="43.1" fill="#FEFFFF" transform="matrix(1.00, 0.00, -0.00, -1.00, 417.5, 353.0)">s</text><text xml:space="preserve" font-family="SourceSansPro-Regular" font-size="43.1" fill="#FEFFFF" transform="matrix(1.00, 0.00, -0.00, -1.00, 435.6, 353.0)">p</text><text xml:space="preserve" font-family="SourceSansPro-Regular" font-size="43.1" fill="#FEFFFF" transform="matrix(1.00, 0.00, -0.00, -1.00, 459.5, 353.0)">o</text><text xml:space="preserve" font-family="SourceSansPro-Regular" font-size="43.1" fill="#FEFFFF" transform="matrix(1.00, 0.00, -0.00, -1.00, 482.9, 353.0)">n</text><text xml:space="preserve" font-family="SourceSansPro-Regular" font-size="43.1" fill="#FEFFFF" transform="matrix(1.00, 0.00, -0.00, -1.00, 506.4, 353.0)">s</text><text xml:space="preserve" font-family="SourceSansPro-Regular" font-size="43.1" fill="#FEFFFF" transform="matrix(1.00, 0.00, -0.00, -1.00, 524.5, 353.0)">á</text><text xml:space="preserve" font-family="SourceSansPro-Regular" font-size="43.1" fill="#FEFFFF" transform="matrix(1.00, 0.00, -0.00, -1.00, 546.2, 353.0)">v</text><text xml:space="preserve" font-family="SourceSansPro-Regular" font-size="43.1" fill="#FEFFFF" transform="matrix(1.00, 0.00, -0.00, -1.00, 566.2, 353.0)">e</text><text xml:space="preserve" font-family="SourceSansPro-Regular" font-size="43.1" fill="#FEFFFF" transform="matrix(1.00, 0.00, -0.00, -1.00, 587.6, 353.0)">i</text><text xml:space="preserve" font-family="SourceSansPro-Regular" font-size="43.1" fill="#FEFFFF" transform="matrix(1.00, 0.00, -0.00, -1.00, 598.2, 353.0)">s</text><text xml:space="preserve" font-family="SourceSansPro-Regular" font-size="43.1" fill="#FEFFFF" transform="matrix(1.00, 0.00, -0.00, -1.00, 616.3, 353.0)"> </text><text xml:space="preserve" font-family="SourceSansPro-Regular" font-size="43.1" fill="#FEFFFF" transform="matrix(1.00, 0.00, -0.00, -1.00, 624.9, 353.0)">p</text><text xml:space="preserve" font-family="SourceSansPro-Regular" font-size="43.1" fill="#FEFFFF" transform="matrix(1.00, 0.00, -0.00, -1.00, 648.8, 353.0)">o</text><text xml:space="preserve" font-family="SourceSansPro-Regular" font-size="43.1" fill="#FEFFFF" transform="matrix(1.00, 0.00, -0.00, -1.00, 672.2, 353.0)">r</text><text xml:space="preserve" font-family="SourceSansPro-Regular" font-size="43.1" fill="#FEFFFF" transform="matrix(1.00, 0.00, -0.00, -1.00, 687.2, 353.0)"> </text><text xml:space="preserve" font-family="SourceSansPro-Regular" font-size="43.1" fill="#FEFFFF" transform="matrix(1.00, 0.00, -0.00, -1.00, 695.8, 353.0)">d</text><text xml:space="preserve" font-family="SourceSansPro-Regular" font-size="43.1" fill="#FEFFFF" transform="matrix(1.00, 0.00, -0.00, -1.00, 719.7, 353.0)">e</text><text xml:space="preserve" font-family="SourceSansPro-Regular" font-size="43.1" fill="#FEFFFF" transform="matrix(1.00, 0.00, -0.00, -1.00, 741.1, 353.0)">f</text><text xml:space="preserve" font-family="SourceSansPro-Regular" font-size="43.1" fill="#FEFFFF" transform="matrix(1.00, 0.00, -0.00, -1.00, 753.7, 353.0)">i</text><text xml:space="preserve" font-family="SourceSansPro-Regular" font-size="43.1" fill="#FEFFFF" transform="matrix(1.00, 0.00, -0.00, -1.00, 764.3, 353.0)">n</text><text xml:space="preserve" font-family="SourceSansPro-Regular" font-size="43.1" fill="#FEFFFF" transform="matrix(1.00, 0.00, -0.00, -1.00, 787.9, 353.0)">i</text><text xml:space="preserve" font-family="SourceSansPro-Regular" font-size="43.1" fill="#FEFFFF" transform="matrix(1.00, 0.00, -0.00, -1.00, 798.5, 353.0)">r</text><text xml:space="preserve" font-family="SourceSansPro-Regular" font-size="43.1" fill="#FEFFFF" transform="matrix(1.00, 0.00, -0.00, -1.00, 813.5, 353.0)"> </text><text xml:space="preserve" font-family="SourceSansPro-Regular" font-size="43.1" fill="#FEFFFF" transform="matrix(1.00, 0.00, -0.00, -1.00, 822.1, 353.0)">u</text><text xml:space="preserve" font-family="SourceSansPro-Regular" font-size="43.1" fill="#FEFFFF" transform="matrix(1.00, 0.00, -0.00, -1.00, 845.5, 353.0)">m</text><text xml:space="preserve" font-family="SourceSansPro-Regular" font-size="43.1" fill="#FEFFFF" transform="matrix(1.00, 0.00, -0.00, -1.00, 881.3, 353.0)"> </text><text xml:space="preserve" font-family="SourceSansPro-Regular" font-size="43.1" fill="#FEFFFF" transform="matrix(1.00, 0.00, -0.00, -1.00, 889.9, 353.0)">c</text><text xml:space="preserve" font-family="SourceSansPro-Regular" font-size="43.1" fill="#FEFFFF" transform="matrix(1.00, 0.00, -0.00, -1.00, 908.7, 353.0)">o</text><text xml:space="preserve" font-family="SourceSansPro-Regular" font-size="43.1" fill="#FEFFFF" transform="matrix(1.00, 0.00, -0.00, -1.00, 932.0, 353.0)">n</text><text xml:space="preserve" font-family="SourceSansPro-Regular" font-size="43.1" fill="#FEFFFF" transform="matrix(1.00, 0.00, -0.00, -1.00, 955.6, 353.0)">j</text><text xml:space="preserve" font-family="SourceSansPro-Regular" font-size="43.1" fill="#FEFFFF" transform="matrix(1.00, 0.00, -0.00, -1.00, 966.3, 353.0)">u</text><text xml:space="preserve" font-family="SourceSansPro-Regular" font-size="43.1" fill="#FEFFFF" transform="matrix(1.00, 0.00, -0.00, -1.00, 989.7, 353.0)">n</text><text xml:space="preserve" font-family="SourceSansPro-Regular" font-size="43.1" fill="#FEFFFF" transform="matrix(1.00, 0.00, -0.00, -1.00, 1013.3, 353.0)">t</text><text xml:space="preserve" font-family="SourceSansPro-Regular" font-size="43.1" fill="#FEFFFF" transform="matrix(1.00, 0.00, -0.00, -1.00, 1027.3, 353.0)">o</text><text xml:space="preserve" font-family="SourceSansPro-Regular" font-size="43.1" fill="#FEFFFF" transform="matrix(1.00, 0.00, -0.00, -1.00, 1050.7, 353.0)"> </text><text xml:space="preserve" font-family="SourceSansPro-Regular" font-size="43.1" fill="#FEFFFF" transform="matrix(1.00, 0.00, -0.00, -1.00, 1059.3, 353.0)">d</text><text xml:space="preserve" font-family="SourceSansPro-Regular" font-size="43.1" fill="#FEFFFF" transform="matrix(1.00, 0.00, -0.00, -1.00, 1083.2, 353.0)">e</text><text xml:space="preserve" font-family="SourceSansPro-Regular" font-size="43.1" fill="#FEFFFF" transform="matrix(1.00, 0.00, -0.00, -1.00, 1104.6, 353.0)"> </text><text xml:space="preserve" font-family="SourceSansPro-Regular" font-size="43.1" fill="#FEFFFF" transform="matrix(1.00, 0.00, -0.00, -1.00, 1113.2, 353.0)">r</text><text xml:space="preserve" font-family="SourceSansPro-Regular" font-size="43.1" fill="#FEFFFF" transform="matrix(1.00, 0.00, -0.00, -1.00, 1127.8, 353.0)">e</text><text xml:space="preserve" font-family="SourceSansPro-Regular" font-size="43.1" fill="#FEFFFF" transform="matrix(1.00, 0.00, -0.00, -1.00, 1148.7, 353.0)">g</text><text xml:space="preserve" font-family="SourceSansPro-Regular" font-size="43.1" fill="#FEFFFF" transform="matrix(1.00, 0.00, -0.00, -1.00, 1170.5, 353.0)">r</text><text xml:space="preserve" font-family="SourceSansPro-Regular" font-size="43.1" fill="#FEFFFF" transform="matrix(1.00, 0.00, -0.00, -1.00, 1184.4, 353.0)">a</text><text xml:space="preserve" font-family="SourceSansPro-Regular" font-size="43.1" fill="#FEFFFF" transform="matrix(1.00, 0.00, -0.00, -1.00, 1206.1, 353.0)">s</text><text xml:space="preserve" font-family="SourceSansPro-Regular" font-size="43.1" fill="#FEFFFF" transform="matrix(1.00, 0.00, -0.00, -1.00, 1224.2, 353.0)"> </text><text xml:space="preserve" font-family="SourceSansPro-Regular" font-size="43.1" fill="#FEFFFF" transform="matrix(1.00, 0.00, -0.00, -1.00, 1232.8, 353.0)">p</text><text xml:space="preserve" font-family="SourceSansPro-Regular" font-size="43.1" fill="#FEFFFF" transform="matrix(1.00, 0.00, -0.00, -1.00, 1256.1, 353.0)">a</text><text xml:space="preserve" font-family="SourceSansPro-Regular" font-size="43.1" fill="#FEFFFF" transform="matrix(1.00, 0.00, -0.00, -1.00, 1277.9, 353.0)">r</text><text xml:space="preserve" font-family="SourceSansPro-Regular" font-size="43.1" fill="#FEFFFF" transform="matrix(1.00, 0.00, -0.00, -1.00, 1291.8, 353.0)">a</text><text xml:space="preserve" font-family="SourceSansPro-Regular" font-size="43.1" fill="#FEFFFF" transform="matrix(1.00, 0.00, -0.00, -1.00, 1313.5, 353.0)"> </text><text xml:space="preserve" font-family="SourceSansPro-Regular" font-size="43.1" fill="#FEFFFF" transform="matrix(1.00, 0.00, -0.00, -1.00, 1322.1, 353.0)">v</text><text xml:space="preserve" font-family="SourceSansPro-Regular" font-size="43.1" fill="#FEFFFF" transform="matrix(1.00, 0.00, -0.00, -1.00, 1341.4, 353.0)">a</text><text xml:space="preserve" font-family="SourceSansPro-Regular" font-size="43.1" fill="#FEFFFF" transform="matrix(1.00, 0.00, -0.00, -1.00, 1363.2, 353.0)">l</text><text xml:space="preserve" font-family="SourceSansPro-Regular" font-size="43.1" fill="#FEFFFF" transform="matrix(1.00, 0.00, -0.00, -1.00, 1374.2, 353.0)">i</text><text xml:space="preserve" font-family="SourceSansPro-Regular" font-size="43.1" fill="#FEFFFF" transform="matrix(1.00, 0.00, -0.00, -1.00, 1384.8, 353.0)">d</text><text xml:space="preserve" font-family="SourceSansPro-Regular" font-size="43.1" fill="#FEFFFF" transform="matrix(1.00, 0.00, -0.00, -1.00, 1408.7, 353.0)">a</text><text xml:space="preserve" font-family="SourceSansPro-Regular" font-size="43.1" fill="#FEFFFF" transform="matrix(1.00, 0.00, -0.00, -1.00, 1430.4, 353.0)">ç</text><text xml:space="preserve" font-family="SourceSansPro-Regular" font-size="43.1" fill="#FEFFFF" transform="matrix(1.00, 0.00, -0.00, -1.00, 1449.7, 353.0)">ã</text><text xml:space="preserve" font-family="SourceSansPro-Regular" font-size="43.1" fill="#FEFFFF" transform="matrix(1.00, 0.00, -0.00, -1.00, 1471.4, 353.0)">o</text><text xml:space="preserve" font-family="SourceSansPro-Regular" font-size="43.1" fill="#FEFFFF" transform="matrix(1.00, 0.00, -0.00, -1.00, 1494.8, 353.0)"> </text><text xml:space="preserve" font-family="SourceSansPro-Regular" font-size="43.1" fill="#FEFFFF" transform="matrix(1.00, 0.00, -0.00, -1.00, 1503.4, 353.0)">d</text><text xml:space="preserve" font-family="SourceSansPro-Regular" font-size="43.1" fill="#FEFFFF" transform="matrix(1.00, 0.00, -0.00, -1.00, 1527.3, 353.0)">e</text><text xml:space="preserve" font-family="SourceSansPro-Regular" font-size="43.1" fill="#FEFFFF" transform="matrix(1.00, 0.00, -0.00, -1.00, 1548.7, 353.0)"> </text><text xml:space="preserve" font-family="SourceSansPro-Regular" font-size="43.1" fill="#FEFFFF" transform="matrix(1.00, 0.00, -0.00, -1.00, 560.0, 299.0)">p</text><text xml:space="preserve" font-family="SourceSansPro-Regular" font-size="43.1" fill="#FEFFFF" transform="matrix(1.00, 0.00, -0.00, -1.00, 583.3, 299.0)">a</text><text xml:space="preserve" font-family="SourceSansPro-Regular" font-size="43.1" fill="#FEFFFF" transform="matrix(1.00, 0.00, -0.00, -1.00, 605.1, 299.0)">r</text><text xml:space="preserve" font-family="SourceSansPro-Regular" font-size="43.1" fill="#FEFFFF" transform="matrix(1.00, 0.00, -0.00, -1.00, 619.0, 299.0)">â</text><text xml:space="preserve" font-family="SourceSansPro-Regular" font-size="43.1" fill="#FEFFFF" transform="matrix(1.00, 0.00, -0.00, -1.00, 640.7, 299.0)">m</text><text xml:space="preserve" font-family="SourceSansPro-Regular" font-size="43.1" fill="#FEFFFF" transform="matrix(1.00, 0.00, -0.00, -1.00, 676.5, 299.0)">e</text><text xml:space="preserve" font-family="SourceSansPro-Regular" font-size="43.1" fill="#FEFFFF" transform="matrix(1.00, 0.00, -0.00, -1.00, 697.4, 299.0)">t</text><text xml:space="preserve" font-family="SourceSansPro-Regular" font-size="43.1" fill="#FEFFFF" transform="matrix(1.00, 0.00, -0.00, -1.00, 712.0, 299.0)">r</text><text xml:space="preserve" font-family="SourceSansPro-Regular" font-size="43.1" fill="#FEFFFF" transform="matrix(1.00, 0.00, -0.00, -1.00, 726.5, 299.0)">o</text><text xml:space="preserve" font-family="SourceSansPro-Regular" font-size="43.1" fill="#FEFFFF" transform="matrix(1.00, 0.00, -0.00, -1.00, 749.9, 299.0)">s</text><text xml:space="preserve" font-family="SourceSansPro-Regular" font-size="43.1" fill="#FEFFFF" transform="matrix(1.00, 0.00, -0.00, -1.00, 768.0, 299.0)"> </text><text xml:space="preserve" font-family="SourceSansPro-Regular" font-size="43.1" fill="#FEFFFF" transform="matrix(1.00, 0.00, -0.00, -1.00, 776.6, 299.0)">p</text><text xml:space="preserve" font-family="SourceSansPro-Regular" font-size="43.1" fill="#FEFFFF" transform="matrix(1.00, 0.00, -0.00, -1.00, 800.5, 299.0)">e</text><text xml:space="preserve" font-family="SourceSansPro-Regular" font-size="43.1" fill="#FEFFFF" transform="matrix(1.00, 0.00, -0.00, -1.00, 821.9, 299.0)">l</text><text xml:space="preserve" font-family="SourceSansPro-Regular" font-size="43.1" fill="#FEFFFF" transform="matrix(1.00, 0.00, -0.00, -1.00, 832.9, 299.0)">o</text><text xml:space="preserve" font-family="SourceSansPro-Regular" font-size="43.1" fill="#FEFFFF" transform="matrix(1.00, 0.00, -0.00, -1.00, 856.3, 299.0)"> </text><text xml:space="preserve" font-family="SourceSansPro-Regular" font-size="43.1" fill="#FEFFFF" transform="matrix(1.00, 0.00, -0.00, -1.00, 864.9, 299.0)">c</text><text xml:space="preserve" font-family="SourceSansPro-Regular" font-size="43.1" fill="#FEFFFF" transform="matrix(1.00, 0.00, -0.00, -1.00, 884.6, 299.0)">l</text><text xml:space="preserve" font-family="SourceSansPro-Regular" font-size="43.1" fill="#FEFFFF" transform="matrix(1.00, 0.00, -0.00, -1.00, 895.6, 299.0)">i</text><text xml:space="preserve" font-family="SourceSansPro-Regular" font-size="43.1" fill="#FEFFFF" transform="matrix(1.00, 0.00, -0.00, -1.00, 906.2, 299.0)">e</text><text xml:space="preserve" font-family="SourceSansPro-Regular" font-size="43.1" fill="#FEFFFF" transform="matrix(1.00, 0.00, -0.00, -1.00, 927.6, 299.0)">n</text><text xml:space="preserve" font-family="SourceSansPro-Regular" font-size="43.1" fill="#FEFFFF" transform="matrix(1.00, 0.00, -0.00, -1.00, 951.1, 299.0)">t</text><text xml:space="preserve" font-family="SourceSansPro-Regular" font-size="43.1" fill="#FEFFFF" transform="matrix(1.00, 0.00, -0.00, -1.00, 965.1, 299.0)">e</text><text xml:space="preserve" font-family="SourceSansPro-Regular" font-size="43.1" fill="#FEFFFF" transform="matrix(1.00, 0.00, -0.00, -1.00, 986.5, 299.0)"> </text><text xml:space="preserve" font-family="SourceSansPro-Regular" font-size="43.1" fill="#FEFFFF" transform="matrix(1.00, 0.00, -0.00, -1.00, 995.1, 299.0)">q</text><text xml:space="preserve" font-family="SourceSansPro-Regular" font-size="43.1" fill="#FEFFFF" transform="matrix(1.00, 0.00, -0.00, -1.00, 1019.1, 299.0)">u</text><text xml:space="preserve" font-family="SourceSansPro-Regular" font-size="43.1" fill="#FEFFFF" transform="matrix(1.00, 0.00, -0.00, -1.00, 1042.5, 299.0)">e</text><text xml:space="preserve" font-family="SourceSansPro-Regular" font-size="43.1" fill="#FEFFFF" transform="matrix(1.00, 0.00, -0.00, -1.00, 1063.9, 299.0)"> </text><text xml:space="preserve" font-family="SourceSansPro-Regular" font-size="43.1" fill="#FEFFFF" transform="matrix(1.00, 0.00, -0.00, -1.00, 1072.5, 299.0)">f</text><text xml:space="preserve" font-family="SourceSansPro-Regular" font-size="43.1" fill="#FEFFFF" transform="matrix(1.00, 0.00, -0.00, -1.00, 1084.7, 299.0)">e</text><text xml:space="preserve" font-family="SourceSansPro-Regular" font-size="43.1" fill="#FEFFFF" transform="matrix(1.00, 0.00, -0.00, -1.00, 1106.1, 299.0)">z</text><text xml:space="preserve" font-family="SourceSansPro-Regular" font-size="43.1" fill="#FEFFFF" transform="matrix(1.00, 0.00, -0.00, -1.00, 1124.4, 299.0)"> </text><text xml:space="preserve" font-family="SourceSansPro-Regular" font-size="43.1" fill="#FEFFFF" transform="matrix(1.00, 0.00, -0.00, -1.00, 1133.0, 299.0)">a</text><text xml:space="preserve" font-family="SourceSansPro-Regular" font-size="43.1" fill="#FEFFFF" transform="matrix(1.00, 0.00, -0.00, -1.00, 1154.8, 299.0)"> </text><text xml:space="preserve" font-family="SourceSansPro-Regular" font-size="43.1" fill="#FEFFFF" transform="matrix(1.00, 0.00, -0.00, -1.00, 1163.4, 299.0)">r</text><text xml:space="preserve" font-family="SourceSansPro-Regular" font-size="43.1" fill="#FEFFFF" transform="matrix(1.00, 0.00, -0.00, -1.00, 1177.9, 299.0)">e</text><text xml:space="preserve" font-family="SourceSansPro-Regular" font-size="43.1" fill="#FEFFFF" transform="matrix(1.00, 0.00, -0.00, -1.00, 1199.3, 299.0)">q</text><text xml:space="preserve" font-family="SourceSansPro-Regular" font-size="43.1" fill="#FEFFFF" transform="matrix(1.00, 0.00, -0.00, -1.00, 1223.2, 299.0)">u</text><text xml:space="preserve" font-family="SourceSansPro-Regular" font-size="43.1" fill="#FEFFFF" transform="matrix(1.00, 0.00, -0.00, -1.00, 1246.7, 299.0)">i</text><text xml:space="preserve" font-family="SourceSansPro-Regular" font-size="43.1" fill="#FEFFFF" transform="matrix(1.00, 0.00, -0.00, -1.00, 1257.3, 299.0)">s</text><text xml:space="preserve" font-family="SourceSansPro-Regular" font-size="43.1" fill="#FEFFFF" transform="matrix(1.00, 0.00, -0.00, -1.00, 1275.4, 299.0)">i</text><text xml:space="preserve" font-family="SourceSansPro-Regular" font-size="43.1" fill="#FEFFFF" transform="matrix(1.00, 0.00, -0.00, -1.00, 1286.0, 299.0)">ç</text><text xml:space="preserve" font-family="SourceSansPro-Regular" font-size="43.1" fill="#FEFFFF" transform="matrix(1.00, 0.00, -0.00, -1.00, 1305.2, 299.0)">ã</text><text xml:space="preserve" font-family="SourceSansPro-Regular" font-size="43.1" fill="#FEFFFF" transform="matrix(1.00, 0.00, -0.00, -1.00, 1326.9, 299.0)">o</text><text xml:space="preserve" font-family="SourceSansPro-Regular" font-size="43.1" fill="#FEFFFF" transform="matrix(1.00, 0.00, -0.00, -1.00, 1349.9, 299.0)">.</text><text xml:space="preserve" font-family="SourceSansPro-Regular" font-size="43.1" fill="#FEFFFF" transform="matrix(1.00, 0.00, -0.00, -1.00, 1360.6, 299.0)"> </text><text xml:space="preserve" font-family="SourceSansPro-Regular" font-size="43.1" fill="#6FBF40" transform="matrix(1.00, 0.00, -0.00, -1.00, 752.0, 191.0)">h</text><text xml:space="preserve" font-family="SourceSansPro-Regular" font-size="43.1" fill="#6FBF40" transform="matrix(1.00, 0.00, -0.00, -1.00, 775.5, 191.0)">t</text><text xml:space="preserve" font-family="SourceSansPro-Regular" font-size="43.1" fill="#6FBF40" transform="matrix(1.00, 0.00, -0.00, -1.00, 789.2, 191.0)">t</text><text xml:space="preserve" font-family="SourceSansPro-Regular" font-size="43.1" fill="#6FBF40" transform="matrix(1.00, 0.00, -0.00, -1.00, 803.7, 191.0)">p</text><text xml:space="preserve" font-family="SourceSansPro-Regular" font-size="43.1" fill="#6FBF40" transform="matrix(1.00, 0.00, -0.00, -1.00, 827.7, 191.0)">:</text><text xml:space="preserve" font-family="SourceSansPro-Regular" font-size="43.1" fill="#6FBF40" transform="matrix(1.00, 0.00, -0.00, -1.00, 838.4, 191.0)">/</text><text xml:space="preserve" font-family="SourceSansPro-Regular" font-size="43.1" fill="#6FBF40" transform="matrix(1.00, 0.00, -0.00, -1.00, 853.5, 191.0)">/</text><text xml:space="preserve" font-family="SourceSansPro-Regular" font-size="43.1" fill="#6FBF40" transform="matrix(1.00, 0.00, -0.00, -1.00, 869.7, 191.0)">j</text><text xml:space="preserve" font-family="SourceSansPro-Regular" font-size="43.1" fill="#6FBF40" transform="matrix(1.00, 0.00, -0.00, -1.00, 880.3, 191.0)">s</text><text xml:space="preserve" font-family="SourceSansPro-Regular" font-size="43.1" fill="#6FBF40" transform="matrix(1.00, 0.00, -0.00, -1.00, 898.4, 191.0)">o</text><text xml:space="preserve" font-family="SourceSansPro-Regular" font-size="43.1" fill="#6FBF40" transform="matrix(1.00, 0.00, -0.00, -1.00, 921.8, 191.0)">n</text><text xml:space="preserve" font-family="SourceSansPro-Regular" font-size="43.1" fill="#6FBF40" transform="matrix(1.00, 0.00, -0.00, -1.00, 945.4, 191.0)">-</text><text xml:space="preserve" font-family="SourceSansPro-Regular" font-size="43.1" fill="#6FBF40" transform="matrix(1.00, 0.00, -0.00, -1.00, 958.8, 191.0)">s</text><text xml:space="preserve" font-family="SourceSansPro-Regular" font-size="43.1" fill="#6FBF40" transform="matrix(1.00, 0.00, -0.00, -1.00, 976.8, 191.0)">c</text><text xml:space="preserve" font-family="SourceSansPro-Regular" font-size="43.1" fill="#6FBF40" transform="matrix(1.00, 0.00, -0.00, -1.00, 996.5, 191.0)">h</text><text xml:space="preserve" font-family="SourceSansPro-Regular" font-size="43.1" fill="#6FBF40" transform="matrix(1.00, 0.00, -0.00, -1.00, 1019.9, 191.0)">e</text><text xml:space="preserve" font-family="SourceSansPro-Regular" font-size="43.1" fill="#6FBF40" transform="matrix(1.00, 0.00, -0.00, -1.00, 1041.3, 191.0)">m</text><text xml:space="preserve" font-family="SourceSansPro-Regular" font-size="43.1" fill="#6FBF40" transform="matrix(1.00, 0.00, -0.00, -1.00, 1077.1, 191.0)">a</text><text xml:space="preserve" font-family="SourceSansPro-Regular" font-size="43.1" fill="#6FBF40" transform="matrix(1.00, 0.00, -0.00, -1.00, 1098.8, 191.0)">.</text><text xml:space="preserve" font-family="SourceSansPro-Regular" font-size="43.1" fill="#6FBF40" transform="matrix(1.00, 0.00, -0.00, -1.00, 1109.1, 191.0)">o</text><text xml:space="preserve" font-family="SourceSansPro-Regular" font-size="43.1" fill="#6FBF40" transform="matrix(1.00, 0.00, -0.00, -1.00, 1132.4, 191.0)">r</text><text xml:space="preserve" font-family="SourceSansPro-Regular" font-size="43.1" fill="#6FBF40" transform="matrix(1.00, 0.00, -0.00, -1.00, 1147.0, 191.0)">g</text><g><clipPath id="clip-245"><path d="M 750.6 185.3 L 1168.4 185.3 L 1168.4 189.4 L 750.6 189.4 Z M 750.6 185.3 "></path></clipPath><g clip-path="url(#clip-245)"><path d="M 456.8 211.5 L 873.5 211.5 " fill="none" stroke="#6FBF40" stroke-width="2.16" stroke-miterlimit="0.00" transform="matrix(1.00, 0.00, 0.00, -1.00, 294.8, 398.8)"></path></g></g><path d="M 1775.0 1030.0 L 1875.0 1030.0 L 1875.0 961.0 L 1775.0 961.0 Z M 1775.0 1030.0 " fill="#52575F"></path><g><clipPath id="clip-246"><path d="M 1766.5 952.5 L 1883.5 952.5 L 1883.5 1038.5 L 1766.5 1038.5 Z M 1766.5 952.5 "></path></clipPath><g clip-path="url(#clip-246)"><text xml:space="preserve" font-family="BebasNeueBold" font-weight="bold" font-size="50.0" fill="#FEFFFF" transform="matrix(1.00, 0.00, -0.00, -1.00, 1805.0, 978.0)"> </text><text xml:space="preserve" font-family="BebasNeueBold" font-weight="bold" font-size="50.0" fill="#FEFFFF" transform="matrix(1.00, 0.00, -0.00, -1.00, 1805.0, 978.0)">2</text><text xml:space="preserve" font-family="BebasNeueBold" font-weight="bold" font-size="50.0" fill="#FEFFFF" transform="matrix(1.00, 0.00, -0.00, -1.00, 1824.8, 978.0)">8</text></g></g></g></svg>