<?xml version="1.0" encoding="UTF-8" standalone="no"?><svg xmlns="http://www.w3.org/2000/svg" xmlns:xlink="http://www.w3.org/1999/xlink" clip-rule="evenodd" stroke-miterlimit="4.00" viewBox="0 0 1920 1080"><desc>SVG generated by Keynote</desc><defs></defs><g transform="matrix(1.00, 0.00, -0.00, -1.00, 0.0, 1080.0)"><path d="M 0.0 1080.0 L 1920.0 1080.0 L 1920.0 0.0 L 0.0 0.0 Z M 0.0 1080.0 " fill="#011202"></path><g opacity="0.20"><g><clipPath id="clip-12"><path d="M -388.0 1073.0 L 1597.0 1073.0 L 1597.0 -43.0 L -388.0 -43.0 Z M -387.6 1073.4 "></path></clipPath><g clip-path="url(#clip-12)"><g><clipPath id="clip-13"><path d="M 0.0 0.0 L 1599.0 0.0 L 1599.0 1075.0 L 0.0 1075.0 Z M 0.0 0.0 "></path></clipPath><g clip-path="url(#clip-13)"><image xlink:href="../../49B0041F-D2B6-45AE-B257-4A439451C92F/assets/B228464CFD24B2F5EBCCD1634B028323.jpeg" width="769.00" height="769.00" transform="matrix(2.58, 0.00, -0.00, -2.58, -388.0, 1508.0)"></image></g></g></g></g></g><g><clipPath id="clip-14"><path d="M 693.0 1080.0 L 2133.0 1080.0 L 2133.0 0.0 L 693.0 0.0 Z M 693.2 1080.0 "></path></clipPath><g clip-path="url(#clip-14)"><image xlink:href="../../49B0041F-D2B6-45AE-B257-4A439451C92F/assets/23497D77A7F06362AFD4423070F345EA.jpeg" width="1366.00" height="768.00" transform="matrix(1.41, 0.00, -0.00, -1.41, 453.0, 1080.0)"></image></g></g><text xml:space="preserve" font-family="BebasNeueBold" font-weight="bold" font-size="115.0" fill="#FEFFFF" transform="matrix(1.00, 0.00, -0.00, -1.00, 713.0, 286.0)">C</text><text xml:space="preserve" font-family="BebasNeueBold" font-weight="bold" font-size="115.0" fill="#FEFFFF" transform="matrix(1.00, 0.00, -0.00, -1.00, 757.4, 286.0)">h</text><text xml:space="preserve" font-family="BebasNeueBold" font-weight="bold" font-size="115.0" fill="#FEFFFF" transform="matrix(1.00, 0.00, -0.00, -1.00, 806.5, 286.0)">r</text><text xml:space="preserve" font-family="BebasNeueBold" font-weight="bold" font-size="115.0" fill="#FEFFFF" transform="matrix(1.00, 0.00, -0.00, -1.00, 852.7, 286.0)">i</text><text xml:space="preserve" font-family="BebasNeueBold" font-weight="bold" font-size="115.0" fill="#FEFFFF" transform="matrix(1.00, 0.00, -0.00, -1.00, 874.6, 286.0)">s</text><text xml:space="preserve" font-family="BebasNeueBold" font-weight="bold" font-size="115.0" fill="#FEFFFF" transform="matrix(1.00, 0.00, -0.00, -1.00, 917.6, 286.0)">t</text><text xml:space="preserve" font-family="BebasNeueBold" font-weight="bold" font-size="115.0" fill="#FEFFFF" transform="matrix(1.00, 0.00, -0.00, -1.00, 958.5, 286.0)">o</text><text xml:space="preserve" font-family="BebasNeueBold" font-weight="bold" font-size="115.0" fill="#FEFFFF" transform="matrix(1.00, 0.00, -0.00, -1.00, 1004.1, 286.0)">p</text><text xml:space="preserve" font-family="BebasNeueBold" font-weight="bold" font-size="115.0" fill="#FEFFFF" transform="matrix(1.00, 0.00, -0.00, -1.00, 1047.4, 286.0)">h</text><text xml:space="preserve" font-family="BebasNeueBold" font-weight="bold" font-size="115.0" fill="#FEFFFF" transform="matrix(1.00, 0.00, -0.00, -1.00, 1096.5, 286.0)">e</text><text xml:space="preserve" font-family="BebasNeueBold" font-weight="bold" font-size="115.0" fill="#FEFFFF" transform="matrix(1.00, 0.00, -0.00, -1.00, 1138.8, 286.0)">r</text><text xml:space="preserve" font-family="BebasNeueBold" font-weight="bold" font-size="115.0" fill="#FEFFFF" transform="matrix(1.00, 0.00, -0.00, -1.00, 1185.1, 286.0)"> </text><text xml:space="preserve" font-family="BebasNeueBold" font-weight="bold" font-size="115.0" fill="#FEFFFF" transform="matrix(1.00, 0.00, -0.00, -1.00, 1202.9, 286.0)">E</text><text xml:space="preserve" font-family="BebasNeueBold" font-weight="bold" font-size="115.0" fill="#FEFFFF" transform="matrix(1.00, 0.00, -0.00, -1.00, 1245.2, 286.0)">n</text><text xml:space="preserve" font-family="BebasNeueBold" font-weight="bold" font-size="115.0" fill="#FEFFFF" transform="matrix(1.00, 0.00, -0.00, -1.00, 1294.3, 286.0)">y</text><text xml:space="preserve" font-family="BebasNeueBold" font-weight="bold" font-size="115.0" fill="#FEFFFF" transform="matrix(1.00, 0.00, -0.00, -1.00, 1339.9, 286.0)">t</text><text xml:space="preserve" font-family="BebasNeueBold" font-weight="bold" font-size="115.0" fill="#FEFFFF" transform="matrix(1.00, 0.00, -0.00, -1.00, 1380.8, 286.0)">c</text><text xml:space="preserve" font-family="SourceSansPro-Semibold" font-weight="bold" font-size="35.0" fill="#FEFFFF" transform="matrix(1.00, 0.00, -0.00, -1.00, 710.0, 195.0)">D</text><text xml:space="preserve" font-family="SourceSansPro-Semibold" font-weight="bold" font-size="35.0" fill="#FEFFFF" transform="matrix(1.00, 0.00, -0.00, -1.00, 731.9, 195.0)">e</text><text xml:space="preserve" font-family="SourceSansPro-Semibold" font-weight="bold" font-size="35.0" fill="#FEFFFF" transform="matrix(1.00, 0.00, -0.00, -1.00, 749.6, 195.0)">v</text><text xml:space="preserve" font-family="SourceSansPro-Semibold" font-weight="bold" font-size="35.0" fill="#FEFFFF" transform="matrix(1.00, 0.00, -0.00, -1.00, 766.7, 195.0)">e</text><text xml:space="preserve" font-family="SourceSansPro-Semibold" font-weight="bold" font-size="35.0" fill="#FEFFFF" transform="matrix(1.00, 0.00, -0.00, -1.00, 784.5, 195.0)">l</text><text xml:space="preserve" font-family="SourceSansPro-Semibold" font-weight="bold" font-size="35.0" fill="#FEFFFF" transform="matrix(1.00, 0.00, -0.00, -1.00, 794.0, 195.0)">o</text><text xml:space="preserve" font-family="SourceSansPro-Semibold" font-weight="bold" font-size="35.0" fill="#FEFFFF" transform="matrix(1.00, 0.00, -0.00, -1.00, 813.2, 195.0)">p</text><text xml:space="preserve" font-family="SourceSansPro-Semibold" font-weight="bold" font-size="35.0" fill="#FEFFFF" transform="matrix(1.00, 0.00, -0.00, -1.00, 832.9, 195.0)">e</text><text xml:space="preserve" font-family="SourceSansPro-Semibold" font-weight="bold" font-size="35.0" fill="#FEFFFF" transform="matrix(1.00, 0.00, -0.00, -1.00, 850.7, 195.0)">r</text><text xml:space="preserve" font-family="SourceSansPro-Semibold" font-weight="bold" font-size="35.0" fill="#FEFFFF" transform="matrix(1.00, 0.00, -0.00, -1.00, 863.7, 195.0)"> </text><text xml:space="preserve" font-family="SourceSansPro-Semibold" font-weight="bold" font-size="35.0" fill="#FEFFFF" transform="matrix(1.00, 0.00, -0.00, -1.00, 870.7, 195.0)">E</text><text xml:space="preserve" font-family="SourceSansPro-Semibold" font-weight="bold" font-size="35.0" fill="#FEFFFF" transform="matrix(1.00, 0.00, -0.00, -1.00, 889.2, 195.0)">v</text><text xml:space="preserve" font-family="SourceSansPro-Semibold" font-weight="bold" font-size="35.0" fill="#FEFFFF" transform="matrix(1.00, 0.00, -0.00, -1.00, 905.8, 195.0)">a</text><text xml:space="preserve" font-family="SourceSansPro-Semibold" font-weight="bold" font-size="35.0" fill="#FEFFFF" transform="matrix(1.00, 0.00, -0.00, -1.00, 923.9, 195.0)">n</text><text xml:space="preserve" font-family="SourceSansPro-Semibold" font-weight="bold" font-size="35.0" fill="#FEFFFF" transform="matrix(1.00, 0.00, -0.00, -1.00, 943.5, 195.0)">g</text><text xml:space="preserve" font-family="SourceSansPro-Semibold" font-weight="bold" font-size="35.0" fill="#FEFFFF" transform="matrix(1.00, 0.00, -0.00, -1.00, 961.1, 195.0)">e</text><text xml:space="preserve" font-family="SourceSansPro-Semibold" font-weight="bold" font-size="35.0" fill="#FEFFFF" transform="matrix(1.00, 0.00, -0.00, -1.00, 978.9, 195.0)">l</text><text xml:space="preserve" font-family="SourceSansPro-Semibold" font-weight="bold" font-size="35.0" fill="#FEFFFF" transform="matrix(1.00, 0.00, -0.00, -1.00, 988.4, 195.0)">i</text><text xml:space="preserve" font-family="SourceSansPro-Semibold" font-weight="bold" font-size="35.0" fill="#FEFFFF" transform="matrix(1.00, 0.00, -0.00, -1.00, 997.5, 195.0)">s</text><text xml:space="preserve" font-family="SourceSansPro-Semibold" font-weight="bold" font-size="35.0" fill="#FEFFFF" transform="matrix(1.00, 0.00, -0.00, -1.00, 1011.9, 195.0)">t</text><text xml:space="preserve" font-family="SourceSansPro-Semibold" font-weight="bold" font-size="35.0" fill="#FEFFFF" transform="matrix(1.00, 0.00, -0.00, -1.00, 1024.5, 195.0)"> </text><text xml:space="preserve" font-family="SourceSansPro-Semibold" font-weight="bold" font-size="35.0" fill="#FEFFFF" transform="matrix(1.00, 0.00, -0.00, -1.00, 1031.5, 195.0)">a</text><text xml:space="preserve" font-family="SourceSansPro-Semibold" font-weight="bold" font-size="35.0" fill="#FEFFFF" transform="matrix(1.00, 0.00, -0.00, -1.00, 1049.0, 195.0)">t</text><text xml:space="preserve" font-family="SourceSansPro-Semibold" font-weight="bold" font-size="35.0" fill="#FEFFFF" transform="matrix(1.00, 0.00, -0.00, -1.00, 1061.7, 195.0)"> </text><text xml:space="preserve" font-family="SourceSansPro-Semibold" font-weight="bold" font-size="35.0" fill="#FEFFFF" transform="matrix(1.00, 0.00, -0.00, -1.00, 1068.7, 195.0)">P</text><text xml:space="preserve" font-family="SourceSansPro-Semibold" font-weight="bold" font-size="35.0" fill="#FEFFFF" transform="matrix(1.00, 0.00, -0.00, -1.00, 1087.7, 195.0)">a</text><text xml:space="preserve" font-family="SourceSansPro-Semibold" font-weight="bold" font-size="35.0" fill="#FEFFFF" transform="matrix(1.00, 0.00, -0.00, -1.00, 1105.8, 195.0)">g</text><text xml:space="preserve" font-family="SourceSansPro-Semibold" font-weight="bold" font-size="35.0" fill="#FEFFFF" transform="matrix(1.00, 0.00, -0.00, -1.00, 1123.3, 195.0)">a</text><text xml:space="preserve" font-family="SourceSansPro-Semibold" font-weight="bold" font-size="35.0" fill="#FEFFFF" transform="matrix(1.00, 0.00, -0.00, -1.00, 1141.4, 195.0)">r</text><text xml:space="preserve" font-family="SourceSansPro-Semibold" font-weight="bold" font-size="35.0" fill="#FEFFFF" transform="matrix(1.00, 0.00, -0.00, -1.00, 1151.9, 195.0)">.</text><text xml:space="preserve" font-family="SourceSansPro-Semibold" font-weight="bold" font-size="35.0" fill="#FEFFFF" transform="matrix(1.00, 0.00, -0.00, -1.00, 1161.5, 195.0)">m</text><text xml:space="preserve" font-family="SourceSansPro-Semibold" font-weight="bold" font-size="35.0" fill="#FEFFFF" transform="matrix(1.00, 0.00, -0.00, -1.00, 1191.0, 195.0)">e</text><g><clipPath id="clip-15"><path d="M 1067.8 190.6 L 1208.9 190.6 L 1208.9 194.3 L 1067.8 194.3 Z M 1067.8 190.6 "></path></clipPath><g clip-path="url(#clip-15)"><path d="M 362.7 41.1 L 502.8 41.1 " fill="none" stroke="#FEFFFF" stroke-width="1.75" stroke-miterlimit="0.00" transform="matrix(1.00, 0.00, 0.00, -1.00, 706.1, 233.5)"></path></g></g><path d="M 641.3 1080.0 L 691.3 1080.0 L 691.3 -0.0 L 641.3 -0.0 Z M 641.3 1080.0 " fill="#6FBF40"></path><path d="M 640.6 260.0 L 1920.0 260.0 L 1920.0 254.5 L 640.6 254.5 Z M 640.6 260.0 " fill="#6FBF40"></path><path d="M 712.8 160.6 L 771.0 160.6 L 771.0 100.9 L 712.8 100.9 Z M 712.8 160.6 " fill="#FEFFFF"></path><g><clipPath id="clip-16"><path d="M 706.4 97.0 L 777.4 97.0 L 777.4 161.0 L 706.4 161.0 Z M 706.4 97.0 "></path></clipPath><g clip-path="url(#clip-16)"><text xml:space="preserve" font-family="Ionicons" font-size="40.0" fill="#000000" transform="matrix(1.00, 0.00, -0.00, -1.00, 724.0, 116.0)"></text></g></g><text xml:space="preserve" font-family="SourceSansPro-Semibold" font-weight="bold" font-size="35.0" fill="#FEFFFF" transform="matrix(1.00, 0.00, -0.00, -1.00, 797.0, 122.0)">c</text><text xml:space="preserve" font-family="SourceSansPro-Semibold" font-weight="bold" font-size="35.0" fill="#FEFFFF" transform="matrix(1.00, 0.00, -0.00, -1.00, 813.2, 122.0)">h</text><text xml:space="preserve" font-family="SourceSansPro-Semibold" font-weight="bold" font-size="35.0" fill="#FEFFFF" transform="matrix(1.00, 0.00, -0.00, -1.00, 832.7, 122.0)">r</text><text xml:space="preserve" font-family="SourceSansPro-Semibold" font-weight="bold" font-size="35.0" fill="#FEFFFF" transform="matrix(1.00, 0.00, -0.00, -1.00, 845.8, 122.0)">i</text><text xml:space="preserve" font-family="SourceSansPro-Semibold" font-weight="bold" font-size="35.0" fill="#FEFFFF" transform="matrix(1.00, 0.00, -0.00, -1.00, 854.9, 122.0)">s</text><text xml:space="preserve" font-family="SourceSansPro-Semibold" font-weight="bold" font-size="35.0" fill="#FEFFFF" transform="matrix(1.00, 0.00, -0.00, -1.00, 870.0, 122.0)">e</text><text xml:space="preserve" font-family="SourceSansPro-Semibold" font-weight="bold" font-size="35.0" fill="#FEFFFF" transform="matrix(1.00, 0.00, -0.00, -1.00, 887.8, 122.0)">n</text><text xml:space="preserve" font-family="SourceSansPro-Semibold" font-weight="bold" font-size="35.0" fill="#FEFFFF" transform="matrix(1.00, 0.00, -0.00, -1.00, 907.4, 122.0)">y</text><text xml:space="preserve" font-family="SourceSansPro-Semibold" font-weight="bold" font-size="35.0" fill="#FEFFFF" transform="matrix(1.00, 0.00, -0.00, -1.00, 924.7, 122.0)">t</text><text xml:space="preserve" font-family="SourceSansPro-Semibold" font-weight="bold" font-size="35.0" fill="#FEFFFF" transform="matrix(1.00, 0.00, -0.00, -1.00, 936.8, 122.0)">c</text><path d="M 712.8 80.0 L 772.9 80.0 L 772.9 20.2 L 712.8 20.2 Z M 712.8 80.0 " fill="#FEFFFF"></path><g><clipPath id="clip-17"><path d="M 706.4 16.4 L 779.3 16.4 L 779.3 80.4 L 706.4 80.4 Z M 706.4 16.4 "></path></clipPath><g clip-path="url(#clip-17)"><text xml:space="preserve" font-family="Ionicons" font-size="40.0" fill="#000000" transform="matrix(1.00, 0.00, -0.00, -1.00, 724.0, 35.0)"></text></g></g><text xml:space="preserve" font-family="SourceSansPro-Semibold" font-weight="bold" font-size="35.0" fill="#FEFFFF" transform="matrix(1.00, 0.00, -0.00, -1.00, 797.0, 42.0)">c</text><text xml:space="preserve" font-family="SourceSansPro-Semibold" font-weight="bold" font-size="35.0" fill="#FEFFFF" transform="matrix(1.00, 0.00, -0.00, -1.00, 813.2, 42.0)">h</text><text xml:space="preserve" font-family="SourceSansPro-Semibold" font-weight="bold" font-size="35.0" fill="#FEFFFF" transform="matrix(1.00, 0.00, -0.00, -1.00, 832.7, 42.0)">r</text><text xml:space="preserve" font-family="SourceSansPro-Semibold" font-weight="bold" font-size="35.0" fill="#FEFFFF" transform="matrix(1.00, 0.00, -0.00, -1.00, 845.8, 42.0)">i</text><text xml:space="preserve" font-family="SourceSansPro-Semibold" font-weight="bold" font-size="35.0" fill="#FEFFFF" transform="matrix(1.00, 0.00, -0.00, -1.00, 854.9, 42.0)">s</text><text xml:space="preserve" font-family="SourceSansPro-Semibold" font-weight="bold" font-size="35.0" fill="#FEFFFF" transform="matrix(1.00, 0.00, -0.00, -1.00, 870.0, 42.0)">e</text><text xml:space="preserve" font-family="SourceSansPro-Semibold" font-weight="bold" font-size="35.0" fill="#FEFFFF" transform="matrix(1.00, 0.00, -0.00, -1.00, 887.8, 42.0)">n</text><text xml:space="preserve" font-family="SourceSansPro-Semibold" font-weight="bold" font-size="35.0" fill="#FEFFFF" transform="matrix(1.00, 0.00, -0.00, -1.00, 907.4, 42.0)">y</text><text xml:space="preserve" font-family="SourceSansPro-Semibold" font-weight="bold" font-size="35.0" fill="#FEFFFF" transform="matrix(1.00, 0.00, -0.00, -1.00, 924.7, 42.0)">t</text><text xml:space="preserve" font-family="SourceSansPro-Semibold" font-weight="bold" font-size="35.0" fill="#FEFFFF" transform="matrix(1.00, 0.00, -0.00, -1.00, 936.8, 42.0)">c</text></g></svg>