<?xml version="1.0" encoding="UTF-8" standalone="no"?><svg xmlns="http://www.w3.org/2000/svg" xmlns:xlink="http://www.w3.org/1999/xlink" clip-rule="evenodd" stroke-miterlimit="4.00" viewBox="0 0 420 103"><desc>SVG generated by Keynote</desc><defs></defs><g transform="matrix(1.00, 0.00, -0.00, -1.00, 0.0, 103.0)"><path d="M 1.3 101.9 L 378.1 101.9 L 418.7 51.9 L 378.1 1.9 L 1.3 1.9 L 40.4 51.9 L 1.3 101.9 Z M 1.3 101.9 " fill="#52575F"></path><g><clipPath id="clip-86"><path d="M 1.3 -12.3 L 418.7 -12.3 L 418.7 115.2 L 1.3 115.2 Z M 1.3 -12.3 "></path></clipPath><g clip-path="url(#clip-86)"><text xml:space="preserve" font-family="BebasNeueBold" font-weight="bold" font-size="75.0" fill="#FEFFFF" transform="matrix(1.00, 0.00, -0.00, -1.00, 58.0, 25.0)">a</text><text xml:space="preserve" font-family="BebasNeueBold" font-weight="bold" font-size="75.0" fill="#FEFFFF" transform="matrix(1.00, 0.00, -0.00, -1.00, 88.5, 25.0)">r</text><text xml:space="preserve" font-family="BebasNeueBold" font-weight="bold" font-size="75.0" fill="#FEFFFF" transform="matrix(1.00, 0.00, -0.00, -1.00, 118.7, 25.0)">q</text><text xml:space="preserve" font-family="BebasNeueBold" font-weight="bold" font-size="75.0" fill="#FEFFFF" transform="matrix(1.00, 0.00, -0.00, -1.00, 148.4, 25.0)">u</text><text xml:space="preserve" font-family="BebasNeueBold" font-weight="bold" font-size="75.0" fill="#FEFFFF" transform="matrix(1.00, 0.00, -0.00, -1.00, 178.2, 25.0)">i</text><text xml:space="preserve" font-family="BebasNeueBold" font-weight="bold" font-size="75.0" fill="#FEFFFF" transform="matrix(1.00, 0.00, -0.00, -1.00, 192.5, 25.0)">t</text><text xml:space="preserve" font-family="BebasNeueBold" font-weight="bold" font-size="75.0" fill="#FEFFFF" transform="matrix(1.00, 0.00, -0.00, -1.00, 219.2, 25.0)">e</text><text xml:space="preserve" font-family="BebasNeueBold" font-weight="bold" font-size="75.0" fill="#FEFFFF" transform="matrix(1.00, 0.00, -0.00, -1.00, 246.8, 25.0)">t</text><text xml:space="preserve" font-family="BebasNeueBold" font-weight="bold" font-size="75.0" fill="#FEFFFF" transform="matrix(1.00, 0.00, -0.00, -1.00, 273.5, 25.0)">u</text><text xml:space="preserve" font-family="BebasNeueBold" font-weight="bold" font-size="75.0" fill="#FEFFFF" transform="matrix(1.00, 0.00, -0.00, -1.00, 303.3, 25.0)">r</text><text xml:space="preserve" font-family="BebasNeueBold" font-weight="bold" font-size="75.0" fill="#FEFFFF" transform="matrix(1.00, 0.00, -0.00, -1.00, 333.5, 25.0)">a</text></g></g></g></svg>