<?xml version="1.0" ?><!DOCTYPE svg  PUBLIC '-//W3C//DTD SVG 1.1//EN'  'http://www.w3.org/Graphics/SVG/1.1/DTD/svg11.dtd'><svg enable-background="new 0 0 500 500" fill="white" height="500px" id="Layer_1" version="1.1" viewBox="0 0 500 500" width="500px" xml:space="preserve" xmlns="http://www.w3.org/2000/svg" xmlns:xlink="http://www.w3.org/1999/xlink"><g><path d="M356.993,330.037h-214V170.483h214V330.037z M344.723,308.374V190.752l-56.385,56.481L344.723,308.374z M260.304,275.316    c-3.144,3.148-7.324,4.884-11.771,4.887c-0.005,0-0.01,0-0.015,0c-4.443,0-8.621-1.729-11.764-4.868l-15.81-15.783l-57.187,58.215    h172.937l-57.03-61.843L260.304,275.316z M248.518,267.933h0.003c1.171,0,2.272-0.457,3.099-1.286l83.75-83.894H161.383    l84.04,83.899C246.25,267.479,247.349,267.933,248.518,267.933z M155.263,193.982v114.92l56.995-58.02L155.263,193.982z"/></g></svg>